/* XPM */
static char *result[] = {
/* columns rows colors chars-per-pixel */
"70 70 123 2 ",
"   c #1B0F1A",
".  c #1E131D",
"X  c #21151E",
"o  c #28171D",
"O  c #26191F",
"+  c #2B1A1E",
"@  c #1F1620",
"#  c #1F1923",
"$  c #221721",
"%  c #241A24",
"&  c #2B1C22",
"*  c #261E28",
"=  c #291E28",
"-  c #321F23",
";  c #2F2022",
":  c #26212B",
">  c #2C222C",
",  c #342024",
"<  c #31252E",
"1  c #3E2928",
"2  c #2F2631",
"3  c #2D2A33",
"4  c #2F2838",
"5  c #312631",
"6  c #332A34",
"7  c #392D33",
"8  c #332D39",
"9  c #3C3137",
"0  c #37323B",
"q  c #39343D",
"w  c #452E28",
"e  c #563F2E",
"r  c #5D3B2C",
"t  c #4F3631",
"y  c #45383C",
"u  c #483B3D",
"i  c #734530",
"p  c #7F4C33",
"a  c #373244",
"s  c #3C3640",
"d  c #353A42",
"f  c #3E3942",
"g  c #3D3A4D",
"h  c #423C45",
"j  c #453F49",
"k  c #413F54",
"l  c #3C4349",
"z  c #3F4C51",
"x  c #4F4042",
"c  c #46414B",
"v  c #4A444E",
"b  c #4F484F",
"n  c #524444",
"m  c #534A4E",
"M  c #5A4D4D",
"N  c #444156",
"B  c #4C4650",
"V  c #424E55",
"C  c #4E4953",
"Z  c #444359",
"A  c #544C51",
"S  c #594F52",
"D  c #445156",
"F  c #465559",
"G  c #48575B",
"H  c #4A5A5E",
"J  c #5D5253",
"K  c #5F5558",
"L  c #615656",
"P  c #665957",
"I  c #6C5B56",
"U  c #655A5A",
"Y  c #6C5E5B",
"T  c #6D605C",
"R  c #73635D",
"E  c #4D4E65",
"W  c #4B5D61",
"Q  c #51536C",
"!  c #545671",
"~  c #575A75",
"^  c #585D77",
"/  c #5B5F7C",
"(  c #4E6165",
")  c #4E6468",
"_  c #516367",
"`  c #51666A",
"'  c #53696D",
"]  c #566D71",
"[  c #597275",
"{  c #5B7679",
"}  c #5E7A7C",
"|  c #746561",
" . c #776A64",
".. c #7C6C64",
"X. c #607D7F",
"o. c #84593C",
"O. c #875E40",
"+. c #8D6444",
"@. c #946946",
"#. c #976C48",
"$. c #986C48",
"%. c #806F66",
"&. c #847269",
"*. c #89776D",
"=. c #87786E",
"-. c #8B796E",
";. c #8C7B71",
":. c #BF964F",
">. c #B48751",
",. c #B88B52",
"<. c #BE9051",
"1. c #C19750",
"2. c #CBA554",
"3. c #D5B45C",
"4. c #D9B75D",
"5. c #5E6380",
"6. c #606683",
"7. c #636987",
"8. c #666D8C",
"9. c #648385",
"0. c #668788",
"q. c #66898A",
"w. c #6A8D8E",
/* pixels */
"8.w.w.w.8.w.w.w.w.8.w.w.w.w.w.` 6 L J J J J J J J J J J J J y $ . . . . 8.w.w.w.q.8.w.w.w.w.w.w.8.w.w.w.8.w.w.w.w.8.w.w.w.w.w.w.8.w.w.w.8.w.",
"8.w.w.w.8.w.w.w.w.8.w.w.w.w.` 5 L J J J J J J J J J J J J J J J J J J L . X . . > 8.w.q.w.w.w.w.8.w.w.w.8.w.w.w.w.8.w.w.w.w.w.w.8.w.w.w.8.w.",
"8.8.8.8.8.8.w.8.8.8.w.8.8.! . 5 K S c v v v S J J J J J J J J J J J J J J L &.&.R . $ $ 8 7.7.7.7.8.8.8.8.8.w.8.8.8.w.8.8.8.8.8.8.8.8.8.8.8.",
"8.w.w.w.w.w.w.8.w.w.w.8.w.' 5 U J v B v v v v c c v c J J J J J J J J J J J J J %.&.&.*.P . % & c w.9.w.w.w.w.8.w.w.w.8.w.w.w.8.8.w.w.w.w.w.",
"8.w.w.w.w.w.w.8.w.w.w.8.[ > U J S c v v v v v v v v v J J J J J J J J J J J J J S J L %...&.&.-.M @ = F 0.9.w.8.w.w.w.8.w.w.w.8.8.w.w.w.w.w.",
"8.w.w.w.w.w.w.8.w.w.w.8.' 1 U S c v v v v v v v v v J J J J J J J J J J J J J J J J J S J J Y ....&.;.x % = Q ] w.w.w.8.w.w.w.8.8.w.w.w.w.w.",
"8.w.w.w.w.w.w.8.w.w.w.^ > U J A c v v v v v v v v S J J J J J J J L L L L J J J S S J J J J J S J Y ....&.=.u > W 8.w.8.8.8.8.8.8.w.w.w.w.w.",
"8.8.8.8.8.8.8.8.w.w.w.Q 6 J S c v v v v v v v v c J J J J J J J J ..&.&.&. .c v v A S J J J J J J J J J S M R ;.u O _ 8.w.w.w.w.8.8.8.8.8.8.",
"8.w.w.w.8.w.w.8.8.8.E = U A c B v v v v c v v v B A S J J J J J J J  . .| c B v v c B B S A J J J J L S S S v U =.M = / w.w.w.w.8.w.w.w.8.w.",
"8.w.w.w.8.w.w.8.w.9.$ 2 B c v v v v v h q h c v c c B c S S J J J J M M c v c B v v v v B j B J J S S b j v v j T -.= 5.w.w.w.w.8.w.w.w.8.w.",
"8.w.w.w.8.w.w.8.q._ % A v v v v v v v B h q q h B c v v c c c M S S c B v v v v v v c B B B c B S A j B B B B v m R < / w.w.w.w.8.w.w.w.8.w.",
"8.w.w.w.8.w.w.8.0.$ 6 B v v v v v v v v v B f c B B v v v B v v c c v v v v v c v v B B c v v B v v v v v v j m J K ; [ w.w.w.w.8.w.w.w.8.w.",
"8.w.8.8.8.w.w.8.W % C v B B B v v v v v v v v B v v v v v v v v B B v v v v v A A m L M v c B B v v v v B v B S L L 9 H q.w.w.w.8.w.8.8.8.w.",
"8.w.w.w.8.w.8.7.$ 0 B B h h h j v B v B v v v v v v c v v v v v v v B B v v B S J J L Y U J A c v v v v j b S L S S U = 6.8.8.8.8.w.w.w.8.w.",
"8.w.w.w.8.w.w.0.% A h f 8 0 0 q h h h h h c B v B v B v v v v v B h h h B B B v S J P &.&.&.K c v v v v m S J L L S L = V w.w.w.8.w.w.w.8.w.",
"8.w.w.w.8.w.w.q.g 0 0 0 0 0 0 0 8 0 0 0 0 s h h h c v B v v v j f 0 0 0 f h B c v S L  ...J j B v v v m S L S J S L L % 7 D D w.8.w.w.w.8.w.",
"8.w.w.w.8.w.w.w.w.. q q 0 0 0 0 0 0 0 0 0 0 0 7 8 h h h h c j 0 0 0 0 0 8 0 j B v v A S K j v v v v v A J J J J J J L $ T n n F 8.w.w.w.8.w.",
"8.w.w.w.8.w.w.w.8.$ 3 q 0 0 0 0 0 0 0 0 0 0 0 0 0 0 8 0 8 h 0 0 0 0 0 0 0 0 0 h h v v v c v v v j B v A L J J J J J L $ P R -.. k w.w.w.8.w.",
"8.8.8.8.8.8.w.8.7.k $ 0 0 0 0 0 0 0 0 0 0 0 0 q 0 0 0 0 0 0 0 0 0 0 0 0 0 0 0 0 0 B v v B B v A A m v v A m J S L J L . M S Y M X 8.8.8.8.8.",
"8.w.w.w.w.w.w.8.w.0.$ 2 q 0 0 0 0 0 q 0 0 0 0 q j q 0 0 0 0 0 0 0 0 0 0 0 0 0 q j v v v v v S J J A v v v v b m m m L u 5 S J R . w.w.w.w.w.",
"8.w.w.w.w.w.w.8.w.w.Z % q 0 0 0 0 0 0 0 0 0 0 c B j j 0 0 0 0 0 0 0 q 0 0 0 0 q B v v v v m J J J A v v v v v v c v C S . M J J . w.w.w.w.w.",
"8.w.w.w.w.w.w.8.w.w.w.N > q 0 0 0 0 0 0 0 0 0 c v v b q 0 0 0 0 0 0 0 0 0 0 0 q B B v v v v S J L A v v v v v v B v B B . m A A X w.w.w.w.w.",
"8., , , , , , , w.w.w.] * q 0 0 0 0 0 0 0 0 0 0 h h h q 0 0 0 0 0 0 0 0 0 0 0 0 q h B v v v m L S v v v v v v v v v v B @ > 2 2 Q w.w.w.w.w.",
"1 4.4.4.4.4.4.4.- w.w.7.G > q 0 0 0 q 0 0 0 0 q 0 0 0 0 0 0 0 0 q 0 0 0 0 0 0 0 0 8 h j B c A J v v v v v v v v v v B B $ ) ` ` 8.- - - - w ",
"4.4.4.4.4.4.4.4.4.- 8.8.{ % q q q 0 0 q q q q q q 0 0 q 0 0 0 0 0 0 0 0 0 0 0 q 0 0 0 s B v v v v v v v v v v v v v v B % 0.w.w.- w 1.1.1.4.",
"1.1.1.1.1.2.4.4.4.4., 8.q.H : 6 3 6 6 6 5 5 5 6 6 6 6 6 0 0 0 0 0 0 0 0 0 0 0 0 0 0 0 s v v v v v v v v v v v v v v B B $ 9.w., - 1.1.1.1.1.",
"1.1.1.1.1.1.4.4.4.4.4., w.[ . ; 7 3 < 3 < 3 < 3 5 5 > 8 0 0 0 0 0 0 0 0 0 0 0 0 0 0 0 s v v v v v v v v v v v v v v v B $ 9., , 1.1.1.1.1.1.",
"1.1.1.1.1.1.4.4.4.4.4., , { . . X . X . . X . > 5 < 6 6 0 0 0 0 0 0 0 q 0 0 0 0 0 0 0 s B v v v v v v v v v v v v v v B % 9., #.$.1.1.1.1.1.",
",.<.1.1.1.1.1.4.4.+ ; , . > 7 3 6 6 6 6 8 8 8 % > 5 5 5 8 0 0 0 q q 5 5 5 5 q q 0 0 0 s v v v v v v v v B v v v v B B f $ - $.$.$.1.1.1.1.,.",
"1.#.$.$.$.$.1.1.; f c c c c c v h 8 0 0 0 q q 6 $ > 5 < 0 0 0 0 q 5 5 5 5 5 q 0 0 0 0 s v v v v v v v v B B s j v C f $ $ +.$.$.1.1.1.1.1.1.",
"1.$.$.$.$.$.>.% * v v v c v v v v c h 0 0 0 0 q $ > 6 5 0 0 0 0 q < 5 5 5 5 q 0 0 0 0 s B v v v v v v v f 0 0 c B f $ $ O.$.$.1.1.1.1.1.1.1.",
"$.$.$.$.$.$.#.@ v v v v v v v v v v v f 0 0 0 0 q $ > < 5 5 6 5 < 6 5 5 5 < 8 0 0 0 0 s v v v v v v v B f 0 0 0 s % $ & #.$.1.1.1.1.1.1.1.$.",
"$.$.$.$.$.#.@.X C v v v v v v v v v B h 0 0 0 0 q % $ < 5 5 5 5 5 5 5 5 5 5 5 0 0 0 0 s v v v v v v v B h 8 q q : ! , #.$.$.1.1.1.1.$.$.$.$.",
"$.$.$.$.p p p X q v v v v v v v v v v j q 0 0 0 q q $ > 5 5 5 5 5 5 5 5 5 5 6 q 0 0 0 s v v v v v v v h 8 0 6 & ' 8.$.$.$.$.$.$.$.$.$.$.$.$.",
"$.$.#.p p p . 0 0 q h v v v v v v v B h 0 0 0 0 0 q $ .   < < 5 5 5 5 5 5 5 2 0 0 0 q q B v v v v v h 0 q : . Q 8.8.$.$.$.$.$.$.$.$.$.$.$.$.",
"$.$.p p p p . 5 5 q 0 q v v v j 8 0 0 0 0 0 0 0 0 0 q & 8.<   X < 5 5 5 5 5 5 5 q 0 0 0 0 0 0 0 0 0 q * . ( w.8.w.w.$.; X +.$.$.$.$.$.$.$.$.",
"$.$.p p p p . 6 5 5 5 0 0 0 0 0 0 0 0 0 0 0 0 8 6 5 5 % } w.w.8.% . @ . 5 5 2 6 0 0 0 0 0 0 0 q 0 2 $ . ( w.w.8.w.w.+ > $ +.$.$.$.$.$.$.$.$.",
"$.$.p p p p . < < 5 < 5 < < 5 5 5 8 0 0 0 6 5 5 2 5 X . X.w.w.8.8.w.w.w.. $ $ $ 6 2 2 0 0 0 0 > . . G w.w.w.w.8.3 . f  .&.= @.$.@.@.$.$.$.$.",
"p p p p p p , . . X . . + < 5 - 5 5 < 5 2 5 2 2 < * . / 8.8.8.8.8.w.w.w.w.w.0.. # % $ # % @ . g w.w.w.w.w.w.w.8.3 6 c v v % +.p p p p p o.p ",
"p p p p p p , , , , 1 1.$.. X     % $ % $ % $ % % . { 8.w.w.w.w.8.8.8.8.8.8.8.8.w.w.w.~ 0 w.w.w.8.8.8.8.8.8.8.8.3 8 0 v v C . i p p p p p p ",
"p p p p p - - - - - $.>.1.1.1.1.- w.w.w.8.w.w.8.8.8.8.8.w.w.w.w.8.w.w.w.8.w.w.8.8.8.8.8.w.w.w.w.8.w.w.w.8.w.w.8.3 2 6 h c c $ . p p p p p p ",
"p p p o.p - - - - r $.$.$.$.1.1., w.w.w.8.w.w.8.w.w.w.8.w.w.w.w.8.w.w.w.8.w.w.8.w.w.w.8.w.w.w.w.8.w.w.w.8.w.w.8.l : . o o o + + p o.p p p p ",
"- , , , - , - - - - o.p $.@.$.1.- w.w.w.8.w.w.8.w.w.w.8.w.w.w.w.8.w.w.w.8.w.w.8.w.w.w.8.w., , , , , w.w.8.w.w.8.q.w., , p , , , , , , , - - ",
", , , , , , 4.4.- - i o.o.@.$., , w.w.w.8.w.w.8.w.w.w.8.w.w.w.w.8.w.w.w.8.w.w.8.w.w.w.8., 1.1.1.#.1 , w.8.w.w.8.w.w.w., , , , , , , , , - - ",
"8.w., , O.$.$.$.4.- , , , , , w.8.w.8.8.8.w.w.8.w.w.w.w.w.w.w.w.8.w.8.8.8.w.w.8.w.w.w.- $.$.$.$.$.$., , 8.w.w.8.w.w.w.w.w.w.w.w.8.w.8.8.8.w.",
"8.w., $.$.$.$.$.$.$., 8.8.8.8.8.8.w.w.w.8.w.8.8.8.8.8.8.8.8.8.8.8.w.w.w.8.w.8.8.8.8.- p $.$.$.$.$.$.$., 8.w.8.8.8.8.8.8.8.8.8.8.8.w.w.w.8.w.",
"8.w., $., - $.$.$.$., w.w.w.w.w.8.w.w.w.8.w.w.w.w.8.w.w.w.w.w.w.8.w.w.w.8.w.w.w.w.8., o.p p #.#.o.p , , 8.w.w.w.w.8.w.w.w.w.w.w.8.w.w.w.8.w.",
"8.w., , , - - + & $.$., w.w.w.w.8.w.w.w.8.w.w.w.w.8.w.w.w.w.w.w.8.w.w.w.8.w.w.w.w.8.w., t r p p , , , , 8.w.w.w.w.8.w.w.w.w.w.w.8.w.w.w.8.w.",
"8.w.w., - & $ 7 < o & W ' w.w.w.8.w.w.w.8.w.w.w.w.8.w.w.w.w.w.w.8.w.w.w.8.w.w.w.w.8.w.w.w., , - , , , w.8.w.w.w.w.8.w.w.w.w.w.w.8.w.w.w.8.w.",
"8.w.w.w.8.@ 6 L L 5 7 5 > w.w.w.8.w.w.w.8.w.w.w.w.8.w.w.w.w.w.w.8.w.w.w.8.w.w.w.w.8.w.w.w.w.w.w.8.w.w.w.8.w.w.w.w.8.w.w.w.w.w.w.8.w.w.w.8.w.",
"8.8.8.8.8.% A B S S U m * 8.8.8.8.8..., , , , - 8.8.w.8.8.8.8.8.8.8.8.8.8.8.w.8.8.8.w.8.8.8.8.8.8.8.8.8.8.8.w.8.8.8.w.8.8.8.8.8.8.8.8.8.8.8.",
"8.w.w.w.w.= h j B v A M 3 w.w.8., - - 1.4.4.4.w - w.w.8.w.w.w.8.8.w.w.w.w.w.w.8.z D V k ' w.w.8.w.w.w.w.w.w.w.8.w.w.w.8.w.w.w.8.8.w.w.w.w.w.",
"8.w.w.w.w.X 0 0 h C B 7 : w.w., , 1.1.4.4.4.4.4.4.- w.8.w.w.w.8.8.w.w.w.w.w.w.g y s q 5 % ] w.7.w.w.w.w.w.w.w.8.w.w.w.8.w.w.w.8.8.w.w.w.w.w.",
"8.w.w.w.w.X > > > 6 2 Z W w., , 1.1.1.1.1.1.4.1.1.o., 8.w.w.w.8.- - - - w.w.l s S S A v 2 $ ' 8.w.w.w.w.w.w.w.8.w.w.w.8.w.w.w.8.8.w.w.w.w.w.",
"8.w.w.w.w.H H N H F W 8.8.8., #.$.2.1.1.1.1.1.1.1.p - 7.8.8.8., 1.1.4.4.- $ 5 C B v B B j 5 8 8.w.w.w.w.w.w.w.8.w.w.w.8.8.8.8.8.8.w.w.w.w.w.",
"8.8.8.8.7.8.8.8.w.w.w.8.w., $.#.$.1.1.1.1.1.1.:.$.o.- 7.w.w., , 1.1.1.4.3.$ f f h B v h f 8 d w.8.8., , e , , , w.w.w.8.w.w.w.w.8.8.8.8.8.8.",
"8.w.w.w.8.w.w.8.8.8.8.8.w., #.#.$.$.$.$.<.1.:.$.o.p t 8.w.w., , - +.1.1.1.& > 2 8 h s 8 6 = 0 w.8.w., 1.1.1.1.1., , 8.8.w.w.w.w.8.w.w.w.8.w.",
"8.w.w.w.8.w.w.8.w.w.w.8.w., $.p $.o.$.$.$.$.$.@.p p p , w.w., - , , , , , , ( E % % = % % 6 X.w.8., 1.1.$.$.$.$.$., , 8.w.w.w.w.8.w.w.w.8.w.",
"8.w.w.w.8.w.w.8.w.w.w.8.w., p p o.o.o.$.$.@.@.@.p p p , w.w.w.w.8.w.w.w.8.w.w.8.' ' ' ! ' { w.w.8., 1.$.$.$.$.$.$.$., 8.w.w.w.w.8.w.w.w.8.w.",
"8.w.w.w.8.w.w.8.w.w.w.8.w.w.& + + + o r o.p o.p p p , , w.w.w.w.8.w.w.w.8.w.w.8.w.w.w.8.w.w.w.w.8., $.$.$.$.$.$.$.$.$., w.w.w.w.8.w.w.w.8.w.",
"8.w.8.8.8.w.w.8.w.w.w.0.> 3 6 S T T u   + , , ; , , w.w.w.w.w.w.8.w.8.8.8.w.w.8.w.w.w.w.w.w.w.w.8.w., , , , , , , , , , w.w.w.w.8.w.8.8.8.w.",
"8.w.w.w.8.w.8.8.8.8.7.% % m S &.&.&.R R u ) 8.8.8.8.8.8.8.8.8.8.8.w.w.w.8.w.8.8.8.8.8.8.8.8.8.8.8.w.w.w.8.w.8.8.8.8.8.8.8.8.8.8.8.w.w.w.8.w.",
"8.w.w.w.8.w.w.w.w.5.% $ S J L P L T R T c : ) w.w.8.w.q * : $ w.8.w.w.w.8.w.w.w.w.8.w.w.w.w.w.w.8.w.w.w.8.w.w.w.w.8.w.w.w.w.w.w.8.w.w.w.8.w.",
"8.w.w.w.8.w.w.w.w.8.$ c M J J J J L P K x > H w.w.8.q c m R  .: * q.w.w.8.w.w.w.w.8.w.w.w.w.w.w.8.w.w.w.8.w.w.w.w.8.w.w.w.w.w.w.8.w.w.w.8.w.",
"8.w.w.w.8.w.w.w.0.* c v b J J J J J J S h > H w.w.a % S L L  ...$ 0.w.w.8.w.w.w.w.8.w.w.] $ > 6 @ @ W w.8.w.w.w.w.8.w.w.w.w.w.w.8.w.w.w.8.w.",
"8.w.w.w.8.w.w.w.9.% C v v b v m J L S c s 5 ) w.w.8 2 6 h S U I $ w.w.w.8.w.w.w.w.8.w.w.] > J S M S 7 . E w.w.w.w.8.w.w.w.w.w.w.8.w.w.w.8.w.",
"8.8.8.8.8.8.w.8.5.% B q v v v v b v v h 0 0 * E 8.4 @ . $ $ $ $ @ 7.8.8.8.8.w.8.8.8.w.! > L S v B B B >   E w.8.8.8.w.8.8.8.8.8.8.8.8.8.8.8.",
"8.w.w.w.w.w.w.8.9.% q q q q f v v v v h 0 q = E w.0.0.7.0.0.0.7.7.w.w.w.w.w.w.8.w.w.w.! 5 J v v v v v B 5 ( w.8.w.w.w.8.w.w.w.8.8.w.w.w.w.w.",
"8.w.w.w.w.w.w.8.w.} # q q q q q q q 0 0 q : . E w.w.w.8.w.w.w.8.8.w.w.w.w.w.w.8.w.w.w.! > C B B v B B v C 2 ( 8.w.w.w.8.w.w.w.8.8.w.w.w.w.w.",
"8.w.w.w.w.w.w.8.w.w.} . . . . . . . . . . G w.8.w.w.w.8.w.w.w.8.8.w.w.w.w.w.w.8.w.w.w.8.' $   . .   . . . @ ' 8.w.w.w.8.w.w.w.8.8.w.w.w.w.w."
};
