/* XPM */
static char *result[] = {
/* columns rows colors chars-per-pixel */
"70 70 159 2 ",
"   c #3D0D0D",
".  c #460A0E",
"X  c #490B0E",
"o  c #5E0400",
"O  c #5C1209",
"+  c #460A10",
"@  c #4B0D12",
"#  c #490E18",
"$  c #461014",
"%  c #481216",
"&  c #45141A",
"*  c #4A151B",
"=  c #49191E",
"-  c #551414",
";  c #591718",
":  c #51191C",
">  c #5D1D1D",
",  c #630500",
"<  c #660B00",
"1  c #690E00",
"2  c #661304",
"3  c #6A1300",
"4  c #6E1906",
"5  c #661609",
"6  c #65180D",
"7  c #6E1C0A",
"8  c #611D1A",
"9  c #732413",
"0  c #772C1C",
"q  c #4F1621",
"w  c #4D1A24",
"e  c #511B25",
"r  c #591E23",
"t  c #531E29",
"y  c #4F242E",
"u  c #4F2B2E",
"i  c #502020",
"p  c #5E2022",
"a  c #55222D",
"s  c #552431",
"d  c #512935",
"f  c #523436",
"g  c #612A2E",
"h  c #762E21",
"j  c #792F20",
"k  c #7A3425",
"l  c #7F3827",
"z  c #642D30",
"x  c #683334",
"c  c #63353C",
"v  c #7D3E32",
"b  c #6B451C",
"n  c #564337",
"m  c #6E4625",
"M  c #6E482A",
"N  c #73502B",
"B  c #7C423F",
"V  c #71513B",
"C  c #7A5838",
"Z  c #4C3E46",
"A  c #423E4A",
"S  c #543E40",
"D  c #683B43",
"F  c #46424E",
"G  c #49434D",
"H  c #524447",
"J  c #544847",
"K  c #594C4F",
"L  c #4C4751",
"P  c #4E4B56",
"I  c #4E4F58",
"U  c #524B54",
"Y  c #53475C",
"T  c #564F59",
"R  c #53515C",
"E  c #5A575C",
"W  c #6D4348",
"Q  c #775C47",
"!  c #7B555C",
"~  c #7F5A5E",
"^  c #6E615F",
"/  c #796657",
"(  c #5C4D63",
")  c #555567",
"_  c #565A61",
"`  c #5B5F60",
"'  c #56566B",
"]  c #5C5B72",
"[  c #5E6163",
"{  c #5D6776",
"}  c #5F7579",
"|  c #746562",
" . c #7E6D64",
".. c #63637F",
"X. c #637779",
"o. c #64797B",
"O. c #863625",
"+. c #833B2C",
"@. c #803E30",
"#. c #834336",
"$. c #844639",
"%. c #894C3E",
"&. c #845149",
"*. c #8C5449",
"=. c #8E594F",
"-. c #8B5A55",
";. c #8E615D",
":. c #806C5C",
">. c #94655C",
",. c #825D61",
"<. c #876466",
"1. c #896060",
"2. c #89676A",
"3. c #8D6B6E",
"4. c #996C63",
"5. c #936B68",
"6. c #827167",
"7. c #937663",
"8. c #9A7067",
"9. c #807174",
"0. c #967776",
"q. c #9E7A72",
"w. c #977A7B",
"e. c #9F7F7E",
"r. c #A17F79",
"t. c #9C8174",
"y. c #92807A",
"u. c #9D807E",
"i. c #A3837B",
"p. c #A8847F",
"a. c #646986",
"s. c #666D8C",
"d. c #627E82",
"f. c #688687",
"g. c #678789",
"h. c #698688",
"j. c #6A8D8E",
"k. c #968485",
"l. c #9B8481",
"z. c #9D8984",
"x. c #A58681",
"c. c #A68884",
"v. c #A88B86",
"b. c #A28E8A",
"n. c #A5908D",
"m. c #AA918E",
"M. c #A79191",
"N. c #AB9493",
"B. c #AF9996",
"V. c #AF9C9C",
"C. c #B09A97",
"Z. c #B29D9A",
"A. c #B4A19E",
"S. c #BBA39E",
"D. c #B5A3A2",
"F. c #BAA7A2",
"G. c #B7A8A6",
"H. c #B9A9A6",
"J. c #BAADAC",
/* pixels */
"s.j.j.j.s.j.j.j.j.s.j.j.j.j.j.j.s.j.j.j.s.j.j.j.j.s.j.j.j.j.j.j.s.j.j.j.s.j.j.j.j.s.j.j.j.j.j.j.s.j.j.j.s.j.j.j.j.s.j.j.j.j.j.j.s.j.j.j.s.j.",
"s.j.j.j.s.j.j.j.j.s.j.j.j.j.j.j.s.j.j.j.s.j.j.j.j.s.j.j.j.j.j.j.s.j.j.j.s.j.j.j.j.s.j.j.j.j.j.j.s.j.j.j.s.j.j.j.j.s.j.j.j.j.j.j.s.j.j.j.s.j.",
"s.s.s.s.s.s.j.s.s.s.j.s.s.s.s.s.s.s.s.s.s.s.j.s.s.s.j.s.s.s.s.s.s.s.s.s.s.s.j.s.s.s.j.s.s.s.s.s.s.s.s.s.s.s.j.s.s.s.j.s.s.s.s.s.s.s.s.s.s.s.",
"s.j.j.j.j.j.j.s.j.j.j.s.j.j.j.s.j.j.j.j.j.j.j.s.j.j.j.s.j.j.j.s.s.j.j.j.j.j.j.s.j.j.j.s.j.j.j.s.j.j.j.j.j.j.j.s.j.j.j.s.j.j.j.s.s.j.j.j.j.j.",
"s.j.j.j.j.j.j.s.j.j.j.s.j.j.j.s.j.j.j.j.j.j.j.s.j.j.j.s.j.j.j.s.s.j.j.j.j.j.j.s.j.j.j.s.j.j.j.s.j.j.j.j.j.j.j.s.j.j.j.s.j.j.j.s.s.j.j.j.j.j.",
"s.j.j.j.j.j.j.s.j.j.j.s.j.j.j.s.j.j.j.j.j.j.j.s.j.j.j.s.j.j.j.s.s.j.j.j.j.j.j.s.j.j.j.s.j.j.j.s.j.j.j.j.j.j.j.s.j.j.j.s.j.j.j.s.s.j.j.j.j.j.",
"s.j.j.j.j.j.j.s.j.j.j.s.s.s.s.s.j.j.j.j.j.j.j.s.j.j.j.s.s.s.s.s.s.j.j.j.j.j.j.s.j.j.j.s.s.s.s.s.j.j.j.j.j.j.j.s.j.j.j.s.s.s.s.s.s.j.j.j.j.j.",
"s.s.s.s.s.s.s.s.j.j.j.s.j.j.j.j.s.s.s.s.s.s.s.s.j.j.j.s.j.j.j.j.s.s.s.s.s.s.s.s.j.j.j.s.j.j.j.j.s.s.s.s.s.s.s.s.j.j.j.s.j.j.j.j.s.s.s.s.s.s.",
"s.j.j.j.s.j.j.s.s.s.s.s.j.j.j.j.s.j.j.j.s.j.j.s.s.s.s.s.j.j.j.j.s.j.j.j.s.j.j.s.s.s.s.s.j.j.j.j.s.j.j.j.s.j.j.s.s.s.s.s.j.j.j.j.s.j.j.j.s.j.",
"s.j.j.j.s.j.j.s.j.j.j.s.j.j.j.j.s.j.j.j.s.j.j.s.j.j.j.s.j.j.j.j.s.j.j.j.s.j.j.s.j.j.j.s.j.j.j.j.s.j.j.j.s.j.j.s.j.j.j.s.j.j.j.j.s.j.j.j.s.j.",
"s.j.j.j.s.j.j.s.j.j.j.s.j.j.j.j.s.j.j.j.s.j.j.s.j.j.j.s.j.j.j.j.s.j.j.j.s.j.j.s.j.j.j.s.j.j.j.j.s.j.j.j.s.j.j.s.j.j.j.s.j.j.j.j.s.j.j.j.s.j.",
"s.j.j.j.s.j.j.s.j.j.j.s.j.j.j.j.s.j.j.j.s.j.j.s.j.j.j.s.j.j.j.j.s.j.j.j.s.j.j.s.j.j.j.s.j.j.j.j.s.j.j.j.s.j.j.s.j.j.j.s.j.j.j.j.s.j.j.j.s.j.",
"s.j.s.s.s.j.j.s.j.j.j.j.j.j.j.j.s.j.s.s.s.j.j.s.j.j.j.j.j.j.j.j.s.j.s.s.s.j.j.s.j.j.j.j.j.j.j.j.s.j.s.s.s.j.j.s.j.j.j.j.j.j.j.j.s.j.s.s.s.j.",
"s.j.j.j.s.j.s.s.s.s.s.s.s.s.s.s.s.j.j.j.s.j.s.s.s.s.s.s.s.s.s.s.s.j.j.j.s.j.s.s.s.s.s.s.s.s.s.s.s.j.j.j.s.j.s.s.s.s.s.s.s.s.s.s.s.j.j.j.s.j.",
"s.j.j.j.s.j.j.j.j.s.j.j.j.j.j.j.s.j.j.j.s.j.j.j.j.s.j.j.j.j.j.j.s.j.j.j.s.j.j.j.j.s.j.j.j.j.j.j.s.j.j.j.s.j.j.j.j.s.j.j.j.j.j.j.s.j.j.j.s.j.",
"s.j.j.j.s.j.j.j.j.s.j.j.j.j.j.j.s.j.j.j.s.j.j.j.j.s.j.j.j.j.j.j.s.j.j.j.s.j.j.j.j.s.j.j.j.j.j.j.s.j.j.j.s.j.j.j.j.s.j.j.j.j.j.j.s.j.j.j.s.j.",
"s.j.j.j.s.j.j.j.j.s.j.j.j.j.j.j.s.j.j.j.s.j.j.j.j.s.j.j.j.j.j.j.s.j.j.j.s.j.j.j.j.s.j.j.j.j.j.j.s.j.j.j.s.j.j.j.j.s.j.j.j.j.j.j.s.j.j.j.s.j.",
"s.j.j.j.s.j.j.j.j.s.j.j.j.j.j.j.s.j.j.j.s.j.j.j.j.s.j.j.j.j.j.j.s.j.j.j.s.j.j.j.j.s.j.j.j.j.j.j.s.j.j.j.s.j.j.j.j.s.j.j.j.j.j.j.s.j.j.j.s.j.",
"s.s.s.s.s.s.j.s.s.s.j.s.s.s.s.s.s.s.s.s.s.s.j.s.s.s.j.s.s.s.s.s.s.s.s.s.s.s.j.s.s.s.j.s.s.s.s.s.s.s.s.s.s.s.j.s.s.s.j.s.s.s.s.s.s.s.s.s.s.s.",
"s.j.j.j.j.j.j.s.j.j.j.s.j.j.j.s.j.j.j.j.j.j.j.s.j.j.j.s.j.j.j.s.s.j.j.j.j.j.j.s.j.j.j.s.j.j.j.s.j.j.j.j.j.j.j.s.j.j.j.s.j.j.j.s.s.j.j.j.j.j.",
"s.j.j.j.j.j.j.s.j.j.j.s.j.j.j.s.j.j.j.j.j.j.j.s.j.j.j.s.j.j.j.s.w . . . . + + % j.j.j.s.j.j.j.s.j.j.j.j.j.j.j.s.j.j.j.s.j.j.j.s.s.j.j.j.j.j.",
"s.j.j.j.j.j.j.s.j.j.j.s.j.j.j.s.j.j.j.j.j.j.j.s.j.j.j.{ $ = * & 0.V.B o 2 3 3 2 * * $ ] j.j.j.s.j.j.j.j.j.j.j.s.j.j.j.s.j.j.j.s.s.j.j.j.j.j.",
"s.j.j.j.j.j.j.s.j.j.j.s.s.s.s.s.j.j.j.j.j.j.j.s.j.[ = & O 3 2 o N.*.4 3 3 3 3 3 3 2 2 : w ( s.s.j.j.j.j.j.j.j.s.j.j.j.s.s.s.s.s.s.j.j.j.j.j.",
"s.s.s.s.s.s.s.s.j.j.j.s.j.j.j.j.s.s.s.s.s.s.s.s.E   g ;.< 3 3 3 l 7 3 3 3 3 3 3 < 1 3 r % * [ j.s.s.s.s.s.s.s.s.j.j.j.s.j.j.j.j.s.s.s.s.s.s.",
"s.j.j.j.s.j.j.s.s.s.s.s.j.j.j.j.s.j.j.j.s.j.j.Y W 1.w.p.< 3 3 3 < 3 3 3 3 3 3 3 ;.&.4 5 r # * [ s.j.j.j.s.j.j.s.s.s.s.s.j.j.j.j.s.j.j.j.s.j.",
"s.j.j.j.s.j.j.s.j.j.j.s.j.j.j.j.s.j.j.j.s.j.` x i.H.G.i.< 3 3 3 3 1 < < < 3 7 =.D.N.9 1 p t @ + ( j.j.j.s.j.j.s.j.j.j.s.j.j.j.j.s.j.j.j.s.j.",
"s.j.j.j.s.j.j.s.j.j.j.s.j.j.j.j.s.j.j.j.s.j.* W v.D.m.*.3 3 3 3 < k #.#.j < 0 J.Z.G.9 1 8 a c x * j.j.j.s.j.j.s.j.j.j.s.j.j.j.j.s.j.j.j.s.j.",
"s.j.j.j.s.j.j.s.j.j.j.s.j.j.j.j.s.j.j.j.s.o.i , %.x.*., 3 3 3 3 h v.G.J.4., 9 e.q.r.9 3 < - ! 3.q o.j.j.s.j.j.s.j.j.j.s.j.j.j.j.s.j.j.j.s.j.",
"s.j.s.s.s.j.j.s.j.j.j.j.j.j.j.j.s.j.s.s.s.$ 3 3 < < < 3 3 3 3 < v.Z.B.D.>.< 3 < < < 3 3 3 > a a t $ s.s.s.j.j.s.j.j.j.j.j.j.j.j.s.j.s.s.s.j.",
"s.j.j.j.s.j.s.s.s.s.s.s.s.s.s.s.s.j.j.j.s.= 2 3 3 3 3 3 3 3 3 < i.V.B.D.>.< 3 3 3 3 2 4 4 > s a t * j.j.s.j.s.s.s.s.s.s.s.s.s.s.s.j.j.j.s.j.",
"s.j.j.j.s.j.j.j.j.s.j.j.j.j.j.j.s.j.j.j.s.& +.9 3 3 3 3 3 3 3 3 O.p.Z.D.>., 3 3 3 3 5.N.S.~ e a t * j.j.s.j.j.j.j.s.j.j.j.j.j.j.s.j.j.j.s.j.",
"s.j.j.j.s.j.j.j.j.s.j.j.j.j.j.j.s.j.j.j.# u.D.+.< 3 3 < 3 3 3 3 3 7 7 7 7 3 3 3 3 < p.Z.A.~ e a a a * j.s.j.j.j.j.s.j.j.j.j.j.j.s.j.j.j.s.j.",
"s.j.j.j.s.j.j.j.j.s.j.j.j.j.j.j.s.j.j.j.. V.$.4 3 , k c.-., 3 3 3 3 3 < 3 3 3 3 3 1 m.Z.F.,.e s s t + j.s.j.j.j.j.s.j.j.j.j.j.j.s.j.j.j.s.j.",
"s.j.j.j.s.j.j.j.j.s.j.j.j.j.j.j.s.j.j.j.. k 3 3 1 @.v.Z.N.8.3 3 3 3 3 3 3 3 3 3 3 3 0 m.3.z a t s t X j.s.j.j.j.j.s.j.j.j.j.j.j.s.j.j.j.s.j.",
"s.s.s.s.s.s.j.s.s.s.j.s.s.s.s.s.s.s.s.s.@ ; 3 3 < *.G.B.Z.C.3 3 3 3 3 3 3 3 3 3 3 3 , +.z t s s a a X s.s.s.j.s.s.s.j.s.s.s.s.s.s.s.s.s.s.s.",
"s.j.j.j.j.j.j.s.j.j.j.s.j.j.j.s.j.j.j.j.K w > 2 , *.J.A.A.C.3 3 3 3 3 3 < < < < 3 3 3 5 t t e t a w + j.j.j.j.s.j.j.j.s.j.j.j.s.s.j.j.j.j.j.",
"s.j.j.j.j.j.j.s.j.j.j.s.j.j.j.s.j.j.j.j.j.* a > < l 4.>.>.>.3 3 3 3 3 9 B $.$.#.3 3 6 a s D -.W t & S j.j.j.j.s.j.j.j.s.j.j.j.s.s.j.j.j.j.j.",
"s.j.j.j.j.j.j.s.j.j.j.s.j.j.j.s.j.j.j.j.j.$ t s > 5 < < < < 3 3 3 3 3 j q.H.F.v.1 5 a s w 2.J.l.: * j.j.j.j.j.s.j.j.j.s.j.j.j.s.s.j.j.j.j.j.",
"s.j.j.j.j.j.j.s.j.j.j.s.s.s.s.s.j.j.j.j.j.u e a s s r 5 5 5 5 5 5 5 5 o v n.u.&.5 a s s e 2.A.2.* u j.j.j.j.j.s.j.j.j.s.s.s.s.s.s.j.j.j.j.j.",
"s.s.s.s.s.s.s.s.j.j.j.s.j.j.j.j.s.s.s.s.s.s.y e a a a a s a a s a a s s a e a a a a t s w <.2.# a s.s.s.s.s.s.s.j.j.j.s.j.j.j.j.s.s.s.s.s.s.",
"s.j.j.j.s.j.j.s.s.s.s.s.j.j.j.j.s.j.j.j.s.j.j.d X * s a a a a a a a a a a a a a a a a s % X X f s.j.j.j.s.j.j.s.s.s.s.s.j.j.j.j.s.j.j.j.s.j.",
"s.j.j.j.s.j.j.s.j.j.j.s.j.j.j.j.s.j.j.j.s.j.j.a.j.K @ @ @ @ + . + + + + + . + . @ + . @ @ K j.h.s.j.j.j.s.j.j.s.j.j.j.s.j.j.j.j.s.j.j.j.s.j.",
"s.j.j.j.s.j.j.s.j.j.j.s.j.j.j.j.s.j.j.j.s.j.j.s.j.h.o...X.H m m m m M m V Q M / Z m H ] d.h.j.j.s.j.j.j.s.j.j.s.j.j.j.s.j.j.j.j.s.j.j.j.s.j.",
"s.j.j.j.s.j.j.s.j.j.j.s.j.j.j.j.s.j.j.j.s.j.j.s.j.j.j.a.R G J / N N N Q  . . . .F J n U d.j.j.j.s.j.j.j.s.j.j.s.j.j.j.s.j.j.j.j.s.j.j.j.s.j.",
"s.j.s.s.s.j.j.s.j.j.j.j.j.j.j.j.s.j.s.s.s.j.j.s.j.j.j.o.E G A k.u.C b Q y.u. . .^ L H E } j.j.j.s.j.s.s.s.j.j.s.j.j.j.j.j.j.j.j.s.j.s.s.s.j.",
"s.j.j.j.s.j.s.s.s.s.s.s.s.s.s.s.s.j.j.j.s.j.s.s.s.s.s.a.) L 9.B.A.t.7.:.y.M. . .6.L ' ] ) { s.s.s.j.j.j.s.j.s.s.s.s.s.s.s.s.s.s.s.j.j.j.s.j.",
"s.j.j.j.s.j.j.j.j.s.j.j.j.j.j.j.s.j.j.j.s.j.j.j.j.s.j.j.g.T A.B.B.A.A.n.z.b. .6.6.T g.j.{ } j.j.s.j.j.j.s.j.j.j.j.s.j.j.j.j.j.j.s.j.j.j.s.j.",
"s.j.j.j.s.j.j.j.j.s.j.j.j.j.j.j.s.j.j.j.s.j.j.j.j.s.j.j.f._ k.Z.C.B.B.C.A.b. . .^ R g.j.j.j.j.j.s.j.j.j.s.j.j.j.j.s.j.j.j.j.j.j.s.j.j.j.s.j.",
"s.j.j.j.s.j.j.j.j.s.j.j.j.j.j.j.s.j.j.j.s.j.j.j.j.s.j.j.j.j.A k.C.Z.Z.C.Z.n. .| F s.j.j.j.j.j.j.s.j.j.j.s.j.j.j.j.s.j.j.j.j.j.j.s.j.j.j.s.j.",
"s.j.j.j.s.j.j.j.j.s.j.j.j.j.j.j.s.j.j.j.s.j.j.j.j.s.j.j.j.g.U F k.M.n.n.M.z.^ F P s.j.j.j.j.j.j.s.j.j.j.s.j.j.j.j.s.j.j.j.j.j.j.s.j.j.j.s.j.",
"s.s.s.s.s.s.j.s.s.s.j.s.s.s.s.s.s.s.s.s.s.s.j.s.s.s.j.s.s.s.s.s.P G G G G G I s.s.s.j.s.s.s.s.s.s.s.s.s.s.s.j.s.s.s.j.s.s.s.s.s.s.s.s.s.s.s.",
"s.j.j.j.j.j.j.s.j.j.j.s.j.j.j.s.j.j.j.j.j.j.j.s.j.j.j.s.j.j.j.s.s.j.j.j.j.j.j.s.j.j.j.s.j.j.j.s.j.j.j.j.j.j.j.s.j.j.j.s.j.j.j.s.s.j.j.j.j.j.",
"s.j.j.j.j.j.j.s.j.j.j.s.j.j.j.s.j.j.j.j.j.j.j.s.j.j.j.s.j.j.j.s.s.j.j.j.j.j.j.s.j.j.j.s.j.j.j.s.j.j.j.j.j.j.j.s.j.j.j.s.j.j.j.s.s.j.j.j.j.j.",
"s.j.j.j.j.j.j.s.j.j.j.s.j.j.j.s.j.j.j.j.j.j.j.s.j.j.j.s.j.j.j.s.s.j.j.j.j.j.j.s.j.j.j.s.j.j.j.s.j.j.j.j.j.j.j.s.j.j.j.s.j.j.j.s.s.j.j.j.j.j.",
"s.j.j.j.j.j.j.s.j.j.j.s.s.s.s.s.j.j.j.j.j.j.j.s.j.j.j.s.s.s.s.s.s.j.j.j.j.j.j.s.j.j.j.s.s.s.s.s.j.j.j.j.j.j.j.s.j.j.j.s.s.s.s.s.s.j.j.j.j.j.",
"s.s.s.s.s.s.s.s.j.j.j.s.j.j.j.j.s.s.s.s.s.s.s.s.j.j.j.s.j.j.j.j.s.s.s.s.s.s.s.s.j.j.j.s.j.j.j.j.s.s.s.s.s.s.s.s.j.j.j.s.j.j.j.j.s.s.s.s.s.s.",
"s.j.j.j.s.j.j.s.s.s.s.s.j.j.j.j.s.j.j.j.s.j.j.s.s.s.s.s.j.j.j.j.s.j.j.j.s.j.j.s.s.s.s.s.j.j.j.j.s.j.j.j.s.j.j.s.s.s.s.s.j.j.j.j.s.j.j.j.s.j.",
"s.j.j.j.s.j.j.s.j.j.j.s.j.j.j.j.s.j.j.j.s.j.j.s.j.j.j.s.j.j.j.j.s.j.j.j.s.j.j.s.j.j.j.s.j.j.j.j.s.j.j.j.s.j.j.s.j.j.j.s.j.j.j.j.s.j.j.j.s.j.",
"s.j.j.j.s.j.j.s.j.j.j.s.j.j.j.j.s.j.j.j.s.j.j.s.j.j.j.s.j.j.j.j.s.j.j.j.s.j.j.s.j.j.j.s.j.j.j.j.s.j.j.j.s.j.j.s.j.j.j.s.j.j.j.j.s.j.j.j.s.j.",
"s.j.j.j.s.j.j.s.j.j.j.s.j.j.j.j.s.j.j.j.s.j.j.s.j.j.j.s.j.j.j.j.s.j.j.j.s.j.j.s.j.j.j.s.j.j.j.j.s.j.j.j.s.j.j.s.j.j.j.s.j.j.j.j.s.j.j.j.s.j.",
"s.j.s.s.s.j.j.s.j.j.j.j.j.j.j.j.s.j.s.s.s.j.j.s.j.j.j.j.j.j.j.j.s.j.s.s.s.j.j.s.j.j.j.j.j.j.j.j.s.j.s.s.s.j.j.s.j.j.j.j.j.j.j.j.s.j.s.s.s.j.",
"s.j.j.j.s.j.s.s.s.s.s.s.s.s.s.s.s.j.j.j.s.j.s.s.s.s.s.s.s.s.s.s.s.j.j.j.s.j.s.s.s.s.s.s.s.s.s.s.s.j.j.j.s.j.s.s.s.s.s.s.s.s.s.s.s.j.j.j.s.j.",
"s.j.j.j.s.j.j.j.j.s.j.j.j.j.j.j.s.j.j.j.s.j.j.j.j.s.j.j.j.j.j.j.s.j.j.j.s.j.j.j.j.s.j.j.j.j.j.j.s.j.j.j.s.j.j.j.j.s.j.j.j.j.j.j.s.j.j.j.s.j.",
"s.j.j.j.s.j.j.j.j.s.j.j.j.j.j.j.s.j.j.j.s.j.j.j.j.s.j.j.j.j.j.j.s.j.j.j.s.j.j.j.j.s.j.j.j.j.j.j.s.j.j.j.s.j.j.j.j.s.j.j.j.j.j.j.s.j.j.j.s.j.",
"s.j.j.j.s.j.j.j.j.s.j.j.j.j.j.j.s.j.j.j.s.j.j.j.j.s.j.j.j.j.j.j.s.j.j.j.s.j.j.j.j.s.j.j.j.j.j.j.s.j.j.j.s.j.j.j.j.s.j.j.j.j.j.j.s.j.j.j.s.j.",
"s.j.j.j.s.j.j.j.j.s.j.j.j.j.j.j.s.j.j.j.s.j.j.j.j.s.j.j.j.j.j.j.s.j.j.j.s.j.j.j.j.s.j.j.j.j.j.j.s.j.j.j.s.j.j.j.j.s.j.j.j.j.j.j.s.j.j.j.s.j.",
"s.s.s.s.s.s.j.s.s.s.j.s.s.s.s.s.s.s.s.s.s.s.j.s.s.s.j.s.s.s.s.s.s.s.s.s.s.s.j.s.s.s.j.s.s.s.s.s.s.s.s.s.s.s.j.s.s.s.j.s.s.s.s.s.s.s.s.s.s.s.",
"s.j.j.j.j.j.j.s.j.j.j.s.j.j.j.s.j.j.j.j.j.j.j.s.j.j.j.s.j.j.j.s.s.j.j.j.j.j.j.s.j.j.j.s.j.j.j.s.j.j.j.j.j.j.j.s.j.j.j.s.j.j.j.s.s.j.j.j.j.j.",
"s.j.j.j.j.j.j.s.j.j.j.s.j.j.j.s.j.j.j.j.j.j.j.s.j.j.j.s.j.j.j.s.s.j.j.j.j.j.j.s.j.j.j.s.j.j.j.s.j.j.j.j.j.j.j.s.j.j.j.s.j.j.j.s.s.j.j.j.j.j.",
"s.j.j.j.j.j.j.s.j.j.j.s.j.j.j.s.j.j.j.j.j.j.j.s.j.j.j.s.j.j.j.s.s.j.j.j.j.j.j.s.j.j.j.s.j.j.j.s.j.j.j.j.j.j.j.s.j.j.j.s.j.j.j.s.s.j.j.j.j.j."
};
