/* XPM */
static char *_113eb3da5d14cb0fa5f5641984dfa9cOF2Pm0gMtgTA0l5y[] = {
/* columns rows colors chars-per-pixel */
"80 80 226 2 ",
"   c #010000",
".  c #0C0702",
"X  c #060904",
"o  c #0A0A06",
"O  c #0C0E09",
"+  c #150100",
"@  c #1B0000",
"#  c #110C03",
"$  c #0E110B",
"%  c #111007",
"&  c #11130C",
"*  c #121212",
"=  c #240200",
"-  c #360000",
";  c #3A0000",
":  c #300D04",
">  c #1D2311",
",  c #2B3216",
"<  c #2A361E",
"1  c #2B391F",
"2  c #302E20",
"3  c #2D3821",
"4  c #363524",
"5  c #373D28",
"6  c #3F3F34",
"7  c #410000",
"8  c #490301",
"9  c #520600",
"0  c #540B02",
"q  c #541108",
"w  c #5A3C01",
"e  c #773A01",
"r  c #423F34",
"t  c #2E4811",
"y  c #334614",
"u  c #344C15",
"i  c #3C451C",
"p  c #374818",
"a  c #364C19",
"s  c #3B4D1C",
"d  c #375219",
"f  c #3B521D",
"g  c #3E4D21",
"h  c #3A4429",
"j  c #3E5321",
"k  c #3F5921",
"l  c #3E4633",
"z  c #40471D",
"x  c #414C1F",
"c  c #40511D",
"v  c #634200",
"b  c #6B4A01",
"n  c #624D14",
"m  c #775D17",
"M  c #434D23",
"N  c #454B25",
"B  c #435423",
"V  c #485327",
"C  c #435A25",
"Z  c #465428",
"A  c #4B542B",
"S  c #455B29",
"D  c #4A5D2B",
"F  c #47473A",
"G  c #454838",
"H  c #4C5938",
"J  c #585C39",
"K  c #48622A",
"L  c #4C632D",
"P  c #50672F",
"I  c #4E6431",
"U  c #4E6934",
"Y  c #526534",
"T  c #536B35",
"R  c #57653A",
"E  c #566D3A",
"W  c #5A6D3C",
"Q  c #56723B",
"!  c #537538",
"~  c #5B733D",
"^  c #5C7B3E",
"/  c #68733F",
"(  c #525243",
")  c #55554F",
"_  c #585849",
"`  c #615F42",
"'  c #5D6D41",
"]  c #5D7442",
"[  c #5E7C42",
"{  c #5C7E45",
"}  c #676842",
"|  c #6E6B4B",
" . c #746E46",
".. c #627543",
"X. c #627D45",
"o. c #687847",
"O. c #657D49",
"+. c #6A7D4B",
"@. c #6C7E50",
"#. c #767655",
"$. c #676765",
"%. c #797A78",
"&. c #813A01",
"*. c #854200",
"=. c #8C4701",
"-. c #8D4E0B",
";. c #985C15",
":. c #BA7D01",
">. c #9A723D",
",. c #906940",
"<. c #8F7345",
"1. c #A17E4F",
"2. c #807E62",
"3. c #5D813E",
"4. c #5E8143",
"5. c #5F864A",
"6. c #638245",
"7. c #688247",
"8. c #648844",
"9. c #65824A",
"0. c #6A834C",
"q. c #66894B",
"w. c #6A894D",
"e. c #71834F",
"r. c #6D8551",
"t. c #6A8754",
"y. c #6D8A51",
"u. c #718553",
"i. c #728A55",
"p. c #79865A",
"a. c #758C59",
"s. c #7A8E5C",
"d. c #76925B",
"f. c #77955A",
"g. c #7B945D",
"h. c #7C8E61",
"j. c #789563",
"k. c #7D9562",
"l. c #7E9A62",
"z. c #BE8401",
"x. c #C48600",
"c. c #CB8500",
"v. c #CD8C00",
"b. c #D08D00",
"n. c #D99500",
"m. c #D99904",
"M. c #DAA10F",
"N. c #CF9D24",
"B. c #D9A626",
"V. c #E2AC23",
"C. c #E6B325",
"Z. c #EEB926",
"A. c #F2BB27",
"S. c #F1BC28",
"D. c #EEBE32",
"F. c #F0BF32",
"G. c #F1C134",
"H. c #80935F",
"J. c #838265",
"K. c #878A67",
"L. c #898769",
"P. c #819463",
"I. c #829B65",
"U. c #829569",
"Y. c #859C6B",
"T. c #8A9D6C",
"R. c #8C9672",
"E. c #929178",
"W. c #939279",
"Q. c #9A997F",
"!. c #86A26A",
"~. c #85A469",
"^. c #8BA36E",
"/. c #92A36F",
"(. c #8DA473",
"). c #8EAA72",
"_. c #91A574",
"`. c #93AB76",
"'. c #99A976",
"]. c #94A679",
"[. c #9BA47B",
"{. c #95AC7A",
"}. c #99AC7C",
"|. c #93B176",
" X c #96B27B",
".X c #9AB27D",
"XX c #99BA7D",
"oX c #A0AC7D",
"OX c #D2B451",
"+X c #E4C450",
"@X c #E4C95C",
"#X c #CBC37A",
"$X c #D5C47A",
"%X c #E4D97F",
"&X c #838383",
"*X c #888887",
"=X c #9B9B81",
"-X c #9CAC80",
";X c #9CB381",
":X c #9AB681",
">X c #A4AA85",
",X c #ADAC8D",
"<X c #A1B384",
"1X c #A3BA86",
"2X c #AFAE94",
"3X c #B0AF90",
"4X c #B6B59A",
"5X c #AEAEA1",
"6X c #B8B8AA",
"7X c #B5C396",
"8X c #D9CD81",
"9X c #DAD282",
"0X c #E2D283",
"qX c #E4DB83",
"wX c #EFE486",
"eX c #EFE78D",
"rX c #F1E583",
"tX c #F1E98E",
"yX c #F1EB90",
"uX c #C3C2B3",
"iX c #C8C8BA",
"pX c #DADADB",
"aX c #E2E2E1",
"sX c #EFEFED",
"dX c #F2F1EE",
"fX c #FAFAFB",
/* pixels */
"^ 4.4.3.4.6.6.[ ^ ^ ^ 6.^ X.^ 3.^ 3.3.^ ^ / o.V 4 z z z s D ..O.] (.).!.(.].).T.o.o.o.V z N i z p u 6.3.[ [ [ [ [ X.[ [ X.^ 7.k a g D O.{ ] [ ^ 6./ ^ e.W 4 V z ",
"4.4.4.4.4.6.6.6.7.0.w.7.7.7.6.6.8.3.8.7.e.7.p.A V V V V g D +.+.{ R.{.{.-X).-X`.@.o.#.J N A N M f u 7.q.7.q.7.9.9.7.9.O.y.{ t.K a g I 0.+.q.6.6.6.6.X.i.' M V V ",
"4.5.5.5.6.6.7.7.7.7.6.X.X.7.7.6.8.8.6.6.O.o.o.A M i z V s S +.O.a.U.].-X]._.{._.@.+.@.D z N N V C f 6.6.6.7.O.[ 6.6.9.4.7.Q 7.L d j I +.9.r.7.9.y.7.e.O.Y Z g i ",
"5.5.4.5.6.6.O.O.O.X.L L L O.6.X.3.3.7.^ P D Y V V M R o.W O.!.!.Y.h.a.h.i.a.g.r.D S R M M V J ..~ Q 0.7.7.7.7.O.d.I.^.l.t.q.t.{ ~ E ~ 0.O.X.L S C B K D I O...O.",
"{ { O.7.7.0.+.O.+.X.a a u 6.7.7.7.6.7./ B s M x p i R u.X.r.`.`.}.u...+.X.o.+.] f y B g B M R @.0.+.7.7.X.0.O.O.d.`. X`.[ O.9.{ q.7.7.t.O.] k d C f j u K 0.9.+.",
"O.+.7.O.+.r.0.+.r.X.f f u X.O.0.7.X.7.^ C B s M s B R 0.+.i.|.XX;Xp.r.u.+.+.0.r.S p j B B i H @.X.O.O.O.X.O.X...l. X.X{.X.r.7.7.X.3.6.7.7.t.S l j f g u I t.9.7.",
"O.u.+.W R Q ~ W R Q Y T Y { 9.9.7.X.7...f B B L Y Y W O.X.7.l.g.Y...W W W W R ~ Y K I Y T D @.U.s.U.s.P.g.P.g.g.P.l.j.k.O.+.9.9.6.6.7.X.O.+.j j j Y R I ! 5.{ 4.",
"o.+.o.S s s c s s L +.r.a.+.r.+.O.X.0.X.f f S ..u.u.7.0.6.X.q.X.o.B s s f f d j t.r.t.t.0.+.k.{.}.<X{.}.].;X}.XXk.X.O.O.q.{ +.{ 4.6.q.{ O.r.Z j j ] t.+.9.q.5.4.",
"o.e.o.V j s C B s S +.O.+.O.O.O.7.X.i./ f a j ] 0.7.O.6.6.6.7.O.+.A s B c B f f 7.9.9.r.{ ..j.:X{.{._.{.(.].'. Xl.O.0.t.[ 9.0.[ 6.3.6.6.7.o.k g h { O.9.q.4.4.4.",
"o.e.o.D B a j B f L O.+.r.u.r.r.e./ +.W D C S ~ O.O.7.t.7.7.q.6.u.D B f f S C K q.7.9.9.9.9.h.^.].].{.}.'..X{.{.k.O.9.y.X.0.t.6.^ 8.w.6.7.] D Z S ..O.O.q.q.q.q.",
"p s B f B B E r.0.+.9.{ 0.Y._.{.+.u u C O.0.0.0.7.9.q.9.7.7.6.O.0.B j B T 0.X.q.q.6.O.q.7.9.0.t.+.+.(.].`.'.`. XY.X.6.0.9.7.7.9.w.8.! u f k [ 0.X.r.r.O.O.[ 6.[ ",
"B c B s j f Y r.O.0.0.+.i.).{.<XX.f C K O.^ [ X.9.6.7.{ 7.9.O.0.u.C s p T a.O.7.q.9.X.O.9.9.X.X.O.0.;X;X`.).`.`.Y.6.X.q.{ 6.4.4.^ 8.! f K k O.0.+.r.O.7.9.7.0.7.",
"s u s a j f U 9.9.9.7.[ 7.P.`.XXX.u u K y.7.t.4.{ { 7.X.0.t.X.0.+.I B a L q.{ X.7.9.9.4.9.9.q.t.O.e._._.`.].:X:Xl.6.8.6.9.9.4.7.7.7.U t d d ^ 6.6.9.{ 7.+.o.7.O.",
"/ ^ / ^ [ E [ q.{ 0.).^.^.k.a.i.+.~ / ^ 7.! 6.9.6.9.w.6.q.O.D L L R ] ~ X.t.7.0.6.9.7.9.4.9.i.!.^.U.s.i.g.t.i.w.y.[ 6.6.8.4.8.q.0.r.0.! ^ ^ 7.6.0.7.7.0.~ I J D ",
"O.+.7.X.t.9.9.7.9.t. X`.`.0.O.o.i.7.+.6.7.q.w.[ 9.9.y.{ 9...a a s { u.r.0.9.X.[ 6.9.9.q.X.X.g.{.'.].O.X.0.+.O.X.7.4.q.5.4.8.4.9.O.0.0.X.w.w.3.8.6.3.6.7.T B B M ",
"{ 7.q.[ q.9.9...{ 0. X`..Xe.7.7.^ 7.6.6.[ 7.y.{ 4.4.0.X.9.O.j j d O.O.O.O.X.y.q.7.6.6.7.{ X.g.XX). XX.O.0.O.7.0.7.q.y.7.9.q.4.4.7.7.0.6.6.q.^ 7.8.7.0.i.T s M M ",
"X.9.{ 7.9.O.i.d.a.H.'./.XXi.{ 7.6.6.6.q.3.6.6.7.0.X.a.k.a.a.I I ! [ 8.9.7.6.7.7.7.X.X.d.l.a.l.j.~.f.w.8.7.7.+.0.X.Y X.T 7.4.q.9.4.9.9.q.7.{ 6.X.7.Q ! E T T D W ",
"{ 4.[ 9.4.{ P.'.'.'.oX/.'.i.9.y.4.3.6.8.6.6.7.7.O.X.k.:X.X{.t.0.^ 4.4.4.6.7.7.O.7.X.+.^.;X XY.7.! 3.X.6.0.0.0.+.~ p j f 6.9.4.{ 9.q.4.{ { 9.y.r.y.L u y I 0.0.7.",
"7.0.7.q.[ [ g.XX'.'.}._.|.i.6.4.8.8.8.8.6.6.9.O.t.O.j.{.`.T.9.0.q.w.9.9.7.q.0.O.e.O.X.l.`. XY.[ 8.q.6.^ O.7.0.u.o.s a k q.y.y.9.{ 7.7.7.7.0.6.[ X.P k f I 0.r.+.",
"] O.9.t.0.y.l./.^./._.).'.d.7.7.4.3.3.3.w.0.t.q.+.r.h.k.Y.j...] E E Q ' ' E W ' W ~ O.a.Y.P.t.Q E Q ~ ~ ] ' ..+.Y C C K [ [ 4.4.8.6.X.7.O.y.O.0.y.P f t L 0.0...",
"}.-X:X].).).j.t.t.r.+.O.0.O.{ { q.6.0.y.`.`.`.`.;X`.G o O O O o O O O O O . X X O O O O O O O O O O O O O X > j T X.O.{ r.9.q.7.7.7.g.XX X^.O.O.0.L u u T i.r.r.",
"Q.].].(.{.:Xl.{ t.9.O.O.9.9.w.w.6.4.6.0.`.|.`.Y.h.U.l * O X X X o o o o X o X X X o o X o o X o X O X o X   > s D ] O.{ 7.6.4.4.6./ a.`.'.^.O.6.O.L d f Y X.O.O.",
"[.[.-X].).-Xj.{ { O.O.q.9.0.9.4.7.6.q.r.:X{.H O $ & %.pX5XQ.E.Q.E.Q.E.=XE.Q.E.Q.E.Q.E.Q.E.=XE.Q.E.=XE.=X#.` 4 X X O h { 7.4.6.7.X.e.H.'.|..Xe.7.w.Y u y I 0.+.O.",
"[.[.-X(.-X:Xj.9.9.0.q.t.7.0.9.O.7.7.r.9.(.U.F * * * *XdX6XQ.E.=XE.=XE.=XE.Q.E.Q.E.Q.E.Q.E.Q.E.Q.E.=XE.=X2.#.6       3 ] 9.9.w.f./.T.I.H.e.g.L K L T ~ X.r.Y.(.T.",
"[.[.[.[.].:Xj.{ 5.] t.{ 9.7.9.q.9.r.X.r.( O %.aXpXpX6X4X_   o o X o o o o o o o o o o o o o o o X O o o ( >X2.` _ } 4 O h 7.6.^.<X'.T.o.+.o.k u u ~ r.O.a.{.}.].",
"[.[.[.[.-X:Xj.5.t.5.t.O.r.q.O.{ { 9.X.r.l   &XfXaXsX6X=XG                                               r =X2.#.| | 4   < X.[ I..X]./.X.0.X.k u d ~ r.O.h.}.-X-X",
"[.[.}.T.Y.l.d.O.t.O.E T Q 7.9.{ y.j.i.k.h   &XfXiX4X) X                                                   o ( >XJ.| 4   5 d.d._.}.[.R.O.u.7.T P L [ +.] a.}.].].",
"'.]._.r.O.{ 9.{ 0.{ d u j [ t.q.l.`.^.k.5 $ *XdX5XQ.6                                                       r =X2.#.r   l Y.T.}.].].Y.o.0.r.O.7.6.0.+.o.j.-X].[.",
"}.{.|.t.X.{ 7.0.O.] c f C ^ 9.Q f.|.H o %.aX6X4X_ X                                                           X ( >X2.` 4 O ( ].-X-Xj.{ 9.9.9.7.6.7.X.] P.[.].-X",
"^.^.^.t.9.0.O.X.+.o.V c C ^ y.w.l.).l   &XfXuX,XF         # . . . . . . . .           # # # % $ % % % % X       F 3XL.| 4   l ].(.-XY.{ 0.7.4.6.X.7.r.r.U.}.].[.",
"8.q.0.4.[ 9.P B c D o./ 7.0.6.[ 4.6.<   &XfXuX,XF       v x.:.z.:.z.:.z.:.x.e ; #   n B.N.B.OX$X#X8X#X9X,.- +   F 3XL.| 4   G ].].-Xl.+.t.9.7.7.q.I.(.T.].<X[.>X",
"4.4.4.9.9.y.I a s D e.o.e.+.6.0.5.8.<   &XfXuX,XF       v c.x.n.v.n.v.n.x.c.&.7 +   n B.B.D.@XtXqXyX9X0X,.7 @   F 3XK.| 4   l {.-X:Xl.{ q.O.6.6.X.Y.;X].].}.].}.",
"4.5.[ 6.O.r.R g x A @.X.0.y.X.8.q.3.<   &XfXuX,XF       = 9 =.n.v.n.v.n.=.9 8 7 @     # / rX0XtXqXtX1.q 8 7 @   F ,XL.| 4   G :X).XX~.^ e./ p.r.+.U.}.].;X-X'.<X",
"4.t.q.t.O.0.T g c D e.O.7.7.4.q.5.4.<   &XfXuX,XF       @ ; =.n.v.n.v.n.*.; ; ; +        .tX0XeX%XrX,.7 - ; +   F 3XL.| 4   5 t.f.i.w.3.w.7.I D Z K.<X-XT.p.r.i.",
"! { X.9.0.r.Y g x D @.O.7.9.6.6.4.6.<   &XfXuX,XF           b n.v.n.v.n.*.7 @           / yX0XeX@XG.;.8 =       F 3XL.| 4   < 4.6.^ ^ 6.7.u.s Z g h.}._.k.0.9.X.",
"0.t.+.r.u.@.U g s D 9.7.7.9.6.6.6.4.<   &XfXuX,XF           b n.v.n.v.n.*.7 +           / rXwXrX+XS.;.8 @       F 3XL.| 4   3 4.8.6.w.i.0.+.p i 1 k.<X<XU.X.0.7.",
"] ~ W W ] ' U I L T 7.7.w.7.8.8.6.6.<   &XfXuX,XF           b n.v.n.m.Z.-.7 +           } yX@XG.C.D.;.7 @       ( 2XL.| 4   3 { 6.7.6.T ~ E o.....P.I.^.s.~ 7.7.",
"p p B g j j ! 9.6.X.q.8.q.6.7.8.6.6.<   %.aX5XQ.6           b n.v.m.M.S.;.0 : % % $ % %  .wX+XC.V.S.;.7 @       6 =X#.} 2   3 7.6.e.T y j Z }.;X[.P./ X.0.7.7.6.",
"x x A f g u Q t.t.9.9.{ 8.6.7.6.6.7.1   X * O o             b n.m.C.V.Z.B.B.OX8X#X9X#X$X+XG.C.Z.V.S.;.7 @         O X       3 9.O.i.Q f B f _.].{.s.O.e.0.O.6.7.",
"V s A V k j T 5.4.4.8.9.w.6.0.6.7.7.3                       b m.M.S.V.Z.C.D.@XtXqXyXqXwX+XZ.C.Z.V.Z.;.; @                   < 9.X.7.Q B S S _.].{.s.+.X.+.6.^ 6.",
"s V i ..0.O.9.9.4.5.5.9.w.5.w.6.g.`.h                       m Z.V.Z.V.Z.+XrXqXtXqXtX@XF.C.Z.V.Z.M.m.=.7 @                   > S S f T 0.0.+.r.+.e.7.7.7.3.d k f ",
"i V B O.r.O.9.{ 9.4.4.9.4.6.0.X.g.{.G   o * O O             m S.C.Z.C.G.OX%X$X$X$X0XOXV.B.Z.V.Z.m.n.=.7 @         * $ O     > j f u L 7.0.O.0.O.X.O.0.w.Q d d f ",
"p x j ..0.9.9.4.9.q.q.7.[ 9.6.[ P.`.G   %.aX5XQ.6           m S.C.C.+XwX<.q q q q q 9 9 ;.G.m.n.b.m.=.7 @       $.pX6X=X(   * S B f T 7.+.O.7.7.7.7.7./ ! u f f ",
"W ~ E 7.0.4.9.9.{ 9.9.7.O.Y.Y.l.P.f.3   &XfXuX,XF           m S.C.G.@XyX,.; ; - - - - ; -.S.m.n.v.m.=.7 @       $.dXuX>X_   > Y [ T ~ 7.7.O.7.7.7.~ L L ! ~ Q ~ ",
"t.9.9.9.q.O.7.9.6.6.O.X.0.). X:Xk.X.<   &XfXuX,XF           m A.+XwXwXeX,.; @           v m.v.n.v.n.=.7 @       F 4XE.#.4   > ] i.7.6.7.7.6.6.7.7.K p d T 0.@.+.",
"{ [ { 4.9.{ 9.6.0.O.0.X.O.(.(.-XU.{ <   &XfXuX,XF         X m G.@XeX9XtX,.; @           v n.v.n.v.n.=.7 @       F ,XJ.| 4   * ..0.7.6.7.7.7.6.X.r.T a d I +.+.O.",
"5.5.w.9.q.6.6.6.X.X.j.t.h.(.{.-Xk.O.3   &XfXuX,XF           ,.%X%XtXwXeX,.7 @           v n.b.n.b.n.=.; @       F 3XL.| 4   , [ 6.6./ 6.7.7.6.X.6.L f f I u.@.@.",
"4.^ q.{ 9.6.7.7.7.i.;X].-X-X].}.j.[ 3   &XfXuX,XG       X % J.yX9XyX%XwX>.0 =         . b m.b.n.b.n.=.9 -       F 3XL.| 4   < O.7.8.8.6.q.q.7.6.7.T u f H t.+.O.",
"4.6.[ 6.X.7.X.+.O.i..X].}.-X].].f.q.<   &XfXuX,XG       } 9X9XtXqXeX@XD.B.B.-.- +   w x.x.n.v.n.b.n.c.c.*.- +   F 3XL.| 4   3 X.5.4.6.6.q.6.0.7.7.P y y U @.@.O.",
"6.6.^ w.7.7.O.O.+.i.(.'.}.`.-X-Xi.6.3   &XfXuX,XG        .0X$X$X$X8XOXB.B.B.-.7 @   w c.:.c.:.c.z.c.:.c.*.7 @   F 3XL.| 4   < 4.5.8.6.4.6.7.8./ X.T C f U { 5.t.",
"..X.X.~.).).`.{._.{.{.`.].t.O.0.y.6.<   &XfXuX,XF       = q q q q q q 0 0 0 8 7 +   = 9 9 9 9 9 9 9 9 9 8 7 @   F ,XL.| 4   < q.^ 9.6.6.7.^ P C C T X.X.9.9.9.{ ",
"7.y.7.(.;X).`.).(. X`.{.;Xa.O.9.7.6.3 o %.aX6X4X_ X     + ; - - - ; - - - ; - ; +   + - - - - ; - ; - ; - ; = o ( >X2.` 4 O 3 4.4.w.q.7.w.X.c u u W 0.0.9.0.9.t.",
"^ +.] !.:X).:X].{.XX`.`.-Xy.X.9.9.4.{ { 5 * &XsX6XE.6                                                       r =X2.#.6   3 ] ] 4.X.8.[ [ X.X.d f f Q 7.7.9.9.4.4.",
"Y.Y.j.].-X].I.h.d.f.i.d.j.0.7.w.7.X.7.0.3   &XfXiX4X_ X                                                   X ( >XJ.| 4   3 y.9.t.0.w.t.I.Y.~.~ ~ P X.0.7.q.9.5.4.",
"`.-X].:X{.-Xd.{ 7.{ 7.3.6.6.{ 6.7.9.9.9.3   &XfXaXdX6XQ.G                                               r =X2.#.| | 4   3 9.4.9.6.O.g..X.X|.O.O.w.y.7.4.4.5.9.q.",
"(.}.:X].|.:Xj.{ O.[ y.^ 6.q.6.X.9.O.9.9.3 o h.pXpXpX6X4X_   X o o o o o X O o X X o o o o o o o o o o X ( >X2.` J } 4 X 5 +.{ 9.O.X.f.XX'..X7.7./ 7.q.7.9.4.^ 4.",
"(.:X:XR.Y.(.j.O.X.q.9.6.6.6.w.q.7.O.O.y.r.r.l * * * *XdX6XQ.E.Q.E.Q.E.Q.E.Q.E.Q.E.Q.E.Q.E.Q.E.=XE.=XE.=X2.#.6       2 O.a.d.t.g.a.P.g.I.`.g.0.7.7.w.6.6.q.f.f.w.",
"-X-X(.0.] O.{ O.9.0.7.6.7.6.6.6.0.9.7.r.).`.( * $ $ %.aX5XE.E.Q.E.Q.E.=XE.=XE.Q.E.Q.E.Q.E.Q.E.Q.E.=XE.=X#.` 2   X & H  X-X{.`..X|.|.H.6.7.7.6.0.7.X.6.[ f.|.|.XX",
"Y.-X}.k.O.t.+.9.O.{ { O.0.7.X.6.O.7.O.X.:X X^.j.U.T.l * O o X O o o o X X O X o o O X O X o X o o o O o o       2 Y.(.`.`.`.(.(.). XY.6.O.0.7.O.7.{ q.X.f.|.~.^.",
").).(.t.O.O.9.O.9.+.0.O.7.r.0.7.7.+.0.t.).).).|.^.{.G X O O o X X O O O O X X X O O O & & * & * $ O O O O O o o l ).).`._..X}. X).|.H.X.^ 7.q.7.6.O.5.^ y.|.`. X",
"5.r.r.o.0.+.U f j I { O.r.(.`.`.`.(.^.).t.t.t.t.t.t.' h M Z i i y s M g H W R ..U.h.P.+.] ..] ] O.{ ' ] ] ] ] ] a.:X`.(.u.+.+.+.0.i.w.7.0.q.4.[ 6.I.).).Y.y.t.X.",
"O.{ X.] 6.0.T f g D @.+.@.(.-X(.{.`.`.{.{ O.O.O.9.t.R a B V V V A g j p Y p.o.u.`.`..Xu.O.+.{ 9.] [ X.{ 6.9.{ { t.`.:X).r.O.+.t.7.^ ^ ^ X.9.7.7.[ ).`.{.l.] t.0.",
"6.6.w.w.0.0.I g j C O.+.O.].-X{.}.}.`.(.t.O.9.9.O.+.~ B B z x i M s s a Y @.+.r. X`. Xa.9.9.+.9.y.7.t.7.O.9.O.{ P. X{.(.u.O.+.0.7.6.q.w.7.8.4.[ X.~.).:XY.r.+.r.",
"L L U D K ! T U E I a.O.@.R.-X{.k.k.j.a.r.O.O.O.t.O.E j M B / ..E ] W T o.0.7.0.g.j.d.O.9.O.q.6.q.[ 9.4.q.f.l.l.g.l.a.g.+.0.+.O.6.6.6.^ { t.f.Y.l.j.d.d.a.+.O.0.",
"i z V x j a ] t.0.{ t.O.r.R.oX}.H.^ 6.6.t.0.] 0.+.u.~ p c D e.e.w.q.7.7.7.7.7.7.^ 7.X.7.9.9.t.q.9.[ 5.6.4.).|.XXl.O.9.{ @.O.+.0.O.q.X.7.9.t.).|.:Xa.{ { { @.X.6.",
"V V N B j a U { q.{ O...+.T.oX}.g.6.6.7.7.u.0.u.@.+.W s c S 7.7.3.6.8.6.7.7.w.7.e.e.7.0.9.O.O.{ q.4.9.5.4.~.|..X^.9.O.0.t.r.0.9.{ 9.{ 9.4.t.).:X Xa.9.9.r.0.O.O.",
"z M i H I I ] t.[ X.d.a.k._.[.}.g.X.7.7.Q ~ ~ X.o.W Y D C L 7.7.3.7.8.6.3.7.7.3.^ ~ ^ O.t.X.q.9.{ 4.4.9.9.f.l.~.a.{ X.O.] ] ] O.7.8.4.8.{ t.l.l.(.a.{ +...~ X.O.",
"N V S X.+.O.O.q.0.f.`.`.}.[.}.{.I.6.0.] B f s s p B T f.7.7.7.^ 6.7.7.6.7.7.7./ c u f Q 7.O.9.7.7.9.7.9.5.9.9.q.r.r.0.O.k s f E 7.9.9.9.{ 5.q.t.O.O...r.] f a y ",
"a s f X.O.r.O.O.X.y.`.`.}.(.].}.g./ e./ k f B C B f L 7./ 7.w.y.X.X.^ X.7.7.7.O.c u d ^ y.7.7.0.X.X.6.7.0.O.6.O.X.7.r.X.k a f X.8.3.6.6.9.7.O.{ t.O.O.t.E s S D ",
"f k C ~ +.9.7.9.6.i.`.'.<X_.`.-XT.O.e...V f s B B c T e.8.0.^ 3.i.7.X.O.7.7.O.O.C c B ^ O.^ 6.0.w.7.X.O.y.X.O.O.0.7.O.~ L C B T 9.3.8.4.{ q.9.+.0.+.O.@.R j f p ",
"[ 4.{ O.0.6.7.7./ i.{._.{.a.+.t.Y x V V B B B ~ X.^ 7.7.7.w.7.w.{ I j C S B f j 6./ ^ w.y.q.g.^._.!.u.O.7.K S C C f C K ] O.X.w.w.3.9.5.{ 7.9.9.O.I S B P O.r.@.",
"4.6.8.6.7.[ 7.O.O.i.|.`.{.r.+.r.W z x c x s B / 7.+.w.^ 6.w.3.6.7.I a f C f j S e.7.7.w.X./ g.XX'.T.u.o.7.D B d C f f C +.7.O.6.5.3.8.6.4.t.{ O.t.D s a I r.r...",
"9.4.9.[ 7.^ w.7.^ i.'.|.1Xt.r.+.R z x s V y f / 7.7.6.7.7.6.w.6.r.S s j j s a S +.+.0.+.O.W H.1X.X}.p.o.+.I x B f f t S O.O.X.6.8.8.3.4.9.9.7.t.i.L j s Y r.X.+.",
"[ 4.9.6.7.X.f.H.H.I.H.f.P.+.0.r.W B S V W W Q O.0.7.7.7.q.6.7.6.+.Y g j D ] E E +.0.7.P.^./.a.W o.o.Y Y T B s f I ~ T ~ q.O.X.6.4.4.8.q.y.0.U I Y B B a L +.o.O.",
"X.9.w.7.6.6.~. X|./.7.^ O.+.O.r.R s c B e.e.0.7.O.O.6.O.9.7.6.X.O.D s s E p.t.@.+.r.0._./.oXo.u i s i x V g B g P 7.7.O.7.9.7.6.7.4.[ 6.X.X.j s f f C f L y.0.6.",
"O.7.O.9.X.^ H.|.XX/.7.X.0.i.0.e.Y p s B 0.7.7.O.7.7.7.6.7.0.7.r.@.D a a Y O...O.+.] o.[.<X7Xp.i V N x V g s j p I O.0.O.6.4.9.6.4.9.q.w.7.0.j p s a s a K 0.0.X.",
"....~ 0.0.0.j.!.g.f.q.O.y.X./ Q W D I I q.[ O.6.6.6.6.X.9.0.E ] W Y D D ] a.t.a.h.u.h.h.p.P.| x A M V M z D Y D ~ 7.9.9.9.4.6.4.9.9.5.Q T ] D Y Y L K S T 7.6.6.",
"i i B ' O.X.{ 4.q.w.7.[ +.S c c T +.q.{ 9.6.q.6.6.6.7.X.9...k B B ~ +.X.j.;X;X-X].}.>XR i N V N N i V V N ..@.@.0.0.X.7.7.4.8.4.t.q.T a g D ] +.o.+.0.7.7.8.6.q.",
"z M M O.r.t.6.4.8.4.5.{ 0.S s p I t.r.9.4.6.q.[ 7.8.t.O.r.O.j g f [ u.O.h.}.].(.].-X-X' N A A h A N A x V ..+.+.+.O.X.6.8.{ 9.5.{ 0.Q j k k @.@.+.0.7.7.9.^ 6.6.",
"z z i ..O.O.{ 4.4.4.! 9.7.V p a U 4.] 9.{ ^ { [ [ [ X.~ O...s s s E O.] a.].].].].].].J z z 4 A N i h 1 i ' o.+.+.O.X.4.{ ^ 5.^ ] 7.I t g u +...o.+.../ [ 6.3.3."
};
