/* XPM */
static char *_f8d883ce8d44a3fd48bd386fa823e361o4X5djClXqO0k21[] = {
/* columns rows colors chars-per-pixel */
"80 80 215 2 ",
"   c #030602",
".  c #060B05",
"X  c #090D06",
"o  c #0B0D0A",
"O  c #110E0C",
"+  c #0A1007",
"@  c #0D110D",
"#  c #12120E",
"$  c #0E1314",
"%  c #131412",
"&  c #191613",
"*  c #151914",
"=  c #1A1B17",
"-  c #131618",
";  c #14191A",
":  c #1A1D19",
">  c #201A17",
",  c #221C19",
"<  c #1C221B",
"1  c #23231E",
"2  c #29221E",
"3  c #20281F",
"4  c #363E16",
"5  c #181E23",
"6  c #1A2124",
"7  c #17212A",
"8  c #18222C",
"9  c #1B2A36",
"0  c #1E313F",
"q  c #222621",
"w  c #2C2521",
"e  c #242A23",
"r  c #282C26",
"t  c #2B2C2A",
"y  c #322A25",
"u  c #352D29",
"i  c #293127",
"p  c #2C342B",
"a  c #31342D",
"s  c #39312D",
"d  c #30392E",
"f  c #333432",
"g  c #3E3531",
"h  c #343C32",
"j  c #3A3B39",
"k  c #403734",
"l  c #344C15",
"z  c #384819",
"x  c #3B4C1C",
"c  c #385419",
"v  c #3A521C",
"b  c #3E4C21",
"n  c #3E5322",
"m  c #3A5626",
"M  c #364234",
"N  c #384436",
"B  c #3D443B",
"V  c #354F39",
"C  c #3E4C3C",
"Z  c #414C1E",
"A  c #404620",
"S  c #434D23",
"D  c #425424",
"F  c #475628",
"G  c #4A5D2C",
"H  c #414E3E",
"J  c #42533E",
"K  c #525F31",
"L  c #4B632D",
"P  c #4D6532",
"I  c #546A36",
"U  c #576B39",
"Y  c #5C733D",
"T  c #5A773D",
"R  c #1C2E40",
"E  c #1E3242",
"W  c #22384A",
"Q  c #243F55",
"!  c #2D484B",
"~  c #324949",
"^  c #395447",
"/  c #284356",
"(  c #29455E",
")  c #2D495D",
"_  c #324D58",
"`  c #3C5955",
"'  c #35515A",
"]  c #3A5658",
"[  c #3A555A",
"{  c #294661",
"}  c #2A4A65",
"|  c #2B4E6A",
" . c #324E61",
".. c #2D506D",
"X. c #375665",
"o. c #2E5574",
"O. c #2F5778",
"+. c #2F597B",
"@. c #315674",
"#. c #325B7C",
"$. c #39637A",
"%. c #434443",
"&. c #464A45",
"*. c #484B47",
"=. c #4C4D4C",
"-. c #445542",
";. c #4A5C46",
":. c #4A5748",
">. c #4C5E4A",
",. c #505E4E",
"<. c #425D57",
"1. c #535453",
"2. c #575A56",
"3. c #5C5C5C",
"4. c #4C634B",
"5. c #526E4D",
"6. c #5E7442",
"7. c #5D7C42",
"8. c #59774B",
"9. c #486454",
"0. c #576956",
"q. c #587453",
"w. c #627643",
"e. c #627C44",
"r. c #687A47",
"t. c #657D49",
"y. c #697D4B",
"u. c #637D5B",
"i. c #445E63",
"p. c #496467",
"a. c #53716E",
"s. c #636362",
"d. c #686B67",
"f. c #6C6C6C",
"g. c #67766C",
"h. c #6F7070",
"j. c #737473",
"k. c #7B7B7B",
"l. c #5D813D",
"z. c #5D8244",
"x. c #5F864A",
"c. c #638145",
"v. c #65824A",
"b. c #6A834C",
"n. c #688A4D",
"m. c #6C8450",
"M. c #6D8A51",
"N. c #718452",
"B. c #748B57",
"V. c #769058",
"C. c #6B866D",
"Z. c #7B9371",
"A. c #839B68",
"S. c #859A74",
"D. c #88A36C",
"F. c #8DA474",
"G. c #8BA679",
"H. c #97A87A",
"J. c #99B27C",
"K. c #A0A57D",
"L. c #325E81",
"P. c #336185",
"I. c #35658B",
"U. c #3A6789",
"Y. c #36688F",
"T. c #366A92",
"R. c #396C94",
"E. c #376E99",
"W. c #386E98",
"Q. c #3C7097",
"!. c #37709A",
"~. c #3B729C",
"^. c #3B76A1",
"/. c #3B79A6",
"(. c #3D7CAA",
"). c #4B7E87",
"_. c #42769A",
"`. c #437DA5",
"'. c #427EAA",
"]. c #67959A",
"[. c #4281AE",
"{. c #4985AA",
"}. c #548EAC",
"|. c #4485B3",
" X c #4987B2",
".X c #4788B6",
"XX c #4D8AB5",
"oX c #4C8DBB",
"OX c #4E91BF",
"+X c #5192BE",
"@X c #76A1AA",
"#X c #4F92C0",
"$X c #5295C3",
"%X c #5598C6",
"&X c #589AC6",
"*X c #569AC8",
"=X c #599ECC",
"-X c #5DA1CE",
";X c #62A3CD",
":X c #64A6D1",
">X c #69ABD4",
",X c #848484",
"<X c #8A8A8A",
"1X c #939393",
"2X c #9B9B9B",
"3X c #97AA85",
"4X c #A1B582",
"5X c #A3A3A3",
"6X c #A9A9A9",
"7X c #B3B3B3",
"8X c #BCBCBC",
"9X c #C3C3C3",
"0X c #CBCBCB",
"qX c #D2D2D2",
"wX c #E5E5E5",
/* pixels */
"T z.z.l.z.c.z.T e.T T c.e.r.T l.l.l.l.T l.w.w.Z 4 A A A z G w.y.6.G.F.D.Z.p.p.i. .[ <./ j S 4 A z l 7.7.T z.e.e.T c.7.T c.7.v.n l b G y.7.7.7.T c.r.Y N.U 4 S k ",
"z.z.z.z.c.v.v.c.b.n.b.n.c.c.c.c.l.c.n.c.b.N.A.F S F F Z x G y.q.` p.p.a.a.I.I.| o.I.L.I.' ~ ~ ~ ~ m v.b.v.b.v.c.v.v.v.e.M.c.M.L z n P v.t.b.c.c.c.c.r.N.6.A F F ",
"z.x.x.x.c.c.c.c.v.b.c.e.r.c.b.c.c.c.c.c.c.r.r.K A Z Z F x ^ ` [ ( ( +.I.T.(.(.o.L.(.(./.R.I.L.{ { ! 9.9.e.b.c.7.c.e.c.c.v.T v.L v n L b.b.M.v.c.n.b.n.r.I F b z ",
"x.x.z.x.c.t.c.e.e.w.L L L b.c.l.l.l.b.T K K K Z F A K 1.[ $.I.I.I.Y.^.(.(.(./.o.L.#X(.`.'.(.^.I.I.I.I.L.[ <.8.c.V.D.D.A.M.v.M.7.U Y 6.b.e.e.L G F D L L P r.w.r.",
"7.e.e.v.b.b.y.y.b.w.l x l c.r.b.c.c.n.Y D x S b Z j _ } P.^.(.(.(.(.(.|.OX$XOX#._.$X#X#X#X.X/.'.(.(.(./.I.| ' 9.V.G.J.H.7.e.t.7.b.v.c.b.e.6.n x D c n l L b.v.v.",
"t.y.y.r.b.N.N.b.m.e.v v l e.r.n.c.e.v.w.D n b ~ ~ / | T./.(..X+X#XoXOXXX(.'.%XL.L.`.`.`.'.'.#X#X#X#X.X/.(.Y.o.) 9.a.S.J.7.b.b.n.c.7.c.v.b.b.G m v v n l P n.v.v.",
"t.m.y.Y I U Y U U U I I I r.v.v.b.w.c.w.V ~ ! { #.O.o.(.oXOX X`.`.`.`.~.Y.T.`.@.{ L.I.I.Y._.'.'.(.`.|.OXOX[.+.@.~.| X.9.9.v.t.v.c.c.v.e.t.y.n b D P I P Y v.7.z.",
"r.m.r.F z x Z v x L y.b.B.r.n.y.t.e.b.9./ ..I.T.^.L.#.oX[.'.~.Y.Y.Y.Y.I.#.#.L.#...{ L.L.L.L.I.I.Y.I.Q.[.`.oXP.U.$XT.Y.o.) 9.8.7.z.c.n.e.e.m.F m D 6.m.y.v.x.z.x.",
"r.N.r.D v v D n x G y.t.b.t.t.t.q.<.<.L.I.E.(.(.oXXX_.U.Y.Y.Y.T.Y.L.#.#.o.@.@.L...} o.@.@.L.L.L.L.Y.Y.Y.Y.L._.XX%X[.(.!.I.P.` ` 5.l.z.c.c.t.D n b 6.y.b.n.z.z.l.",
"r.y.r.G D v n F v L r.t.m.B.m.0. .} I./.(.(.'.oX'.`.~.O.o.#.#.#.#.+.+.@.o.@.@.O.| } o.O.@.O.o.o.L.L.L.+.o.o._.`.[.oX'.(.(.(.T..._ 9.n.c.v.6.L F F 6.y.t.v.c.n.n.",
"Z Z D x D D U m.b.b.t.e.b.A.a. ...T.(.(..X#XoX`.R.Y.I.#.| } ..@.O.@.o.o.@.} } } { ( } } ..@.@.@.@.O.o.} ..#.I.I.T.`.oXOX.X(.(.T.O.) ` l v m 7.b.8.M.b.v.v.7.c.7.",
"Z Z D v D v P m.t.b.b.t.u.p.) #.E.(.(.oX X`.`.Y.L.#.#.@.o.o.| ..o.| } } } Q 9 5 8 8 9 Q { } | | o...| ..@.@.+.L.L.U.`.`.|.oX(.(.!.+.( ! m F v.b.v.M.t.c.b.v.m.b.",
"c x c x m v P M.b.v.b.w.8.} L.^.(.(.#X'.W.Y.Y.#.+.o.o.} } } { ( ( 9 7 7 8 7 & & & & & 7 7 8 8 8 ( { { } } } ..@.O.#.I.Y.E.[.oX[.(.^.I.{ m c e.c.c.c.t.c.y.r.b.r.",
"Y Y w.Y 7.U 7.v.7.n.F.C.p.Y./.(.'.oX'.T.L.#.#.+.@.o.Q 7 8 8 8 8 5 : & & & & > , 2 2 > & & & & & 7 8 8 7 8 8 Q | O.O.#.#.P.T.`.oX|.(./.Y.X.5.c.c.b.v.v.m.Y L K G ",
"e.b.b.c.M.v.v.v.v.M.C.X.| /.(..XXX`.T.Y.L.+.o.o.} W 5 & , & , , = w w 2 w , w w y w w 2 2 w 2 w > , > & , & : E } O.O.o.#.Y.Y._.XXoX(./...) 9.l.l.r.c.b.I D F Z ",
"e.c.b.T v.v.v.7.6.9. .#.`.(.oX|._.U.L.#.#...{ 9 8 : > 2 y w u s , , w s k k k k s k k s k u w , 2 u u w y w = = 8 9 ( ..#.L.#.I.~.{.OX(.[.$./ <.c.c.n.N.U Z Z Z ",
"c.c.7.v.v.e.V.V.B. .( ..Q.OX`.Y.L.Y.O.O.| Q 5 & > 2 w y y y s k s , u y , > , , , , , , , w u , u k g y y y w 2 , > 5 Q } @.+.I.L.R.'.`.T.o.{ { w.Y Y U I I L U ",
"c.c.7.v.z.z.A.S.p.I.R.+.} $.Y.I.L.#.O.| W 5 2 u w w u s s g w > > # = 1 3 < < M i # e e e 1 > # > > w g k k y w 2 y w q R } o.#.L.L.L.L.{ o.T.I.X.J l l L m.m.c.",
"v.b.v.v.e.T u.p.Y./.(.[._.} P.T.P.@.} 9 = , y u w 2 , > , > 2 e e 1 : r d h J q.M % d d h d e e 2 y 2 > , > , , w u y , = 9 { ..L.T.L.{ _.'.'./.T...V c L m.b.b.",
"w.w.b.M.b.n.a.../.(..XXX_.L.o.O.#.| 8 = , w y s , # O O : < h *.d d d e = : 6 i < @ = : = p -.M M *.W e e # O # > s y w , & 8 } L.O.o.L._.'.#X/.(...V l L b.y.e.",
"H.J.J.H.F.g.$.T.E./.OXoXI.#...| Q 8 & , y u u > O o = r d 2.s.2.-.3 = # . o o $ % X o o @ % < < J 2.s.s.N e * o O > u u y , > 6 Q } ..L.I.'.#X/./.E.o.V P M.m.m.",
"K.H.H.G.J.p.+./.R.XX{.~.I.O.o.| R # w y s u & O : e p B d.,Xj.=.e # $ % * * * * % @ $ * * @ @ X 3 &.f.,Xd.B p e : # & y s y w % 9 } O.@.L._.'.#X(.(.P.! I e.e.r.",
"K.K.3XG.G.p.O.!.R.$X{.I.I.@...0 ; & y s w & % < p ,.h.h.k.f.%.5 o * * : < * < < * @ = = < * $ + X = %.f.k.h.h.2.a q % & , k y % - R | @.T.L._.$X[.(.P.! P y.t.e.",
"H.1X].p.p. ...I.P.+X`.P.#.O.} 7 O = y u > # q p d s.,Xk.j.3.t o * = = = * = : < < @ < < 3 6 < * @ X t 3.f.k.,Xd.h p q O > u y > O 7 { o.L.L._.$X[./.P.( X.p.}.@X",
"K.@X&X{.Q.....+.#.+X{.#.o.o.} 7 # > , y & = d h *.d.j.d.f r : & = < e 3 < < * < = @ = < < < < * - o - w t s.j.d.=.h i = % w , , - 7 { o.o.L.`.$X(.Y.o.| R.`.$X@X",
"K.g.U.`.XX[.#.| #.+X[.I.P.O.} 7 > s s > : e d h 1.3.1.e o . o % = < < < < < < 3 < @ * < * * < * : O o . o q =.s.1.h r = O : u s , 7 { o.L.L.`.%X(.O.O._.#X`.U.).",
"H.g.} Y.~.OX~.{ #.+X[.$.+.o.} 8 = s k ; : p h d e 6 = . o r 5 o < * < 6 3 3 3 e < @ 3 6 < < < = : @ ; t o . ; q p h a e = % k s > 7 { o.L.L.'.$XT.| _. X`.Y.| p.",
"H.g.| !.Y.~.R.+...oX`.P.O.o.} 8 & y u & 3 d d : * % O = 3.=.r . @ * < < < < < e < @ < < < < < * $ o 2 =.s.; . @ < d h h q % u u = 7 { o.O.L.`.+X..O.R._.Y.E.o.p.",
"J.g.) o.......| ( #.O...} } { 8 & u s & r h p * = % o 6 k.k.1.q @ < 3 < < : = 3 < @ * = < 3 e < @ q =.k.,Xq . @ < d h h r % s u > 8 ( { { | o.L.{ ........@.| s.",
"D.Z.a.{ +.L.I.T.R.Y.Y.R.T.Y.| 8 & u k ; q h d : : @ : =.j.<X=.# + @ @ < e e 3 e < @ < e r < @ @ X @ &.,Xj.1.q O : e J H e = g u > 7 { ....o.L.L.T.T.T.T.T.T.).S.",
"c.n.q.) P.Y.T.T.P.P.P.P.P.P.} 8 & y u & q C -.< = @ e 3.f.%.% r d.*   . @ @ 3 i < @ 3 % @ X   @ s.f % j f.3.t @ : < ;.-.r % y y & 7 { o.@.L.L.L.L.Y.E.E.T.+.S.3X",
"z.z.5.) | ....| } } } } { } { 8 & , w & q &.4.< = @ % t 2.= j ,X1XH %       + @ @ @ +       X h 1X<X=.% 1.t * @ * : j N q % y , & 7 ( } } { } } } | | | } { j.3X",
"z.x.8.q.5.[ { ..o.| o.| { | { 8 # , w % 3 H 4.< $ @ o o * o &.<X2X<X=.t q . . . o .   . q f %.,X2X<X1.o & O X O # : -.H q % w , % 7 { ..{ } o.....o.} X.S.S.S.4X",
"z.n.x.m.y.` | O.O.o.O.| { o.} 8 % , w & e h M < X *.s.< . u 3.k.5X8X7X2X,Xj.j <Xf.% j f.,X1X6X5X2Xj.1.f   O =.1.o < ;.J e % y , # 7 { o.} | @.@.@.L.o.p.S.V.y.B.",
"6.7.7.m.v.[ o.P.P.#.O.| { O.} 8 & w w & e h d : o 3.2Xj.: % =.j.,X6X9X0X9X9X9XwX<Xt <X8X9X0X9X2X,Xf.%.: % ].5Xf.# < ;.-.r % w w & 8 } ..} | #.U.L.R.O.i.V.y.b.e.",
"M.v.y.m.N.<.o.T.Y.I.I.O.{ o.} 8 & , , % e h d : O ~ k.2Xk.e f f.,X1X6X8XqXqXwXwX,Xj 8X0XqX8X6X<Xs.k.3.t 2X0X1X&.o < ;.J q % , , & 7 { o.} ..I.Y.R.'.R.p.A.e.b.c.",
"6.Y U 6.Y ' O.~.Y.Y.[._.} L.| 8 > s s & e C -.: & = %.<X2X,X,X<X<X<X<X6X0XqXqXwX<Xf 6X0XqX7X<X<Xk.1X<X,X6X5X1.- @ < ;.-.r & u u , 7 } L.} O.Y.T.`.#X_.i.B.w.v.c.",
"z z n b n ! +.(.^.T.XX`.} I.| 8 & s k : q H 4.< = # % j ,X2X1X<X<X<X<X1X6X0X0XwX<Xt 2X5X5X1X,X,X<X<X2X2X,Xj & X % : h N e & g g , 7 } I.} O.T.Y.(.$X_.' b.y.b.t.",
"Z Z F x x ! +.(.(.U.XX`.{ +.} 8 O 2 k = e H 4.< = * @ = 3.,X<X<X,X<X<X,X<X2X2X0X,Xt <X<X,X,X,X<X<X<X<X,Xs.= O - < e a p 6 = g w % 7 { +.} L.!.W.(.$X_.[ b.e.c.c.",
"S S F D F ! +.(.(.`.+X`.{ O.} 8 & y k = e J 0.d.p = $ X = 1.j.<X1X2X<X<X<X,X,X8Xk.t ,X,X<X<X<X2X2X<X<Xj.1 o % : r d.&.i e q g y & 7 ( o.} I.(./.(.'.L.' t.c.e.c.",
"Z F x w.y.[ @.W././.'.T.{ O.} 8 & u k & q C q.,Xa % %   . =.,X2X2X5X2X1X<X<X<X8Xk.r ,X<X<X1X2X5X5X2X<Xs.X   $ & e k.=.i < = g u > 7 { ..} P.(.^.(.(.P.' T c D v ",
"Z F n r.m.[ o.W./.E./.Y.{ o.{ 8 & , y & q &.0.s.d.j   @ %.3.,X2X5X2X7X9X8X8X1X8Xk.t ,X1X7X8X9X8X5X2X,X3.%.@ @ h f.s.B p < & t w % 8 { o.} L./.E./.(.P.] T c c c ",
"4 S v w.y.[ o.T./.T.^.I.{ o.{ 8 & w y & q H 0.3.s.h   # 1.3.s.k.2X2X5X5X7X0X8X0Xk.t 2X8X0X0X9X6X2Xk.s.3.2.% . t s.2.j p : % w w = 7 { o.} I.^.Y./.(.P.] I c v v ",
"U Y U b.b.` ..W./.T.^.I.{ o.} 8 & u s = e H >.q =.p   * s.3.3.=.%.%.%.%.3.5X6X9Xk.t 2X9Xk.=.=.k %.1.2.s.s.=   q 1.h h p : = s u & 7 { o.} L.^.W./.(.P.~ T I Y Y ",
"n.v.v.v.b.] o.R.(./.E.L.} @.} 8 & y k = q H ;.@ &.t = =.f.<Xs.f q o O X O y 3.2Xd.q j.%.& . O . 1 f 3.<Xh.=., q =.= p h e & g y = 7 { o.{ +.!././.(.P.! I m.m.b.",
"8.7.7.z.v.] ..E.(.#X'.O.} L.| 8 & , 2 # e C ;.% r : < 3.h.1X1Xf.u .   X   O 1.<Xs.1 1.&       O e d.1X1Xj.3.t * i @ &.C t % w , & 8 } L.| o.!.(.(.(.P.! P y.r.r.",
"x.x.n.x.v.` o.R.'.$X'.O.| L.| 8 = s s = q M h @ q % 1 3.h.1X5X2Xk.: o O w d.3.<Xs.5 3.d.t & O > j.7X8X1Xj.s.i @ 6 % :.-.q & u g < 7 { I.| o.!./.(.(.P.! P N.y.u.",
"z.z.n.7.z.] o.R.'.$X'.L.| Y.| 8 & s k : e M p @ < - 1 2.f.j.<X2X2X,X).,Xk.f.<X8Xj.t <Xf.j.).S.5X8X0X6Xk.f.0.e % 3 % ;.-.e ; g u ; 7 } I.| o.!.(././.P.! G N.y.t.",
"z.c.e.c.T <.o.T.(.$X`.#.| P.| 8 % y k = q H -.# 6 3 < 3 2.f.j.k.k.k.k.k.k.j.8X0Xj.u 2Xj.j.k.).<X,X,X).j.3.q < 3 3 # ;.J e % k u > 7 } L.| +.E.(.(./.L.! I v.u.t.",
"c.c.e.n.y.<.o.T.(.'.!.+.} O.} 8 = y u & q H >.o 3 r : # =.3.s.h.h.h.s.s.k.2X8X1X%.y 1X2Xk.f.f.f.f.h.f.3.1.@ * r 3 % -.&.e * y y > 7 { @.} O.E.(.(.(.P./ I 8.v.n.",
"T e.e.A.D.p.o.T./.P.+.o.( o.} 8 & u g & q H >.% 3 i < . * # j 0.3.3.f.f.k.1X%.1.g % k <X,Xf.f.3.3.3.k > * . < i 3 @ d N e & s u : 7 { o.} | L.L./.(.L.[ t.v.x.v.",
"b.M.b.F.J.p.+././.L.L.O.} O.} 8 & u k = q H ;.O 3 e 3 < < o . i =.2 1.j.k.1Xw k j o , <X,Xj.3.< =.u O O < < 3 e 3 @ p h e & k u > 7 { @.} o.L.+.^.(.L.[ v.b.v.v.",
"Y r.Y D.F.p.o.T.T.#.+.o.} L.} 8 & u k = < d h @ < 3 < < e 3 @ . &   1.h.).2X3.1.j ; 1.1X,Xh.3.X # O + 3 i < < < : @ p h e % g u : 7 { L.| | #.#.Y.T.O.[ 8.c.x.x.",
"A.D.Z.S.p.) o.I.+.@...| ( } } 8 = y y & : p p @ 1 e < < e i * . O O 1.h.j.k.f.<X2.q f.j.j.j.3.%     % i e 3 3 e < # i h r % y y > 8 { } { } o.@.O.I.O.( [ 8.z.z.",
"H.J.G.3XX.} } | } } | } } o.O.9 & y w % : p p @ < e e e e i 3 * % s.f.h.j.h.h.1Xs.6 f.h.h.h.f.d.: * 3 e i e i e 3 @ p h r % w y > 8 o.O.} } } | } | | } } _ 5.n.",
"F.J.H.G.X.L.^.E.^.!.!.Y.#.^./.E & w y - < p d @ = 6 i e e e e < % j.k 3.,Xs.f.1Xs.2 f.s.,Xs.u k.: = r e e e e 3 : # ^ &.e % w y = E ^.^.^.!.!.W.!.~.^.!.E.| 9.l.",
"G.3X3XS.X._.%X%X$X$X$XOXoX$X$X/ O , y & : h -.@ * < < < < < 3 < o =   1.<Xs.3.<Xs.q d.s.,X2.  = + < e < < < < < * @ -.-.e % w , & W +X+X%X$X$X$X$X$X%X+XXX..x.n.",
"J.H.S.q._ P.W.~.'.'.`.W.R._.R.W O > w & : N ;.@ * < < < 3 e e e < X   : =.<Xs.<Xs.< s.<X1.:   X < e e < e 6 < < < @ h N e % w , # 9 U.P.Y._._.~.Q.Q.Q.Q.P.| C.J.",
"F.C.a.}.@.} | | o.o.| | | | | 9 # , , % : a h @ * < < < e e e e e 3 X %.<X1Xj.1Xs.< f.1X<X1.  3 3 e < i i < < < < @ i h e % , , % 8 | } | ..| | ........|  .C.D.",
"G.Z.].&X'.^.~.W.Y.E.!.^.~.~.~.W & y s & e h a @ * * * < < < < < : e @ 2.,Xa s.<X3.q s.f k.s.o q < < < < < < * < * @ i h e & s y = E ~.~.~.~.~.^.~.!.~.~.^.XX].3X",
"{.{.{.}.%X$X$X$X$X$X$X$X%X$X$X/ & y k > e C -.@ * * < * * < < < * < * 2.j.o 1 ,.C @ < @ d.0.@ < < < * * * < = = = o p h e & g u & Q +X+X$X$X$X$X%X$X$X$X#X$X{._.",
"{.Q.!.X.R.!.~.^.|.(.|.'.'.|.(.Q % u k = q H 4.@ % < * @ @ < * < : : : < : o r ;.M # i $ < < < < < < < @ $ * * = * # H ^ r & g u = E _.~.(.[.[.[.|.[.(.~.'.L.E.'.",
"}.oX!.} L.T.E.^././.E.T.T.Y.T.E & u k = e C 4.@ * @ 3 -.J e < < 6 e < * % @ p >.V % d % # < < 3 3 < i C -.< @ % % % ;.-.e & g f = 9 I.I.T.^.^.T.T.R.Y.Y.Y.} T..X",
"}.oX!.} L.T.T.E.T.T.Y.Y.I.#.#.9 & y g = e C ;.@ @ M -.N e < < < < < = : & @ p 4.N % p @ % < < < < < < i N -.i @ % @ ;.*.e % k y = 9 O.O.I.Y.T.Y.Y.Y.Y.Y.I.} T..X",
"}.}.!.} $.I.I.I.I.I.+.O.O.o.O.9 # 2 y * < p h * V &.M p : * < * < < < < # + p >.M * p # @ < < * * < * < p M J ;.^ * -.J e % y 2 % 9 ..@.+.+.#.Y.I.I.I.I.L.| T..X",
"}.OX!.| | ....| ....| | | | | 9 # > w % < i M -.C M p < = = < < < < V p * * d 4.M * d : * i C < * < < < < p M N M p M a < % w , # 8 | } } } } | | ..| | | | T.oX",
"}.&X}./././.^.~.^.^.~.^.~.~.^.E O , w % < i h M h h e @ + < < < < 6 < M 4.J M >.N % h -.4.h * @ < < 6 < @ i h d h h h p : % w , # 0 _.^.^.^.^.`.`.~.^.^.^.^.#X*X",
"{.+X-X+X$X$X$X$X$X$X%X$X$X$X%X/ O , w % < r i d d e % @ $ * * * * * @ 6 M M d 4.M % d M M i @ @ * * * * $ % i d p d d p < % w , O Q $X$X$X$X$X$X$X$X$X#X#X$X$X*X",
"_ I.(.[.[.[.[.(.[.[.(.[./.~.~.E O , , % : t e r d C C d -.-.-.;.-.-.-.N i e i ;.N * i i p N -.-.-.M M -.-.-.N d p i r r < # > > O E _.W.`.'.(.'.'.'.(.E.~.E.'.T.",
"! O.!././.(.(.(.(.^.!.R.R.Y.Y.E O > & # : q e q e i i e i p p p p p p i e e 3 ^ M + e 6 e i p p p i i p d i i i e e e e : # & & % 9 I.I.Y.T.E.(.'./././.^.Y.Y.L.",
"_ o.Y.T.^./././.(.E.Y.I.I.+.Y.E O = - - ; ; - - ; ; ; ; ; ; ; ; ; ; - - : - ; < ; $ ; ; ; ; ; ; 6 < : ; - $ - ; - ; ; ; : % - - # 0 I.+.I.Y.T.E./.E.E././.T.I.L.",
"' o.Y.Y.T.T.T.T.Y.I.Y.P.#.o.#.E 9 Q Q Q Q / Q Q Q / Q Q Q Q Q Q Q Q / Q / Q Q Q / Q Q Q / / Q Q / Q / Q / Q / / Q Q Q Q Q Q Q / 0 W +.O.O.L.I.I.T.I.T.T.Y.T.Y.L.",
"' o.I.P.+.o.O.O.o.O.O.o...o.o.) { o.O.P.Y.P.O.O.o.o...{ o.o.o.o.+.I.+.o.o.O.O.O.O.o.O.O.O.O.o.O.O.o.o.o.o.{ | O.O.o.O.o.O.O.o.o.{ { o.o.o.o.@.O.O.O.O.O.O.L.I.O.",
"' ( | } } { } } } } } } } } } } | +.Y././.!.I.T.Y.Y.#.} o.O.P.I.T./.!.I.Y.I.Y.Y.I.Y.Y.Y.I.I.Y.I.Y.Y.Y.I.@.} ..#.I.Y.Y.Y.Y.P.@.#.| { } { } } } } } } } } | ....} ",
"_ | o.o.O.P.I.I.I.I.I.I.I.I.I.I.Y.T././.(./.(./././.T.O.+.P.!.(.(.(.(.(.(.(.(././.(.(.(.'.(.(.(.(.(.!.T.I.O.P.Y.T.^.^.(.~.T.Y.Y.I.L.o.o.L.I.L.I.I.L.L.L.L.I.L.@.",
"' | +.I.R.^.(.(.(.(.'./././.(.(.(.(.[.[.(.(.(.(.(.(.!.+.Y.~./.|.*X$X*X*X%X$X-X|.(.|.%X*X%X%X%X%X%X.X(./.Y.#.P.T.E.(.[.'.[.(.(.(.`.E.T.I.T.Y.W.T.E.T.T.E.T.T.T.+.",
"_ ..I.R.OX%X$X*X*X*X*XOX[.[.OX*X*X$X*X*X$X*X*X$X.X(.!.#.~.(.(..X-X*X-X-X-X$X-X%X%X$X-X-X-X-X-X-X-X=X*X$X(.P.P.!.|.%X*X*X*X%X*X*X$X$X$X'.'.'.'.(.(.'.'.(.^.T.Y.L.",
"! @.E.(.%X-X-X-X-X-X:X>X-X-X-X:X:X-X=X-X-X-X-X-X*X.X!.L./.(..X$X-X%X$X$X*X-X-X-X-X-X-X*X-X:X:X>X>X>X:X*X&XQ.!.|.$X%X*X*X*X-X>X;X=X-X>X:X>X>X;X&X*X*X&X#X'.(.'.I.",
"! +./.(.OX%X%X%X$X$X%X*X%X%X%X%X%X%X$X$X%X%X%X%X%X.X!.T.^./.(.(.(.'.(.(.|.$X%X%X%X%X$X$X%X%X%X*X%X*X&X&X+XQ.~./.(.(.(.(..X%X*X;X-X$X&X$X&X&X&X$X$X&X&X$X$X$X$X`.",
"$.I.R.R.Q.Q.Q.Q.Q.Q.Q.Q.Q.Q.Q.Q.Q.~.!.!.Q.Q.Q.Q.Q.R.T.T.T.T.T.T.T.T.T.T.T.!.Q.Q.Q.Q.!.!.Q.Q.Q.Q.Q.!.Q.Q.Q.T.T.R.T.T.R.T.R.Q.Q.Q._.R.R._.R.W.W._.W.W.W._.E.E._.Y."
};
