/* XPM */
static char *result[] = {
/* columns rows colors chars-per-pixel */
"70 70 196 2 ",
"   c #030603",
".  c #050904",
"X  c #090D07",
"o  c #0B0E0A",
"O  c #120F0D",
"+  c #0E120D",
"@  c #12120E",
"#  c #0F1314",
"$  c #131411",
"%  c #191614",
"&  c #151A14",
"*  c #1A1B17",
"=  c #141618",
"-  c #151A1A",
";  c #1A1D19",
":  c #211B17",
">  c #221D1A",
",  c #192017",
"<  c #1D221C",
"1  c #23241E",
"2  c #29221E",
"3  c #141B22",
"4  c #191D21",
"5  c #1C2323",
"6  c #17232D",
"7  c #18232D",
"8  c #172530",
"9  c #1A2530",
"0  c #1B2A36",
"q  c #1C2C3A",
"w  c #1E303E",
"e  c #222621",
"r  c #2C2521",
"t  c #242A23",
"y  c #2B2B25",
"u  c #2B2D2A",
"i  c #322A25",
"p  c #352D2A",
"a  c #382F2C",
"s  c #293027",
"d  c #2D342B",
"f  c #2F382D",
"g  c #30342E",
"h  c #39312E",
"j  c #313A2E",
"k  c #333433",
"l  c #3C3431",
"z  c #333D32",
"x  c #383E36",
"c  c #3B3C3A",
"v  c #413834",
"b  c #364234",
"n  c #394436",
"m  c #3C443A",
"M  c #3D4B3B",
"N  c #40493E",
"B  c #41503F",
"V  c #1E3242",
"C  c #203445",
"Z  c #21364A",
"A  c #223A4C",
"S  c #243E54",
"D  c #254056",
"F  c #27425A",
"G  c #2A4659",
"H  c #294761",
"J  c #2A4A65",
"K  c #2C4E6A",
"L  c #334C66",
"P  c #364D68",
"I  c #2D516E",
"U  c #335167",
"Y  c #34526A",
"T  c #3B536D",
"R  c #3C5B6E",
"E  c #2E5574",
"W  c #2F5778",
"Q  c #2F597A",
"!  c #325675",
"~  c #3D5673",
"^  c #335875",
"/  c #3D5E73",
"(  c #305778",
")  c #315B7C",
"_  c #395C7D",
"`  c #3F6073",
"'  c #434342",
"]  c #474A47",
"[  c #4B4D4B",
"{  c #435441",
"}  c #465844",
"|  c #495A45",
" . c #4D514D",
".. c #4C5E49",
"X. c #50534F",
"o. c #535452",
"O. c #575857",
"+. c #5C5C5C",
"@. c #576853",
"#. c #5F605F",
"$. c #41526D",
"%. c #455673",
"&. c #495676",
"*. c #445A73",
"=. c #495B76",
"-. c #4B5C79",
";. c #545F7C",
":. c #446372",
">. c #476776",
",. c #4B6A76",
"<. c #486C74",
"1. c #4D647A",
"2. c #4B6B79",
"3. c #52617C",
"4. c #59617D",
"5. c #52747B",
"6. c #56767C",
"7. c #636463",
"8. c #676967",
"9. c #6B6C6B",
"0. c #6F726F",
"q. c #737373",
"w. c #7B7B7B",
"e. c #80827F",
"r. c #325E81",
"t. c #346185",
"y. c #396384",
"u. c #3D6A87",
"i. c #35658B",
"p. c #38668A",
"a. c #36688F",
"s. c #3B698C",
"d. c #366A92",
"f. c #396D95",
"g. c #376E98",
"h. c #386F99",
"j. c #3B7097",
"k. c #37709A",
"l. c #3A729B",
"z. c #3A76A2",
"x. c #3B79A6",
"c. c #3D7CA9",
"v. c #466886",
"b. c #5A6582",
"n. c #4D7984",
"m. c #557A83",
"M. c #5A7C82",
"N. c #467798",
"B. c #577299",
"V. c #606785",
"C. c #666D8C",
"Z. c #607F83",
"A. c #4377A1",
"S. c #427BA4",
"D. c #427EAA",
"F. c #5E8387",
"G. c #52839C",
"H. c #638486",
"J. c #648689",
"K. c #678A8B",
"L. c #6A8D8E",
"P. c #4482AD",
"I. c #4984AE",
"U. c #538AA9",
"Y. c #4585B2",
"T. c #4986B1",
"R. c #4789B6",
"E. c #4A89B5",
"W. c #4A8CB9",
"Q. c #568DB8",
"!. c #4E91BF",
"~. c #5191BD",
"^. c #5D93BD",
"/. c #5F98B9",
"(. c #6396AB",
"). c #5295C2",
"_. c #5599C6",
"`. c #599BC6",
"'. c #579BC9",
"]. c #599DCB",
"[. c #5EA2CE",
"{. c #61A4CE",
"}. c #63A6D0",
"|. c #66A8D2",
" X c #848484",
".X c #8A8A8A",
"XX c #929392",
"oX c #9B9B9B",
"OX c #A2A2A2",
"+X c #ADADAD",
"@X c gray70",
"#X c #BBBBBB",
"$X c #C4C4C4",
"%X c #CCCCCC",
"&X c #D7D7D7",
"*X c #E5E6E6",
/* pixels */
"C.L.L.L.C.L.L.L.L.C.L.L.L.L.L.L.C.L.L.L.C.L.L.L.L.C.L.L.L.L.L.H.*.R R R Y R >.H.L.C.K.L.L.L.L.L.C.L.L.L.C.L.L.L.L.C.L.L.L.L.L.L.C.L.L.L.C.L.",
"C.L.L.L.C.L.L.L.L.C.L.L.L.L.L.L.C.L.L.L.C.L.L.L.L.C.H.M./ / / ` y.i.I E p.a.t./ *.T / m.J.L.L.L.C.L.L.L.C.L.L.L.L.C.L.L.L.L.L.L.C.L.L.L.C.L.",
"C.C.C.C.C.C.L.C.C.C.L.C.C.C.C.C.C.C.C.C.C.C.L.V.b.-.:.! I K t.g.z.c.E t.P.c.z.f.i.I K ~ %.3.4.V.C.C.C.C.C.C.L.C.C.C.L.C.C.C.C.C.C.C.C.C.C.C.",
"C.L.L.L.L.L.L.C.L.L.L.C.L.L.L.C.L.L.L.L.L.L.6.*.~ a.h.h.k.k.x.Y.Y.Y.W s.).Y.Y.Y.c.k.h.h.k.t.Y *.6.L.L.L.L.L.L.C.L.L.L.C.L.L.L.C.C.L.L.L.L.L.",
"C.L.L.L.L.L.L.C.L.L.L.C.L.L.L.C.L.L.L.H.2.:.T E d.x.Y.E.W.W.W.Y.I.).r.y.Y.P.P.Y.E.W.W.W.D.x.a.K R ,.5.F.L.L.L.C.L.L.L.C.L.L.L.C.C.L.L.L.L.L.",
"C.L.L.L.L.L.L.C.L.L.L.C.L.L.L.C.K.F.:.:.J ) E r.Y.!.T.P.D.P.S.j.d.S.) K r.p.a.h.D.D.D.D.W.).D.r.) v.K R <.F.L.C.L.L.L.C.L.L.L.C.C.L.L.L.L.L.",
"C.L.L.L.L.L.L.C.L.L.L.C.C.C.C.C.H.R I i.p.z.) s.R.D.l.a.p.i.i.t._ ) ) K K ) ) y.i.a.a.a.z.D.E.p.s.~.d.t.K R J.C.L.L.L.C.C.C.C.C.C.L.L.L.L.L.",
"C.C.C.C.C.C.C.C.L.L.L.C.L.L.M.>.^ i.d.x.c.W.P.N.i.a.s.a.i.t.) W E W ) E J E W W r.r.i.a.a.i.i.N.E._.P.x.d.i.~ ~ M.L.L.C.L.L.L.L.C.C.C.C.C.C.",
"C.L.L.L.C.L.L.C.C.C.C.C.H.2.Y I d.x.c.D.W.P.S.d.W ( ) ) ) E E W E E E K J ! ! E E E ) r.r.E E h.S.D.W.D.c.x.d.E P -.V.C.L.L.L.L.C.L.L.L.C.L.",
"C.L.L.L.C.L.L.C.L.L.K.b.:.K ) k.c.Y.W.T.A.d.i.r.E K K ! E E E P K D S S S H K I E E ! E I K ! r.p.p.S.E.W.Y.x.l.) I :.b.L.L.L.L.C.L.L.L.C.L.",
"C.L.L.L.C.L.L.C.L.L.J.~ E i.z.c.T.P.l.h.i.) ) E K K J J K S A A C 4 - 4 4 4 C Z Z A K H J I I ! Q ) t.h.z.Y.Y.c.x.a.E *.K.L.L.L.C.L.L.L.C.L.",
"C.L.L.L.C.L.L.C.L.L.2._ k.x.Y.E.S.d.y.r.( E E S q q q q q - % % * : > > > % % * % - 0 q 0 q 0 S E W W r.y.d.D.E.Y.x.k._ 5.L.L.L.C.L.L.L.C.L.",
"C.L.C.C.C.L.L.C.K.:.Y g.x.Y.E.S.d.y.W W W P C 4 * % : > % 2 2 2 r 2 r i i > 2 2 2 2 : > % > : 4 V K ! E ) p.d.A.E.Y.c.a.L ,.K.L.C.L.C.C.C.L.",
"C.L.L.L.C.L.C.C.%.K f.c.W.Y.l.i.r.) E H q 7 - > i r p h 2 2 i a l l l l v v l h r 2 2 p p r r : - 7 q H E ) r.i.l.Y.W.D.s.J %.V.C.L.L.L.C.L.",
"C.L.L.L.C.L.L.J.L G ` Y.P.p.t.y.E E H 4 % : > i i i a v h 1 i 2 : : : > : > > 2 p > p v a i r r 2 > * 9 F ! W i.y.p.S.l.) H J M.C.L.L.L.C.L.",
"C.L.L.L.C.K.M.` a.a.! ) i.i.t.) ! S 7 e p r r p l l r : > @ ; t 1 1 n s @ t t 2 : $ > > i l l p r 2 p r 9 S E ) t.i.t.K ! d.d./ ;.L.L.L.C.L.",
"C.L.L.L.C.m.^ g.x.P.S.W ) i.t.I A 5 > i a r : * : : t g s 1 t s d n } f & d d f g s s d y > % : * > a i : 4 S K r.i.( _ D.D.c.g.! 5.L.L.C.L.",
"C.L.L.L.4.` t.l.c.W.S.y.E E K Z 4 > i a r % O % 5 x [ X.M s < & # , < * + + + < z s n  . .c > O O % r p i > 4 C H ! E i.P.!.c.c.t.:.Z.L.C.L.",
"C.C.C.C.=.) l.g.T.T.h.) E K V = r i p > $ & < s [ q.0.[ f $ $ $ $ + & $ o $ $ # + $ d  .0.0.N t ; * $ > p i > = q J ! r.j.T.W.c.x.) 3.C.C.C.",
"C.L.L.L.>.E g.d.~.x.p.) K V 3 % i p * O ; s o.9.q.q.[ e + @ * * , , < & + * , , $ o o e [ q.q.8.O.d ; % > a i % 3 Z K r.i.j.'.c.x.) 5.K.L.L.",
"C.(.G.^ U I i.t.!.l.t.E J 7 O > i 2 $ < g z 8. Xq.7.k o & , * , ; ; 5 , + , 5 < < & o + c 7.q. X9.z d < $ i i : O 9 K W r.j._.D.z.W U R U.(.",
"C.(.~.N.) I ) ) !.N.) ! J 7 O > 2 1 % d z ] 8.0.[ u ; & , 5 < t ; & t , + , < < , ; & + * u o.q.8.[ z t % > 1 * $ 8 J E ) A._.P.i.E r.S.~.^.",
"C.n.s.P.P.t.J ) ~.A.y.( J 7 : a i : e z z [ O.' - o + + , , < < , , 5 , + , * * * ; & + o o - ' O. .z t % % p h > 8 J W i.A._.c.E t.I.P.u.v.",
"C.%.E j.I.j.K ^ W.A.r.! J 7 * a a * s z s 1 ; % % u < + & ; < < 5 1 t , $ 5 < < * - & + 4 u o $ < y z d e % h a : 6 J W r.l.).i.K N.D.h.I T ",
"C.,.E t.t.r.E K N.i.E K H 7 % i p ; z d * & $ $ ] 7.c & + ; < < < , t , + , < < < < + * ' 8.k . + < j z d * p i * 7 H I E i.N.K K r.r.t.E ~ ",
"C.6.R I Q r.i.r.i.i.t.i.J 7 % p p ; j g ; * + 5 +.e.o.& + $ & < < 1 t , + < t < $ $ X & O.w.o.; + ; s M j * h h % 9 H K E ) r.r.i.i.i.i.` 5.",
"C.K.,.E a.d.d.t.t.t.t.t.K 7 % i r ; b B < * + k 7.o.< t +.%   o + < s , $ < + +   + +.p 1 o.7.u + * t } z * i i : 9 H E ) ) r.i.d.g.d.r.v.K.",
"C.K.2.J K K K J J J J J H 7 $ 2 r ; n ..< - $ * ' u k  XXXc o   . + + X + X     o l XXe.c k x % + * < b d * 2 2 % 9 H J J J J H K I K J -.L.",
"C.L.V.b.T J E K I I J K H 6 O > 1 ; n ..< $ + o $ o c .XoX X] u +   X o . . $ d N e.oXe.c @ + o + + < M j - r > $ 9 H K J K E I I K *.1.b.L.",
"C.L.L.L.$.K W W E E J K J 6 @ 1 r ; j b ; o [ o.$ e O.w.oX#X+X.Xw. .XX0.* [ w.XX+XoXoXq.[ , # o.O.+ < | x * 2 > $ 6 K K K E ( ( t.I F.K.C.L.",
"C.L.L.K.%.! i.i.r.W K E J 7 % 2 > ; j j ; o O..Xo.; m q. XOX$X$X$X%X*X.Xk OX$X$X#XoXC.9.m y w.oX#.+ < ..z = 2 r % 7 H K K r.i.i.g.^ 6.L.C.L.",
"C.L.L.L.%.! f.p.i.k.E W J 7 % r r ; z m , $ d 9.XX7.O.w. XXXOX$X&X&X*X.Xc #X%X#XoX.Xw. X0.w.@Xq.d + < | z % r i ; 4 K I E p.d.h.!.u.6.L.C.L.",
"C.L.L.L.%.r.x.l.f.T.y.r.K 9 : h a 1 n ..< & $ t 8.XXXX.X X.X.XOX$X%X*X Xh OX+XoX.X X X.XXXXX7.y + # , n j - l h > 6 K ( W a.d.x.).u.5.L.C.L.",
"C.L.L.L.&.Q c.x.h.T.y.! K 4 $ r a ; n ..e * & $ v w..X.X.X.X.X.XoXOX%XK.l .X.X.X.X X.X.X.Xq.u + & ; t j y * a r % 9 K K ( h.d.c.!.u.5.L.C.L.",
"C.C.C.C.&.Q x.c.x.E.y.I J 9 % i p ; b @.8.d & + O ' q.XXoXXX.X.X.X X#Xw.k  X.X X.XoXoX.X X[ $ $ * s 7.n s e l i % 9 J K ) x.z.c.c._ 1.C.C.C.",
"C.L.L.L.2.E g.x.c.S.( K J 7 % p p 5 n @. Xd $ +   c w.oXOXoXoX.X.X.X#Xw.k  X.XXXoXOXOXoX Xk . @ $ u q.' t ; l p * 9 K K Q z.c.c.x.) 5.L.L.L.",
"C.L.L.L.1.I d.x.h.l.W I J 7 $ > r ; n @.7.8.k . y o.w.oXoXOX@X#X#XoX#Xw.k .XOX#X$X#XOXXXw.X.: O x 8.+.n t % r 2 % 8 K K ) z.d.x.x.) 5.L.L.L.",
"C.L.L.L.>.Y g.x.h.l.E E J 7 % i r ; n @.] +.k   k +.+.9. XL.XXoX#X#X%Xw.k OX#X@XOX.X Xq.#.O.2 X s #.[ x t $ i i % 8 H K r.z.d.x.c.) 5.L.L.L.",
"C.L.L.L.:.! g.x.l.k.E I J 7 % i a 1 n ..* [ u % [ q.+.' k y y p +.e.+X0.u .X7.p u u k N #.0.A % e o.t k s - h p * 7 H K W z.k.x.c.r.5.L.L.L.",
"C.C.C.C.%.E g.c.E.k.E W L 7 $ 2 e ; n | o k e u 7..X X+.u X     $ [ XX7.e [ $ .     r +. X X#.u - k & M j = r r % 7 K E E g.x.c.x._ >.C.C.C.",
"C.L.L.K.&.I g.c.).N.E r.K 6 * a i * z b o 1 & d 8..XoXXXq.; o * o.+..X7.t #.[ $ o % 9.+X+X X7.u + 1 & } z * p a > 9 I ( W g.x.c.x.Q 5.L.C.L.",
"C.L.L.L.&.! f.c.).l.E r.K 6 * h k > k d + 5 & g 7.q..XoXoX Xw.w.0..X#Xq.l e.q.w. XOX#X$XoX0.7.u + e * } z - h h * 9 I ( E d.c.c.c.Q 5.L.C.L.",
"C.L.L.K.&.! f.c.).j.E ) K 6 % i p ; n { $ 5 1 < c 7.q.w.w.w.w.w.w.@X%Xq.c .Xw.C.Z..X X Xw.7.z , t < - } x - h p : 9 I ( E d.c.c.x.` 5.K.C.L.",
"C.L.L.L.&.I g.x.c.d.K E K 6 * i r > n ..+ < t * d X.#.0.9.8.7.q..X+X.X' l .X.X9.8.9.9.9.7.o.< , s t * { z * i i : 9 K K E d.z.x.x.) 5.L.C.L.",
"C.L.C.C.%.! h.z.t.) K E H 7 % i p < b ..@ 1 s , + $ s  .+.[ 7.q.XXA [ c O ] .Xq.8.[ O.X.y & $ < s < $ f d * h p % 6 J I K Q r.z.c.) 1.C.C.L.",
"C.L.L.K.%.( z.g.) ) K W J 7 * p a ; b M + < t < < , + & k & +.w.XXv [ v = [ .Xq.+.% u 1 @ , < < < < + f d * l p : 6 J I I r.Q g.l.^ 5.L.C.L.",
"C.L.K.m.L E i.r.! E K K J 7 % p y * s d + < t < < s & . . + +.q.e.7.w.[ 2 9.w.q.#.O X . & t 1 < t < # f u * i p : 9 H K K W W r.i.E Y m.C.L.",
"C.L.K.>.H K K K J K H K E 0 % r r * s f + < t t t s 5 $ $ +.9.0.q.q.XX+.u 9.0.0.9.#.% % 1 s s t t < + f d * r p % 0 E K H J K K I K H P ;.L.",
"C.L.K.2.) l.l.l.z.g.y.g.z.Z $ i > * y d + & < t t t t < & 0.m q.9.9.XX#.u 8.q.9.x q.< , s t t t t * & M z - r i % A l.z.l.l.l.z.k.l.k.! -.L.",
"C.L.J.,.u.~.).).).).~.).).G O > e * j { + & ; , < , 5 < X , < 9.9.+..X#.u 8.q.8.+ , X , < , , , , & , } z * r 1 % G ).~.).).).).).).~.y.=.L.",
"C.V.C.v.) f.f.x.x.j.j.f.f.C O > e % f { + & < t < t s 1 < X X k C.9..X#.e 0.q.s . X , t s 1 1 1 5 < $ z d * r > @ w y.s.d.j.d.d.h.f.p.P -.C.",
"C.5.N.N.E ) ) ( ) W W W ^ q % > > ; s z + & ; ; < t t t 1 1 * 8.e.q.XX#.e q. X#.+ < t t t 1 1 , < & + d s % 2 > % 9 E E ^ W Q ) W W W ^ m.L.",
"B.N.U.~.Y.Y.Y.S.P.Y.Y.Y.T.A % i a ; x n + $ ; * , , , < , e 5 9.a N 0. .; x [ 7.+ < < < , , , , , & + f d & h p : A P.P.Y.Y.Y.Y.Y.T.Y.~.U.G.",
"A.D.j.f.S.S.D.R.E.Y.Y.Y.T.S % p a 1 n | + & & $ $ * , , ; ; , d $ 2 ..n @ < < u , , ; , & @ & & , $ $ M j - l p % Z D.D.Y.R.R.T.Y.D.D.h.z.c.",
"Q.E.i.E p.g.z.x.x.k.d.d.h.C % p g ; n ..+ & & d } f , 5 5 1 , $ @ s ..n & s + , 1 5 < < b B s @ + & & } b * l p : w i.a.k.z.h.h.d.d.a.E a.Y.",
"/.W.i.! p.d.d.d.d.a.i._ ) 0 % i p < b } + + z { f < , , , < * & + s ..b & s $ , < , < , 1 f B f $ $ & } z ; a p : q ) r.a.d.a.i.a.a.a.I i.W.",
").W.r.E a.r.a.r.i.) ( E E 0 @ 1 r * u z * M M b 5 ; , , , , < , + d ..n & t $ , , , , ; * t z G | M , { z * r 2 % 0 E E E ) i.i.r.a.i.I i.R.",
"^.).d.I E E W E E K K I I 0 O > 1 * t z B M b t , ; , , , < n 5 * d ..n , t , 5 n , , , , , s b n b j z y * 2 > @ 0 K K K I E E E E I K d.).",
"Q.`.W.D.x.D.D.D.D.D.c.S.D.A O > 2 * t f b z d , + & < < < < < n M b ..n & b B n & + , < < & < f z d z j t $ r > @ A D.S.D.D.P.S.D.S.D.D.).'.",
"B.D.W.W.W.W.W.W.W.E.E.Y.I.A O > ; * t s d j j s 1 f s f f f d f j f ..b $ s f b s f f 5 s d f f f d d d t $ > : @ Z I.I.E.W.W.W.W.T.T.D.Y.D.",
"P ( z.c.c.c.c.c.c.k.g.a.f.V O : % $ 5 t t t f f f b f b b f f s s 1 G b $ 5 s d z z b d d z j d s t t t 5 $ % : @ V a.g.g.l.x.c.c.x.z.h.h.r.",
"P ! d.h.x.x.x.x.g.a.i.r.y.C O % = = - - - & - - - - - - - ; - - & , t , $ - - & - ; < 5 - - ; - - - - - = = = = $ V t.r.i.d.g.x.k.k.x.h.a.Q ",
"P W d.a.a.a.d.a.i.i.r.W r.V q S D D D S S S D S S S D S D D D D D D D D D D D D D S D D D D S S S S D D S S S S q A W E r.p.i.d.a.a.d.d.a.r.",
"P E i.r.W W W W W W E E E H H E Q i.t.Q E E E K J E E E W t.Q ^ E E Q E E E E E W E W W E E J K E W W E E W E E J H E E E W W E W W Q r.r.W ",
"P H K J J K K K K K J J K J I ) d.z.z.d.d.d.a.Q I E t.d.d.x.d.d.d.d.d.d.d.a.a.a.a.d.d.a.p.r.K E r.i.d.a.a.p.Q ) I J J J J K K K K J K K K K ",
"P K ! ( r.h.f.d.d.d.a.d.d.h.g.g.c.c.c.c.c.c.x.a.Q i.k.c.Y.Y.Y.P.P.Y.c.x.c.P.Y.Y.Y.Y.Y.c.l.d.r.r.p.d.x.x.z.k.g.g.d.y.) r.i.i.p.p.i.i.i.i.i.Q ",
"P I r.z.T.W.R.W.W.W.P.c.T.!.W.W.W.R.W.W.R.P.c.d.i.z.x.Y.'.'.'.'.'.[.!.W.).'.'.'.'.'.'.).W.D.r.y.g.x.W.W.W.W.W.W.T.P.P.l.l.l.l.l.l.g.k.d.a.Q ",
"P W h.R.].].].].].{.[._.'.[.[.[.[.[.'.[.[.).R.d.d.x.Y.).'.'.'.'.'.'.[.].'.'.[.[.|.|.|.}.[._.l.h.c.)._.'.'.].}.[.].{.{.].].`.).~.).).R.x.z.i.",
"P r.x.R._._._._.`.`.`.`.'.`.'.'.).)._.`._._.T.k.g.x.c.c.c.P.c.Y.!._._._._._._.).].].`.`.`.`.S.l.c.D.P.D.Y.).`.{.].`.`.`.`.`._._._._.).).).N.",
"v.a.d.d.h.h.N.h.j.f.h.f.h.h.h.h.k.k.j.j.l.j.d.d.d.g.g.d.d.d.d.d.j.j.j.l.j.j.j.j.h.k.k.j.j.f.d.d.d.d.d.d.d.h.j.j.j.j.j.j.j.j.j.k.N.h.h.h.h.f."
};
