/* XPM */
static char *_1daf46288c847f3c1f549c0eaea86e4ilO8AiGp0MqKKJ3o[] = {
/* columns rows colors chars-per-pixel */
"80 80 242 2 ",
"   c #020300",
".  c #090A05",
"X  c #0B0C04",
"o  c #120F04",
"O  c #0D1106",
"+  c #0E1209",
"@  c #131105",
"#  c #191505",
"$  c #13140A",
"%  c #19170A",
"&  c #151B0D",
"*  c #1C1A0C",
"=  c #161D11",
"-  c #1A1E11",
";  c #261B00",
":  c #221E0D",
">  c #221F10",
",  c #1C220E",
"<  c #1C2213",
"1  c #1D2516",
"2  c #25210D",
"3  c #2C2308",
"4  c #332502",
"5  c #3A2B05",
"6  c #382B09",
"7  c #3F340A",
"8  c #252212",
"9  c #2A2513",
"0  c #262816",
"q  c #2D2916",
"w  c #232519",
"e  c #242B1C",
"r  c #2C2B1B",
"t  c #342C14",
"y  c #322E1C",
"u  c #2A371A",
"i  c #2B331D",
"p  c #3C3215",
"a  c #34311F",
"s  c #3C341B",
"d  c #343C18",
"f  c #363321",
"g  c #3A3522",
"h  c #3B3A25",
"j  c #31342B",
"k  c #373828",
"l  c #44330A",
"z  c #48360A",
"x  c #4D390D",
"c  c #443717",
"v  c #4B3C15",
"b  c #4B3D1B",
"n  c #503E13",
"m  c #433D25",
"M  c #443F29",
"N  c #2E4513",
"B  c #334515",
"V  c #344C15",
"C  c #3A4917",
"Z  c #35451B",
"A  c #3C441D",
"S  c #364C19",
"D  c #3B4D1C",
"F  c #375219",
"G  c #3B521D",
"H  c #3C4726",
"J  c #3E4D21",
"K  c #3E5421",
"L  c #3E5822",
"P  c #3C4731",
"I  c #4E401D",
"U  c #424B1E",
"Y  c #53431D",
"T  c #5A471A",
"R  c #42511E",
"E  c #434D23",
"W  c #484728",
"Q  c #534422",
"!  c #564724",
"~  c #5C4B24",
"^  c #5B4D2A",
"/  c #435324",
"(  c #435A25",
")  c #44542C",
"_  c #4B542A",
"`  c #475828",
"'  c #4A5D2B",
"]  c #5E512C",
"[  c #464639",
"{  c #514D36",
"}  c #465732",
"|  c #4C5C33",
" . c #555938",
".. c #624E24",
"X. c #614F2A",
"o. c #645125",
"O. c #65532A",
"+. c #69562A",
"@. c #6A562B",
"#. c #6D5A2E",
"$. c #725B2D",
"%. c #645632",
"&. c #6D5C32",
"*. c #725E33",
"=. c #476229",
"-. c #4C632D",
";. c #50672F",
":. c #4E6433",
">. c #4E6737",
",. c #526534",
"<. c #536B35",
"1. c #53663A",
"2. c #5A643E",
"3. c #556C3A",
"4. c #5A6D3C",
"5. c #56733B",
"6. c #5B733D",
"7. c #537839",
"8. c #5C7B3E",
"9. c #666D3C",
"0. c #756134",
"q. c #7A6333",
"w. c #776539",
"e. c #79663A",
"r. c #7C693C",
"t. c #585545",
"y. c #566D41",
"u. c #5B6D43",
"i. c #5D7442",
"p. c #5E7C42",
"a. c #5C7E45",
"s. c #627543",
"d. c #6F7044",
"f. c #627D45",
"g. c #66754A",
"h. c #657D49",
"j. c #6A7D4B",
"k. c #6A7851",
"l. c #836936",
"z. c #836D3D",
"x. c #88713E",
"c. c #90743F",
"v. c #836E41",
"b. c #867243",
"n. c #8C7543",
"m. c #8F7845",
"M. c #937A45",
"N. c #927A46",
"B. c #957D49",
"V. c #877D56",
"C. c #5D813E",
"Z. c #5D8143",
"A. c #5F864A",
"S. c #638245",
"D. c #688047",
"F. c #65834A",
"G. c #6A834C",
"H. c #66894B",
"J. c #6A894D",
"K. c #71864F",
"L. c #658650",
"P. c #6D8551",
"I. c #6D8A51",
"U. c #718553",
"Y. c #728B54",
"T. c #74855B",
"R. c #758C5A",
"E. c #7A8E5C",
"W. c #76925A",
"Q. c #77955A",
"!. c #7A935D",
"~. c #7B8C63",
"^. c #7A8B64",
"/. c #769561",
"(. c #7D9562",
"). c #7E9A63",
"_. c #9B824C",
"`. c #8D835A",
"'. c #95895D",
"]. c #998859",
"[. c #A48D56",
"{. c #A7925C",
"}. c #B0975E",
"|. c #968B61",
" X c #9B8E61",
".X c #829464",
"XX c #829C65",
"oX c #859D6A",
"OX c #88996C",
"+X c #969469",
"@X c #A39463",
"#X c #A69867",
"$X c #AB9A66",
"%X c #AB9D6B",
"&X c #B19F69",
"*X c #AC9F70",
"=X c #85A16A",
"-X c #86A469",
";X c #8BA36E",
":X c #92A36F",
">X c #8DA472",
",X c #8DA972",
"<X c #92A674",
"1X c #93AB75",
"2X c #99A976",
"3X c #96A67B",
"4X c #9BA47B",
"5X c #95AC7A",
"6X c #99AC7C",
"7X c #94B277",
"8X c #96B27B",
"9X c #9AB27D",
"0X c #B5A36C",
"qX c #B9A56E",
"wX c #A9A475",
"eX c #B3A572",
"rX c #BBAB74",
"tX c #BAAB77",
"yX c #B5B07B",
"uX c #C4B279",
"iX c #C4B27A",
"pX c #C8B67C",
"aX c #CBB97F",
"sX c #9CAA81",
"dX c #9CB381",
"fX c #9BB782",
"gX c #A2AD85",
"hX c #A2B585",
"jX c #B7B7A9",
"kX c #C5B784",
"lX c #CCBC82",
"zX c #D0BE82",
"xX c #C0BFB0",
"cX c #D2C186",
"vX c #D4C389",
"bX c #DAC88C",
"nX c #DCCC91",
"mX c #E4D293",
"MX c #CCC9B3",
"NX c #DADBCC",
"BX c #DCDDD1",
"VX c #E4E4D5",
/* pixels */
"7.Z.Z.Z.Z.S.Z.8.8.8.8.D.8.S.8.C.C.C.C.8.8.9.j.H X                 w ^.>X3X3X,XoXj.d.j._ U W U U C V S.Z.8.f.f.f.8.S.p.8.f.p.F.L S J ' j.i.p.8.8.S.8.6.K.4.d _ U ",
"Z.Z.Z.Z.S.S.F.S.G.G.G.G.D.D.S.S.C.S.H.C.s.4.u.W [ [ [ [ [ M [ [ k P k.>X>X5X6X3Xj.k.k._ E _ W E C F G.S.D.F.S.S.F.F.S.S.I.f.I.=.S J -.L.F.F.G.S.S.D.j.Y.u.E _ E ",
"Z.A.A.A.S.S.S.D.D.G.D.8.S.D.D.S.S.C.S.6.u $ & k jXVXBXNXNXNXNXNXkX'.M k ~.<X6X,Xj.j.k._ E E E _ R ( S.S.h.F.f.f.S.f.S.f.F.i.S.-.D K -.G.G.P.F.S.K.K.K.j.,./ E C ",
"A.Z.A.A.S.f.h.h.f.8.;.-.=.f.D.S.S.8.i./ 9 9 q t.jXBXBXNXNXNXNXNXkXV.y $ u.R.E.P.,.' ,./ E E  .s.5.5.G.S.S.G.S.h.W.XX;X=XL.H.I.i.6.5.6.G.h.f.-.( ( R =.( 1.f.s.g.",
"f.f.f.D.G.G.j.h.G.s.V F V h.S.D.S.3.i 9 b v.%X+X{ j k [ [ [ M M b l : w 3.g.j.i.G B K J / U 1.T.G.h.G.h.f.G.h.h.W.5X8X,Xp.S.h.p.J.D.G.G.h.i.K S ( G G S -.J.h.F.",
"h.F.j.h.j.K.K.G.K.f.G G V h.h.J.H.>.& q *.{.qX X{ - .     .   # Q Q : - } g.j.G.` S / / / Z | k.j.h.f.h.f.h.f.f.).8XdX6Xp.P.F.J.S.C.S.h.F.H.} ` K G G Z :.J.F.F.",
"h.G.j.4.<.4.6.<.<.4.1.1.<.f.h.G.F.| % g %X*XW t.xXjXj     . . M jXjXk   $ i | 6.,.' ,.,.1.' k.).E..X!..XW..X!.!.XX(.(.(.j.F.j.S.S.S.S.f.h.j.K J K 1.1.:.5.S.p.Z.",
"g.K.g.' C D / D D ' j.P.Y.j.G.h.j. .= g $X@X- e jXxX[ % - > l v.MXMX[ X o & N G G.J.Y.P.L.j..X5X2XhX3X9X2XdX6X9X(.f.f.h.L.a.j.a.C.S.D.h.j.L.) K K i.H.j.S.H.A.A.",
"d.K.j.` G D / / D ' j.h.j.h.h.j.h.,.- y b.z.: . j { %.@.^ *.[.@X0.Q I p * & B K h.h.F.P.f.a.~.fX3X6X<X3X>X1X1X9X.Xf.G.L.s.j.H.p.S.C.S.D.D.f.( D J i.j.F.F.A.Z.Z.",
"f.G.d.' / D / / G -.h.h.G.Y.P.G.U.| 8 > ! ~ q $   : #.M.M.{.vXtXo.l o.Q > & Z =.F.F.F.G.F.j.R.,X1X<X5X6X2X9X6X5XXXf.F.P.h.H.P.f.C.C.J.S.D.9.:./ ( i.j.h.F.F.H.H.",
"C D / D / ( 3.L.G.j.F.g.G.oX<X6Xf.B & $ % 9 c b c b $.B.qXlXvXlXeX{.n.o.8 < 1.F.J.F.h.F.F.L.P.I.h.P.<X2X<X3X1X8XoXh.f.J.S.S.F.S.J.H.7.F F G f.G.f.Y.J.h.S.Z.S.p.",
"/ R / G G G <.P.h.G.L.h.U.,X6XdX6.u & $ o 8 b ....o.$.z.$XtXqXtXiX0XM.~ 8 1 1.F.F.S.S.S.F.S.p.f.h.j.dXdX1X,X1X1XXXS.S.H.S.S.Z.S.8.S.7.F =.( S.J.j.L.h.h.G.F.G.j.",
"D D G C L G <.F.F.F.G.p.F.XX<X<Xi . X * p b Y ..*.q.o...%.w.z.m.m.b.#.b : < :.p.F.S.S.S.S.S.F.I.h.G.<X<X1X1XfXfX!.S.S.H.F.F.Z.F.S.G.<.N F G 8.S.h.S.f.G.G.h.j.h.",
"6.6.f.6.i.3.p.H.i.J.,X;X;X!.j. .h f $ * b o.o.o.q.*.O.~ T ..z.M.m.z.#.b * 1 1.J.S.F.H.S.S.F.Y.=X>X.XE.Y.R.Y.Y.J.Y.Z.S.S.F.A.S.H.G.K.S.5.C.8.D.S.J.F.h.G.9.-.,.' ",
"f.j.G.f.P.F.F.F.H.I.8X,X,Xy.1 h  X|.q X v @.q.q.@.O.$.*.$.n.&XpXiX%Xn...2 < >.p.S.S.F.F.h.f.Q.8X1X<Xh.f.G.j.S.S.H.C.S.S.C.A.C.S.f.f.D.S.K.H.C.S.C.8.f.G.<./ / E ",
"f.F.G.8.L.F.F.s.a.F.8X1X9X4.e h |.@XM : p ~ *.*.Y T q.l.*.v.$XtXiX0Xn...8 < 4.H.F.S.S.F.f.p.Q.9X<X9Xf.f.G.f.h.S.G.F.J.H.S.H.C.S.G.D.G.S.C.J.C.H.D.h.J.K.<.D E E ",
"S.F.p.H.S.h.Y.W.R..X2X:X9XK.i.>.h W &.X.9 9 ! ..l z *.l.@...%.w.n.z.@.c : < 3.D.D.f.s.!.(.W.).Q.=XQ.J.S.S.D.h.K.s.;.p.<.F.S.H.F.Z.S.S.F.S.Z.F.f.S.6.5.<.<.,.-.<.",
"p.S.a.S.a.f.XX2X2X2X9X:X2XK.a.| $ % X.X.* o t v 5 z #.*...~ T ..z.n.z.] : < 3.S.D.f.D.-X9X5X=XF.7.C.C.C.G.K.D.h.6.C G ( f.S.F.7.S.H.S.a.p.F.I.G.U.-.V V -.G.K.j.",
"F.G.S.F.p.f.!.9X2X2X9X<X7Xh.i X   . * - + . % 9 v ~ ..#.*.$.$.z.%XpXlX'.a & i.h.K.D.h.!.7X8XoX8.H.D.S.8.f.D.G.U.s.D V G F.J.J.H.S.S.H.D.F.J.h.p.f.;.G G -.J.G.G.",
"i.h.G.I.J.I.!.,X;X:X2X;X.X4.h h g r > * % %   % s b c Q q.x.l.B.0XiXtX`.r % H 6.8.D.I.-X1X1X).S.S.S.S.G.G.h.s.h.,.( ( ( p.8.a.Z.S.S.8.S.S.G.F.G.I.;.G V :.G.j.s.",
"5XsXdX5X,X,X/.P.P.L.j.h.< h `.eX*X].*.Q b t X   X @ $ t $.n.x.n._.b.{ 0 = X . 1 f.f.f.f.f.S.F.F.G.S.D.G.h.=.D G 3.f.S.h.J.S.H.F.S.G.!.9X7X,XS.f.J.=.V V <.Y.U.P.",
"3X3X3X>X5XfX).a.L.j.j.h.  y @XbXnXaX{.n.z.O.t 8 y 9 . % b #.@.@.@.Y o     % f g  .4.G.J.F.F.p.f.S.f.f.G.j.-.D L :.j.F.S.F.S.Z.8.4.1.Y.<X<X:Xh.D.h.-.G F 3.f.h.h.",
"4X4XsX>X,XdX/.a.a.h.F.F.. 9 w.{.pXvXiXiXiX@X*.&. XV.>   o > > 9 9 * .     r  X|.f e 6.f.a.J.F.h.K.U.U.Y.j.,.C B <.G.p.p.F.Z.S.8.i i U.6X2X9XK.D.G.,.D V -.P.j.h.",
"4X4XsX5XsXsX/.L.L.F.J.J.X : ~ x.$XiXiXiXiXqX_.{.vXtXt.r a 9 +     X > 8 : m  X#X .f u.f.>.i.<.=.-.,.( / ` } :.:.| 4.>.<.4.>.p.} $ %  .K.G.!.=.( -.<.6.6.G.oX>XOX",
"wX4X4X4X,XfX/.a.L.y.L.a.X : b $.n._.B.B.M.].&XaXbXzXeX%XeXV.e     % ~ *.#.! m { #X|.k = + i -.V G C S D 8 = < w 1 1 1 1 1 1 & &   . w w G.f.( F V 6.U.h.E.9X5X3X",
"4X4XsX3XsXfX/.L.L.L.L.F.X * p Q ..X.X.O...l.&XiX$X%XiXkXaX].m * r g o.e.B.v.@ > ].$X{ f g f K B Z D Z u % * : > : : * * * 8 a h g y % X j.f.G G C 6.H.g.W.sXsX5X",
"4X4X4XOXoX).W.h.L.h.5.4.@ $ * * : : > : 6 T m.b.M W v.B.w.O.X.*. XV.q g &X0Xy . l *.'.eXeXV.f O & - & % 3 5 v b I I I b c ] '.tXtXV.r . K.G.<.-.:.8.j.a.E.3X3X3X",
"4X<X<XP.h.h.a.p.L.f.F V & < $ X o % % # ; 6 ~ Q o @ b $.O.*.b.{.lXrXW m |.V.y   # n {.bXmXeXh . . $ * 2 4 5 v Q I I Y T Y 0.$XaXzX#Xa   G.U.f.F.S.J.j.f.(.sX4X3X",
"6X6X5XI.p.p.G.G.h.s.R F G / - * s b I p # X % % . @ 4 T ].qXtXiXlXlXeXV.M - + @ ; z l.{.cXtXT # . * ! ~ > # : - & ; 5 x T o.0.z._.v.r . F.h.S.G.h.S.f.s.(.6X4XsX",
"-X-X>XI.F.H.h.8.j.s.` F / 1.1 : Y ..o.Q q 2 > * o @ ; T 0XnXvXlXlXzXnXeX{ % . o ; l ..n.qX{.T ; # s m.v.r     o - 2 3 4 c b p b o.^ f < G.S.S.S.p.G.P.j..X2X3X3X",
"S.H.J.a.p.F.>.( R ' d.d.G.4.& , Y o.~ ~ &.&.*.! - @ l *.0XvXvXzXzXvXzXkXkXV.>   . : Y *.M.x.n 4 6 &.qX%Xf   . > o.O.9 @ * * * 2 8 r u.y.P.F.F.S.G.XX,XoX3XgXsXsX",
"S.Z.Z.S.h.I.,.C U ' K.f.j.4.i w s b Y T $.q.l...: # r %.0XzXiXeX#X%XiXkXtX|.{ > + % t Y o.~ 6 4 b w.@X`.y     > O.%.h e e e e e 1 P T.f.F.S.F.S.p.oXhX2X4XsX<X6X",
"Z.H.a.h.j.P.4.D R ' j.f.D.G.5.` 9 2 5 z l z z l l ; . g *XzX}.d.g { eXeX{ W |.V.y . % : 8 : % : Y ~ m r $     X > h k..X~..X^.^.J.=X!.C.J.s.T.K.j.OX4X4X9XwX5XhX",
"Z.H.F.P.j.j.,.D R _ K.h.S.G.S.C.u & ; 4 5 5 5 5 4 3 9 { %X&Xl.c   9 *X*X> 9 eXkXh   $ & < & < r b p X   % q f r $ r .X2X~.^.T.Y.Q.Y.Y.C.G.G.-.| _ .XhX6XOXR.J.Y.",
"5.a.f.F.G.G.,.R U _ G.h.S.S.S.J.7.( & 2 v T T c o q V.iX[.v.c X   y tXtXr y tXiXh . i 1.i.u.i.| q %   % Y r.@XV.r w ~.OXh.h.a.h.S.8.8.S.f.K.D / D ~.4X<X.XG.j.f.",
"P.H.G.U.U.j.1.G D ' G.D.G.S.C.S.Z.i.i 8 c Y Y c # a V.#Xl.c @ . w { |.V.g y V.V.s & Z y.g.f.i.y.< + * s $.[.bXtXg < ~.2XG.h.L.a.D.C.J.K.K.j.Z Z d .XhXhX.Xf.G.G.",
"i.u.4.5.i.4.>.>.,.<.G.S.J.S.S.C.Z.S.i.} 0 : 6 l v c y > > o   e '.#X{ a  .P f a ) } :.U.~.k.sXk.< 2 ~ q.l.[.vXtXh & j.XXh.F.F.p.S.f.8.<.6.4.g.s.u..XOX<XW.6.D.S.",
"C C / J K K 3.L.S.f.F.S.H.S.H.S.f.S.F.>.& @ 4 z ....g w > % % m  X'.r , ,.g.e e u.j.j.>XgXsXsXk.e 8 ^ q.O.w. X`.h e 2.K.f.S.J.S.h.G.<.V G ` 5XfX6X.X6.s.G.D.J.f.",
"U U _ D J V 3.H.F.A.F.Z.J.C.S.S.f.h.D.>.$ * c ..$.n.@X|.*.~ O.~ h i u G <.G.<.5.a.j.k.OXgXgXsXk.1 & 2 e 9 q f g  .s.d.G.j.L.h.F.f.Y.5.G / G 2X<X2XE.h.G.G.S.S.D.",
"E U ' / ( F 5.S.A.A.H.S.J.S.f.S.D.G.D.>.% @ c ..@.n.qXiX{.B._.b.m r Z G -.J.F.p.L.L.k.OXsXsXgXOX[ w & < < & $ r 4.j.s.j.g.j.f.F.f.G.5./ ( / <X4X6XE.h.f.D.S.f.S.",
"U _ D s.j.h.F.S.A.Z.H.H.I.Z.J.f.!.1X<XY.- o ; l n @.b.{.qXpXpXtXeXV.h i 3.F.S.J.1X,X1X2X3XsXsXOX.XT.y.>.y.H Z D / _ U _ / ' / ( ( G <.G.G.F.G.j.K.D.D.D.C.F ( ( ",
"D / / h.P.h.F.a.Z.p.Z.S.S.p.J.f.XX1X>Xs.i t 5 n O.*.@.e.@XrXtXiXaX@Xa + 1.S.S.J.,X,X1X6X3XsXsXsX3X>Xj.g.P.` E E E _ I _ U / E K F V -.D.G.j.G.D.8.D.K.D.5.V F G ",
"C E K s.L.j.H.a.H.H.J.S.p.F.F.i..XE.P r ^ *.$.z.&X$X@.Y ..0.z.m.B.w.8 & 4.S.h.J.8X1X5X6XsX3XsX3XsX3Xj.P.h.| U / / _ U _ E E J ) R F ;.D.D.D.G.D.G.G.D.S.,.F G G ",
"4.4.3.F.G.S.F.S.Z.F.S.S.S.).oXXXQ.s.= 9 ..l.*.n.&X&Xd.&.@.*.z.n.M.w.s 0 } s.h.G.5X1X1X5X1XsXOX~.E.T.:.<.>.4.2.s. ._ U W W _ ) >.8.<.8.D.D.f.D.D.D.6.=.;.<.5.4.5.",
"P.F.S.F.H.p.F.F.S.h.f.f.L.,X5XfX(.,.< * 5 x Y ..o.r.@XrXtXeXqXqXiX%Xx.Q q i y.G.3X5X,X5X5XsXoXi.j.s.C V G f.j.U.9.E R ! ) E / u.K.D.H.D.S.D.S.D.D.=.V F <.G.G.j.",
"a.a.Z.p.F.h.F.S.G.h.G.f.h.>X,XsX.X:.< * 5 v @.&.O.e.%XiXrXtXlXlXpX0XB.@.9 &  .k.6X6XsX5X8XdX).i.K.G.G F C 8.f.U.9.U / E E B J s.D.D.S.S.S.D.S.f.G.<.V G >.G.j.j.",
"A.A.I.A.J.S.S.f.f.f.(.Y.^.>X3XdX).1.< : ~ x.$XtXrX%XB.l.*.b.iXlX{.m.b.O.: - g.^.OXOXoXOX).=XQ.S.S.8.-.=.=.f.f.G.4.C R R ,.-.| f.S.S.D.S.D.J.S.f.S.;.G G >.G.j.P.",
"Z.a.H.C.S.S.f.G.G.U.dX1X5XsX3X5X/.>.< 8 ..m.$XiXiXqX].e.Y %.$X&X0.@.m.e.q e ^.3Xj.g.j.L.Z.a.Z.S.D.S.S.H.S.K.f.G.9.C R _ j.Y.h.h.D.D.C.C.S.H.S.S.G.;.C G | U.k.g.",
"Z.f.S.S.8.D.f.D.h.Y.9X3X5XsX3X1XW.3.< * Y O.%.0.z._.tX$X&...M.d.q g #X#Xk 1 ^.=Xh.S.F.F.S.S.S.F.S.I.F.f.f.Y.6.K.9.C F R D.S.S.S.H.C.Z.H.H.S.K.S.D.;.N V 1.F.j.h.",
"S.S.8.J.h.G.f.j.j.R.<X<XsX1X5XsXR.<.< , I o.o.#.r._.rX$X^ v o.T # f #X#Xf 1 R.,XG.G.S.S.S.S.S.S.F.S.h.h.U.G.s.U.<.G ( =.8.S.S.S.S.H.S.Z.S.S.D.8.8.9.( G >.a.L.L.",
"8.f.f.=X1X,X1X5X:X6X8X2X3XY.j.L.G.<.< : ~ n.@XeXqX0X[.r.t * 5 l 6 Q z.e.q = >.H.S.S.F.Z.S.G.F.S.S.L.;X,X6X6.G G <.s.8.f.J.F.S.F.7.S.Z.S.S.8.;.( ( 4.8.f.h.F.F.h.",
"G.K.G.:X9X,X1X,X;X8X1X5XdXP.h.j.F.>., 8 O._.pXbXbXtXz.b # @ 3 z O.z.m.*.0 < >.A.p.S.S.F.H.F.a.a.L.L.8X5X1X-.G ( -.Y.h.D.F.S.Z.Z.S.J.S.H.G.8.R V C <.D.K.L.L.F.H.",
"6.h.a.>XsX5XdX5X8X9X1X1X8XJ.f.f.S.>.- 9 O.B.iXvXnXwXM # ; 5 l %.[.tXpX'.y = >.L.Z.S.H.F.F.a.F.H.i.H.7X8XfX4.R V =.G.f.h.f.S.f.F.p.S.8.8.D.8.G G G 6.D.S.S.F.S.Z.",
"oXoX/.,X5X,XoXE.W.Q.Y.Q.(.H.F.J.F.,.< : X.m.rXzXaX'.r   ; 5 v e.tXnXnX#Xf & >.Z.L.F.A.L.a.F.R.).=X).(.L.(.i.<.<.6.U.h.G.F.J.H.H.G.J.I.XXXX=X6.6.<.8.J.G.H.F.Z.A.",
"3XsX,XfX5XsX/.a.F.p.D.8.S.C.f.p.G.<.< % b w.tXlX{.*.8   o > v e.tXnXnX#Xy = y.H.L.a.h.L.F.h.).dXfX-XH.i.F.h.G.P.G.F.F.G.h.D.i.H.S.h..X9X2X9XD.S.K.K.G.8.f.S.H.J.",
",X5XsXsX5XfX/.a.S.p.Y.8.S.H.S.S.h.,.< : c w.$X&Xz.~ : + 1 r c @.{.pXvX%XW < } i.F.h.h.j.p.i.R.9X,X,XL.L.F.F.h.G.K.6.f.h.f.F.p.h.D.8.Q.9X7X7XD.D.8.D.D.H.F.Z.7.Z.",
">XsXdXOXoX>X/.h.p.P.S.f.F.S.H.H.F.3.= : o.z.n.z.o.c * w g.j.l n r.{.lXtX0.6 8 u u.j.h.E.R.!..X5X,X,XH.i.P.h.P.F.D.!.K.Y.Q.E.K.Q.Y.XX!..X,XXXG.D.G.G.S.S.H.Q.Q.I.",
"dXsX>XL.y.h.h.h.F.H.F.S.F.S.C.8.6.} w t *.n.m.n.r.^ w < i.9.3 l ..x.$X@X%.p * $ 1.j.f.:X3X2X2X6X,X5XG.f.J.h.F.s.!.6X<X8X8X8X1X8X7X2X!.h.S.D.S.G.S.S.S.p.Q.7X7X9X",
">X5X5X~.L.L.j.F.h.p.i.S.G.F.D.4.f 8 c ..q.B.qXpXlX].f $ u.u.* 2 b o.*.] q % $ & 4.j.9.<XhX2X2X;X7X,XH.p.J.h.J.f.!.8X2X7X1X1X<X;X,X7X=XD.f.D.D.S.G.f.H.f.Q.7X=X-X",
"5X,X>XU.h.j.F.f.G.j.P.S.f.G.G.3.= * p Q ..w. XeXtX'.h i d.u.& * Y ..~ v : X $ , u.D.j.XX<X<X6X1X,X-XJ.p.S.h.F.f.Y.1X1X1X<X6X8X6X,X7XQ.8.8.D.G.G.S.f.A.7.Q.,X1X9X",
"a.L.U.h.j.G.-.G G >.f.a.G.>X3X~.e % & - - q r f h P ) B / H $ 8 o.l.q.o.b t # 1 ^.<X;XE.P.P.j.J.I.I.S.S.F.F.L.H.).9X3X;XY.j.j.j.H.Y.J.D.J.J.f.p.S.=X-X1XoXY.I.s.",
"F.a.h.6.h.J.<.G S | P.k.j.,X6XT.r % % @ o . @ o   - | D / A & 2 ] x.M.M.x.] 8 < T.,X9XY.f.F.i.G.p.Z.f.S.S.S.h.i.Y.1X8X,XG.f.j.G.h.8.8.8.p.S.F.F.p.;X5X8X(.s.G.L.",
"S.D.K.J.J.G.-.S G ( k.h.j.<XsX~.e - c l ; 4 c p & - | / / d % : v w.&XpXpX'.a = ^.8X8XR.F.F.S.S.J.F.J.F.f.S.p.p.).1X5X,XU.h.j.G.S.S.F.J.F.S.Z.p.Z.XX,X9XoXH.j.G.",
"=.=.,.=.=.<.5.<.3.3.Y.j.j.>X3X~.< : ! o.n z T v : < } E K A * : b w.$XpXlX Xy = g.Q.W.S.F.f.J.S.F.p.f.Z.H.Q.).XXQ.).R.!.h.j.j.f.S.S.S.p.8.J.Q.oX).(./.Q.R.G.h.G.",
"C U E E K S 5.P.F.a.P.j.j.>XgX.X- > X.l.$.o.x 5 # - | B R U 6 l @.x.n.m.B.*.> * 1.f.f.h.h.Z.P.F.S.Z.S.Z.Z.-X7X8XXXf.h.h.j.i.j.F.h.F.S.F.S.H.,X8XfXI.a.i.f.L.f.j.",
"W _ _ / K S >.Z.H.h.L.i.g..XOXk.y s #.n._.z.z ; & h -.D R R U v ..0.x.M.B.w.p 0 ' h.j.G.j.f.F.a.H.Z.Z.H.S.,X7XdX=XF.h.F.L.P.j.F.Z.F.Z.S.S.I.,XfXdXR.A.L.P.j.f.h.",
"U U D | :.:.i.L.8.f.W.W.~.^.[ t ! $.$.n.qX Xs * E 1.:.' ( =.9.-.0 W @XaXpX$Xr.Q 9 i >.S.J.h.H.F.a.Z.S.S.A.(.).-XW.h.f.h.i.i.6.h.S.H.S.S.Z.P.).).,XR.a.h.h.6.f.h.",
"E _ / g.g.h.H.P.G.W.1X6X9X^.& 9 *.M.m.[.lXwXk X B K 3.R.D.G.D.<.& r '.iXiX0X[.e.9 . B 5.J.f.h.S.F.S.H.S.Z.F.A.F.P.L.j.f.( K G 5.F.S.S.F.F.Z.L.L.j.h.u.Y.i.D Z V ",
"C G R f.L.G.h.h.f.Y.<X:X5XT.1 9 @.B.0XlXbX%Xk O B F -.D.8.D.J.6.& 2 ^ e.z._.rX Xa O N 6.I.F.G.G.f.f.f.G.J.h.h.h.f.G.G.f.L G G f.S.C.S.H.Z.S.F.a.L.j.j.P.3.G ` ' ",
"G L L 6.F.j.G.S.f.Y.2X7XhXT.e 8 X.n.$XtXiX'.y O Z ( <.K.D.K.8.,.w * c o.e.[.lXeXg O Z 6.h.p.S.D.J.G.f.f.P.f.f.h.G.G.h.6.=.( / <.H.C.S.Z.h.L.L.j.H.j.j.j.<.K D C ",
"p.Z.Z.S.K.D.G.h.8.Y.5X1X5Xu.< : b o.@.0.n.0.8 & 4.s.D.D.S.J.S.5.< : ~ x.$XpXbX%Xa & >.J.Y.F.Q.;X<X=XK.f.D.-.' ( ( G ( ' s.f.f.J.H.C.S.A.i.H.h.F.h.:.( ( :.h.P.U.",
"Z.S.S.S.D.8.D.f.h.Y.5X,XsXu.< * m @.@.*.n.e.t 8 ) i.K.8.S.J.8.1.- 9 O._.iXvXlX].m 9 ) i.:.1.W.9X2XOXK.j.G.' R F ( F G ( j.D.h.S.S.C.S.F.Z.H.h.h.P.' D C | U.j.h.",
"F.S.S.a.D.8.J.S.8.K.7X2XhXi.- * ..x.$XyXlX#Xo.3 * i y.H.h.S.H.<.< : @._.lXlX[.x.&.Q 8 & $ r Y.hX9X6XU.j.j.-.E R G G V ( h.S.s.D.H.H.C.C.F.F.F.G.Y.-.K D ,.K.f.j.",
"a.Z.F.f.D.f.Q..X.XXX.XQ.U.} r s #.B.0XtXtX#Xb.] t 8 ) p.G.S.F.1.< 8 X.M.%X$Xr.$.B.n.W r 9 r | |  .2.,.,.<./ D G -.6.<.6.G.S.S.S.C.C.S.H.J.G.<.:.1./ / Z =.j.s.h.",
"f.G.J.F.h.S.=X8X7X:XD.8.< y ~ e.z.z.0.&.O.e.$X$Xr.b * i 6.h.f.>.- 9 #.z.w.&.! &.%XiXeX'.0.I : . O * d U ` E / / :.G.G.h.F.S.S.S.H.S.Z.S.f.f.R D G G ( G -.K.K.D.",
"f.j.F.S.8.S.!.8X7X:XD.8.. 9 *.c.q.@.~ T ] b.iXcX$Xz.^ f | f.F.u.- 9 *.q.T l Y 0.$XlXbXlX}.b.{ a q 9 d E D C E D =.h.G.h.S.S.F.S.S.S.H.J.G.G.G D D D D V -.H.G.8.",
"s.s.i.G.G.G.Q.=XXXXXJ.f.. q *.l.T x @.x.&XpXcXvXaXiXpX`.g i >.>.= q *.l.x z $.z.m.{.aXbXlXiXtX@Xb.~ 9 < d ' ,.' 6.G.S.F.S.S.S.A.S.S.h.5.3.i.-.| ,.-.' ' <.S.S.S.",
"D U K 9.h.f.a.a.H.H.S.8.. > ^ X.4 4 T z. XeX#X#X#XwXtX`.a $ Z J & 8 ^ ..5 4 ~ #...*.'.%X%X*XeX#Xb.! > $ A u.k.j.G.G.f.F.F.S.S.A.H.H.>.F F ' s.j.j.h.G.F.S.S.D.J.",
"U U E j.G.L.S.H.S.Z.A.S.+ % > 8 % % : t a g f g g g h y * < Z Z * * > > # % 8 9 > 9 y g g g g f t : % & A s.k.j.j.h.p.S.S.Z.F.f.h.F.5.F ( ` j.j.j.G.G.G.D.8.S.C.",
"s U D u.h.h.a.Z.C.C.7.S.o +   . X + .                 . X e Z Z & o X . + X . . . .             . . o & d u.s.j.h.F.f.f.8.Z.H.7.p.j.>.N K B h.s.j.d.6.8.S.C.S.C."
};
