/* XPM */
static char *result[] = {
/* columns rows colors chars-per-pixel */
"70 70 17 1 ",
"  c #000001",
". c #4A2920",
"X c #0D420D",
"o c #107B29",
"O c #734120",
"+ c #315273",
"@ c #A47B41",
"# c #41A429",
"$ c yellow",
"% c #DEAC52",
"& c #31529C",
"* c #666D8C",
"= c #6A8D8E",
"- c #00BAFF",
"; c #D5B48B",
": c #FFE6BD",
"> c white",
/* pixels */
"*===*====*======*===*====*======*===*====*======*===*====*======*===*=",
"*===*====*======*===*====*   oooooooooooo   ====*===*====*======*===*=",
"******=***=***********=***   oooooooooooo   **********=***=***********",
"*======*===*===*=======*==   oooooooooooo   ===*=======*===*===**=====",
"*======*===*===*=======   ooo############ooo   *=======*===*===**=====",
"*======*===*===*=======   ooo############ooo   *=======*===*===**=====",
"*======*===*****=======   ooo############ooo   *=======*===******=====",
"********===*====****   oooooooooooooooooooooooo   ******===*====******",
"*===*==*****====*===   oooooooooooooooooooooooo   ==*==*****====*===*=",
"*===*==*===*====*===   oooooooooooooooooooooooo   ==*==*===*====*===*=",
"*===*==*===*====*   ooo########################ooo   ==*===*====*===*=",
"*===*==*===*====*   ooo########################ooo   ==*===*====*===*=",
"*=***==*========*   ooo########################ooo   ==*========*=***=",
"*===*=********   ooo@@@%%%@@@$$$$$$@@@$$$$$$@@@###ooo   *********===*=",
"*===*====*====   ooo@@@%%%@@@$$$$$$@@@$$$$$$@@@###ooo   =*======*===*=",
"*===*====*====   ooo@@@%%%@@@$$$$$$@@@$$$$$$@@@###ooo   =*======*===*=",
"*===*====*====   OOO$$$@@@$$$$$$@@@@@@@@@$$$@@@@@@ooo   =*======*===*=",
"*===*====*====   OOO$$$@@@$$$$$$@@@@@@@@@$$$@@@@@@ooo   =*======*===*=",
"******=***=***   OOO$$$@@@$$$$$$@@@@@@@@@$$$@@@@@@ooo   **=***********",
"*======*@@@;;;OOO%%%$$$%%%$$$@@@$$$$$$$$$@@@$$$$$$OOOOOO;;;@@@=**=====",
"*======*@@@;;;OOO%%%$$$%%%$$$@@@$$$$$$$$$@@@$$$$$$OOOOOO;;;@@@=**=====",
"*======*@@@;;;OOO%%%$$$%%%$$$@@@$$$$$$$$$@@@$$$$$$OOOOOO;;;@@@=**=====",
"*======*OOO:::@@@$$$@@@$$$@@@@@@$$$%%%@@@;;;@@@$$$%%%::::::OOO***=====",
"********OOO:::@@@$$$@@@$$$@@@@@@$$$%%%@@@;;;@@@$$$%%%::::::OOO==******",
"*===*==*OOO:::@@@$$$@@@$$$@@@@@@$$$%%%@@@;;;@@@$$$%%%::::::OOO==*===*=",
"*===*==*===OOO;;;OOO%%%$$$$$$$$$%%%@@@;;;;;;:::%%%@@@;;;OOO*====*===*=",
"*===*==*===OOO;;;OOO%%%$$$$$$$$$%%%@@@;;;;;;:::%%%@@@;;;OOO*====*===*=",
"*===*==*===OOO;;;OOO%%%$$$$$$$$$%%%@@@;;;;;;:::%%%@@@;;;OOO*====*===*=",
"*=***==*===   ---@@@@@@%%%%%%%%%@@@OOO;;;:::;;;OOO$$$---========*=***=",
"*===*=*****   ---@@@@@@%%%%%%%%%@@@OOO;;;:::;;;OOO$$$---*********===*=",
"*===*====*=   ---@@@@@@%%%%%%%%%@@@OOO;;;:::;;;OOO$$$---=*======*===*=",
"*===*====*=   OOO$$$OOO   @@@@@@OOO;;;;;;OOO   @@@$$$   =*======*===*=",
"*===*====*=   OOO$$$OOO   @@@@@@OOO;;;;;;OOO   @@@$$$   =*======*===*=",
"*===*====*=   OOO$$$OOO   @@@@@@OOO;;;;;;OOO   @@@$$$   =*======*===*=",
"******=***=***   %%%OOO>>>&&&OOO;;;:::OOO&&&>>>OOO%%%   **=***********",
"*======*===*==   %%%OOO>>>&&&OOO;;;:::OOO&&&>>>OOO%%%   ===*===**=====",
"*======*===*==   %%%OOO>>>&&&OOO;;;:::OOO&&&>>>OOO%%%   ===*===**=====",
"*======*===*===*=      :::&&&>>>::::::>>>&&&:::      ==*===*===**=====",
"*======*===*****=      :::&&&>>>::::::>>>&&&:::      ==*===******=====",
"********===*====*      :::&&&>>>::::::>>>&&&:::      ***===*====******",
"*===*==*****====*===   @@@::::::::::::::::::@@@   ==*==*****====*===*=",
"*===*==*===*====*===   @@@::::::::::::::::::@@@   ==*==*===*====*===*=",
"*===*==*===*====*===   @@@::::::::::::::::::@@@   ==*==*===*====*===*=",
"*===*==*===*====*   oooOOOOOO;;;;;;;;;;;;OOOOOOooo   ==*===*====*===*=",
"*=***==*========*   oooOOOOOO;;;;;;;;;;;;OOOOOOooo   ==*========*=***=",
"*===*=***********   oooOOOOOO;;;;;;;;;;;;OOOOOOooo   =***********===*=",
"*===*====*=      +++>>>XXXooooooooooooooooooXXX>>>...      =====*===*=",
"*===*====*=      +++>>>XXXooooooooooooooooooXXX>>>...      =====*===*=",
"*===*====*=      +++>>>XXXooooooooooooooooooXXX>>>...      =====*===*=",
"*===*===   OOOOOO+++   OOOooooooooooooooooooOOO   +++OOOOOO   ==*===*=",
"******=*   OOOOOO+++   OOOooooooooooooooooooOOO   +++OOOOOO   ********",
"*======*   OOOOOO+++   OOOooooooooooooooooooOOO   +++OOOOOO   =**=====",
"*======*   ;;;;;;   XXX###OOOOOO$$$$$$OOOOOO###XXX   ;;;;;;   =**=====",
"*======*   ;;;;;;   XXX###OOOOOO$$$$$$OOOOOO###XXX   ;;;;;;   =**=====",
"*======*   ;;;;;;   XXX###OOOOOO$$$$$$OOOOOO###XXX   ;;;;;;   ***=====",
"********===      ***   ######oooooooooooo######   ***      *====******",
"*===*==****      ===   ######oooooooooooo######   ==*      *====*===*=",
"*===*==*===      ===   ######oooooooooooo######   ==*      *====*===*=",
"*===*==*===*====*         ooo############XXX      ==*==*===*====*===*=",
"*===*==*===*====*         ooo############XXX      ==*==*===*====*===*=",
"*=***==*========*         ooo############XXX      ***==*========*=***=",
"*===*=***********   OOOOOO......         OOO   **===*=***********===*=",
"*===*====*======*   OOOOOO......         OOO   =*===*====*======*===*=",
"*===*====*======*   OOOOOO......         OOO   =*===*====*======*===*=",
"*===*====*======*===   OOOOOO   *===*====   ====*===*====*======*===*=",
"*===*====*======*===   OOOOOO   *===*====   ====*===*====*======*===*=",
"******=***=*********   OOOOOO   ******=**   **********=***=***********",
"*======*===*===*=======      ==**======*===*===*=======*===*===**=====",
"*======*===*===*=======      ==**======*===*===*=======*===*===**=====",
"*======*===*===*=======      ==**======*===*===*=======*===*===**====="
};
