/* XPM */
static char *result[] = {
/* columns rows colors chars-per-pixel */
"70 70 108 2 ",
"   c #000001",
".  c #023B03",
"X  c #0A3F0C",
"o  c #411F16",
"O  c #442117",
"+  c #66310E",
"@  c #693515",
"#  c #6D3813",
"$  c #69351C",
"%  c #6D3A1A",
"&  c #723B16",
"*  c #723D1D",
"=  c #793A1F",
"-  c #462720",
";  c #4B2A21",
":  c #512D23",
">  c #6B3620",
",  c #6C3822",
"<  c #713621",
"1  c #753C20",
"2  c #793E20",
"3  c #0C420D",
"4  c #05751F",
"5  c #077923",
"6  c #087824",
"7  c #05752B",
"8  c #0B7729",
"9  c #057E28",
"0  c #0D7B29",
"q  c #107B29",
"w  c #76401B",
"e  c #7B441D",
"r  c #734120",
"t  c #794421",
"y  c #7D4824",
"u  c #274A6C",
"i  c #244B70",
"p  c #294E71",
"a  c #2E5377",
"s  c #315273",
"d  c #325679",
"f  c #365B7E",
"g  c #9C7136",
"h  c #9F753B",
"j  c #A0763B",
"k  c #A3793D",
"l  c #A97D3D",
"z  c #9C6F47",
"x  c #9C6F48",
"c  c #9E7343",
"v  c #A17544",
"b  c #AD7743",
"n  c #A47B41",
"m  c #AA7A42",
"M  c #07812A",
"N  c #0B822B",
"B  c #11832C",
"V  c #399F2B",
"C  c #38A827",
"Z  c #3BA529",
"A  c #3EAA29",
"S  c #42A529",
"D  c #44AB2A",
"F  c #AB803E",
"G  c #FFFF00",
"H  c #AC8245",
"J  c #DDAA55",
"K  c #DBA45A",
"L  c #E1AE53",
"P  c #E1AD59",
"I  c #E4B254",
"U  c #E9B456",
"Y  c #E6B05A",
"T  c #EDB958",
"R  c #F3BD5B",
"E  c #1E4395",
"W  c #1E4498",
"Q  c #274A97",
"!  c #284A97",
"~  c #264B9B",
"^  c #284B9B",
"/  c #31529C",
"(  c #2D53A3",
")  c #666D8C",
"_  c #6A8D8E",
"`  c #00B7FF",
"'  c #00BAFF",
"]  c #00C2FF",
"[  c #00CBFF",
"{  c #D1AF86",
"}  c #DFB485",
"|  c #D4B48B",
" . c #D8B78E",
".. c #DDBA8F",
"X. c #DDB790",
"o. c #DCBB91",
"O. c #E1B788",
"+. c #E3BA8B",
"@. c #E2BD94",
"#. c #E3C196",
"$. c #E9C598",
"%. c #FFE6BC",
"&. c #FFE9BF",
"*. c #FFEDC4",
"=. c #FFF2C6",
"-. c #FFF4CB",
";. c #FFF8CE",
":. c white",
/* pixels */
") _ _ _ ) _ _ _ _ ) _ _ _ _ _ _ ) _ _ _ ) _ _ _ _ ) _ _ _ _ _ _ ) _ _ _ ) _ _ _ _ ) _ _ _ _ _ _ ) _ _ _ ) _ _ _ _ ) _ _ _ _ _ _ ) _ _ _ ) _ ",
") _ _ _ ) _ _ _ _ ) _ _ _ _ _ _ ) _ _ _ ) _ _ _ _ )       B q q q q q q q q q q B       _ _ _ _ ) _ _ _ ) _ _ _ _ ) _ _ _ _ _ _ ) _ _ _ ) _ ",
") ) ) ) ) ) _ ) ) ) _ ) ) ) ) ) ) ) ) ) ) ) _ ) ) )       B q q q q q q q q q q B       ) ) ) ) ) ) ) ) ) ) _ ) ) ) _ ) ) ) ) ) ) ) ) ) ) ) ",
") _ _ _ _ _ _ ) _ _ _ ) _ _ _ ) _ _ _ _ _ _ _ ) _ _       0 q 8 0 q 8 q 8 q q 8 B       _ _ _ ) _ _ _ _ _ _ _ ) _ _ _ ) _ _ _ ) ) _ _ _ _ _ ",
") _ _ _ _ _ _ ) _ _ _ ) _ _ _ ) _ _ _ _ _ _ _       B B q D S S S S S S S S S S D q q B       ) _ _ _ _ _ _ _ ) _ _ _ ) _ _ _ ) ) _ _ _ _ _ ",
") _ _ _ _ _ _ ) _ _ _ ) _ _ _ ) _ _ _ _ _ _ _       B q q S S S S S S S S S S S S 8 q B       ) _ _ _ _ _ _ _ ) _ _ _ ) _ _ _ ) ) _ _ _ _ _ ",
") _ _ _ _ _ _ ) _ _ _ ) ) ) ) ) _ _ _ _ _ _ _       B q 0 D S S S S S S S S S S D q q B       ) _ _ _ _ _ _ _ ) _ _ _ ) ) ) ) ) ) _ _ _ _ _ ",
") ) ) ) ) ) ) ) _ _ _ ) _ _ _ _ ) ) ) )       B B B q q q 0 q q q q 8 q q 8 q q q q q q B B B       ) ) ) ) ) ) _ _ _ ) _ _ _ _ ) ) ) ) ) ) ",
") _ _ _ ) _ _ ) ) ) ) ) _ _ _ _ ) _ _ _       B q q q q q q q q q q q q q q q q q q q q q q q       _ _ ) _ _ ) ) ) ) ) _ _ _ _ ) _ _ _ ) _ ",
") _ _ _ ) _ _ ) _ _ _ ) _ _ _ _ ) _ _ _       q 8 q q 8 q 8 0 q 8 8 8 q 0 8 8 q 8 q 8 q q q N       _ _ ) _ _ ) _ _ _ ) _ _ _ _ ) _ _ _ ) _ ",
") _ _ _ ) _ _ ) _ _ _ ) _ _ _ _ )       B B N D S S S S S S S S S S S S S S S S S S S S S S D 0 B B       _ _ ) _ _ _ ) _ _ _ _ ) _ _ _ ) _ ",
") _ _ _ ) _ _ ) _ _ _ ) _ _ _ _ )       B q q S S S S S S S Z S S S S S S S S S S S S S S S S 0 q B       _ _ ) _ _ _ ) _ _ _ _ ) _ _ _ ) _ ",
") _ ) ) ) _ _ ) _ _ _ _ _ _ _ _ )       q q 8 Z Z Z V V V V V V S Z Z Z Z Z V V V Z Z Z Z Z Z 8 q B       _ _ ) _ _ _ _ _ _ _ _ ) _ ) ) ) _ ",
") _ _ _ ) _ ) ) ) ) ) ) ) ) ) ) )       D S Z b b v G G G G G G v m m m m v G G G v m m m m b A S D       _ ) ) ) ) ) ) ) ) ) ) ) _ _ _ ) _ ",
") _ _ _ ) _ _ _ _ ) _ _ _ _ _ _ )       D D Z m n v G G G G G G c m k n k v G G G v m n n n m Z Z D       _ _ _ _ ) _ _ _ _ _ _ ) _ _ _ ) _ ",
") _ _ _ ) _ _ _ _ ) _ _ _ _ _ _ )       A Z C m n v G G G G G G z v v m n v G G G z c c n k m C A D       _ _ _ _ ) _ _ _ _ _ _ ) _ _ _ ) _ ",
") _ _ _ ) _ _ _ _ ) _ _ _ _       B B N b m m n n v G G G z v c G G G c n c G G G G G G v n n m m b N B B       _ ) _ _ _ _ _ _ ) _ _ _ ) _ ",
") _ _ _ ) _ _ _ _ ) _ _ _ _       B 0 8 m n n n n v G G G v n c G G G v n c G G G G G G v n n n n m 8 q B       _ ) _ _ _ _ _ _ ) _ _ _ ) _ ",
") ) ) ) ) ) _ ) ) ) _ ) ) )       N N 9 m n k c c x G G G x v z G G G x v x G G G G G G z c c n n m 9 9 N       ) ) _ ) ) ) ) ) ) ) ) ) ) ) ",
") _ _ _ _ _ _ ) H H H @...@.w t y w 2 * I L J G G G K J K G G G x v x G G G K J J c v z G G G c k H = = w t y , #.o.#.H H H _ ) ) _ _ _ _ _ ",
") _ _ _ _ _ _ ) c n k  .|  .% w r r t , I J J G G G J J J G G G v n v G G G J J L n n c G G G v n H w r r r w %  .|  .k k n _ ) ) _ _ _ _ _ ",
") _ _ _ _ _ _ ) H n k  .|  .@ % % , w % P K K G G G K K K G G G c n v G G G J L I h k c G G G z c c % , r % % @  .| | k n H _ ) ) _ _ _ _ _ ",
") _ _ _ _ _ _ ) % r $ =.*.%.*.*.-.k n v G G G x v x G G G x c c n n c G G G c k h  . .o.c c x G G G v H h -.*.*.*.&.*.@ 1 % ) ) ) _ _ _ _ _ ",
") ) ) ) ) ) ) ) r w % *.%.%.%.%.*.h n v G G G c v v G G G c n n n n v G G G c n v  .|  .k n c G G G c n h *.%.%.%.%.=.% r r _ _ ) ) ) ) ) ) ",
") _ _ _ ) _ _ ) t t * ;.*.*.*.&.*.k n v G G G c c c G G G x c c n h c G G G c h h | | | j n c G G G c n h *.*.%.*.*.;.* t t _ _ ) _ _ _ ) _ ",
") _ _ _ ) _ _ ) _ _ _ * % @  .{  .% w % n c c I L J G G G G G G J L I > , $ o. .| *.*.*.h m n J J J c n k | {  .@ % % ) _ _ _ _ ) _ _ _ ) _ ",
") _ _ _ ) _ _ ) _ _ _ t w % o.|  .% r r H c n J J K G G G G G G J J I % w %  .| | %.%.*.h v k L J L n n k  .| o.% w t ) _ _ _ _ ) _ _ _ ) _ ",
") _ _ _ ) _ _ ) _ _ _ t t * +.} +.$ , > H n n I L J G G G G G G P Y U % % $  .| { %.%.*.h k h I I I c c c O.} +.* t y ) _ _ _ _ ) _ _ _ ) _ ",
") _ ) ) ) _ _ ) _ _ _ _ _ _ ] ' ' G G G > * % I J L J J J c c c % , % o.o. .*.&.&.%.%.%.|  .o.$ % > G G G ` ' ] _ _ _ _ _ _ _ _ ) _ ) ) ) _ ",
") _ _ _ ) _ ) ) ) ) ) ) ) ) ] ' ` G G G , r , I L J L J L c c H % r %  .| | *.%.%.%.%.&.| | ..% t , G G G ` ' ] ) ) ) ) ) ) ) ) ) _ _ _ ) _ ",
") _ _ _ ) _ _ _ _ ) _ _ _ _ [ ] ] G G G > r % T I U L L I n H H % % @  .| { *.%.&.=.*.=...o.#.% 1 > G G G ] ] [ _ ) _ _ _ _ _ _ ) _ _ _ ) _ ",
") _ _ _ ) _ _ _ _ ) _ _ _ _       G G G v n H       H h n % % % @.o. .*.%.*.{ { | @ % *       H H c G G G       _ ) _ _ _ _ _ _ ) _ _ _ ) _ ",
") _ _ _ ) _ _ _ _ ) _ _ _ _       G G G v n H       H F c r w %  . .{ %.%.%.{ | o.% r t       H n v G G G       _ ) _ _ _ _ _ _ ) _ _ _ ) _ ",
") _ _ _ ) _ _ _ _ ) _ _ _ _       G G G v n H       F F F r r %  .| { *.%.*. .o.@.& w e       H n v G G G       _ ) _ _ _ _ _ _ ) _ _ _ ) _ ",
") ) ) ) ) ) _ ) ) ) _ ) ) )       Y J P % w @ :.:.:.W ( ( w r $ =.*.%.%.%.*.@ % & ( ( ~ :.:.:.@ 1 % P J Y       ) ) _ ) ) ) ) ) ) ) ) ) ) ) ",
") _ _ _ _ _ _ ) _ _ _ ) _ _       U J I , r % :.:.:.~ / ( w w % *.%.%.%.%.*.% 1 w ( / Q :.:.:.# r % I J U       _ _ _ ) _ _ _ ) ) _ _ _ _ _ ",
") _ _ _ _ _ _ ) _ _ _ ) _ _       R U T w t * :.:.:.! / / # # + *.%.%.%.%.*.+ % # / / Q :.:.:.& t r T U R       _ _ _ ) _ _ _ ) ) _ _ _ _ _ ",
") _ _ _ _ _ _ ) _ _ _ ) _ _ _ ) _             *.%.&.! / Q :.:.:.%.%.%.%.%.%.:.:.:.Q / ^ &.%.*.            _ _ ) _ _ _ ) _ _ _ ) ) _ _ _ _ _ ",
") _ _ _ _ _ _ ) _ _ _ ) ) ) ) ) _             =.&.&.^ / Q :.:.:.%.%.%.%.%.%.:.:.:.Q / Q &.%.=.            _ _ ) _ _ _ ) ) ) ) ) ) _ _ _ _ _ ",
") ) ) ) ) ) ) ) _ _ _ ) _ _ _ _ )             -.*.=.E ^ E :.:.:.%.%.%.%.%.%.:.:.:.E ^ E =.*.-.            ) ) ) _ _ _ ) _ _ _ _ ) ) ) ) ) ) ",
") _ _ _ ) _ _ ) ) ) ) ) _ _ _ _ ) _ _ _       l k g =.&.&.%.%.%.%.%.%.%.%.%.%.%.%.&.&.=.g j l       _ _ ) _ _ ) ) ) ) ) _ _ _ _ ) _ _ _ ) _ ",
") _ _ _ ) _ _ ) _ _ _ ) _ _ _ _ ) _ _ _       H n h *.%.%.&.%.%.%.%.%.%.%.%.%.%.%.%.%.*.j n H       _ _ ) _ _ ) _ _ _ ) _ _ _ _ ) _ _ _ ) _ ",
") _ _ _ ) _ _ ) _ _ _ ) _ _ _ _ ) _ _ _       H n k -.=.*.&.&.&.&.&.%.&.*.%.*.%.%.*.*.-.k n H       _ _ ) _ _ ) _ _ _ ) _ _ _ _ ) _ _ _ ) _ ",
") _ _ _ ) _ _ ) _ _ _ ) _ _ _ _ )       B B N = * * # % @  .{ | | { | { { | { |  .@ % # r 1 * N B B       _ _ ) _ _ _ ) _ _ _ _ ) _ _ _ ) _ ",
") _ ) ) ) _ _ ) _ _ _ _ _ _ _ _ )       B 0 N = t 1 r r % o.| | | | | | | | | | ..% w t 1 r * 0 q B       _ _ ) _ _ _ _ _ _ _ _ ) _ ) ) ) _ ",
") _ _ _ ) _ ) ) ) ) ) ) ) ) ) ) )       5 4 4 t 2 t 1 1 = @.X.+.o...X.X.X.X.X.X.@.* 2 t 1 t 2 4 6 5       _ ) ) ) ) ) ) ) ) ) ) ) _ _ _ ) _ ",
") _ _ _ ) _ _ _ _ ) _ _ _ _       f s p :.:.:.. 3 X N 9 8 5 6 6 5 5 6 6 6 6 6 6 5 8 9 N 3 3 . :.:.:.O ; :       _ ) _ _ _ _ _ _ ) _ _ _ ) _ ",
") _ _ _ ) _ _ _ _ ) _ _ _ _       d s u :.:.:.. 3 3 q q 0 0 q q 0 q q q q q q q 0 q q q X 3 . :.:.:.o ; ;       _ ) _ _ _ _ _ _ ) _ _ _ ) _ ",
") _ _ _ ) _ _ _ _ ) _ _ _ _       d a i :.:.:.. 3 X q q q q q q q q q q q q q q q q q q X 3 . :.:.:.o ; ;       _ ) _ _ _ _ _ _ ) _ _ _ ) _ ",
") _ _ _ ) _ _ _ _ ) _       y t t * w t       t w 2 N q q q q q q q q q q q q q q q q 0 = t t       t w r t t y       _ _ _ _ _ ) _ _ _ ) _ ",
") ) ) ) ) ) _ ) ) ) _       t r w r * t       t 1 2 0 q q q q q q q q q q q q q q q q 9 = r t       t r r r w t       ) ) ) ) ) ) ) ) ) ) ) ",
") _ _ _ _ _ _ ) _ _ _       w % % % % *       2 1 2 N 9 9 N 0 0 7 7 7 7 7 7 0 9 0 N N M = 1 2       % % % % % *       ) _ _ _ ) ) _ _ _ _ _ ",
") _ _ _ _ _ _ ) _ _ _       #.o. .*.*.;.X 3 X D A A = 2 1 2 * < G G G G G G < 2 w 1 2 2 A A D 3 3 . -.*.=. ...#.      ) _ _ _ ) ) _ _ _ _ _ ",
") _ _ _ _ _ _ ) _ _ _       o. .{ *.%.*.. 3 X D S A 1 r r r t , G G G G G G , r t r 1 1 Z S D X 3 . *.&.%.| | @.      ) _ _ _ ) ) _ _ _ _ _ ",
") _ _ _ _ _ _ ) _ _ _       $.o.o.-.-.;.. 3 3 D S D = 1 1 2 2 < G G G G G G < 2 1 = 1 = D S D 3 3 3 ;.=.-...o.$.      ) ) ) ) ) ) _ _ _ _ _ ",
") ) ) ) ) ) ) ) _ _ _ ) _ _                   B 0 8 A A D 9 9 0 7 7 7 7 7 7 0 9 9 A A D 8 q B                   _ _ _ ) _ _ _ _ ) ) ) ) ) ) ",
") _ _ _ ) _ _ ) ) ) ) ) _ _                   B q q S S S 8 q q q q q q q q q q q S S S q q B                   ) ) ) ) _ _ _ _ ) _ _ _ ) _ ",
") _ _ _ ) _ _ ) _ _ _ ) _ _                   B B q D S D 8 0 0 0 0 q 8 8 q q 8 8 D S D q q B                   _ _ _ ) _ _ _ _ ) _ _ _ ) _ ",
") _ _ _ ) _ _ ) _ _ _ ) _ _ _ _ ) _ _ _             q q 8 D S S S S S S S S S S S 8 0 B             _ _ ) _ _ ) _ _ _ ) _ _ _ _ ) _ _ _ ) _ ",
") _ _ _ ) _ _ ) _ _ _ ) _ _ _ _ ) _ _ _             q q q S A D S S S S S S S S S q q B             _ _ ) _ _ ) _ _ _ ) _ _ _ _ ) _ _ _ ) _ ",
") _ ) ) ) _ _ ) _ _ _ _ _ _ _ _ ) _ ) )             B B B D D D D D D D D D D D D N B B             ) ) ) _ _ ) _ _ _ _ _ _ _ _ ) _ ) ) ) _ ",
") _ _ _ ) _ ) ) ) ) ) ) ) ) ) ) )       y t t ; : :                                     : ; ; t t y       _ ) ) ) ) ) ) ) ) ) ) ) _ _ _ ) _ ",
") _ _ _ ) _ _ _ _ ) _ _ _ _ _ _ )       t r r ; ; ;                                     ; ; - r r t       _ _ _ _ ) _ _ _ _ _ _ ) _ _ _ ) _ ",
") _ _ _ ) _ _ _ _ ) _ _ _ _ _ _ )       t r r - ; ;                                     ; ; - t r t       _ _ _ _ ) _ _ _ _ _ _ ) _ _ _ ) _ ",
") _ _ _ ) _ _ _ _ ) _ _ _ _ _ _ )       r r r r r t ; ; :       ) _ _ _ ) _       : ; ; t r r r r t       _ _ _ _ ) _ _ _ _ _ _ ) _ _ _ ) _ ",
") _ _ _ ) _ _ _ _ ) _ _ _ _ _ _ )       t r r r r r ; ; ;       ) _ _ _ ) _       : ; ; t r r r r t       _ _ _ _ ) _ _ _ _ _ _ ) _ _ _ ) _ ",
") ) ) ) ) ) _ ) ) ) _ ) ) ) ) ) )       y t t t t y ; ; :       ) ) ) ) ) )       : ; ; t t t t t y       ) _ ) ) ) _ ) ) ) ) ) ) ) ) ) ) ) ",
") _ _ _ _ _ _ ) _ _ _ ) _ _ _ ) _ _ _ _                   _ _ ) ) _ _ _ _ _ _ ) _                   _ _ _ _ _ ) _ _ _ ) _ _ _ ) ) _ _ _ _ _ ",
") _ _ _ _ _ _ ) _ _ _ ) _ _ _ ) _ _ _ _                   _ _ ) ) _ _ _ _ _ _ ) _                   _ _ _ _ _ ) _ _ _ ) _ _ _ ) ) _ _ _ _ _ ",
") _ _ _ _ _ _ ) _ _ _ ) _ _ _ ) _ _ _ _                   _ _ ) ) _ _ _ _ _ _ ) _                   _ _ _ _ _ ) _ _ _ ) _ _ _ ) ) _ _ _ _ _ "
};
