/* XPM */
static char *b771c7be30734deff47248988f5193ddYpX50BTrGhf1b9ie[] = {
/* columns rows colors chars-per-pixel */
"80 80 243 2 ",
"   c #010100",
".  c #0C0201",
"X  c #070905",
"o  c #0A0B06",
"O  c #0C0D09",
"+  c #120401",
"@  c #1C0501",
"#  c #1A0A03",
"$  c #0C1006",
"%  c #0E110A",
"&  c #11140C",
"*  c #17190C",
"=  c #141611",
"-  c #161A11",
";  c #1B1D15",
":  c #210602",
">  c #230B03",
",  c #2A0903",
"<  c #370A04",
"1  c #2A1509",
"2  c #351909",
"3  c #2E1B10",
"4  c #1C260E",
"5  c #1D2316",
"6  c #2A260E",
"7  c #39230E",
"8  c #22241B",
"9  c #242A18",
"0  c #372715",
"q  c #29341A",
"w  c #353918",
"e  c #272920",
"r  c #2A2C22",
"t  c #312C21",
"y  c #2D3224",
"u  c #2D3428",
"i  c #33362A",
"p  c #363B28",
"a  c #35392C",
"s  c #373C30",
"d  c #3A3E31",
"f  c #4F130A",
"g  c #68180E",
"h  c #691910",
"j  c #781411",
"k  c #462915",
"l  c #4B321A",
"z  c #523010",
"x  c #55361B",
"c  c #6D2B11",
"v  c #473724",
"b  c #503925",
"n  c #623D23",
"m  c #2E4613",
"M  c #374817",
"N  c #364C19",
"B  c #3B4C1C",
"V  c #375319",
"C  c #3B521D",
"Z  c #3A4826",
"A  c #3E5321",
"S  c #3E5625",
"D  c #3D4133",
"F  c #41491F",
"G  c #504813",
"H  c #764A17",
"J  c #7F6712",
"K  c #464725",
"L  c #434D23",
"P  c #59482E",
"I  c #435423",
"U  c #435A24",
"Y  c #47562A",
"T  c #4A5D2B",
"R  c #434737",
"E  c #494D3E",
"W  c #4A5835",
"Q  c #535933",
"!  c #674728",
"~  c #744D2B",
"^  c #715431",
"/  c #795734",
"(  c #446027",
")  c #4B622D",
"_  c #50672F",
"`  c #4D6332",
"'  c #4B6635",
"]  c #536534",
"[  c #546B36",
"{  c #55643A",
"}  c #556C3A",
"|  c #5A6D3C",
" . c #55733B",
".. c #5B733D",
"X. c #5C7B3E",
"o. c #6B6D3E",
"O. c #5B4B40",
"+. c #4E5241",
"@. c #555A48",
"#. c #6B5B49",
"$. c #5B6648",
"%. c #5D7541",
"&. c #5E7C42",
"*. c #5C7B46",
"=. c #5F6451",
"-. c #74664D",
";. c #627543",
":. c #687747",
">. c #637C45",
",. c #657D49",
"<. c #6A7D4B",
"1. c #626753",
"2. c #656B56",
"3. c #686E58",
"4. c #677653",
"5. c #6D745D",
"6. c #757859",
"7. c #707760",
"8. c #737A62",
"9. c #777D67",
"0. c #72756B",
"q. c #871614",
"w. c #911B17",
"e. c #832314",
"r. c #982819",
"t. c #A62A1C",
"y. c #A9321E",
"u. c #B93621",
"i. c #C23A23",
"p. c #905B1D",
"a. c #96721C",
"s. c #8F5425",
"d. c #835D35",
"f. c #8A653B",
"g. c #92673C",
"h. c #93693E",
"j. c #AB7125",
"k. c #956D40",
"l. c #8D724B",
"z. c #9A7646",
"x. c #A57A49",
"c. c #807464",
"v. c #5D823D",
"b. c #5E8244",
"n. c #5F874A",
"m. c #638245",
"M. c #65824A",
"N. c #668648",
"B. c #6A834C",
"V. c #6A894C",
"C. c #71834F",
"Z. c #658650",
"A. c #6C8551",
"S. c #6D8951",
"D. c #718553",
"F. c #728B55",
"G. c #788B5B",
"H. c #77935B",
"J. c #7A935D",
"K. c #7D8469",
"L. c #7D9662",
"P. c #7C9A62",
"I. c #A68E1E",
"U. c #B59A22",
"Y. c #D18F2D",
"T. c #D29D2C",
"R. c #FCAB39",
"E. c #F8B537",
"W. c #F9C834",
"Q. c #FADB32",
"!. c #FFE933",
"~. c #968458",
"^. c #AD824E",
"/. c #B68751",
"(. c #B08956",
"). c #BA8A53",
"_. c #81886E",
"`. c #849B68",
"'. c #858C71",
"]. c #8B9276",
"[. c #93997A",
"{. c #B09565",
"}. c #86A36A",
"|. c #8AA36E",
" X c #92A36F",
".X c #8DA472",
"XX c #8EAA72",
"oX c #91A574",
"OX c #92AB76",
"+X c #9AA57A",
"@X c #95AC7A",
"#X c #9AAC7C",
"$X c #95B279",
"%X c #99B27C",
"&X c #A9AD7D",
"*X c #C29157",
"=X c #C5945A",
"-X c #C9965B",
";X c #CB975B",
":X c #CB995D",
">X c #C89B62",
",X c #D39E60",
"<X c #DBA464",
"1X c #DAA565",
"2X c #D0AD75",
"3X c #E6AC69",
"4X c #EDB26D",
"5X c #ECB772",
"6X c #F3B872",
"7X c #FCBE75",
"8X c #FFC176",
"9X c #FFC479",
"0X c #FFC97E",
"qX c #A29E8B",
"wX c #9BA683",
"eX c #9CB481",
"rX c #A3AC8B",
"tX c #AAAD93",
"yX c #ABB492",
"uX c #B2BC98",
"iX c #B5B3A9",
"pX c #C7BA97",
"aX c #B9C39E",
"sX c #BDC6A1",
"dX c #BEC8A2",
"fX c #FECD83",
"gX c #FED28A",
"hX c #E8D090",
"jX c #E7D19F",
"kX c #FADA95",
"lX c #EDE09F",
"zX c #FEE39C",
"xX c #C2CCA6",
"cX c #CBC8B8",
"vX c #D3D1B5",
"bX c #FDEAA5",
"nX c #FFF2AD",
"mX c #FFF6B4",
"MX c #DBD7C5",
"NX c #F4EDD1",
"BX c #F1F3ED",
"VX c #FFFEEB",
"CX c #F6F6F4",
/* pixels */
"X.b.b.v.&.m.m.X.X.&.X.m.X.X.X.X.v.v.v.X.o.X.o.T M F F F M W :.>.*..XXX|..XXXK.0 6 1 7 K B K F M M m m.m.X.&.>.&.X.m.&.X.m.X.m.S B Z T M.>.%.&.X.N.m...B.| w Y K ",
"b.b.b.b.m.m.N.m.N.B.C.V.N.N.:.N.v.N.N.N.C.C.6.T K T K L A T ,.<.%.].@X@XwX@XG.1 > > 1 L L K K Y B C m.N.M.M.M.m.M.M.m.,.S.,.S.( B A ) M.M.M.N.b.>.:.:.D.| L Y K ",
"*.n.n.b.m.m.N.N.B.B.,.X.X.N.N.N.m.v.N.m.m.o.<.Q F F F Y B Y ,.,.F.`.@XwXG.K ! U.U.U.U.x 3 6 7 6 6 6 w 0 k l X.m.,.>.m.&.M. .M.) B C ` B.B.B.m.V.V.N.V.:.{ I L B ",
"b.n.n.n.m.>.,.>.>.X.) ) _ ,.N.X.m.X.N.X._ T _ L Y F { :.| ,.}.}.`.L.D.L.Q > G Q.!.!.Q.z : : : : , > > , < 2 :.B.H.`.}.}.S.M.S.*...} X.B.,.>.) U U Y ) ) ] ;.;.,.",
"*.m.>.m.B.B.<.,.B.;.N V M >.N.N.N.X.B...I B L A B B { C.:.V.OX$X#XD.:.:.P : G Q.Q.W.E.U.I.I.I.I.I.j.j.j.j.s.l w v Q `.OX*.m.M.*.B.N.B.B.>.>.S N U C C N U B.,.M.",
",.M.<.,.B.B.B.B.B.>.C C M >.,.B.V.>.B...U F B I F F ] B.<.F.$X%XeXG.<.D.Q @ z Q.Q.R.E.!.!.!.!.!.!.Q.R.R.R.Y.2 > > > _.OX,.B.M.B.m.X.>.m.,.B.U S C C A N ' A.M.M.",
",.D.<.| [ | ..| } | ] [ ] >.<.B.B.X.m.>.C U I T ] ] ..,.>.B.J.J.`.;.| ..K : G W.E.j.a.a.I.a.a.a.a.U.W.W.W.E.p.p.p.p.^ Y { M.M.m.m.m.N.,.,.<.S Z I ] [ `  .m.n.v.",
":.<.:.T B B F B B T <.A.F.<.B.,.,.>.B.:.B C U :.D.C.B.B.m.,.V.v.:.Y M M w : z R.T.2 @ @ + + @ @ # J !.!.!.Q.R.R.R.R.x @ Q >.m.,.b.v.N.,.,.A.Y S C $.V.B.M.N.n.b.",
":.C.:.U C B I I B ) <.,.<.,.>.<.N.:.F.X.F N C ;.<.<.,.m.m.m.B.,.<.Y M w G s.p.j.p.< 1 #.c.c.c.c.0.z.I.I.I.U.W.E.E.R.c > I B.B.&.N.v.N.m.,.:.Y A C $.<.M.M.b.b.b.",
":.<.:.T I N I U C ) ,.<.A.S.A.A.C...B.| U U U ..,.N.m.V.m.N.B.m.D.T 0 : H E.Y.: : @ 3 vXVXVXVXVXVXqX@ @ : k Q.Q.R.R.z + Y B.A.m.v.v.V.m.<.X.T U Y *.<.M.Z.N.V.N.",
"M F U B I I } B.<.<.B.>.B.`.oX#X:.M V U B.V.B.B.m.B.M.B.m.N.m.<.<.U w 1 H j.p., 3 O.-.NXVXVXVXVXVXiX#.#.O.^ U.U.R.R.p.H P W ..M.V.V.[ V C C >.B.>.S.B.,.m.b.m.&.",
"I I I B S C ] S.M.M.<.,.F..X%XeXN.F U T :.X.>.>.M.m.m.>.,.B.,.B.D.U N N L , 1 > v NXVXCXVXVXVXVXVXVXVXBXcXtX1 f Y.R.R.R.H @ K b.v.v. .V ( S m.B.M.B.,.M.M.M.B.B.",
"B M F M S C _ Z.B.M.B.X.M.`.oX%Xo.V V U S.M.A.b.m.*.M.m.M.S.>.M.B.) I N A 0 3 > k cXNXcXiXMXNXMXcXMXBXNXcXiXb P j.Y.R.R.p.: F m.M.M.] m C V &.m.,.m.>.B.<.,.<.:.",
"X.X.X.X.&.} &.M.*.V.|.|..XJ.F.F.N.| X.X.m. .M.m.m.m.V.,.B.,.) ) T } %...>.B.{ > 7 ).).3 . k.>X^ > -.cXcXcXcXcXiXv , Y.E.H @ F B.B.S.B. .v. .N.m.V.N.,.B...) ] T ",
":.,.B.X.S.M.M.M.M.S.%XXXOXB.N.:.V.B.m.>.M.M.M.b.m.m.V.&.B.%.N B B :.A.S.,.{ Q x n *X*X2   k.,Xd.f -.tXtXtXiXiXqXb v j.Y.H : K m.*.<.<.} .. .[ [ } ' [ ;.[ I L L ",
"m.N.C.X.M.M.M.*.>.M.%XOX%XB.B.m...N.N.N.X.N.V.M.b.b.B.&.M.>.C C C >.,.*.Q , ! jXlXfX4Xk : ).7X6X6Xx.3 3 3 3 < t iXiXP < > , M b.M.M.} o X X X X X X X Y | B L A ",
"m.N.*.N.M.M.F.H.G.`. X X%XV.>.m.m.v.N.N.v.N.N.m.B.>.S.L.G.G.' ) [ X.*.%.Q f ~ bXzXfX6Xn 7 =XfXfXfXx.k 2 , , 2 l qXiXb # : # p %. .%.S X   % % % % = = u ) ) ) [ ",
"&.m.&.M.b.*.`.OX#X X&X X$XF.m.V.v.v.v.N.v.m.M.m.*.:.L.eX$X@XS.M.X.m.K < / jXhX0X7X7X7X3X3XgXbXbXbXkX4Xx., k 1X<Xb 0 , : .   X O % $ % 8 u wXyXrXrXMXBX0.X p B.<.",
"M.B.M.M.>.X.`.$X+X#X%XoXOXC.m.m.N.N.v.m.N.M.m.,.S.,.L.OX@X}.M.B.V.V.b < -.zXkX5X6X7X7XfX7XzXnXbXbXkX7X-X2 x 6X4Xk : , , .           X e D rXsXsXaXBXCX0.  y S.<.",
"..:.M.S.B.N.`.|.|. XOX|.OXH.N.N.m.v.v.v.V.V.B.M.M.B.L.oX@X|.A.m.b.b.;.| P x x z n *X,X6X7XzXnXkXfXfX7X3Xx./.7X4Xk , g j :   $ r r r y u D K.K.K.K.aXcX=.  q <.*.",
"#XwXeXXXXXXXL.Z.S.A.<.,.M.,.*.&.N.N.V.V.XXXXOXOX%X@X`.<.B.M.>.>.B.,.B.B.K < , : 2 ).-X6X7XkXnXgX7X7X7X4X=X-X6X3Xk > g q.<   = i i a a a d 3.7.5.5.rXdX=.X u S.A.",
"oX+X@X.X@XeXP.*.Z.M.,.,.M.M.V.V.b.X.m.B.OX$X$XOX.XoXJ.&.m.B.B.B.m.>.,.B.] w 6 , k ,X6X7X7XfXfXfX7X4X1Xx.x l 0 k g j r.u.r.r.f X - a a a D 2.7.7.5.rXdX@.  9 <.<.",
"+XrXwX.XXXeXL.*.,.,.M.M.M.M.M.b.N.m.B.B.%X$XOX X%XeX`.,.B.B.V.B.F.B.<.,.} S w : k 4X7X7XfX7X7X7X7X3X=Xk.> @   . j q.u.i.i.i.g   X i i i d 3.7.5.5.rXdX=.  y Z.;.",
"+X+XeXwXwXXXL.Z.Z.M.Z.V.m.B.M.b.M.m.B.M.$XOXoX`.S.G.F.,.D..._ U Y T T ] } $.Q , v jXNXjXjX2X,X4X7X4X-Xk.. + f f t.t.u.i.i.u.t.e.g O O o = R E +.E D D D W A..X`.",
"[.+X[.+X.XeXH.*.Z.*.Z.*.B.M.m.V.,.B.,.B.@XOXoXG.,.:.:.,.:.,.I C A B A M ] G.{ > v NXVXMXcXqX*X3X7X4X-Xh.  + j q.u.i.i.i.i.u.i.i.e.        y s i i X   Z G.@XwX.X",
"+X&X&X+XeXeXP.n.Z.Z.Z.4.M.M.m.*.&.M.&.D.OXwX@XD.,.<.A.D.<.:.C N A A Y B T <.Q > 3 1.1.@.O.=X3X3X3X^.! l   @ r.t.h g h h c g r.i.y.j f   . E @.@.@.-   p L.#XeX@X",
"+X+X+X`.`.P.H.M.M.,. .}  .M.M.&.S.H.F.P.`.`.`.;.{ | ;.;.....Y T B T ] T ;.L.:.> @     X X x.fX3X=Xd.: +   @ i.u.< : : : : @ c i.i.i.r.  X 3.8.6.7.5   Z F.@X+X+X",
"+XoXoXD.M.,.*.*.A.*.V N C X.S.M.P.$XOX|.>.,.:.S Z L Z M B I B I Y ;.D.<.`.%XK.1 7 -.6./ d.=X3Xx./ l . : f g c c ~ / f.g.g.g.s.c e.r.r.g f d s 1.5.+.i p D 5.#X+X",
"eX+X@XZ.b.*.M.B.,.;.I V U X.M. .H.XX$XXX*.<.A.Q I Y Y Y L L I F B %.<.,.L.#X6.1 k lXnX0X7X1X-X~ : .   < u.y., 2 ^.=X6X8X7X9Xk.@ f q.q.i.y..   @.7.7.7.i   Z wXwX",
"}.|..XF.M.B.,.>.B.;.U F U X.S.V.}.XXXX}.B.M.<.I F L K L Y L Q K L ;.D.A.L.@XK.> k pXhX4X4Xx.d.l : +   , t.r., 2 {.5XkXkXkXgX>Xd.~ f j u.y..   @.7.'.[.R   D oXwX",
"m.B.V.*.&.M._ I F T o.:.:.B.>.X.v.m.m.M.<.M.D.W L L Y L K W 4.:.<.`.+X`.XXeXG.1 7 /.-X-X=Xx : : , .   @ j j , 7 jXmXVXVXNXnXkX7X).> f u.y.+   @.8.tXxX@.  D +XwX",
"b.b.' S %.S._ N F ) V.:.N.B.m.N.v.' W S W W W q q q w q w w Q W | oXL.4.4.3.Q + 1 / f.f.d.k # v P 0   , q.j , 6 hXmXNXNXmXnXkX9X).# f u.y.f < R +.'.tX7.s E 4.6.",
"b.n.-   W D.[ B F Y C.:.B.S.*.M.V.4                             W `.W                     @ > 6.xXc.> f q.j : 2 hXnXnXnXnXnXkX9X/.> f u.u.u.u.:   E 7.wXxX8.  5 ",
"' ' %   p { L w w Z { W ` ' ' ' ' i r ; = = = = = = = = = = = = p 6.D         = = = = = = # @ @.wX#.# < g g k n hXbXbXnXnXnXgX6X^.> f u.i.i.u.,   E 5.wXxX8.  - ",
"              X   X   X   X X     '.xX].3.7.5.3.5.5.3.5.5.5.5.5.8 X         = 3.3.5.3.5.3.;       . > > : k /.=X6X9XzXnXnXmXhX=Xh.> f u.i.i.u.:   +.5.wXxX8.  & ",
"    & ; & o O O o o O O o         K.uX'.1.3.2.2.2.2.2.2.2.2.2.2.y O O O o o 8 1.3.2.3.2.2.e o X X . @ @ : k ).-X4X6XkXbXbXjX5X=Xg.> 2 y.u.u.u.>   R 3.'.yX3.  & ",
"    ].uX_.2.2.2.5.3.3.3.1.a r     @.9.@.d d d d s d d d d d d d @.3.3.3.3.3.1.s d d d d d =.3.E u ;   . : k ).=X-X-X6X0X1X>X:X:Xh.> < q.w.u.u.,   8 d D R 8   % ",
"    '.yX9.=.2.2.2.3.3.3.1.d i     +.8.E i i i a i i s i y r y y @.3.3.7.3.5.=.p a a i a i @.3.+.i 5     @ k ).-X-X-X5X8X1X:X-X:Xh.> < q.q.u.u.< . ; u a d 8   & ",
"    O & o X X   ; D D D d s i     +.8.+.i i i i a i a y X       e d d d d d d i a a i a a d R s a ;     : k /.-X4X8X8X8X7X8X1X:Xh.> < q.q.u.u.y.y.<   a 5.d   & ",
"X   X X   X X o & u i u i v d     E 3.E i i i i i i i y X       ; a a a a a a i a s d s a a i i i ;     1 k ).-X6X8X7X7X7X9X1X).d.: < j w.u.i.i.i.f   a 9.R   % ",
"w M w { } ' $. .Z       ; x.x.k @ O $ X       X     X o ! ^ 2 # X   ; s a a i a d 1.1.d a a a -       6 x.^.*X*X-X,X6X8X3X,Xg.k 1   @ q.q.u.i.i.u.f   a 6.R   o ",
"B Y C :.B.,.b.*.Z       1 *X=Xz 1                     . ^ f.7 > .   ; a i a s i R 3.3.R i i i =       0 *X:X:X*X-X-X5X8X1X*X/ @ #   @ j q.u.u.u.u.<   a 7.R   $ ",
"M L * - 5 - 5 5 =   0 &X&Xx.z.&XpXl.! f.x.z.z.z.z.k.! ~ (.).k : ~ x.b X - a a i s R R d i - X . + x k.^.4X6XkXlXkXlX9X7X3X=X/ @ x *Xz.: @ , , , ,     X - 5 q m ",
"| { =               K nXlXz.k.lXbX(.f.^.:X,X,X,X,X=Xk.h.=X:Xx : k.<X!   O i a a i s i i i o   . : ! :X1X8XfXnXnXnXnXfX8X,X*X/ > ~ 8X-XX                   5 ....",
"Z.*.-   0.iX0.+.r   0 2X>Xl x >X5X^ k h.,X).x.z.x.h.l l h.z.k > ~ x.b     o o o O 1 3 3 3 d +.+.+.l.6XfXzXzXgXfXgXgXkXzXx.x ~ h.^.<X:X^.^.^.^.#       & Z { B.B.",
"*.%.-   iXCXiX0.R   0 :X).2 2 ^.:Xx @ f.<X^.f.f.f.^ > 1 / f.7 : P k.k             : > # : @.8.7.6.{.7XfXnXzX8X8X8X8XzXmX-.@ ~ -X=X*X,X9X9X9X6X6       4 ) <.:.<.",
"n.b.;   0.iXK.@.r   1 x.k.1 1 g.x.l @ ~ ^./ z l l k . + k l # X 7 x >     . 7 k.z.{.{.z.x.^ +.1.6.6.l.{.gXgX8X8X8X8X(.-.l : ~ -X=X=X:X<X<X<X1X^.h.~.oXP 9 W <.S.",
"b.*.;   R 5.+.s ;   * f./ 1 1 / f.0 @ ! k.n @ @ : @     # >     . > .     : x 7XfXnXnXfX7X-.u @.8.@.r #.8X8X8X8X8X7Xn # > : ~ :X-X=X=X*X=X=X=X8X9XzXmX6.  y ,.4.",
"b.X.=   E 7.+.a ;   + b l + + l x 1 . 7 x ~ k.~ > 2 / / 1 > 7 k > . . . k g.h.g.z.fXkXkXkX{.x.-.@.E i E x.(.1X1Xx.k.3 . . . k ~ h.=X=X=X=X=X=X1X3X5XhX^   r M.,.",
"m.&.-   +.8.@.i 5     : @     @ :     . : f.0X).: x 6X4Xk : ^ h.6   . : / 9X,X, 7 4X8XbXnXgX0Xl.u u a i i R ).).2 @           : n -X=X-X=X=X=X=X=X=X=XP   e M.Z.",
"X.&.*   e R u 5 O     + .     . +     + : ~ ,X/.d.k.6X6Xg.d.! ! *     + z x.h.! / 6X8XgXzX0X8X=Xl.#.i y ; q l.l.b v u r D +.t + 7 d.f.d.g.).=X=X-Xk.^ K y S n.,.",
"<.M.-                                 + > x f.^.8X8X9X8X8X7Xx : .         : l *X,X7X8X8X8X8X7X7X9X(.a 8     r d 3.7.5.5.rXxX2.    : > : 2 /.:X=X-X0   Z M.Z.M.Z.",
"..>.y q u u s u u p y p i 9 5 9 9 9 9 q w b ! f.).).).).)./.P 0 9 5 5 q 5 : k g.h.3X4X7X7X8X8X<X)./ 8 ; 8 ; 8 r K.].].].tXxX_.s q + @ + > f.h.h.k.3   Z *.M.n.b.",
"`.`.P.XXeXXXP.F.H.H.F.F.J.V.N.V.m.>.m.M.N.K > > > , , , , 1 { ,.M.n.n.n.Y > : > k ).:X6X9X8X9Xf.> +   ; 5.1.  X wXsXsXsXdXdXdXxXK.        > , > >     Z M.M.b.b.",
"@XeXoXwXXXwXH.*.m.b.B.X.m.&.&.v.N.m.m.N.>.Q 0 6 0 0 0 w w v ;.C.m.n.b.b.` 0 0 1 7 g.x.).=X-X:X/ 0 ; X ; @.E ; 8 rXxXdXdXdXdXuXyXK.= = & & # @ # @ & - S b.m.m.V.",
".XwXwXeXeXeXP.*.M.&.S.v.m.N.N.m.m.>.,.m.&.>.*.*.X.>.H.%X+X`.:.B.m.N.M.m.b.,.%.p i 1 ,     : 1 P 8.@.i 8   O 1.8.uXxXdXdXdXdXwX8.5.5.5.5.=.X       W m.M.M.n.X.b.",
"].eXwX|.`..XL.,.*.B.M.>.N.m.N.N.,.>.N.S.F.H.H.S.F.H.`.}. X|.| ..[ m.B.N.>.} Q R R k t * . 3 3 E 2.@.s 8   $ 9.'.uXsXdXdXdXdXwX7.7.5.7.7.2.O       W m.m.V.H.H.V.",
"eXeX.X4.%.*.,.,.M.V.m.m.N.m.X.m.N.,.,.B.OX$X$XXX%XoXJ.,.>.:.B U C X.>.N.T i R 3.8.yXuX9.2.3.5.+.s s a e   ; yXiXsXsXdXdXdXdXwX7.7.5.5.7.3.d u     S M.v.H.$X$X%X",
"}.XX@XL.,.A.,.M.,.*.&.M.B.B.m.m.m.B.,.,.%X$X$X$X$X%X`.:.:.:.G F M X.B.C.` i R 9._.aXuX_.5.5.3.+.i i u ;   - uXdXxXxXxXdXaXaXwX3.5.3.3.5.1.i r o $ W V.b.H.$X}.|.",
"XX@X.XD.,.Z.M.m.M.M.B.,.,.B.B.B.,.M.M.A.|.XXXXXX|.@X`.:.D.:.Y I U o.:.:.W u @.uXaXsXaX_.5.+.d a s ;       ; uXxXBXCXvXdX[.9.0.5.1.D d d a X o W ..*.n.v.V.XXOX%X",
"Z.B.S.,.N.<.] C S ` ,.*.B.|.OXOXOX.X|.|.A.Z.Z.Z.A.S.| B Y T F F V I Y U Q y +.sXxXaXaX_.5.E s i a ;       ; uXxXCXCXvXsX[.7.8.9.=.s s d i     ' ,.}.XX.X`.F.Z.*.",
",.*.,.X.m.B.[ C N ) A.<.B..X#XoX@XXXOX@X>.,.<.,.M.Z.} B L Y L Y T F F M Z   i aXsXxXaX_.5.3.3.E i i r ;   ; uXdXcXvXdXsXuXuXuXuXwX2.2.2.$.  X $.&.}.@X$XP.%.S.A.",
"o.N.V.V.V.B.) N V U 4.<.<.+XwX@X#X@XOXXXZ.<.<.Z.,.,.%.A I B F B F N N M p   e uXxXaXaX'.7.7.6.@.s s s 8   ; uXdXdXdXdXdXsXsXsXsXwX0.8.7.1.X X ( b.P.XX$X`.A.B.B.",
"_ [ ) U ) [ } [ } } D.<.,..X+X@XL.L.L.F.A.,.*.,.A.>.{ A B I o.o.[ X...| Z   - K.].uXxXyXyX_.5.3.1.+.s 8   % 9.P.aXdXdXsXwX'.K.'.wXyXwX8.5.@.+.r 5 $.L.H.F.B.:.B.",
"M F U L C N } V.M.,.V.<.<..XrX#XJ.X.X.m.B.B.%.B.,.D...M I U C.C.N.N.N.C.T   * 3.9.uXsXxXsX].5.7.7.@.i 8   o 2.9.uXsXsXsX].5.7.5.].dXuX8.5.7.5.%   W *.%.>.A.>.,.",
"K Y K I A B } *.M.,.M.*.:.`.+X#X`.v.m.N.B.B.,.D.<.<.| B V U <.N.v.m.m.v...Y Z 8 8 d R K.].9.5.$.+.i o X     ; 8 a D 9.].wXtX].5.9.]._.8.2.r ;     { Z.A.A.M.,.,.",
"L F B W ] ' %.Z.X.,.H.G.L.oX+X#X`.>.N.,...X.X.o.:.| ] T U ) X.C.v.N.m.m.X.N.]         @.5.7.8.+.u ;                 +.7.rXxXwX7.5.7.7.7.1.X       W *.M.>...>.<.",
"I Y Y :.,.M.*.A.V.H.OXOX+X#X#X+X`.X.C.X.I C C V B C [ H.C.C.m.X.m.N.N.:.N.N...Z 9 q 4 r r r r ; O X       O Z Z W Z u r D +.d r r r r r e ; ; ; 5 5 q @.%.B N m ",
"N C F >.B.B.,.,.m.S.OXOX@XoXOX+XG.X.C...U I F U I F T N.X.N.V.C.m.>.X.>.:.B.N.,.V V C &                   & *.,.X.<.5                     u a s a o   Z } C U Y ",
"C C U ..,.B.,.N.:.F.OXOXeXoXOXeX`.:.C...U F F U I U _ C.X.C.X.v.D.B.>.N.N.B.,.m.U C C &   o - - = = - O   & %.,.B.B.Y q q 9 %     = = = - i i i a 8 = 9 q q C B ",
"b.m.X.N.V.:.V.,.X.F.@X.X#XG.4.D.] F I U I I U ..v.X.C.N.m.F.N.V.X.) C U U I C S X.>...;   8 a a a a d 8   $ I U U C U U X.>.Z   O s a a a a s i a a d &   q A.A.",
"b.b.N.m.N.X.A.X.:.F.$XXX#XD.,.A.o.F F F F F I ..<.N.C.X.v.C.v.v.B.) C C U C C U B.Y Z r r i i a a r ; &   o C C U C C U <.B.W q 9 ; e +.E s a a a 8 ; X   y <.>.",
"m.b.M.&.V.X.C.X.X.C.OXOXeXS.S.<.{ F F B U M F X.N.<.:.N.N.N.N.>.A.Y C A A B B U %.o   @.5.E i i s -       $ B U V C m U ,.,.>.M.T   % 3.3.D i i i o       y ,.<.",
"&.m.M.b.N.X.H.`.`.`.H.~.`.M.<.A.[ I Y U | | ..:.C.N.B.N.N.N.N.>.<.T A A T %.] Z W D D 3.5.@.E D i e o o o & 9 q ) ..[ ..M.M.[ Y Z ; s '.'.+.E E E 8 o o o 5 Y W ",
"&.B.V.B.m.,.}.$X$X|.v.v.,.<.,.C.] F F U C.C.B.,.o.m.>.>.m.,.m.>.:.) B C } F.$.X o tXaXK.5.7.7.@.i i i i i r   X U V.N.:.m.M.Z   5 5.K.sXuX9.5.7.5.+.i i a 5   = ",
":.B.m.,.,.v.H.$X$X XN.N.B.D.C.C.] M N I C.m.B.m.N.N.N.N.N.B.N.C.<.) m q Z $.W - y wXyXK.5.2.1.E a a i s a r   X L :.B.N.} ' y   r 5.K.tXrX5.1.1.1.R a i a 5   % ",
";.;.;.C.B.B.H.}.}.H.M.m.D.,...| | ) ) ` M.*.M.m.m.m.m.,.N.B.| ..} ] q   % a R 3.5.7.8.7.5.E i s s s a a a r   X ` <.m.M.q   - i +.7.8.8.7.D a s a a a a a 5   % ",
"F B I ..,.,.*.b.N.N.M.X.B.U U B [ B.B.*.m.M.V.m.&.m.B.>.<.;.I I I ..p   o e s =.$.=.@.=.$.D r r r r r r r 8   X %.B.>.M.q   O r D @.@.=.@.u r r r r r r r =   = ",
"F F L :.B.B.m.M.n.b.n.m.B.U B B ' A.A.M.b.m.N.&.V.>.B.M.B.>.C C C &.Z                                         o $.,.&.m.q                                     & ",
"M F M $.,.,.*.b.b.X.X.*.B.U M M ` *.X.V.&.X.b.b.&.X.,...,.:.B B C } i                                         o } ,.*.m.q                                     $ "
};
