/* XPM */
static char *result[] = {
/* columns rows colors chars-per-pixel */
"70 70 178 2 ",
"   c #000001",
".  c #080607",
"X  c #020C03",
"o  c #050708",
"O  c #090B0D",
"+  c #170D07",
"@  c #120B09",
"#  c #051808",
"$  c #171209",
"%  c #1D140B",
"&  c #0B0C10",
"*  c #151C1D",
"=  c #1A1A1B",
"-  c #22170C",
";  c #2E1A14",
":  c #251D1A",
">  c #301B15",
",  c #08230A",
"<  c #11290B",
"1  c #0B370B",
"2  c #062F10",
"3  c #083E15",
"4  c #2A231C",
"5  c #3B2112",
"6  c #191D23",
"7  c #1C2627",
"8  c #29292A",
"9  c #352C23",
"0  c #393126",
"q  c #232631",
"w  c #272A36",
"e  c #253233",
"r  c #283637",
"t  c #2D3939",
"y  c #48281A",
"u  c #5E351A",
"i  c #64381C",
"p  c #6C3D1E",
"a  c #703F1F",
"s  c #4A2920",
"d  c #542F20",
"f  c #523E21",
"g  c #493E30",
"h  c #663A20",
"j  c #6C3E21",
"k  c #0D420D",
"l  c #11490F",
"z  c #0D4710",
"x  c #0E4B12",
"c  c #114213",
"v  c #134C11",
"b  c #0E5516",
"n  c #0E5718",
"m  c #0D5A1C",
"M  c #165212",
"N  c #1A5A14",
"B  c #205215",
"V  c #0F661F",
"C  c #1F6417",
"Z  c #2B6C1B",
"A  c #27731B",
"S  c #2D761E",
"D  c #2D7E1E",
"F  c #1F4D2C",
"G  c #23452C",
"H  c #2C4E39",
"J  c #0D6221",
"K  c #0F6C22",
"L  c #0F7125",
"P  c #107526",
"I  c #157729",
"U  c #107B29",
"Y  c #24782B",
"T  c #327E20",
"R  c #7E4F1E",
"E  c #7E7B05",
"W  c #425E24",
"Q  c #694327",
"!  c #734120",
"~  c #7E4E2A",
"^  c #6F562A",
"/  c #767730",
"(  c #333646",
")  c #354647",
"_  c #38574A",
"`  c #3B5552",
"'  c #396552",
"]  c #315273",
"[  c #424E5A",
"{  c #455C5D",
"}  c #6A5A49",
"|  c #66654F",
" . c #776647",
".. c #4D5369",
"X. c #54586E",
"o. c #565B72",
"O. c #4E6969",
"+. c #516C6D",
"@. c #567273",
"#. c #5C7675",
"$. c #5C7B7C",
"%. c #8B611B",
"&. c #835128",
"*. c #926634",
"=. c #AB7F3E",
"-. c #927342",
";. c #9A7642",
":. c #846F56",
">. c #89745A",
",. c #A47B41",
"<. c #A47A56",
"1. c #2F821F",
"2. c #258B28",
"3. c #368823",
"4. c #358B22",
"5. c #2B9229",
"6. c #399424",
"7. c #3C9B26",
"8. c #359A29",
"9. c #3FA229",
"0. c #41A429",
"q. c #54AD25",
"w. c #5DB123",
"e. c #61B322",
"r. c #808000",
"t. c #B9A010",
"y. c #AC912C",
"u. c #AA843D",
"i. c #B4823E",
"p. c #BEA12E",
"a. c #CBB80C",
"s. c #C4A92A",
"d. c #CECE00",
"f. c #DDCE18",
"g. c #E7DB11",
"h. c #E8E305",
"j. c #F7EF0C",
"k. c #FFFF00",
"l. c #F8F308",
"z. c #EDD428",
"x. c #E9C737",
"c. c #AB844C",
"v. c #B88841",
"b. c #B98D43",
"n. c #B38C56",
"m. c #B7AA48",
"M. c #B9946E",
"N. c #AE9972",
"B. c #B79B78",
"V. c #B9A479",
"C. c #C49649",
"Z. c #C99748",
"A. c #CA9B4C",
"S. c #CFA04E",
"D. c #D3A44C",
"F. c #D9A750",
"G. c #DEAC52",
"H. c #E5BD42",
"J. c #E2B549",
"K. c #C5A77F",
"L. c #32539D",
"P. c #666D8C",
"I. c #658586",
"U. c #67898A",
"Y. c #6A8D8E",
"T. c #AC9B8F",
"R. c #A99A90",
"E. c #B5A18E",
"W. c #B9A78A",
"Q. c #CCAA84",
"!. c #C5AA8D",
"~. c #D5B48B",
"^. c #C8B494",
"/. c #DBBB92",
"(. c #EACDA4",
"). c #FFE6BD",
"_. c #FFEAC7",
"`. c white",
/* pixels */
"P.Y.Y.Y.P.Y.Y.Y.Y.P.Y.Y.Y.Y.Y.Y.P.Y.Y.Y.P.Y.Y.Y.Y.P.Y.Y.Y.Y.Y.Y.P.Y.Y.Y.P.Y.Y.Y.Y.P.Y.Y.Y.Y.Y.Y.P.Y.Y.Y.P.Y.Y.Y.Y.P.Y.Y.Y.Y.Y.Y.P.Y.Y.Y.P.Y.",
"P.Y.Y.Y.P.Y.Y.Y.Y.P.Y.Y.Y.Y.Y.Y.o.,.,.,.,.,.,.! ! ! 0.0.0.k k k P U U ' P.Y.Y.Y.Y.P.Y.Y.Y.Y.Y.Y.P.Y.Y.Y.P.Y.Y.Y.Y.P.Y.Y.Y.Y.Y.Y.P.Y.Y.Y.P.Y.",
"P.P.P.P.P.P.Y.P.P.P.Y.P.P.P.P.P.X.,.,.,.,.,.,.! ! ! 0.0.0.k k k P U U ` P.P.Y.P.P.P.Y.P.P.P.P.P.P.P.P.P.P.P.Y.P.P.P.Y.P.P.P.P.P.P.P.P.P.P.P.",
"P.Y.Y.Y.Y.Y.Y.P.Y.Y.Y.P.Y.Y.Y.P.@.,.,.,.,.,.,.! ! ! 0.0.0.k k k P U U ' Y.Y.Y.P.Y.Y.Y.P.Y.Y.Y.P.Y.Y.Y.Y.Y.Y.Y.P.Y.Y.Y.P.Y.Y.Y.P.P.Y.Y.Y.Y.Y.",
"P.Y.Y.Y.Y.Y.Y.P.Y.Y.-.,.,.A.G.G.x.k.k.k.,.,.,.,.,.,.0.0.0.k k k 6.0.0.0.0.0.0.0.0.0.U U U Y.Y.P.Y.Y.Y.Y.Y.Y.Y.P.Y.Y.Y.P.Y.Y.Y.P.P.Y.Y.Y.Y.Y.",
"P.Y.Y.Y.Y.Y.Y.P.Y.Y.;.,.,.A.G.G.H.k.k.k.,.,.,.,.,.,.0.0.0.k k k 7.0.0.0.0.0.0.0.0.0.U U U Y.Y.P.Y.Y.Y.Y.Y.Y.Y.P.Y.Y.Y.P.Y.Y.Y.P.P.Y.Y.Y.Y.Y.",
"P.Y.Y.Y.Y.Y.Y.P.Y.Y.-.,.,.A.G.G.H.k.k.k.=.;.=.,.,.,.0.0.0.k k k 6.0.0.0.9.0.0.0.0.0.U U U P.P.P.Y.Y.Y.Y.Y.Y.Y.P.Y.Y.Y.P.P.P.P.P.P.Y.Y.Y.Y.Y.",
"P.P.P.P.P.P.P.;.,.;.j.k.k.s.,.,.,.u.,.u.k.k.l.k.l.k.0.0.0.k k k 6.0.0.0.0.0.0.0.0.0.0.9.9.U I U I U I c k c ..P.Y.Y.Y.P.Y.Y.Y.Y.P.P.P.P.P.P.",
"P.Y.Y.Y.P.Y.Y.,.,.,.k.k.k.s.,.,.,.,.,.,.k.k.k.k.k.k.0.0.0.k k k 7.0.0.0.0.0.0.0.0.0.0.0.0.U U U U U U k k k @.P.P.P.P.P.Y.Y.Y.Y.P.Y.Y.Y.P.Y.",
"P.Y.Y.Y.P.Y.Y.,.,.,.l.k.k.s.,.,.,.,.,.,.k.k.k.k.k.k.0.9.0.k k k 6.0.0.0.0.0.0.0.0.0.0.0.0.U U U U U U l k k O.P.Y.Y.Y.P.Y.Y.Y.Y.P.Y.Y.Y.P.Y.",
"P.Y.Y.Y. . . .g.h.g.s.y.p.Z.S.S.D.A.D.S.k.k.k.H.x.H.m.m.m.3.6.3.C N N D 0.0.0.0.0.0.0.0.0.8.8.8.U U U V V K F G G _ Y.P.Y.Y.Y.Y.P.Y.Y.Y.P.Y.",
"P.Y.Y.Y.,.,.,.k.k.k.c.,.,.A.G.G.G.G.G.G.k.k.k.G.G.G.G.G.G.0.0.0.M k k A 0.0.0.0.0.0.0.0.0.0.0.0.U U U U U U b k z H Y.P.Y.Y.Y.Y.P.Y.Y.Y.P.Y.",
"P.Y.P.P.,.,.,.k.k.k.u.,.,.A.G.G.G.G.G.J.k.k.k.G.G.G.G.G.G.0.0.0.M k k A 0.0.0.0.0.0.9.0.0.0.0.0.U U U U U U b k c H Y.Y.Y.Y.Y.Y.P.Y.P.P.P.Y.",
"P.Y.Y.Y.} | } a.a.a.*.*.*.C.G.G.F.=.i.i.f.f.f.x.x.x.A.A.A.0.0.0.l k k A 0.0.9.D 1.D 1.D D 0.0.0.U U U U U U m n n G [ [ ` P.P.P.P.Y.Y.Y.P.Y.",
"P.Y.Y.Y.P.Y.Y.! ! ! ! ! ! i.G.G.C.a ! ! ,.,.,.k.k.k.=.;.,.0.0.0.M k k A 0.0.6.k k k k k k 0.0.0.U U U U U U U U U V k k 3 Y.Y.Y.P.Y.Y.Y.P.Y.",
"P.Y.Y.Y.P.Y.Y.! ! ! ! ! ! v.G.G.A.! ! ! ,.,.,.k.k.k.,.,.,.0.0.0.l k k A 0.0.7.k k k k k k 0.0.0.U U U U U U U U U V k c c Y.Y.Y.P.Y.Y.Y.P.Y.",
"P.Y.Y.Y.P.Y.Y.Q Q j Q Q Q =.A.A.i.&.! &.c.c.c.k.l.l.=.,.,.q.0.q.N l v A 7.9.4.v k M k v l 9.9.9.U U U U U U U U U V x k x I.I.$.P.Y.Y.Y.P.Y.",
"P.Y.Y.Y.P.Y.Y.Y.Y.P.Y.Y.Y.r     9 ~.~.~.~.~.~.;.,.,.=.;.,.k.k.k.w.0.0.A k k M 0.0.0.0.0.9.U U U U U U U U U U U U U U U L       P.Y.Y.Y.P.Y.",
"P.P.P.P.P.P.Y.P.P.P.Y.P.P.q     4 ~.~.~.~.~.~.,.,.,.,.,.,.k.k.k.q.9.0.A k k l 0.0.0.0.0.0.U U U U U U U U U U U U U U U U       P.P.P.P.P.P.",
"P.Y.Y.Y.Y.Y.Y.P.Y.Y.Y.P.Y.r     0 ~.~.~.~.~.~.,.,.,.,.,.,.k.k.k.e.0.9.A k k M 9.0.0.0.0.0.U U U U U U U U U U U U U U U K       P.Y.Y.Y.Y.Y.",
"P.Y.Y.Y.Y.Y.Y.P.Y.Y.Y.P.Y.e     4 ~.~.~.).).).~.~.~.k.k.k.,.,.,.I U U U U U U k k k U U U U U U U U U U U U U U U U U U U       P.Y.Y.Y.Y.Y.",
"P.Y.Y.Y.Y.Y.Y.P.Y.Y.Y.P.Y.e     9 ~.~.~.).).).~.~.~.k.k.k.,.,.,.Y U U U U U L k k k U U U U U U U U U U U U U U U U U U L       P.Y.Y.Y.Y.Y.",
"P.Y.Y.Y.Y.Y.Y.P.Y.Y.Y.P.P.q     9 ~.~.~.).).).~.~.~.k.k.k.,.,.,.Y U U U U U L k k k U U U U U U U U U U U U U U U U U U L       P.Y.Y.Y.Y.Y.",
"P.P.P.P.P.P.P.P.Y.Y.Y.P.Y.e     + ! ! !       ).).).k.k.k.,.,.,.G.G.G./ k k l U U U k k k U U U k k k k k k L U U U U U U k k k       P.P.P.",
"P.Y.Y.Y.P.Y.Y.P.P.P.P.P.Y.r     % ! ! a       ).).).k.k.k.,.,.,.D.G.G./ k k v U U U k k k U U U k k k k k k V U U U U U U k k k       Y.P.Y.",
"P.Y.Y.Y.P.Y.Y.P.Y.Y.Y.P.Y.e     + ! ! !       ).).).k.k.k.,.,.,.F.G.G./ k k x U U U k k k U U U k k k k k k P U U U U U U k k k       Y.P.Y.",
"P.Y.Y.Y.P.Y.Y.P.Y.Y.&     :.~.~.T.L.L.L.`.`.`.).).).,.,.,.G.G.G.&.! ! <.~.~./.).).).).).).k k k k k k       2 k k b U U L k k k       Y.P.Y.",
"P.Y.Y.Y.P.Y.Y.P.Y.Y.o     >.~.~.T.L.L.L.`.`.`.).).).,.,.,.G.G.G.&.! ! <.~.~./.).).).).).).k k k k k k       1 k k b U U U k k k       Y.P.Y.",
"P.Y.P.P.P.Y.Y.P.Y.Y.o     >.~.~.E.L.L.L.`.`.`.).).).,.,.,.G.G.G.~ ! ! <.~.~./.).).).).).).k k k k k k       1 k k b U U U k k k       P.P.Y.",
"P.Y.Y.Y.P.Y.P.P.P.P.&     :.~.~.R.L.L.L.`.`.`.).).).! ! ! k.k.k.%.! ! M.).).).).).).,.,.,.            U.P.U.6     2 U U L k k k       Y.P.Y.",
"P.Y.Y.Y.P.Y.Y.Y.Y.P.      >./.~.E.L.L.L.`.`.`.).).).! ! ! k.k.k.R ! ! M.).).).).).).,.,.,.            Y.P.Y.*     2 U U U k k k       Y.P.Y.",
"P.Y.Y.Y.P.Y.Y.Y.Y.P.&     :.~.~.R.L.L.L.`.`.`.).).).! ! ! k.k.k.%.! ! M.).).).).).).,.,.,.            U.P.Y.7     2 U U P k k k       Y.P.Y.",
"P.Y.Y.Y.P.Y.Y.Y.Y.P.#.$.@.t : : g E.!.E._._._.).).).! ! ! k.k.k.s.S.Z.C.n.n.n.n.c.n.O % % o     o.$.$.Y.P.Y.6     # l z x X X X P.+.#.Y.P.Y.",
"P.Y.Y.Y.P.Y.Y.Y.Y.P.Y.Y.Y.e     4 ~.~.~.).).).).).).! ! ! k.k.k.J.G.F.C.,.,.,.,.u.c.            P.Y.Y.Y.P.Y.*     # k k k       P.Y.Y.Y.P.Y.",
"P.P.P.P.P.P.Y.P.P.P.Y.P.P.w     0 ~.~.~.).).).).).).! ! ! k.k.k.J.G.G.C.,.,.,.,.=.*.      . .   P.P.P.P.P.P.7     # z k 1       P.P.P.P.P.P.",
"P.Y.Y.Y.Y.Y.Y.P.Y.Y.Y.P.Y.{ ) ( ) } } } (.(.(.(.(.(.<.<.<.t.t.t.z.z.z.y.f f f f f Q ^ ^ ^ e.%.r.Y.Y.Y.Y.Y.Y.` ( ) e , , , ) ) ( P.Y.Y.Y.Y.Y.",
"P.Y.Y.Y.Y.Y.Y.P.Y.Y.Y.P.Y.Y.Y.P.O.    . ~.~.~.~.~.~.~.~.~.! ! ! h.k.k.r.            G.G.G.k.k.k.Y.Y.Y.Y.Y.Y.Y.P.U.{     O Y.Y.P.P.Y.Y.Y.Y.Y.",
"P.Y.Y.Y.Y.Y.Y.P.Y.Y.Y.P.Y.Y.Y.P.+.      ~.~.~.~.~.~.~.~.~.! ! ! h.k.k.r.            G.G.G.k.k.k.Y.Y.Y.Y.Y.Y.Y.P.Y.{     o Y.Y.P.P.Y.Y.Y.Y.Y.",
"P.Y.Y.Y.Y.Y.Y.P.Y.Y.Y.P.P.P.P.P.@.* & = B.B.N.V.V.V.V.N.V.i i i g.l.j.E       X   X A.b.b.h.d.h.Y.Y.Y.Y.Y.Y.Y.P.Y.{ * O 6 P.P.P.P.Y.Y.Y.Y.Y.",
"P.P.P.P.P.P.P.P.Y.Y.Y.P.Y.Y.Y.Y.P.P.P.P.      k k k k k k       C.G.G.^     X k k k             P.P.P.P.P.P.P.P.Y.Y.Y.P.Y.Y.Y.Y.P.P.P.P.P.P.",
"P.Y.Y.Y.P.Y.Y.P.P.P.P.P.Y.Y.Y.Y.P.Y.Y.Y.      k k k k k k       A.G.G.^     X k k k             P.Y.Y.Y.P.Y.Y.P.P.P.P.P.Y.Y.Y.Y.P.Y.Y.Y.P.Y.",
"P.Y.Y.Y.P.Y.Y.P.Y.Y.Y.P.Y.Y.Y.Y.P.U.Y.I.      k k k k k k       b.G.G.^     X 1 k k             P.Y.Y.Y.P.Y.Y.P.Y.Y.Y.P.Y.Y.Y.Y.P.Y.Y.Y.P.Y.",
"P.Y.Y.Y.P.Y.Y.P.Y.Y.Y.P.Y.Y.Y.Y.X.            U U U       G.G.G.$     3 U U U U U U ! ! !       P.Y.Y.Y.P.Y.Y.P.Y.Y.Y.P.Y.Y.Y.Y.P.Y.Y.Y.P.Y.",
"P.Y.Y.Y.P.Y.Y.P.Y.Y.Y.P.Y.Y.Y.Y...            U U U       G.G.G.%     3 U U U U U U ! ! !       P.Y.Y.Y.P.Y.Y.P.Y.Y.Y.P.Y.Y.Y.Y.P.Y.Y.Y.P.Y.",
"P.Y.P.P.P.Y.Y.P.Y.Y.Y.Y.Y.Y.Y.Y...            U U U       G.G.G.- o . 3 I I I I U U ! ! !       P.Y.P.P.P.Y.Y.P.Y.Y.Y.Y.Y.Y.Y.Y.P.Y.P.P.P.Y.",
"P.Y.Y.Y.P.Y.P.P.P.P.P.P.P.q     , 0.0.0.k.k.k.U U U             p ! a W U U I a ! !       ] ] ]       Y.P.Y.P.P.P.P.P.P.P.P.P.P.P.Y.Y.Y.P.Y.",
"P.Y.Y.Y.P.Y.Y.Y.Y.P.Y.Y.Y.r     < 0.0.0.k.k.k.U U U             u ! ! W U U Y a ! !       ] ] ]       U.P.Y.Y.Y.Y.P.Y.Y.Y.Y.Y.Y.P.Y.Y.Y.P.Y.",
"P.Y.Y.Y.P.Y.Y.Y.Y.P.Y.Y.Y.e     < 0.0.0.k.k.k.U U U             p ! ! Z U U I a ! !       ] ] ]       Y.P.Y.Y.Y.Y.P.Y.Y.Y.Y.Y.Y.P.Y.Y.Y.P.Y.",
"P.Y.Y.Y.P.Y.Y.Y.Y.P.Y.Y.Y.e     < 0.0.0.0.0.0.      `.`.`.U U U #     5 ! ! ! ! ! ! k k k       ~.~.~.      +.Y.Y.P.Y.Y.Y.Y.Y.Y.P.Y.Y.Y.P.Y.",
"P.Y.Y.Y.P.Y.Y.Y.Y.P.Y.Y.Y.r     < 0.0.0.0.0.0.      `.`.`.U U U #     5 ! ! ! ! ! ! k k k       ~.~.~..     O.Y.Y.P.Y.Y.Y.Y.Y.Y.P.Y.Y.Y.P.Y.",
"P.P.P.P.P.P.Y.P.P.P.Y.P.P.q     , 0.9.9.0.0.0.      `.`.`.U U U       5 ! ! ! ! ! ! k k k       ~.~.~.      @.P.P.P.Y.P.P.P.P.P.P.P.P.P.P.P.",
"P.Y.Y.Y.Y.Y.Y.P.Y.Y.Y.P.Y.r     , U U P       s s s s s s `.`.`.8     N 0.0.0.0.0.0.0.0.0.k k k             O.P.Y.Y.Y.P.Y.Y.Y.P.P.Y.Y.Y.Y.Y.",
"P.Y.Y.Y.Y.Y.Y.P.Y.Y.Y.P.Y.e     # U U U       s s s s s s `.`.`.=     B 0.0.0.0.0.0.0.0.0.k k k             @.P.Y.Y.Y.P.Y.Y.Y.P.P.Y.Y.Y.Y.Y.",
"P.Y.Y.Y.Y.Y.Y.P.Y.Y.Y.P.Y.r     , U U U       s s s s s s `.`.`.8     B 0.0.0.0.0.0.0.0.0.k k k             +.P.Y.Y.Y.P.Y.Y.Y.P.P.Y.Y.Y.Y.Y.",
"P.Y.Y.Y.Y.Y.Y.P.Y.Y.Y.P.P.q       X o X       ! j ! p ! ! = O = J L K 2.0.0.0.0.9.9.U 2.U   X         $.U.$.Y.P.Y.Y.Y.P.P.P.P.P.P.Y.Y.Y.Y.Y.",
"P.P.P.P.P.P.P.P.Y.Y.Y.P.Y.e                   ! ! ! ! ! !       L U U 5.0.0.0.0.9.9.P P U             P.P.P.P.P.Y.Y.Y.P.Y.Y.Y.Y.P.P.P.P.P.P.",
"P.Y.Y.Y.P.Y.Y.P.P.P.P.P.Y.r                   ! ! ! ! ! !       J U I 5.0.0.0.0.9.9.U U U             U.P.Y.Y.P.P.P.P.P.Y.Y.Y.Y.P.Y.Y.Y.P.Y.",
"P.Y.Y.Y.P.Y.Y.w e e r q t : ; > ; ; > ;       Q.K.Q.Q.Q.Q.      2.5.5.7.0.0.9.2.2.2.2 2 2 y y y       Y.P.Y.Y.P.Y.Y.Y.P.Y.Y.Y.Y.P.Y.Y.Y.P.Y.",
"P.Y.Y.Y.P.Y.Y.            ; s s s s s y       ).).).).).).      4.0.0.0.0.9.8.U U U       ! ! !       U.P.Y.Y.P.Y.Y.Y.P.Y.Y.Y.Y.P.Y.Y.Y.P.Y.",
"P.Y.Y.Y.P.Y.Y.            > s s s s s s       ).).).).).).      6.0.0.0.0.9.9.U U U       ! ! !       U.P.Y.Y.P.Y.Y.Y.P.Y.Y.Y.Y.P.Y.Y.Y.P.Y.",
"P.Y.P.P.P.Y.Y.      - + - y d d d s s s       ^.W.^.W.W.^.      Z T S 3.T T T m J m @ @ @ ! ! !       P.P.Y.Y.P.Y.Y.Y.Y.Y.Y.Y.Y.P.Y.P.P.P.Y.",
"P.Y.Y.Y.P.Y.P.      i ! a ! a a h s s s                                             s s y ! ! !       U.P.Y.P.P.P.P.P.P.P.P.P.P.P.Y.Y.Y.P.Y.",
"P.Y.Y.Y.P.Y.Y.      ! ! ! ! ! ! h s s s                                             s s s ! ! !       Y.P.Y.Y.Y.Y.P.Y.Y.Y.Y.Y.Y.P.Y.Y.Y.P.Y.",
"P.Y.Y.Y.P.Y.Y..   . i ! p ! j a h s s y         .   o .   o   o .   o             . s s s ! p ! o .   U.P.Y.Y.Y.Y.P.Y.Y.Y.Y.Y.Y.P.Y.Y.Y.P.Y.",
"P.Y.Y.Y.P.Y.Y.Y.Y.P.o                         Y.Y.P.Y.Y.Y.Y.Y.Y.P.Y.Y.)     . s s s s s s       P.Y.Y.Y.P.Y.Y.Y.Y.P.Y.Y.Y.Y.Y.Y.P.Y.Y.Y.P.Y.",
"P.Y.Y.Y.P.Y.Y.Y.Y.P.o                         Y.Y.P.Y.Y.Y.Y.Y.Y.P.Y.Y.)     . s s s s s s       P.Y.Y.Y.P.Y.Y.Y.Y.P.Y.Y.Y.Y.Y.Y.P.Y.Y.Y.P.Y.",
"P.P.P.P.P.P.Y.P.P.P.O                         P.P.P.Y.P.P.P.P.P.P.P.P.(     . y s s s s y       P.P.P.P.P.P.Y.P.P.P.Y.P.P.P.P.P.P.P.P.P.P.P.",
"P.Y.Y.Y.Y.Y.Y.P.Y.Y.Y.P.Y.Y.Y.P.Y.Y.Y.Y.Y.Y.Y.P.Y.Y.Y.P.Y.Y.Y.P.P.Y.Y.)                   Y.Y.P.Y.Y.Y.Y.Y.Y.Y.P.Y.Y.Y.P.Y.Y.Y.P.P.Y.Y.Y.Y.Y.",
"P.Y.Y.Y.Y.Y.Y.P.Y.Y.Y.P.Y.Y.Y.P.Y.Y.Y.Y.Y.Y.Y.P.Y.Y.Y.P.Y.Y.Y.P.P.Y.Y.)                   Y.Y.P.Y.Y.Y.Y.Y.Y.Y.P.Y.Y.Y.P.Y.Y.Y.P.P.Y.Y.Y.Y.Y.",
"P.Y.Y.Y.Y.Y.Y.P.Y.Y.Y.P.Y.Y.Y.P.Y.Y.Y.Y.Y.Y.Y.P.Y.Y.Y.P.Y.Y.Y.P.P.Y.Y.)                   Y.Y.P.Y.Y.Y.Y.Y.Y.Y.P.Y.Y.Y.P.Y.Y.Y.P.P.Y.Y.Y.Y.Y."
};
