/* XPM */
static char *result[] = {
/* columns rows colors chars-per-pixel */
"70 70 174 2 ",
"   c #000001",
".  c #0A0705",
"X  c #020C03",
"o  c #050608",
"O  c #090B0E",
"+  c #130B09",
"@  c #150D08",
"#  c #031205",
"$  c #031809",
"%  c #1E120B",
"&  c #0B0E10",
"*  c #0F1315",
"=  c #151818",
"-  c #25170D",
";  c #311B0E",
":  c #291915",
">  c #331C16",
",  c #062208",
"<  c #0B2F12",
"1  c #073412",
"2  c #29251E",
"3  c #3C211A",
"4  c #1B1D26",
"5  c #1D2628",
"6  c #21292D",
"7  c #2E2D30",
"8  c #2B363A",
"9  c #452717",
"0  c #4B2B15",
"q  c #593219",
"w  c #65391D",
"e  c #6C3D1E",
"r  c #703F1F",
"t  c #4A2920",
"y  c #553821",
"u  c #4A3F31",
"i  c #683B20",
"p  c #0D420D",
"a  c #10480F",
"s  c #0D4911",
"d  c #144615",
"f  c #0D5218",
"g  c #0C5A1E",
"h  c #11521A",
"j  c #12621F",
"k  c #2E741D",
"l  c #2D7E1E",
"z  c #317B1F",
"x  c #254A2E",
"c  c #315B27",
"v  c #0D6120",
"b  c #0F6C22",
"n  c #106822",
"m  c #0F7325",
"M  c #107526",
"N  c #12762B",
"B  c #107B29",
"V  c #377027",
"C  c #7E7B05",
"Z  c #564939",
"A  c #644A21",
"S  c #734120",
"D  c #6F562A",
"F  c #7C5031",
"G  c #363A4A",
"H  c #354647",
"J  c #364848",
"K  c #3E4255",
"L  c #3D5152",
"P  c #3F6858",
"I  c #544D40",
"U  c #414659",
"Y  c #6B5B47",
"T  c #715E49",
"R  c #536854",
"E  c #786948",
"W  c #697D53",
"Q  c #494E64",
"!  c #545972",
"~  c #5C627E",
"^  c #567273",
"/  c #597778",
"(  c #5D7C7D",
")  c #8A5A2E",
"_  c #895B34",
"`  c #8F6233",
"'  c #936433",
"]  c #A77F3F",
"[  c #8E7044",
"{  c #9B7741",
"}  c #A47B41",
"|  c #A47A56",
" . c #8B7A69",
".. c #957D61",
"X. c #2E811F",
"o. c #1A8429",
"O. c #258C29",
"+. c #338120",
"@. c #2F9429",
"#. c #369828",
"$. c #3FA129",
"%. c #4B9127",
"&. c #469A28",
"*. c #41A429",
"=. c #53AD25",
"-. c #6C8050",
";. c #808000",
":. c #B9A010",
">. c #A8813E",
",. c #AF8A3A",
"<. c #B6843F",
"1. c #B79538",
"2. c #8FC918",
"3. c #93CB18",
"4. c #D8D309",
"5. c #DAC91A",
"6. c #E7DC11",
"7. c #F2DF1F",
"8. c #D5E807",
"9. c #E8E90A",
"0. c #F2ED06",
"q. c #F8F407",
"w. c #FFFF00",
"e. c #F7EA15",
"r. c #F8EE10",
"t. c #F5E619",
"y. c #EED629",
"u. c #F2DE20",
"i. c #A98148",
"p. c #B48944",
"a. c #BD9148",
"s. c #B28C55",
"d. c #9C8568",
"f. c #AE9B72",
"g. c #B09573",
"h. c #BBA37A",
"j. c #C08E44",
"k. c #C6974A",
"l. c #CD9E4D",
"z. c #D2A24D",
"x. c #D8A750",
"c. c #D7A850",
"v. c #DEAC52",
"b. c #E1B44B",
"n. c #C7A67B",
"m. c #005D80",
"M. c #31529C",
"N. c #5F6683",
"B. c #5B6B98",
"V. c #616886",
"C. c #666D8C",
"Z. c #647097",
"A. c #67898A",
"S. c #6A8D8E",
"D. c #00BAFF",
"F. c #1ABFF8",
"G. c #2CC2F4",
"H. c #939393",
"J. c #B9A38E",
"K. c #CAAA82",
"L. c #D4B387",
"P. c #D5B48B",
"I. c #D8C4AF",
"U. c #E7C9A0",
"Y. c #EACDA4",
"T. c #F8DDB4",
"R. c #FBE2B7",
"E. c #FFE6BD",
"W. c #879AC5",
"Q. c #8A9DC7",
"!. c #DACCC4",
"~. c #FFEAC7",
"^. c #FFFBF3",
"/. c #FFFFFF",
/* pixels */
"C.S.S.S.C.S.S.S.S.C.S.S.S.S.S.S.C.S.S.S.C.S.S.S.S.C.S.S.S.S.S.S.C.S.S.S.C.S.S.S.S.C.S.S.S.S.S.S.C.S.S.S.C.S.S.S.S.C.S.S.S.S.S.S.C.S.S.S.C.S.",
"C.S.S.S.C.S.S.S.S.C.S.S.S.S.S.S.C.S.E } } ` S S A B B B p p p *.*.*.*.*.*.*.*.*.B B B A.S.S.S.S.C.S.S.S.C.S.S.S.S.C.S.S.S.S.S.S.C.S.S.S.C.S.",
"C.C.C.C.C.C.S.C.C.C.S.C.C.C.C.C.C.C.T } } ` S S A B B B p p p *.*.*.*.*.*.*.*.*.B B B V.C.C.C.C.C.C.C.C.C.C.S.C.C.C.S.C.C.C.C.C.C.C.C.C.C.C.",
"C.S.S.S.S.S.S.C.S.S.S.C.S.S.S.C.S.S.E } } ` S S A B B B p p p *.*.*.*.*.*.*.*.*.B B B C.S.S.S.C.S.S.S.S.S.S.S.C.S.S.S.C.S.S.S.C.C.S.S.S.S.S.",
"C.S.S.S.S.S.S.C.S.S.S.C.} } } x.v.v.t.w.q.5.} } } } } { *.*.*.p p p *.*.*.*.*.*.*.*.*.B B B B B B P S.S.S.S.S.C.S.S.S.C.S.S.S.C.C.S.S.S.S.S.",
"C.S.S.S.S.S.S.C.S.S.S.C.} } } x.v.v.e.w.w.5.} } } } } } *.*.*.p p p *.*.*.*.*.*.*.*.*.o.B B B B B P S.S.S.S.S.C.S.S.S.C.S.S.S.C.C.S.S.S.S.S.",
"C.S.S.S.S.S.S.C.S.S.S.C.} } } x.v.v.e.w.w.5.} } } } } } *.$.*.s p p *.*.*.*.*.*.*.*.$.o.B B B B B P S.S.S.S.S.C.S.S.S.C.C.C.C.C.C.S.S.S.S.S.",
"C.C.C.C.C.C.C.C.S.{ { } q.w.w.,.} } ] i.} a.x.v.x.x.v.v.v.v.c.$.$.$.p s s *.*.*.$.$.$.$.*.$.$.*.$.O.B B n d 1 d S.S.S.C.S.S.S.S.C.C.C.C.C.C.",
"C.S.S.S.C.S.S.C.C.} } } w.w.w.] } } } } } a.v.v.v.v.v.v.v.v.v.*.*.*.p p p *.*.*.*.*.*.*.*.*.*.*.*.O.B B b p a d C.C.C.C.S.S.S.S.C.S.S.S.C.S.",
"C.S.S.S.C.S.S.C.S.} } } w.w.w.,.} } } } } a.v.v.v.v.v.v.v.v.v.*.*.*.p p p *.*.*.*.*.*.*.*.*.*.*.*.O.B B n p p 1 S.S.S.C.S.S.S.S.C.S.S.S.C.S.",
"C.S.S.S.C.S.E T E 6.6.6.w.w.w.z.z.z.z.z.l.k.p.p.a.e.e.e.e.e.t.*.*.*.p p p *.*.*.*.*.*.*.*.*.*.*.*.O.B B M b m b x x x C.S.S.S.S.C.S.S.S.C.S.",
"C.S.S.S.C.S.} } } w.w.w.w.w.w.b.v.v.v.v.v.k.} } 1.w.w.w.w.w.w.*.*.*.p p p *.*.*.*.*.*.*.*.*.*.*.*.O.B B B B B M d p p C.S.S.S.S.C.S.S.S.C.S.",
"C.S.C.C.C.S.} } } w.w.w.w.w.w.b.v.v.v.v.v.k.} } 1.w.w.w.w.w.w.*.*.*.p p p *.*.*.*.*.*.*.*.*.*.*.*.O.B B B B B M p p p S.S.S.S.S.C.S.C.C.C.S.",
"C.S.S.S.C.S.} } } w.w.w.u.t.7.v.v.v.j.<.<.] } } ,.w.w.w.5.6.5.*.*.*.p p p *.*.*.l X.l l X.l @.@.@.O.B B B B B M p p p U K K C.C.C.S.S.S.C.S.",
"C.S.S.S.C.S.} } } w.w.w.v.v.v.v.v.v.' S S ) } } 1.w.w.q.} } } *.*.*.p p p *.*.*.p p p p p p b B B B B B B B B M p p p       S.S.C.S.S.S.C.S.",
"C.S.S.S.C.S.} } } w.w.w.v.v.v.v.v.v.) S r ) ] ] ,.w.w.w.} } } *.*.*.p p p *.*.*.p p p p p p m B B B B B B B B B p p p       S.S.C.S.S.S.C.S.",
"C.S.S.S.C.S.{ [ { 0.0.q.x.v.z.x.v.x.' ) r _ } } 1.q.w.0.} } } *.=.=.a a a &.#.*.h a a a p s M B B B B B B B B m s p s       S.S.C.S.S.S.C.S.",
"C.S.S.S.C.S.S.S.S.S S S ] ] } } } } n.P.P.P.P.P.n.] } } } } } w.w.w.*.*.*.p p p *.*.*.B B B M B B B B B B B B B B B B       S.S.C.S.S.S.C.S.",
"C.C.C.C.C.C.S.C.C.S S S ] { } } } } n.L.P.P.P.P.K.i.} } } } } w.w.w.*.*.*.p p p *.*.*.B B B B B B B B B B B B B B B B       C.C.C.C.C.C.C.C.",
"C.S.S.S.S.S.S.C.S.S S S ] ] } } } } n.L.P.P.P.P.n.} } } } } } w.w.w.*.*.*.p p p *.*.*.B B B B B B B B B B B B B B B B       S.C.C.S.S.S.S.S.",
"C.S.S.S.S.S.S.C.S.S.S.C.S.S.S.      d.P.P.Y.~.R.R.P.P.P.w.w.w.} } } B B B B B B p p p B B B B B B B B B B B B B B B B       S.C.C.S.S.S.S.S.",
"C.S.S.S.S.S.S.C.S.S.S.C.S.S.S.O     d.P.P.Y.E.E.T.P.P.L.w.w.w.} } } B B B B B B p p p M B B B B B B B B B B B B B B B       S.C.C.S.S.S.S.S.",
"C.S.S.S.S.S.S.C.S.S.S.C.C.C.C.O     ..P.P.U.E.E.R.L.P.P.w.w.w.} } } B B B B B B p p p B B B B B B B B B B B B B B B B       C.C.C.S.S.S.S.S.",
"C.C.C.C.C.C.C.C.S.S.S.C.S.S.S.o     q S S 9     : E.E.E.w.w.w.} } } v.v.v.B B B p p p p p p M B B B B B B B B B B B B p p p       C.C.C.C.C.",
"C.S.S.S.C.S.S.C.C.C.C.C.S.S.S.O     0 S S 9     7 E.E.E.w.w.w.} } } v.v.v.B B B p p p p p p M M B B B B B B B B B B B p p p       S.S.S.C.S.",
"C.S.S.S.C.S.S.C.S.S.S.C.S.S.S.o     q S S 9     % E.E.E.w.w.w.} } } v.v.v.B B B p p p p p p M B B B B B B B B B B B B p p p       S.S.S.C.S.",
"C.S.S.S.C.S.S.C.S.S.S.C.      n.P.P.Z.M.M.Q././.^.E.E.R.} } } v.v.v.S S S P.P.P.E.E.E.E.E.E.V d p p p p f B B B B B B p p p       S.S.S.C.S.",
"C.S.S.S.C.S.S.C.S.S.S.C.      K.P.P.B.M.M.W././.^.E.E.E.} } } v.v.v.S S S P.P.P.E.E.E.E.E.E.c 1 p p p p f B B B B B B p p p       S.S.S.C.S.",
"C.S.C.C.C.S.S.C.S.S.S.S.      K.P.P.B.M.M.W././.^.E.E.E.} } } v.v.v.S S S P.P.P.E.E.E.E.E.E.c p p p p p f B B M B B B p p p       S.C.C.C.S.",
"C.S.S.S.C.S.C.C.C.C.C.C.      J.P.P.Z.M.M.Q././.^.E.E.R.S S S w.w.w.S S S E.E.E.E.E.~.} ] i.%           # p p s B B B       C.C.C.S.S.S.C.S.",
"C.S.S.S.C.S.S.S.S.C.S.S.      K.P.P.B.M.M.W././.^.E.E.E.S S S w.w.w.S S S E.E.E.E.E.R.] ] ] +           # p p p B B B       S.S.C.S.S.S.C.S.",
"C.S.S.S.C.S.S.S.S.C.S.S.      n.P.P.Z.M.M.Q././.^.E.E.R.S S S w.w.w.S S S E.E.E.E.E.E.i.} { -           # p p s B B B       S.S.C.S.S.S.C.S.",
"C.S.S.S.C.S.S.S.S.C.S.S.N.-.^ 7 % 2  .J.J.I.~.~.~.E.~.R.S S S w.w.w.z.k.z.G.G.F.s.s.s.- & %       J ^ / U X X # s s s       S.S.C.S.S.S.C.S.",
"C.S.S.S.C.S.S.S.S.C.S.S.S.S.A.o     d.P.L.Y.E.E.E.E.E.E.S S S w.w.w.v.v.v.D.D.D.{ >.}     X       L S.S.Q       p p p       S.S.C.S.S.S.C.S.",
"C.C.C.C.C.C.S.C.C.C.S.C.Z.Z.C.O     ..P.L.U.E.E.E.E.~.T.S S S w.w.w.v.v.v.D.D.D.{ { } .           G C.C.Q       p p p       C.C.C.C.C.C.C.C.",
"C.S.S.S.S.S.S.C.S.S.S.C.S.S.S.G H H I Y Y d.Y.Y.Y.Y.Y.Y.| | i.:.:.:.y.y.y.m.m.m.y A y D D D C ;.;.R S.S.( H H G , , , G H H S.C.C.S.S.S.S.S.",
"C.S.S.S.S.S.S.C.S.S.S.C.S.S.S.C.S.S.6     Z P.P.P.P.P.P.P.P.P.S S S w.w.w.            c.v.v.r.w.w.-.S.S.S.S.S.~       C.S.S.S.C.C.S.S.S.S.S.",
"C.S.S.S.S.S.S.C.S.S.S.C.S.S.S.C.S.S.5     Z P.P.P.P.P.P.P.P.P.S S S w.w.w.            x.v.v.q.w.w.-.S.S.S.S.S.V.      C.S.S.S.C.C.S.S.S.S.S.",
"C.S.S.S.S.S.S.C.S.S.S.C.C.C.C.! -.^ 5     Z g.h.f.f.n.f.h.h.f.w q w q.r.q.      $ # # p.l.p.4.4.4.W S.S.S.S.S.N.= & = C.C.C.C.C.C.S.S.S.S.S.",
"C.C.C.C.C.C.C.C.S.S.S.C.S.S.S.& O               # p p p p p p       v.v.v.      B B B             G C.C.C.C.C.C.S.S.S.C.S.S.S.S.C.C.C.C.C.C.",
"C.S.S.S.C.S.S.C.C.C.C.C.S.S.S.  o o               p p p p p p       v.v.v.      B B B           o L S.S.C.S.S.C.C.C.C.C.S.S.S.S.C.S.S.S.C.S.",
"C.S.S.S.C.S.S.C.S.S.S.C.S.S.S.O   o             X p p p p p p       v.x.v.      B B B             L S.S.C.S.S.C.S.S.S.C.S.S.S.S.C.S.S.S.C.S.",
"C.S.S.S.C.S.S.C.S.S.S.C.      e r S !././.H.    X p p p B B B       B B B             C.S.S.S.S.C.S.S.S.C.S.S.C.S.S.S.C.S.S.S.S.C.S.S.S.C.S.",
"C.S.S.S.C.S.S.C.S.S.S.C.      e r S !././.H.    X p p p B B B       B B B             C.S.S.S.S.C.S.S.S.C.S.S.C.S.S.S.C.S.S.S.S.C.S.S.S.C.S.",
"C.S.C.C.C.S.S.C.S.S.S.S.      e S S I././.H.    X p p p B B B       B B B             A.S.S.S.S.C.S.C.C.C.S.S.C.S.S.S.S.S.S.S.S.C.S.C.C.C.S.",
"C.S.S.S.C.S.C.C.C.C.C.C.      i S S %     1 B B B B B B B B B S S S B B B /././.            ~ C.C.S.S.S.C.S.C.C.C.C.C.C.C.C.C.C.C.S.S.S.C.S.",
"C.S.S.S.C.S.S.S.S.C.S.S.      i S S -     1 B B B B B B B B B S S S B B B /././.            ^ S.C.S.S.S.C.S.S.S.S.C.S.S.S.S.S.S.C.S.S.S.C.S.",
"C.S.S.S.C.S.S.S.S.C.S.S.      i S S %     1 B B B B B B B B B S S S B B B /././.            ( S.C.S.S.S.C.S.S.S.S.C.S.S.S.S.S.S.C.S.S.S.C.S.",
"C.S.S.S.C.S.S.S.S.C.S.S.S.S.S.$     k *.*.3.w.w.8.B B B B B B       /././.t t t t t t             L S.S.C.S.S.S.S.C.S.S.S.S.S.S.C.S.S.S.C.S.",
"C.S.S.S.C.S.S.S.S.C.S.S.S.S.S.O     k *.*.3.w.w.8.B B B B B B       /././.t t t t t t             L S.S.C.S.S.S.S.C.S.S.S.S.S.S.C.S.S.S.C.S.",
"C.C.C.C.C.C.S.C.C.C.S.C.C.C.C.      z *.*.2.w.w.9.B B B B B B       /././.t t t t t 0             K C.C.C.C.S.C.C.C.S.C.C.C.C.C.C.C.C.C.C.C.",
"C.S.S.S.S.S.S.C.S.S.S.C.S.S.S.&     k *.*.*.*.*.%.S S S S S S S S S       t t t S S S S S S %           6 S.S.C.S.S.S.C.S.S.S.C.C.S.S.S.S.S.",
"C.S.S.S.S.S.S.C.S.S.S.C.S.S.S.o     z *.*.*.*.*.&.S S S S S S S S S       t t t S S S S r r +           5 A.S.C.S.S.S.C.S.S.S.C.C.S.S.S.S.S.",
"C.S.S.S.S.S.S.C.S.S.S.C.S.S.S.O     k *.*.*.*.*.%.S S S S S S S S S       t t t S S S S r r +           5 S.S.C.S.S.S.C.S.S.S.C.C.S.S.S.S.S.",
"C.S.S.S.S.S.S.C.S.& O o & o O       g B o.O.*.*.*.&.*.&.&.&.&.*.&.&.m b B . .   S S S K.K.K.F r w ;     6 S.S.C.S.S.S.C.C.C.C.C.C.S.S.S.S.S.",
"C.C.C.C.C.C.C.C.S.                  g B B O.*.*.*.*.*.*.*.*.*.*.*.*.B B N       S r r P.P.P._ r S ;     4 C.C.C.S.S.S.C.S.S.S.S.C.C.C.C.C.C.",
"C.S.S.S.C.S.S.C.C.                  h B B O.$.$.*.*.*.*.*.*.*.*.*.*.B B B       S S S L.P.P._ r S >     6 S.S.C.C.C.C.C.S.S.S.S.C.S.S.S.C.S.",
"C.S.S.S.C.S.8 7 7 9 9 0 9 0 0       , 1 1 h O.O.O.*.*.*.*.*.*.*.*.*.@.@.@.f f f ; - - Z u Z y y y -     4 S.S.C.S.S.S.C.S.S.S.S.C.S.S.S.C.S.",
"C.S.S.S.C.S.      S S S S S S .           1 B B o.*.*.*.*.*.*.*.*.*.*.*.$.B B B             3 t t %     4 S.S.C.S.S.S.C.S.S.S.S.C.S.S.S.C.S.",
"C.S.S.S.C.S.      S S S S S S .           1 B B o.*.*.*.*.*.*.*.*.*.*.*.$.B B B             3 0 t %     4 S.S.C.S.S.S.C.S.S.S.S.C.S.S.S.C.S.",
"C.S.C.C.C.S.      S S S w i i % + + + + @ < g v j k +.k z z k +.k z +.k +.g g v       + + @ > > > : 4 4 8 S.S.C.S.S.S.S.S.S.S.S.C.S.C.C.C.S.",
"C.S.S.S.C.S.      S S S 0 t t t t t t t 0 :                             o             t t t +   . L S.S.C.S.C.C.C.C.C.C.C.C.C.C.C.S.S.S.C.S.",
"C.S.S.S.C.S.      S S S t t t t t t t t t :                                           t t t .     L S.S.C.S.S.S.S.C.S.S.S.S.S.S.C.S.S.S.C.S.",
"C.S.S.S.C.S.  O   i i S t t t t t t t t t :       o   o o   o   o o   o   o o         t t 9 O o o L S.S.C.S.S.S.S.C.S.S.S.S.S.S.C.S.S.S.C.S.",
"C.S.S.S.C.S.S.S.S.      t t t t t t t t t :     * C.S.S.S.S.S.S.C.S.S.S.C.S.S.S.            / S.C.S.S.S.C.S.S.S.S.C.S.S.S.S.S.S.C.S.S.S.C.S.",
"C.S.S.S.C.S.S.S.S.      t t t t t t t t t ;     * C.S.S.S.S.S.S.C.S.S.S.C.S.S.S.            ( S.C.S.S.S.C.S.S.S.S.C.S.S.S.S.S.S.C.S.S.S.C.S.",
"C.C.C.C.C.C.S.C.C.      t t t t t t t t t :     = C.S.C.C.C.C.C.C.C.C.C.C.C.S.C.            ! C.C.C.C.C.C.C.S.C.C.C.S.C.C.C.C.C.C.C.C.C.C.C.",
"C.S.S.S.S.S.S.C.S.S.S.C.                  8 S.C.S.S.S.C.S.S.S.C.C.S.S.S.S.S.S.C.S.S.S.C.S.S.S.C.S.S.S.S.S.S.S.C.S.S.S.C.S.S.S.C.C.S.S.S.S.S.",
"C.S.S.S.S.S.S.C.S.S.S.C.                  8 S.C.S.S.S.C.S.S.S.C.C.S.S.S.S.S.S.C.S.S.S.C.S.S.S.C.S.S.S.S.S.S.S.C.S.S.S.C.S.S.S.C.C.S.S.S.S.S.",
"C.S.S.S.S.S.S.C.S.S.S.C.                o 8 S.C.S.S.S.C.S.S.S.C.C.S.S.S.S.S.S.C.S.S.S.C.S.S.S.C.S.S.S.S.S.S.S.C.S.S.S.C.S.S.S.C.C.S.S.S.S.S."
};
