/* XPM */
static char *ec366592ca7942ccc11bf5c41d048178qkx3gEVm11TxPYk5[] = {
/* columns rows colors chars-per-pixel */
"80 80 241 2 ",
"   c #010100",
".  c #0C0201",
"X  c #070905",
"o  c #0A0B06",
"O  c #0C0D09",
"+  c #130401",
"@  c #1C0501",
"#  c #1B0A03",
"$  c #0D1107",
"%  c #0E110A",
"&  c #12140D",
"*  c #17190B",
"=  c #141610",
"-  c #161A12",
";  c #1B1D15",
":  c #210602",
">  c #230B03",
",  c #2A0903",
"<  c #380A05",
"1  c #291509",
"2  c #351809",
"3  c #2F1C10",
"4  c #1B240C",
"5  c #1D2416",
"6  c #2B260E",
"7  c #39230E",
"8  c #212B15",
"9  c #22241B",
"0  c #262919",
"q  c #362715",
"w  c #293619",
"e  c #373718",
"r  c #272920",
"t  c #2A2C22",
"y  c #312C21",
"u  c #2D3226",
"i  c #33362A",
"p  c #373A29",
"a  c #35392C",
"s  c #373C30",
"d  c #3A3E31",
"f  c #4F130A",
"g  c #68180E",
"h  c #691910",
"j  c #781411",
"k  c #462915",
"l  c #4C331A",
"z  c #523010",
"x  c #56361C",
"c  c #6D2B11",
"v  c #463625",
"b  c #503925",
"n  c #613D23",
"m  c #2E4712",
"M  c #344C15",
"N  c #384519",
"B  c #364C19",
"V  c #3B4D1C",
"C  c #375219",
"Z  c #3B521D",
"A  c #3D4C22",
"S  c #3A4629",
"D  c #3E5321",
"F  c #3F5723",
"G  c #3D4133",
"H  c #514615",
"J  c #774B17",
"K  c #434C23",
"L  c #474827",
"P  c #58472F",
"I  c #435424",
"U  c #435A25",
"Y  c #47552B",
"T  c #495D2C",
"R  c #444738",
"E  c #494D3E",
"W  c #495935",
"Q  c #555C34",
"!  c #674728",
"~  c #744D2B",
"^  c #6F5431",
"/  c #795734",
"(  c #48632A",
")  c #4C632D",
"_  c #50672F",
"`  c #4E6434",
"'  c #526434",
"]  c #536B35",
"[  c #556C3B",
"{  c #59683B",
"}  c #56733A",
"|  c #5B733D",
" . c #5C7A3E",
".. c #7E632E",
"X. c #5B4B40",
"o. c #4E5241",
"O. c #4E5A41",
"+. c #555A48",
"@. c #6A5C48",
"#. c #5C654A",
"$. c #5D7542",
"%. c #577F40",
"&. c #5E7C42",
"*. c #5F6451",
"=. c #716D4F",
"-. c #627544",
";. c #627C45",
":. c #677748",
">. c #657D49",
",. c #6A7D4B",
"<. c #626753",
"1. c #656B56",
"2. c #686E58",
"3. c #697652",
"4. c #6D745D",
"5. c #707760",
"6. c #737A62",
"7. c #777D67",
"8. c #73766C",
"9. c #871614",
"0. c #911B17",
"q. c #982819",
"w. c #A62A1C",
"e. c #A9321E",
"r. c #B93621",
"t. c #C23A23",
"y. c #915B1D",
"u. c #96721C",
"i. c #864929",
"p. c #835D35",
"a. c #8A653B",
"s. c #92673C",
"d. c #93693E",
"f. c #AB7125",
"g. c #956D40",
"h. c #8D724B",
"j. c #9A7646",
"k. c #A57A49",
"l. c #807464",
"z. c #5D813E",
"x. c #5E8243",
"c. c #5F864A",
"v. c #638245",
"b. c #668349",
"n. c #6A834C",
"m. c #65894A",
"M. c #6A894D",
"N. c #70874F",
"B. c #6D8550",
"V. c #6E8A51",
"C. c #718452",
"Z. c #728A55",
"A. c #778B5B",
"S. c #76935A",
"D. c #7B945D",
"F. c #7D8568",
"G. c #7D9762",
"H. c #A68E1E",
"J. c #B59A22",
"K. c #D18F2D",
"L. c #D29D2C",
"P. c #FCAB39",
"I. c #F8B537",
"U. c #F9C834",
"Y. c #FADB32",
"T. c #FFE933",
"R. c #AD824E",
"E. c #B68751",
"W. c #B08956",
"Q. c #BA8A53",
"!. c #81896C",
"~. c #829C65",
"^. c #869B69",
"/. c #858C71",
"(. c #8B9276",
"). c #93997A",
"_. c #A29F6F",
"`. c #B09565",
"'. c #85A36A",
"]. c #8AA46E",
"[. c #90A66F",
"{. c #8DA472",
"}. c #8DAA72",
"|. c #92A574",
" X c #93AB75",
".X c #99A57A",
"XX c #95AC7A",
"oX c #99AC7C",
"OX c #93B377",
"+X c #96B27A",
"@X c #9AB27D",
"#X c #C29157",
"$X c #C5945A",
"%X c #C9965B",
"&X c #CB975B",
"*X c #CB995D",
"=X c #C89B62",
"-X c #D39E60",
";X c #DBA464",
":X c #DAA565",
">X c #D0AD75",
",X c #E6AC69",
"<X c #EDB26D",
"1X c #ECB772",
"2X c #F3B872",
"3X c #FCBE75",
"4X c #FFC176",
"5X c #FFC479",
"6X c #FFC97E",
"7X c #A29E8B",
"8X c #9BA583",
"9X c #9CB481",
"0X c #A3AC8B",
"qX c #A4B388",
"wX c #AEA899",
"eX c #ABB492",
"rX c #B2BC98",
"tX c #B5B3A9",
"yX c #C7BA97",
"uX c #B9C39E",
"iX c #BDC6A1",
"pX c #BEC8A2",
"aX c #FECD83",
"sX c #FED28A",
"dX c #E8D090",
"fX c #E7D19F",
"gX c #FADA95",
"hX c #EDE09F",
"jX c #FEE39C",
"kX c #C1CCA5",
"lX c #C5CEAA",
"zX c #CBC8B8",
"xX c #D3D1B5",
"cX c #FDEAA5",
"vX c #FFF2AD",
"bX c #FFF6B4",
"nX c #DBD7C5",
"mX c #F4EDD1",
"MX c #F1F3ED",
"NX c #FFFEEB",
"BX c #F6F6F4",
/* pixels */
" .x.x.z. .v.v. .&.&. .v. .;. .z.z.z.z.z...z.:.I l K K N N T :.:.$.|.{.].F.q q q 7 ' ,.L K K K H m M v.x. . .&.&. .v. . .>. .v.U N A T n.&.$. . .v.;.| C.{ e I K ",
"x.x.x.x.v.v.v.v.b.n.n.n.b.v.v.b.v.v.m.z.N.N.C.Q I Y I K V T >.>.$.^.XX+XG.1 : , < Q C.Q K L L Y B C n.v.n.M.n.v.n.n.b.v.M.>.V.( B D ) B.b.b.b.v.;.v.,.C.$.K Y L ",
"x.c.c.c.v.v.v.n.n.n.v.;.;.v.b.v.v.z.v.v.v.,.:.T K e 7 2 3 6 e e p v R b P J.J.J.J.H q L K L L L U Z v.v.;.b.;. .;.;.v.&.b.| b.( B D ) n.b.V.b.v.N.b.n.,.{ I K V ",
"c.c.x.c.n.;.;.;.;. ._ ( _ ,.v.;.z. .N. ._ T Q H I K < < , : : > > > : : z Y.T.T.Y.H : e K I ' -.| } n.b.v.n.n.b.Z.'.].'.V.b.V.&.} | | n.>.-.) ( U I ( T ' -.$.:.",
"&.&.;.b.n.n.n.>.n. .M M M ;.,.v.v.v.n.| I N 6 6 7 q y.f.f.f.u.H.H.H.H.H.J.U.U.Y.Y.H , e I K { C.n.>.n.n.;.n.n.>.S.XXXX}.&.b.c.$.M.b.n.n.&.$.F B U C D M ( B.b.b.",
">.,.,.:.,.n.n.n.N.;.I I M ;.;.N.b.;.v. .U e > @ @ 2 K.P.P.P.Y.T.T.T.T.T.T.P.P.Y.Y.H : e I N W 3.:.>.-.:.-.;.-.-.G.+X9X9X$.B.>.M.v. .;.>.n.n.T Y Z I D B ( B.b.b.",
">.B.,.| ] { | { ] { ' ] ] -.,.b.b.;.b.{ e z y.y.y.u.I.U.I.U.K.H.u.H.u.H.u.y.f.I.U.z : L ] T 3.^.D.~.A.~.D.~.D.D.G.G.G.G.>.>.b.b.v.m.b.b.>.,.A F I ` ] ` | b.&. .",
":.B.:.T V V I V V ) ,.N.Z.b.n.,.,.;.n.Y > z P.P.P.P.Y.T.T.T.J # + . @ # > : 2 L.P.z @ W B.:.G.XXoXqX XoXXX@XoX@XG.-.&.>.n.>.b.&.x.x.b.-.>.n.U I Z -.,.b.m.c.c.c.",
":.,.:.U I V I I V T ,.>.n.>.>.,.,.-.Z.L > c P.P.I.I.J.H.H.H.h.l.6.l.l.l.@., 2 y.f.i.i.! Y Q G.9XXXoX|.XX].XX X@XG.>.b.B.$.b.b.&.v.z.v.v.n.;.U A S $.,.b.b.m.x.z.",
":.N.:.T I B D U I ( >.>.n.Z.C.n.N.| n.L > z P.I.T.Y.z @ > : 7XNXNXNXNXNXnX2 : : 1 K.I.J # L A.{.|.|.XXoXXX@XoX XG.>.b.V.b.b.V.b.z.v.M.v.n. .) I U -.>.b.b.m.m.m.",
"H B I V I I [ ,.,.>.n.-.n.^.|.XX;.N w l J y.P.P.J.J.^ X.@.@.tXNXNXNXNXNXnX=.@., , y.f.J q W V.V.>.B.|..X|. X X+X^.>.b.B.&.b.b.c.M.v.} M H U  .n.>.V.n.>.b.&.;. .",
"I I I Z D C ] B.>.n.n.>.Z.|.@X@Xm.6 > J P.P.I.K.2 6 wXzXMXNXNXNXNXNXNXNXNXBXmXv > 1 , T b.b.&.$.:.,.9X@X.X|.}.OX'.;.&.m.b.b.&.v.z.v.} C ( C v.m.>.B.>.b.b.b.N.n.",
"C M K M D C ` n.b.b.n.$.b.~.|.@X;.6 : y.P.P.K.f.P b tXzXmXMXnXzXxXmXnXzXzXnXxXv 1 6 7 ` v.;.b.V.>.n.|.|. X X@XqXD.b.v.v.b.m.x.b.b.b._ m I C z.b.b.b.;.n.n.-.n.;.",
"-.| ;.| %.} %.M.$.M.}.{.].D.A.Z.b.l : J P.K.< v rXzXzXzXzXzX@.> ~ %Xg.  3 #XQ.2 > Q b.n.v.b.Z.'.{.^.A.Z.A.Z.Z.M.Z. .m.v.x.b.x.m.n.N.n.} z. .b.v.b.b.v.n.-.) Q T ",
";.>.n.;.c.#.} O.$.$.G.A.D.,.>.;.N.L , n K.f.v b wXwXtXwXwXwX=.k p.-Xg.  3 #X#XP x Q | -.v.>.D.+X X X>.-.n.>.b.;.v.v.b.v.x.x.x.m.;.,.N.;.v.m.z.v.v.z.;.n.] K I K ",
";.n.b. .S X X X X X O o & { n.b.| L , 1 < X.tXwXq 2 3 2 2 2 k.<X2X3XE.: z <X5XgXhXn , Q &.&.S.@X}.@X-.b.n.;.b.v.n.v.m.m.m.m.z.v.b.v.n.v.z.m. .b.v.v.N.N.] V I K ",
"v.v.$.&.S = O O O % O   X W [ $.} e # : : b tX7Xl f > > 2 7 R.aX5X6X#Xk ! 2X3XcXcX/ f ^ Z.Z.D.D.'.S.m.v.v.;.,.N.-.(  .] b.v.v.m. .v.n.v.b.v.b.;.b.| } ] ] ] ) { ",
"v.v.w O 8.MXzXwX0XeX8Xi 5 % % $ % X   . : 1 q b -X-Xk > k.<XsXcXcXcXgX,X,X3X3XaX5XfXfXp.2 @.'.b.} z.z.v.n.N.b.,.| V C I v.v.v. .m.m.v. .&.b.Z.n.M.) M M ) n.n.,.",
"b.n.w   F.BXMXuXiXiXeXS t X           . , : , k <X2Xx 2 %X4XgXvXvXvXjX5X3X3X3X<X<XgXcX@.< @.'. .v.m.v. .;.n.N.C.-.V M U n.M.M.b.z.b.m.b.v.n.b. .;.] I C ` n.B.n.",
"-.-.w   <.zXrXF.F.F.6.G i u t t t $   , j g , k <X3XE.k.<X3X6X6XgXvXjX3X2X-X$Xn l l x ^ ~.^.G.v.v.v.v.b.n.-.-.>.' I U U &. .x.x.v.v. .b.b.M.>.n.M._ C m ) n.b.-.",
"oXoXG   *.pXwX5.4.5.2.G a a a i a -   < 9.g , k ,X2X*X#X<X3X3X3XsXvXgX5X2X*XE.2 : , < P &.v.n.n.M.v.;.N.;.( C V {  .b.;.M.m.m.v.v.b.~.OXOX[.b.;.n.) M M ] B.V.B.",
".XXXG   +.pX0X5.5.5.2.d a a i - X f 0.w.e.w.j g k q l x R.;X<X3X6XaXaX3X3X2X;Xk , L { :.n.n.&.&.n.;.:.N.,.) V I _ b.n.v.b.v.x.&.,. .N._. X[.;.;.>.) Z Z ' >.:.>.",
".X.XG X *.pX0X5.5.4.2.d i a i O   g t.t.t.r.9.g     + > g.%X,X5X3X3X3X3X3X3X,Xk > Q >.&. .M.n.v.N.N.C.C.,.' C M ] n.;. .v.v.v.v.;.:.~._.oX@XN.v.N._ C M ) B.,.-.",
"0X_.F.1.O.G G E E E R & O O O h c w.t.t.t.t.w.0.g f + . g.%X,X5X1X-X>XfXfXmXfXv > ,.].Z.v.b.} ( ) ) U U _ { -. .| N.;.b.m.b.m.S.[.~.~.~.:.~._ U ) ] | -.n.^.{.{.",
"_._..X.XO.  X a i s u         c t.t.t.t.r.t.t.r.9.9..   g.%X,X3X,X#X>XzXnXBXmXv , A.oXM.n.n.] M V V B D F $.B.B.n.v.&.v.b.M.;.].qX.X^.-.,.,.U M M | V.>.A.XX8X{.",
").0X8X.XO.  - +.+.+.o.    f j e.t.q.h c c h h c w.q.+   l ! k.,X,X<X`.+.+.1.*.3 1 A.9XA.n.b._ C I I Z I A } >.>.n.M.n.b.b.;. .~.@X X[.:.n.-.U M B | ,.>.G.oX9X9X",
".X.X9X^.E   5 5.5.6.1.    q.t.r.t.h @ : # : # < r.r.@   + : p.=X,X3Xk.      X @ 1 3.].-.} } _ T I I I I D &.V.n.-.&.b.>.D.S.S.|.oXXX^.:.n.,._ _ ) &.,.>.A..X.X.X",
".X|.1.S u i o.5.<.s i h g q.w.9.c i.d.d.d.s.~ ~ c c f g : . l / k.,X%Xp.a.l.=.3 > Q >.I B I V V I I D Z B } b.&.M.n.b.M. XXX XoXXX8X^.$.N.N.v.b.b.M.b.$.G.8X.X.X",
"@XoXS   u 5.5.5.+.  . e.t.0.9.f : g.5X5X4X2X`.R.< < e.r.<   . : ~ %X;X4XaXvXhXk > { C.) I I K K V I K Z F  .B.n.b.b.$.>. XoXoX.X8XXX^.&.>.b.b.b.;.v.-.-.A.oX.X8X",
"'.].S   d 8X/.5.+.  + e.r.j f ~ p.=XsXgXjXgX6X`.2 , q.w.,   + > l p.k.,X1XdX>Xq > ' 3.T A V I W I Z I U F $.c.&.&.V.V.Z.|.XXXXoX}.8X^.&.n.v.v.b.;.n.B.n.~.oX.X.X",
"v.m.w   +.lX0X6.#.  . e.r.f # Q.3XgXvXmXNXNXvXdXq , j j @   + > > : x %X%X*XQ.7 > #.n.T V I { :.,.,.>.n.$.B.B.&.S.OX}.}..XXX.X.X X9XG.>.M.b.v.v.b.~.{.].|.0XoX8X",
"T W G s 5.eX/.o.R < f e.r.f > Q.3XgXvXbXmXmXvXdX7 , j 9.,   q P l : q a.a.a./ 1 # p W e w S Q :.W W Y W F W F W ` 3.1.3.3.3.5.XXXX9XG.>.b.;.b.b.-.^.9X^.3.7.|.oX",
"%   6.kX8X6.E   > r.r.t.r.f > Q.5XgXvXvXvXvXvXdX2 , j 9.f : 7.kX6.> @                     4 ) W                             u @X}.OX'.&.n.>.Z.B.3.^.oX3.  0 {.9X",
"%   6.kX8X4.E   : r.t.t.r.f > R.2XdXvXvXvXvXjXdXn k g g < : <.8X+.@ # = = & = = =         8 ) S = = = = = & = = = = = = 9 t p #.$.[ [ T ` Q S S N <.!.E   = Q #.",
"%   7.lX8X4.E   : r.t.t.r.f > g.%XdXbXvXvXjX6X2X#XE.k : # , .       ; 2.4.4.4.4.1.&           9 4.4.4.4.4.4.2.4.4.2.4.2.(.uXF.X X   X     X       X X       X   ",
"=   <.eX(.<.R   : r.r.r.e.2 > a.$X1XgXcXcXgX2X<X*XQ.k : : @ .   X o t 1.<.1.1.1.<.9 O O O O O u 1.1.1.1.<.2.2.1.2.2.2.<./.uXF.        o O O O O O O O & ; &     ",
"%   9 R G d 9   : r.r.0.j < > d.$X%X*X;X6X1X%X%X%XE.k # .   ; i o.2.+.d s d d d d *.2.2.2.2.2.+.s d d d d d s s s s d s +.F.O.    t a <.2.1.1.2.1.2.1.!.rX(.    ",
"%   5 G a u 9 . < r.r.9.9.< , d.$X$X-X;X4X2X*X*X%XE.k :     ; i o.2.*.a i a a i a *.2.2.2.2.4.+.t u u t i a a a a a a i o.5.o.    i d 1.4.2.4.1.<.<.<.F.eX/.    ",
"o   G 4.a   < w.e.t.r.9.j < > d.*X;X4X3X3X3X3X<X*XE.k @     5 a s d d a a p a a a d G G G d d r       X i a a a a a a a o.6.o.    i a d d d G ; X X   o & o     ",
"O   R 6.a   f t.t.t.r.0.9.< : a.Q.;X3X3X5X3X3X2X*XQ.z ,     - i i a a a a s s a a a a a a i i 5       X t i i u i i u i E 2.E   . p d i i i i O O o X X X X X X ",
"o   R 6.a   < t.t.t.r.9.j @   1 k a.-X,X3X2X-X*X$X#XR.k.3       ; a a i G 1.<.d a a a a p ;   . # 1 ^ ! O               X O # @ 6 R.R.*     o S $.[ [ [ ` m B M ",
"O   R 4.a   < r.r.r.r.9.j @   @ > / #X;X4X<X*X$X=X%X*X$Xq       & i i a G 4.2.G a a a i i &   . : 7 a./ X                   X > l Q.Q.6       S -.-.,.b.} M C Z ",
"w e 4 - X   X , , , , @ : j.#Xx # / &X,X3X5XgXhXgXdX2X<XR.g.l @ + X = a s R R s a a a =   P j.~ > k Q.W.^ ! g.j.j.j.k.j...! h.yX>Xh.E.>XeXq   % ; 5 5 * - 4 C Z ",
"| | 8                   . %X5X~ @ / #X;X5XaXvXvXvXvXaX3X;X%X! > +   o i a i i a a a a O   ^ ;Xg.> z *X%Xd.d.#X;X-X-X-X-XW.a.W.cXhXa.h.fXcXL               % ] | ",
"n.b.' W 0       # k.R.R.R.-X;Xk.d.~ x k.jXgXaXsXsXsXgXjXaX<Xk.E o.E v 3 3 3 1 O o X O     b k.^ > k j.d.x k d.k.k.j.Q.*Xg.k ^ 1X=Xx x =X>Xq   r E F.tX8.  - ,.n.",
"x.z.c.-.S       q 3X6X5X5X-X#X%X*X~ @ =.vXcX4X3X3X5XcXvXaX5X`.4.5.6.Q > : # @             k a.! > 7 a./ 1 , ^ a.a.a.R.;Xa.# x *XR.2 1 E.=Xq   o.4.tXBXtX  - >.:.",
"c.c.W w Q ^.R.h.k.;X;X,X;X%X%X#X*X~ : l =.R.3X4X5X5XsXgXW.h.5.5.<.o.@.k.k.`.`.h.g.7 .     1 l 7 . # l k . . k x l l / R.~ : k k.d.1 3 g.k.3   u o.8.tX8.  ; 3.V.",
"%. .w   7.bXjX5X2X%X#X$X#X$X#X%X%X^ > > @ n 3X5X3X3X3X3X@.u +.5.+.u @.4XsXbXvXaX3Xx @     . : +     : #     @ : : # n a.! # k a./ , 1 / a.#   ; s o.4.o.  - $.&.",
"c.&.w   ^ dX1X,X;X%X$X$X$X$X$Xd./ k . . . 3 s.j.;X,Xk.j.E a E +.=.R.`.sXgXgXsXk.d.d.s.k . . . 1 k q > 3 / / 2 > ~ d.~ x q . > x l + + l x .   ; a +.5.E   - >.3.",
">.b.0   ! %X`.$X$X#X%X%X%X%X%Xx :           : 7 Q.#XE s a i i u h.5XsXvXjX5X,X2 , %X5X/ : .   3 g.^ @ k <X2Xz : #X6Xp.# @     > @     @ : X   ; a +.6.E   - $.V.",
"%.-.A S P ^ g.$X$X$XQ.a.p.a.a.7 . y O.G t y v L h.h.y ; u i ^ h.Q.5X6XjXgX4X<X/ ! d.k.l .     * ! ! / s.2X2Xd.p.Q.-X~ > +     + .     . +     O ; t R r   - $.c.",
"n.V.n.}.+.  q %X%X%XQ.2 : > :     1.lX8X4.4.5.2.i i     r s W.4X5X5X4X4X4X4X3X-X%Xz :           : x 3X4X5X4X4X4XR.a.x : .                                 - &.B.",
"$.:.%.{.O.  6 g.d.d.a.> + @ + 0 G F.pXeX(.(.(.F.r ; ; ; r ; @.#X;X4X4X4X3X<X,Xk.s.k : * 5 5 5 w q P E.Q.Q.E.Q.Q.p.! b e 0 8 8 5 8 8 5 8 8 6 * * * 4 8 8 5 S &.c.",
"^.^.G.}.O.    > > , #         F.pXiXpXpXpXpXpX8XX   *.4.;   . , a.4X4X4X2X%XQ.2 > > , W b.&.S.G.'.:.1 > > , > 1 > > L b.n.M.b.M.b.N.M.~.~.~.| | ] ;.n.v.v.m.x.c.",
"XX9X}.9X1.9 - # # @ # & = = - F.eXuXiXpXpXpXpX0Xr - o.+.;   ; q / -X$X#XQ.k.d.7 1 6 q ' b.b.~.@X@XA.q q q q q q q q Q b.b.b.&.b.v.;.~.@X@X@X,.v.M.M.n.;.&.x.b.m.",
"{.8X8X8X}.9XO.        *.4.4.4.5.8.8XpXpXpXpXpXrX5.<.O   r i +.5.P , #   X , 1 i i #.>.n.-.| A.+X}.}.x.b.;.;.-.b.n.| -.>.>.b.$.b.b. .Z.@X XOXb.b.-.b.n.v.b.x. .x.",
"G.9X9X(.^.{.`       O 1.5.5.5.4.4.8XiXiXiXpXpXiX/.6.O   9 a +.2.E 7 1 O & e v v G $.$.A.Z.G.~..X}.OXb.;.B.b.B.b.n.D.C.Z.S.A.N.D.Z.~.~.~.[.~.b.b.b.M.b.v.m.S.S.M.",
"9X8X}.n.$.>.W     u s 3.5.5.5.5.4.8XiXiXpXpXpXpXiXeX;   r a a s o.4.4.1.7.eXeX8.2.R s 4. X.XoXoX}.}.B.&.M.>.b.&.D.+X X@X+X+X X@X+XOXS.;.;.;.,.n.>.;.b.x.S.OXOX9X",
"8X}.8XS.3.b.W % % t a <.4.2.2.4.4.8XrXrXpXpXlXpXiXrX;   ; u i a E 4.4.4.F.iXiX/.8.R i C.qX XoX|. X}.b.&.b.b.B.>.S.+X X X X X[.].[.+X~.b.;.n.,.v.b.;.b.&.S.OX'.].",
"8X}.{.Z.&.B.-.| W X X i d d d *.4.5.F.8XpXzXBXBXlXeX;       ; a a G E 4.F.uXiXuXrX+.i 3. X|. X X}.'.M.&.b.>.b.&.A. X]. X|.@XoX+X[.[.~. . .b.b.b.b.;.c.%.V.OX}.9X",
"c.b.V.b.n.n.' Z N X   i d s s <.8.F.5.).pXxXBXBXlXrX;       ; s a s o.4.F.iXiXiXiX+.u <.n.B.>.M.V.V.b.x.b.b.b.b.G.@X X].C.,.,.>.n.N.M.m.m.n.>.&.v.'.}.{.G.S.V.&.",
"c.&.&.$.>.n.] Z w   X +.2.1.<.8XuXrXeXuXpXpXxXlXlXeX;   ; t i i o.1.2.4.F.iXpXiXrXi   W -.n.$.b.x.&.&.b.v.>.b.$.V. X+X Xn.>.,.n.v. . . .;.v.b.b. .]. X+XG.$.n.n.",
";.b.V.n.M.n.) B w X O 1.6.6.6.0XpXpXiXpXpXpXiXiXpXeX;   r i a a o.5.4.6.F.iXpXiXrXt   W M.b.b.b.M.b.M.b.v.b.-.z.G.+XXX{.C.>.,.n.v.v.m.M.b.v.%. .x.G.}.@X^.n.>.B.",
"( ) _ ( ( [ F - 4 o.+.2.6.8XeX).F./.F.8XpXpXkXrX(.7.%   r s o.<.2.4./.eXeXiXiX(.F.;   F b.&.m.v.b.&.;.v.m.S.~.~.S.G.S.A.>.n.,.>.n.v.v. .&.m.G.'.G.G.G.S.A.B.:.n.",
"K K I K Z B S   = 2.5.5.6.eXiX(.4.5.4.(.pXiXpXeXF.<.O   9 i +.6.4.4.(.pXiXuXrXF.2.=   W v.v.M.b.b.x.v.x.x.}.OXOXG.&.b.>.>.>.n.>.>.b.v.b.x.M.}.+X9XV.c.$.&.B.;.n.",
"K L L I I V S     ; t 2.6./.(.7.4.(.0X8X(.7.G a 9 ;     X o u E *.4.7.(.F.R s 0 5 S W $.n.-.>.&.m.x.x.m.v.'.OX+X].b.>.b.B.B.,.b.x.b.&.v.;.V.}.9X9XA.>.c.B.B.;.>.",
"K K K ) ` ` F         <.5.5.5.5.5.8XlX0X6.o.                ; a +.4.4.5.+.        T } >.n.b.b.n.&.x.x.c.x.G.G.}.S.>.-.n.$.$.} >.b.m.&.v.c.B.G.G.}.A.&.>.$.$.$.b.",
"K I I -.W u 5 5 ; ; 5 r t t r t t G o.G 0 w 8 6 8 8 O       X % ; t t t u S S A 8 m Z | n.;.b.m.b.b.b.b.x.b.v.m.M.n.n.>.F D D ] b.m.m.b.%.c.B.m.>.>.$.V.$.A C m ",
"B V Z v.S   O i a a u                     & I I I B %                   * ;.n.;.Z C C | N.M.b.b.&.;.;.n.M.b.b.>. .n.n.-.Z Z I  .v.z.m.v.&.c.>.&.B.n.>.B.| B U T ",
"Z F m u 5 - 5 a i a i ; = = -     5 S e 8 8 K I I Z %   O = = = = - o   * -.>.b.U I U | v. .v.n.N.n.;.;.B.-.>.>.n.n.>.| ( U Z } m.z.v.x.c.B.B.>.n.n.>.3.] I V N ",
"&.c.0   - a a a a a a i a s s O   8 I U I I I | >.[ =   r d a a a a 9   % D Z Z ;. . .n.N.n.S.[. X'.C.>.n.) U U U Z U ( -.>.-.V.m.z.m.&.&.b.3.c.:.` U I ` >.N.N.",
"x.&.w   X ; r a a a s E o.r ; 0 0 w K K I V I | n.-.&   % ; t a a i i t w 8 w D n.N.,.N.;.;.~. XoX^.N.:.n.U I Z U M I U >.n.;.v.m.z.m.v.c.b.c.>.B.T V V T N.n.-.",
"b.c.w       o a i i d 2.2.%   W ' K K K K M Z -.n.-.&       ; a i i E 5.#.  X A >.,.N.:.,.| ~.@XoX_.Z.,.,.) I I C I m U ;.b.;.b.m.v.z.z.b.b.b.n.Z.) D V _ N.:.n.",
"W F 5 X O o 5 E E E o.!./.s ; G K B I I | { | -.W I & o O O 9 i G E +.4.1.G a S W :.:.~.^.[.Z.{ ,.:.Q ' { I V V ) | _ | n.>.;.v.z.x.m.m.M.n.] ` ' I F V T ,.;.:.",
"%   5 s a i E 5.4.4.F.rXiX!.4.5   4 I I N.N.n.[ O   t a a i a a o.6.4.4.F.iX0X= X { ,.|.[.@X,.K V K N K I K I I _ N.n.v.b.b.b.v.b.x.&.x.;.;.D V Z Z U V _ N.n.b.",
"&   ; s a i R <.<.<.4.0X0XF.4.t o * w N C.;.n.[ o   t a a a a i E <.2.4.F.eX8Xu = Y -.=.!.0XC.N I K K I V C K V T ;.N.;.v.x.b.v.v.b.M.M.b.n.D M Z B B B ( n.n.;.",
"%   ; a a a a a s s R 4.6.5.5.E i &   8 b.&.b.[ o   t a a a a a a a E 4.6.6.6.4.2.E a &   R :.K Y L I I K Y { T | ,.b.b.v. .m.&.v.b.x.} [ $.) Q ' T T T _ m.v.v.",
"O   - t t t t t t t u +.*.+.*.d t &   w b.b.m.[ X   9 t t t t t t t d *.+.*.+.*.+.s t o   8 Y L K K I K K -.3.,.n.n.;.b.b.m.b.v.B.b.` C Z ( -.,.,.,.,.n.v.v.v.m.",
"o                                     w &.b.b.[ o                       X                 0 L L L L W K I -.,.,.,.>. .v.v.x.m.v.&.n.$.A F U :.n.,.N.,.N.b.;.z.v.",
"o                                     w %.%.x.] X                                         8 e Y K N K e K { :.:.>.n.>.v. . .x.%.&.b.` m A M :.:.,.:.|  .;.z.v. ."
};
