/* XPM */
static char *result[] = {
/* columns rows colors chars-per-pixel */
"70 70 149 2 ",
"   c #000001",
".  c #020B04",
"X  c #0D0B06",
"o  c #130B06",
"O  c #120C08",
"+  c #1B0F0C",
"@  c #041506",
"#  c #081406",
"$  c #051905",
"%  c #031508",
"&  c #041B0A",
"*  c #1C1C01",
"=  c #20180D",
"-  c #251410",
";  c #321C16",
":  c #05260D",
">  c #062B0F",
",  c #092C09",
"<  c #0A350B",
"1  c #0C3D0C",
"2  c #16360E",
"3  c #193E10",
"4  c #2E2412",
"5  c #332714",
"6  c #392B18",
"7  c #233E14",
"8  c #21232E",
"9  c #222D2F",
"0  c #262935",
"q  c #263334",
"w  c #2E3C3E",
"e  c #442613",
"r  c #4B2B16",
"t  c #703F1F",
"y  c #4B2920",
"u  c #522E22",
"i  c #553325",
"p  c #6C3E21",
"a  c #0D420D",
"s  c #17420F",
"d  c #11490F",
"f  c #0D4C12",
"g  c #0A4E1B",
"h  c #1B4512",
"j  c #134D10",
"k  c #0E5416",
"l  c #0B531C",
"z  c #0E5818",
"x  c #165312",
"c  c #1A5A14",
"v  c #145919",
"b  c #205215",
"n  c #0F651E",
"m  c #18651B",
"M  c #29671A",
"N  c #226918",
"B  c #2B6D1C",
"V  c #2D7F1E",
"C  c #0F6E23",
"Z  c #0F7627",
"A  c #107526",
"S  c #1B7628",
"D  c #107B29",
"F  c #6E411F",
"G  c #5C4E22",
"H  c #6C4521",
"J  c #644A21",
"K  c #684821",
"L  c #694F2A",
"P  c #734120",
"I  c #784723",
"U  c #7B4B26",
"Y  c #7E4E28",
"T  c #6F532C",
"R  c #785930",
"E  c #6D662E",
"W  c #333646",
"Q  c #3A3E4F",
"!  c #354647",
"~  c #3E5253",
"^  c #2A4562",
"/  c #2E4D6C",
"(  c #315273",
")  c #534343",
"_  c #554F43",
"`  c #43485C",
"'  c #4F546C",
"]  c #575661",
"[  c #5D5D6B",
"{  c #575B74",
"}  c #596B64",
"|  c #536D6D",
" . c #5C617C",
".. c #577475",
"X. c #5E7C7D",
"o. c #60726C",
"O. c #86572D",
"+. c #855C35",
"@. c #876137",
"#. c #A67F3F",
"$. c #926543",
"%. c #A47B41",
"&. c #178129",
"*. c #1B8429",
"=. c #218929",
"-. c #348621",
";. c #399325",
":. c #3D9C27",
">. c #3FA128",
",. c #41A429",
"<. c #A7803E",
"1. c #A8803E",
"2. c #E5BF3F",
"3. c #C8C800",
"4. c #D8D800",
"5. c #E4E400",
"6. c #E8F405",
"7. c #F7F700",
"8. c #F4FA03",
"9. c #FFFF00",
"0. c #E9C837",
"q. c #AB8143",
"w. c #B18A53",
"e. c #B69059",
"r. c #B9945D",
"t. c #A4957A",
"y. c #DEAC52",
"u. c #E4BB44",
"i. c #5E6582",
"p. c #5F7F80",
"a. c #616785",
"s. c #626987",
"d. c #666D8C",
"f. c #638383",
"g. c #67898A",
"h. c #6A8D8E",
"j. c #01B0EA",
"k. c #01B6F6",
"l. c #00BAFF",
"z. c #AD9C81",
"x. c #D5B48B",
"c. c #DBBB8B",
"v. c #EED2A9",
"b. c #F5DDB6",
"n. c #FFE6BD",
"m. c #EEE8E4",
"M. c #F5F1EF",
"N. c #F9F7F6",
"B. c #FFFFFF",
/* pixels */
"d.h.h.h.d.h.h.h.h.d.h.h.h.h.h.h.d.h.h.h.d.h.h.h.h.d.h.h.h.h.h.h.d.h.h.h.d.h.h.h.h.d.h.h.h.h.h.h.d.h.h.h.d.h.h.h.h.d.h.h.h.h.h.h.d.h.h.h.d.h.",
"d.h.h.h.d.h.h.h.h.d.h.h.h.h.h.h.d.h.h.h.d.h.h.h.h.d.h.h.h...    5 %.%.%.%.%.%.%.%.U t P f.h.h.h.d.h.h.h.d.h.h.h.h.d.h.h.h.h.h.h.d.h.h.h.d.h.",
"d.d.d.d.d.d.h.d.d.d.h.d.d.d.d.d.d.d.d.d.d.d.h.d.d.d.h.d.d.'     6 %.%.%.%.%.%.%.%.Y P P  .d.d.d.d.d.d.d.d.d.h.d.d.d.h.d.d.d.d.d.d.d.d.d.d.d.",
"d.h.h.h.h.h.h.d.h.h.h.d.h.h.h.d.h.h.h.h.h.h.h.d.h.h.h.d.g...    6 %.%.%.%.%.%.%.%.Y P P f.h.h.d.h.h.h.h.h.h.h.d.h.h.h.d.h.h.h.d.d.h.h.h.h.h.",
"d.h.h.h.h.h.h.d.h.h.h.d.h.h.h.d.h.h.h.h.h.h.h.d.h.h.g.    = y.y.0.9.9.9.9.9.9.9.9.u.y.y.%.%.%.d.h.h.h.h.h.h.h.d.h.h.h.d.h.h.h.d.d.h.h.h.h.h.",
"d.h.h.h.h.h.h.d.h.h.h.d.h.h.h.d.h.h.h.h.h.h.h.d.h.h.p.    4 y.y.0.9.9.9.9.9.9.9.9.u.y.y.q.%.%.s.h.h.h.h.h.h.h.d.h.h.h.d.h.h.h.d.d.h.h.h.h.h.",
"d.h.h.h.h.h.h.d.h.h.h.d.d.d.d.d.h.h.h.h.h.h.h.d.h.h.X.    5 y.y.0.9.9.9.9.9.9.9.9.2.y.y.q.%.%.s.h.h.h.h.h.h.h.d.h.h.h.d.d.d.d.d.d.h.h.h.h.h.",
"d.d.d.d.d.d.d.d.h.h.h.d.h.h.h.h.d.d.d.d.d.d.d.d.    . ,.,.,.,.,.,.,.,.,.,.,.,.,.,.,.,.,.8.9.9.%.%.%.d.d.d.d.d.d.h.h.h.d.h.h.h.h.d.d.d.d.d.d.",
"d.h.h.h.d.h.h.d.d.d.d.d.h.h.h.h.d.h.h.h.d.h.h.d.    . ,.,.,.,.,.,.,.,.,.,.,.,.,.,.,.,.,.8.9.9.%.%.%.h.h.d.h.h.d.d.d.d.d.h.h.h.h.d.h.h.h.d.h.",
"d.h.h.h.d.h.h.d.h.h.h.d.h.h.h.h.d.h.h.h.d.h.h.s.    # ,.,.,.,.,.,.,.,.,.,.,.,.,.,.,.,.,.6.9.9.<.%.%.h.h.d.h.h.d.h.h.h.d.h.h.h.h.d.h.h.h.d.h.",
"d.h.h.h.d.h.h.d.h.h.h.d.h.h.h.h.d.h.h.h.d.      ,.,.:.a a a a a a a a a a a a a a a a a :.,.,.D D D P P P h.h.d.h.h.h.d.h.h.h.h.d.h.h.h.d.h.",
"d.h.h.h.d.h.h.d.h.h.h.d.h.h.h.h.d.h.h.h.d.      ,.,.>.a a a a a a a a a a a a a a a a a ,.,.,.D D D P P P h.h.d.h.h.h.d.h.h.h.h.d.h.h.h.d.h.",
"d.h.d.d.d.h.h.d.h.h.h.h.h.h.h.h.d.h.s.s.i..   . :.,.;.j a f j a a j a a j d a a d a a j ;.,.:.D D D I P P h.h.d.h.h.h.h.h.h.h.h.d.h.d.d.d.h.",
"d.h.h.h.d.h.d.d.d.d.d.d.d.d.d.d.d.h.      D D Z a a j ,.,.,.,.,.,.,.,.,.,.,.,.,.,.,.,.,.j a 1 D D D %.%.%.h.d.d.d.d.d.d.d.d.d.d.d.h.h.h.d.h.",
"d.h.h.h.d.h.h.h.h.d.h.h.h.h.h.h.d.h.      D D D a a a ,.,.,.,.,.,.,.,.,.,.,.,.,.,.,.,.,.a a a D D D %.%.%.h.h.h.h.d.h.h.h.h.h.h.d.h.h.h.d.h.",
"d.h.h.h.d.h.h.h.h.d.h.h.h.h.h.h.d.h.      A A A x j c ,.,.,.,.,.,.,.,.,.,.,.,.,.,.,.,.,.j a a D D D %.%.%.h.h.h.h.d.h.h.h.h.h.h.d.h.h.h.d.h.",
"d.h.h.h.d.h.h.h.h.d.h.h.h.h.h.h.d.h.      a a a >.>.,.,.,.,.,.,.,.,.,.,.,.,.,.,.,.,.,.,.j a a Z D D %.%.%.h.h.h.h.d.h.h.h.h.h.h.d.h.h.h.d.h.",
"d.h.h.h.d.h.h.h.h.d.h.h.h.h.h.h.d.h.      a a a >.>.,.,.,.,.,.,.,.,.,.,.,.,.,.,.,.,.,.,.j a a D D D %.%.%.h.h.h.h.d.h.h.h.h.h.h.d.h.h.h.d.h.",
"d.d.d.d.d.d.h.d.d.d.h.d.] ] ] [ [ [ % $ $ z z z V -.-.,.,.,.,.,.,.,.,.,.,.,.,.,.,.,.,.,.N m N n n C E E E [ o.[ ] ] } d.d.d.d.d.d.d.d.d.d.d.",
"d.h.h.h.h.h.h.d.h.h.h.d.%.%.%.x.x.x.a a a D D D a a j ,.,.,.,.,.,.,.,.,.,.,.,.,.,.,.,.,.,.,.,.a 1 a a 1 a x.x.x.%.%.%.d.h.h.h.d.d.h.h.h.h.h.",
"d.h.h.h.h.h.h.d.h.h.h.d.%.%.%.x.x.x.a a a D D D a a j ,.,.,.,.,.,.,.,.,.,.,.,.,.,.,.,.,.,.,.,.d a a a a a x.x.x.%.%.%.d.h.h.h.d.d.h.h.h.h.h.",
"d.h.h.h.h.h.h.d.h._ _ ) c.c.c.v.v.v.a a a D D D z C n ,.,.,.,.,.,.,.,.,.,.,.,.,.,.,.,.,.h 3 h n n n a a a v.v.v.c.c.c.) _ _ h.d.d.h.h.h.h.h.",
"d.h.h.h.h.h.h.d.h.P P P n.n.n.n.n.n.a a a D D D D D &.,.,.,.,.,.,.,.,.,.,.,.,.,.,.,.,.,..     D D D a a a n.n.n.n.n.n.P P P d.d.d.h.h.h.h.h.",
"d.d.d.d.d.d.d.d.h.P P P n.n.n.n.n.n.a a a D D D D D &.,.,.,.,.,.,.,.,.,.,.,.,.,.,.,.,.,.#     Z D D a a a n.n.n.n.n.n.P P P h.h.d.d.d.d.d.d.",
"d.h.h.h.d.h.h.d.d.{ { { +.$.$.w.e.r.a a a f f f D D D *.&.=.,.,.,.,.,.,.,.,.,.,.,.=.&.*..     f f f a a a r.e.w.$.$.+.{ | X.h.h.d.h.h.h.d.h.",
"d.h.h.h.d.h.h.d.h.h.h.d.P P t %.%.%.a a a a a a D D D D D &.,.,.,.,.,.,.,.,.,.,.,.&.D D .     a a a a a 1 %.%.%.P P t d.h.h.h.h.d.h.h.h.d.h.",
"d.h.h.h.d.h.h.d.h.h.h.d.t P P %.%.%.a a a a a a D D D D D *.,.,.,.,.,.,.,.,.,.,.>.*.D D .     a a a a a a %.%.%.P t P d.h.h.h.h.d.h.h.h.d.h.",
"d.h.h.h.d.h.h.d.h.h.h.d.h.f.f.P P I k.k.j.a a a .   % D D D D D =.,.,.,.,.,.=.D &.k a a       a a a j.k.k.I I P f.f.h.d.h.h.h.h.d.h.h.h.d.h.",
"d.h.d.d.d.h.h.d.h.h.h.h.h.h.h.P P P l.l.l.a a a       D D D D D =.,.,.,.,.,.=.D D f a a       a a a l.l.l.P P P h.h.h.h.h.h.h.h.d.h.d.d.d.h.",
"d.h.h.h.d.h.d.d.d.d.d.d.d.d.d.P t P l.l.l.a a 1     . D D D D D =.,.,.,.,.,.=.D D f a a       1 a a l.l.l.P P P d.d.d.d.d.d.d.d.d.h.h.h.d.h.",
"d.h.h.h.d.h.h.h.h.d.h.h.h.h.h.      9.9.9.P P t     . a a k D D D D D D D D D D D &     1 a a t P t 9.9.9.      h.d.h.h.h.h.h.h.d.h.h.h.d.h.",
"d.h.h.h.d.h.h.h.h.d.h.h.h.h.h.      9.9.9.P t t       a a f D D D D D D D D D D D %     a a a P P t 9.9.9.      h.d.h.h.h.h.h.h.d.h.h.h.d.h.",
"d.h.h.h.d.h.h.h.h.d.h.h.h.h.h.      9.9.9.P P P       a a f D D D D D D D D D D D @     1 a a P P P 9.9.9.      h.d.h.h.h.h.h.h.d.h.h.h.d.h.",
"d.h.h.h.d.h.h.h.h.d.h.h.h.h.h.h.d.h.      %.%.1.9.9.5.    . a a v D D D D D D D D &     5.9.9.1.%.%.      h.h.h.h.d.h.h.h.h.h.h.d.h.h.h.d.h.",
"d.d.d.d.d.d.h.d.d.d.h.d.d.d.d.d.d.d.      %.%.#.9.9.5.    . a a k D D D D D D D D &     5.9.9.#.%.%.      d.h.d.d.d.h.d.d.d.d.d.d.d.d.d.d.d.",
"d.h.h.h.h.h.h.d.h.h.h.d.h.h.h.d.h.h.      %.%.%.9.9.7.    . a a k Z D D D D D D D @     7.9.9.%.%.%.      h.h.d.h.h.h.d.h.h.h.d.d.h.h.h.h.h.",
"d.h.h.h.h.h.h.d.h.h.h.d.h.h.h.d.h.h.h.h.h.          * 9.9.3.    > D D D D D k a a .                 h.h.h.h.h.d.h.h.h.d.h.h.h.d.d.h.h.h.h.h.",
"d.h.h.h.h.h.h.d.h.h.h.d.h.h.h.d.h.h.h.h.h.          * 9.9.3.    > D D D D D k a a .                 h.h.h.h.h.d.h.h.h.d.h.h.h.d.d.h.h.h.h.h.",
"d.h.h.h.h.h.h.d.h.h.h.d.d.d.d.d.h.h.h.h.h.          X 9.9.4.    : D D D D Z k a a .                 h.h.h.h.h.d.h.h.h.d.d.d.d.d.d.h.h.h.h.h.",
"d.d.d.d.d.d.d.d.h.h.h.d.h.h.h.h.d.d.d.d.d.d.d.d.      a a <     % a a a a a %     < a a A D D       d.d.d.d.d.d.h.h.h.d.h.h.h.h.d.d.d.d.d.d.",
"d.h.h.h.d.h.h.d.d.d.d.d.h.h.h.h.d.h.h.h.d.h.h.s.    . a a <     $ a a a a a $     < a a A D D .     h.h.d.h.h.d.d.d.d.d.h.h.h.h.d.h.h.h.d.h.",
"d.h.h.h.d.h.h.d.h.h.h.d.h.h.h.h.d.h.h.h.d.h.h.s.      a a <     $ a a a a a $     < a a A D D       h.h.d.h.h.d.h.h.h.d.h.h.h.h.d.h.h.h.d.h.",
"d.h.h.h.d.h.h.d.h.h.h.d.h.h.h.h.d.h.h.h.d.      D D D a a a a a ,           l D D D D D P P P D D D       h.h.d.h.h.h.d.h.h.h.h.d.h.h.h.d.h.",
"d.h.h.h.d.h.h.d.h.h.h.d.h.h.h.h.d.h.h.h.d.      D D A a a a a a ,           l D D D D D H P P A D D       h.h.d.h.h.h.d.h.h.h.h.d.h.h.h.d.h.",
"d.h.d.d.d.h.h.d.h.h.h.h.h.h.h.h.d.h.d.d.d.      D D A a a a a a ,           g D D D D D K t P D D D       h.h.d.h.h.h.h.h.h.h.h.d.h.d.d.d.h.",
"d.h.h.h.d.h.d.d.d.d.d.d.d.d.d.d.d.h.h.h.d.    . B.B.N.P P K D D D D D D D D D D D D D D F P t B.B.B.      h.d.d.d.d.d.d.d.d.d.d.d.h.h.h.d.h.",
"d.h.h.h.d.h.h.h.h.d.h.h.h.h.h.h.d.h.h.h.d.      B.B.M.P P J D D D D D D D D D D D D D D H P P B.B.B.      h.h.h.h.d.h.h.h.h.h.h.d.h.h.h.d.h.",
"d.h.h.h.d.h.h.h.h.d.h.h.h.h.h.h.d.h.h.h.d.    O B.B.m.P P G D D D D D D D D D D D D D D K P P N.B.B.      h.h.h.h.d.h.h.h.h.h.h.d.h.h.h.d.h.",
"d.h.h.h.d.h.h.h.h.d.h.h.h.h.h.h.d.h.      y y y ( ( /     o P P P P P P P P t P P P P t D D &.      h.h.d.h.h.h.h.d.h.h.h.h.h.h.d.h.h.h.d.h.",
"d.h.h.h.d.h.h.h.h.d.h.h.h.h.h.h.d.h.      y y y ( ( (     o P P P P P P P P P t t P P P D D D       h.h.d.h.h.h.h.d.h.h.h.h.h.h.d.h.h.h.d.h.",
"d.d.d.d.d.d.h.d.d.d.h.d.d.d.d.d.d.a.      i y i / ( ^     o H I P H P P I P P H t t t t S D D       d.d.d.d.h.d.d.d.h.d.d.d.d.d.d.d.d.d.d.d.",
"d.h.h.h.h.h.h.d.h.h.h.d.h.h.h.      P P P n.n.b.    . a a c ,.,.,.,.,.,.,.,.2           ;.,.,..     h.h.h.h.h.d.h.h.h.d.h.h.h.d.d.h.h.h.h.h.",
"d.h.h.h.h.h.h.d.h.h.h.d.h.h.h.      P P t n.n.n.      a a j ,.,.,.,.,.,.,.,.2           >.>.,.      h.h.h.h.h.d.h.h.h.d.h.h.h.d.d.h.h.h.h.h.",
"d.h.h.h.h.h.h.d.h.h.h.d.h.h.h.      P P t n.n.n.    . f f v ,.,.,.,.,.:.-.-.7 + = o o o -.:.;.      h.h.h.h.h.d.h.h.h.d.h.h.h.d.d.h.h.h.h.h.",
"d.h.h.h.h.h.h.d.h.h.h.d.d.d.d.      P P t n.n.b.    . D D *.,.,.,.,.,.b     K %.#.O.P t s a a       h.h.h.h.h.d.h.h.h.d.d.d.d.d.d.h.h.h.h.h.",
"d.d.d.d.d.d.d.d.h.h.h.d.h.h.h.      P P P n.n.b.    . D D &.,.,.,.,.,.b     L %.#.U P P s a a       d.d.d.d.d.d.h.h.h.d.h.h.h.h.d.d.d.d.d.d.",
"d.h.h.h.d.h.h.d.d.d.d.d.h.h.h.9 0 q r r r t.z.t.0 8 0 g l z M B B B B 7 + + R %.%.O.O.O., , , q 8 q h.h.d.h.h.d.d.d.d.d.h.h.h.h.d.h.h.h.d.h.",
"d.h.h.h.d.h.h.d.h.h.h.d.h.h.h.h.d.h.          X h.h.X.                - y y +.%.%.%.%.%.o     g.d.h.h.h.d.h.h.d.h.h.h.d.h.h.h.h.d.h.h.h.d.h.",
"d.h.h.h.d.h.h.d.h.h.h.d.h.h.h.h.d.h.          . h.h.p.                - y y +.%.%.%.%.%.o     g.d.h.h.h.d.h.h.d.h.h.h.d.h.h.h.h.d.h.h.h.d.h.",
"d.h.h.h.d.h.h.d.h.h.h.d.h.h.h.h.d.h.~ ~ Q ` ~ ! h.h.h.Q ~ ~ ~ ~ 0     - y y @.%.%.%.%.%.r e e W 0 w h.h.d.h.h.d.h.h.h.d.h.h.h.h.d.h.h.h.d.h.",
"d.h.d.d.d.h.h.d.h.h.h.h.h.h.h.h.d.h.d.d.d.h.h.d.h.h.h.h.h.h.h.h.`     - y y @.%.%.%.%.%.I P I       d.d.d.h.h.d.h.h.h.h.h.h.h.h.d.h.d.d.d.h.",
"d.h.h.h.d.h.d.d.d.d.d.d.d.d.d.d.d.h.h.h.d.h.d.d.s.d.d.d.d.d.d.d.`     = y y +.%.%.%.%.%.U P t       h.h.d.h.d.d.d.d.d.d.d.d.d.d.d.h.h.h.d.h.",
"d.h.h.h.d.h.h.h.h.d.h.h.h.h.h.h.d.h.h.h.d.h.h.h.h.d.h.h.h.h.h.h.s.| | W O O T %.%.%.%.%.i u u       h.h.d.h.h.h.h.d.h.h.h.h.h.h.d.h.h.h.d.h.",
"d.h.h.h.d.h.h.h.h.d.h.h.h.h.h.h.d.h.h.h.d.h.h.h.h.d.h.h.h.h.h.h.d.h.h.!     T %.%.%.%.%.u y r       h.h.d.h.h.h.h.d.h.h.h.h.h.h.d.h.h.h.d.h.",
"d.h.h.h.d.h.h.h.h.d.h.h.h.h.h.h.d.h.h.h.d.h.h.h.h.d.h.h.h.h.h.h.d.h.h.!     L %.%.%.%.%.i y y       h.h.d.h.h.h.h.d.h.h.h.h.h.h.d.h.h.h.d.h.",
"d.h.h.h.d.h.h.h.h.d.h.h.h.h.h.h.d.h.h.h.d.h.h.h.h.d.h.h.h.h.h.h.d.h.h.!     ; u i p P I y y y       h.h.d.h.h.h.h.d.h.h.h.h.h.h.d.h.h.h.d.h.",
"d.d.d.d.d.d.h.d.d.d.h.d.d.d.d.d.d.d.d.d.d.d.h.d.d.d.h.d.d.d.d.d.d.d.d.W     ; y y p P P y y y       d.d.d.d.h.d.d.d.h.d.d.d.d.d.d.d.d.d.d.d.",
"d.h.h.h.h.h.h.d.h.h.h.d.h.h.h.d.h.h.h.h.h.h.h.d.h.h.h.d.h.h.h.d.d.h.h.!     ; y y p P P y y y       h.h.h.h.h.d.h.h.h.d.h.h.h.d.d.h.h.h.h.h.",
"d.h.h.h.h.h.h.d.h.h.h.d.h.h.h.d.h.h.h.h.h.h.h.d.h.h.h.d.h.h.h.d.d.h.h.!                       s.h.h.h.h.h.h.h.d.h.h.h.d.h.h.h.d.d.h.h.h.h.h.",
"d.h.h.h.h.h.h.d.h.h.h.d.h.h.h.d.h.h.h.h.h.h.h.d.h.h.h.d.h.h.h.d.d.h.h.!                       d.h.h.h.h.h.h.h.d.h.h.h.d.h.h.h.d.d.h.h.h.h.h."
};
