/* XPM */
static char *_f09c9b9cc78479a903ab4f151e76f20fgye8t62gcB9FXd4[] = {
/* columns rows colors chars-per-pixel */
"64 82 21 1 ",
"  c None",
". c #08080D",
"X c #171723",
"o c #1C1C27",
"O c #000334",
"+ c #1D1D39",
"@ c #222232",
"# c #323243",
"$ c #1F0D60",
"% c #232774",
"& c #881422",
"* c #A11324",
"= c #CD2C3F",
"- c #B47D55",
"; c #C9A179",
": c #333892",
"> c #878790",
", c #A0A0AD",
"< c #B5A4A4",
"1 c #D2D2D2",
"2 c white",
/* pixels */
"                                                                ",
"                                                                ",
"                                                                ",
"                                                                ",
"                                                                ",
"                                                                ",
"                           1                                    ",
"                           1                                    ",
"                           1                                    ",
"                           1                                    ",
"                          11                                    ",
"                          11                                    ",
"                          11                                    ",
"                          11                                    ",
"                          11                                    ",
"                          11     XX                             ",
"                          11    X..                             ",
"                         11     .X.                             ",
"                         11      ..<                            ",
"                         11     . <=  *                         ",
"                         11       .*= *=                        ",
"                         11      .X.=.@=                        ",
"                         11      X..*=.*                        ",
"                         11      ..*2***                        ",
"                         11      .-*22*2                        ",
"                         11      ..**=**                        ",
"                         11       .&***&                        ",
"                         11      ..;&&&&                        ",
"                         111     ::.;&&&                        ",
"                         111 ##o%::.;;.                         ",
"                          11##ooo:::...:                        ",
"                         #11#oooo%::...:##                      ",
"                       ###11oooo%%%%:..::##                     ",
"                       ##o11ooo%%%:%::.::##                     ",
"                      ##..11oo%%%%::%:.:###                     ",
"                      #o..;;  %%%%:%:%.:##o                     ",
"                      #o.;;-   %%%%%%%.o#oo                     ",
"                      #o.---    %%%######oo                     ",
"                       oo..;;########oooooo                     ",
"                         ;;--.#####ooooooo                      ",
"                         ----.##ooooooooo%                      ",
"                          OO..oooooooo%.%%                      ",
"                           o.ooooo$O,>,,,,                      ",
"                            oo%%%$OO>>>>>>                      ",
"                             %%$$OO%%%%%:%                      ",
"                            o$$OO%%...%%::                      ",
"                           $$OOO%%%.%..%%:                      ",
"                          $OOO::::%.....%%%                     ",
"                        $$OOO::::::......%%                     ",
"                       $OOO ::::::........%%                    ",
"                     $$OO   :::::%....+++.%%                    ",
"                   $$OO    ::::::%....++++.%                    ",
"                 $$OOO     %%:::%%.....+++.%                    ",
"              $$$$OO       %%%%%%%.....+++..                    ",
"              OOOO          ..%%%.......+++.                    ",
"                            ............+++.                    ",
"                            .+..........+++.                    ",
"                           ..++....  .....+.                    ",
"                           ...++...   ......                    ",
"                           ...+++..   .....                     ",
"                           .......      >>>                     ",
"                            .....       >>>                     ",
"                            ,...        ,,>                     ",
"                            >>>>        ,,>                     ",
"                            >>>>        ,,>                     ",
"                             >>>        ,>>                     ",
"                             >>>>       >>>                     ",
"                              >>>       >>>                     ",
"                              >.        >>>                     ",
"                              ,.        >>.,                    ",
"                             .,>        ..>>>                   ",
"                                                                ",
"                                                                ",
"                                                                ",
"                                                                ",
"                                                                ",
"                                                                ",
"                                                                ",
"                                                                ",
"                                                                ",
"                                                                ",
"                                                                "
};
