/* XPM */
static char *_3adeb4bd87840f8cb03cdbeeeed096aNAT6iZ0cOHmxwpRU[] = {
/* columns rows colors chars-per-pixel */
"80 80 154 2 ",
"   c #343E16",
".  c #3E3F1D",
"X  c #2D490F",
"o  c #2E4612",
"O  c #334514",
"+  c #344C15",
"@  c #394B17",
"#  c #374619",
"$  c #3D451C",
"%  c #364C19",
"&  c #3B4D1C",
"*  c #345016",
"=  c #375219",
"-  c #3B521D",
";  c #3E581E",
":  c #3F4720",
">  c #3E4D21",
",  c #3E5321",
"<  c #3F5921",
"1  c #40471E",
"2  c #404C1E",
"3  c #41531F",
"4  c #414620",
"5  c #434D23",
"6  c #484E26",
"7  c #474F28",
"8  c #4A4E2A",
"9  c #435324",
"0  c #495227",
"q  c #435A25",
"w  c #485A26",
"e  c #465429",
"r  c #4B542A",
"t  c #465C29",
"y  c #4A5D2B",
"u  c #4E5E31",
"i  c #535C34",
"p  c #575F38",
"a  c #446026",
"s  c #466229",
"d  c #4C632D",
"f  c #4E692F",
"g  c #50662F",
"h  c #4E6331",
"j  c #4E6934",
"k  c #526534",
"l  c #536B35",
"z  c #586C37",
"x  c #576539",
"c  c #59653B",
"v  c #566D39",
"b  c #5A6D3B",
"n  c #567136",
"m  c #56723A",
"M  c #5B733D",
"N  c #547E3E",
"B  c #5C7A3E",
"V  c #616D3E",
"C  c #60753F",
"Z  c #61793F",
"A  c #5E6E41",
"S  c #5E7441",
"D  c #577F40",
"F  c #5E7C42",
"G  c #5D7E49",
"H  c #616B44",
"J  c #627543",
"K  c #697746",
"L  c #637D45",
"P  c #687C47",
"I  c #657749",
"U  c #6A7549",
"Y  c #657D49",
"T  c #6A7D4B",
"R  c #6C7E51",
"E  c #717751",
"W  c #717D52",
"Q  c #5D813D",
"!  c #60803F",
"~  c #5D8144",
"^  c #5F8548",
"/  c #638246",
"(  c #688147",
")  c #648945",
"_  c #668349",
"`  c #6A834C",
"'  c #65894B",
"]  c #6B894D",
"[  c #71834E",
"{  c #658651",
"}  c #6D8451",
"|  c #678D50",
" . c #6E8A52",
".. c #718453",
"X. c #728A54",
"o. c #788F57",
"O. c #758458",
"+. c #79865B",
"@. c #758C59",
"#. c #7A8E5D",
"$. c #739255",
"%. c #76925A",
"&. c #7B945D",
"*. c #779A5A",
"=. c #7D995F",
"-. c #7D8E61",
";. c #779561",
":. c #7D9562",
">. c #7E9A62",
",. c #80925E",
"<. c #838E64",
"1. c #829464",
"2. c #829B65",
"3. c #899A67",
"4. c #839668",
"5. c #859D6A",
"6. c #8A9D6C",
"7. c #8D9E72",
"8. c #929E76",
"9. c #84A066",
"0. c #85A26A",
"q. c #8AA36D",
"w. c #86A86B",
"e. c #8BA96E",
"r. c #91A46F",
"t. c #8DA472",
"y. c #8EAA73",
"u. c #92A574",
"i. c #98A176",
"p. c #93AB75",
"a. c #98AA76",
"s. c #95A67A",
"d. c #9BA57B",
"f. c #95AC7A",
"g. c #9AAC7C",
"h. c #93B176",
"j. c #96B27B",
"k. c #9AB27D",
"l. c #98B97B",
"z. c #A0A57D",
"x. c #A1AE7E",
"c. c #A0B17D",
"v. c #9CA782",
"b. c #9DAC81",
"n. c #97B380",
"m. c #9CB381",
"M. c #9DB881",
"N. c #A1AE83",
"B. c #A4AB89",
"V. c #A2B384",
"C. c #A2BA84",
"Z. c #A5B389",
"A. c #A9B98C",
"S. c #B6C395",
/* pixels */
"N ~ ~ ~ ~ / / B F B B / Z / B Q Q ! ! B Z C E 0   1 1 & # y Y I G 7.y.0.t.s.p.5.T J E r 4 5 . $ % + / F B B F F F / F F L B _ < % > y R F S F B L Z C X.b   6 4 ",
"D ~ ~ ~ ~ _ / / ` ` ( ] ( ( / ( ! ) ) ! [ [ W y 0 0 0 6 > y Y Y S 7.f.f.n.s.b.p.T T W r 5 r 6 6 - = ( ' ( ] _ ( _ _ / /  .F  .s # , h { _ _ / ) / L P ..A 5 r 6 ",
"~ ^ ^ ^ / / ( ( ( ` / Z L _ ( / ! ! ) P ( P U r 5 # 5 e & t T Y @.>.v.v.p.p.g.t.R U W r 5 6 5 0 q < / / L _ / J / L _ L _ m _ s @ , h ` `  ._ ( [ ] ] P x 9 > $ ",
"^ / ^ ^ / L ~ Y L Z d d d / / ~ ! ! ( B g y k 6 e 5 x U A Y q.0.5.-.@.;.X.@.#.} h y k 9 5 7 p H M n ` / / ] ( / $.9.0.5. .`  .F M m M ` J L d t q 3 d t k Y J Y ",
"G L L Y ` ` ` Y ` J % = + Y / _ ) Z ` M 9 & 5 2 $ & x ..K ] p.p.g...J T K Y Y S - O , & 5 > c W ` Y ` Y L ` ` / %.p.j.y.F Y Y G ] / / ` Y G , > q - , + s { _ Y ",
"Y _ ` P ` ` [ P } J - - + L Y ` ` / ( Z 9 3 & , & 5 x ` / X.h.j.V.+.} } T ` T } t % 9 9 , # u R K Y Y Y Z Y J J 2.j.k.f.F } _ _ / Z / / Y { < < , - > % h { _ ( ",
"P ` T b x b M b v b l l l J Y ` ` Z ( F 9 q 9 h k k b Y L ` >.=.5.S b A b b x M h d j j c h R 4.&.1.&.1.&.2.&.:.2.:.:.:.Y _ Y / ) / _ L Y Y , > , h x h m ^ ~ ~ ",
"K ` K y @ & 9 @ @ d T ` @.` ` Y Y L ` K @ - t J ....` ` / L ] B T 9 @ & , < + ; ` } O.R { Y >.f.f.V.f.g.p.k.g.k.>.J Y Y { L _ L ! ~ ` Y Y } e , , S { R ` _ ^ ^ ",
"K ..U w & & q 9 @ d Y Y T Y Y Y P K o.C - & , S ` / Y _ L ) ` / T r & 9 3 ; ; < _ L _ ` Y G :.b.f.g.p.g.u.f.p.k.:.J _ ` J _ ` F ( Q ) / ( K e , > S T _ _ ~ ^ Q ",
"K ` U y q @ , q , d Y Y } @.} } [ M ` z y q q M Y _ ( ] ( ( ` Y ..y 9 - - t q t _ Y _ ` _ Y @.t.u.u.g.g.s.k.f.f.2._ _ ] _ ` { ~ ! ! ] L ` M u , t S Y Y ` ' ' ' ",
"# & 9 @ 9 9 v } T Y ` J ` 5.t.g.P @ = q Y ] ` ` _ _ _ _ / / / _ T q , 9 l ` / _ _ _ _ _ _ _ `  .Y } t.u.p.p.p.j.5.G Y ] L _ _ _ ] ' n * - < S ` G ..` Y / ~ / F ",
"9 3 q @ 9 - k } Y ` } Y X.t.k.k.P - q s Y M J / _ L ( L _ _ _ ` ..t @ + k o./ ( ` / L _ _ _ G L Y R V.m.p.t.p.p.5./ L ( / / ~ / B / N = a < _ ` Y } Y _ _ _ ` ` ",
"@ @ - @ < = j ` ` _ _ J ` 2.p.k.P @ + q ] ` ] ~ / G / L _ } J _ T h q @ h _ F L _ / / / / / ` ` Y P u.p.p.f.k.M.=./ / ' / / ^ ' _ / l X = = Z / Y _ L ` P Y ` K ",
"C C J M F v F { F ] e.e.q.:.o.X.( M Z B / m / _ / / ` / ` Y d h u b S m J { _ ` ( / _ _ / / $.5.t.3.#.X.@.X.X.]  .F / ) _ / ) _ ` } ` n Z B ) / ] _ / ` C g i y ",
"Y Y ] L } _ Y _ _  .j.e.p.` Y L ] ( / / ` ( ] B / _ ] L _ F % % % I } } ` Y ~ F / ) / _ / Y *.h.p.p.Y J ` _ / L _ F ( ^ ~ / ~ / J _ ] / ' ] ! ) ! Z L ] x 3 9 9 ",
"L _ ` B _ { _ F F _ k.p.k.` ( P B ( ( ( B / ] G ~ ~ ` F ` L - , = G L Y _ F  ._ _ ^ / _ F F %.k.y.j.L Y ` K / / ` _ ] ' / ) ~ ~ _ Y ` ! ! ] B ) ( / ] [ z & > 2 ",
"/ _ G _ _ / X.o.o.,.a.r.c.[ F _ ~ ! ) ' / / ( / _ S @.:.@.@.j s l B ) ( / / / ( ` L Z &.>.$.>.&.9.*.` / / / P [ J f F l _ _ _ ' ~ / _ _ _ ~ / F _ m M z z k d x ",
"F / F _ ~ F ,.a.a.a.x.r.a.X._ ' Q Q Q ) ! / / / Y Y :.m.k.f.} _ B ~ ~ L L ( ( ( P L P 0.m.p.0./ N Q B / ` ` P P M + - ; F L / N / ' ~ F L /  .} } d + X h ` ` ` ",
"_ ` _ _ F F =.l.a.a.c.u.p.X./ ^ ) ) ) Q / _ / L } Y :.p.f.q._ ` ' ] ` ) / ] ` L [ ( / =.p.k.5.B ) ) / B / ` ` X.J @ + ; ` ] ] _ ~ / ( ( _ ` L F L j < = h `  .` ",
"S K _  .} ] 2.q.q.q.a.q.p.o.` / ) Q B B ] ] } _ Y ` >.t.f.q.` / / F L / L Z L / Z L X.9.p.p.>./ / / / ( ` K J U x q q s F F F ~ / / F / / ] _ ` ` j = + d ` _ J ",
"d.b.m.p.y.y.;. .} } ` Y ` L L F ( ) ] ] e.y.h.p.k.p.2.` _ _ F / ` ( _ ` m - = t [ L L P L L ( ' ` _ / ` Y d @ ; z J / / ' / _ ' / ` &.l.k.r.( L ` d + + l } } } ",
"i.s.s.t.f.n.>.G { _ Y Y _ _ ' ' F ~ ( _ h.p.k.p.t.u.:.S _ ` ` ( / J _ ` n - % t ] Z ] ] ` _ F F _ L Y ` P d - , f Y ` L _ / ~ F ( Z X.a.y.q./ ( ` d - ; k Y Y Y ",
"z.d.v.u.f.f.;.G G G _ ` _ _ ( ~ _ / ` ` k.p.p.t.m.m.5.Y ` ` ` _ ..} T Y z , @ 3 ] L ( B F ] _ / ] ..} ..T k + + k ` L F ( / ~ _ ( ( ,.k.a.c.[ ( [ d = + d ` _ J ",
"z.d.v.s.n.n.;.{ _ ' ` ` _ ` _ / ( / ` _ k.p.u.0.} %.X.K X.M k t t t d k b M J L 0.2.q.X./ ] n s d h y q g M M J B  .F / ' / ] *.r.3.,.,.[ o.d a d z M M } 6.t.7.",
"z.z.8.d.s.n.;.G { S { F _ _ / _ / ` L ` f.p.u.@.Y T I Y P Y ; ; , > > % k @.Y @.h.f.k.` ` ` l * & & @ , - S ` } ` / F / / ] L 0.c.g.6.J ` K 3 = + M X.Y @.g.g.s.",
"8.z.x.d.n.n.;.{ { { { Y _ ` ~ G G _ F X.t.g.g.@.I T } ..` K & @ , > 9 @ h T S Y p.f.k.$.` ` l @ 9 q , , - M _ L ` ` ` _ _ Y B 2.d.a.r.J [ L 3 * + M } Y :.j.g.v.",
"d.d.d.q.>.0.%.Y _ Y n v m _ _ F  .*.X.:.:.t.6.J x A H J A b e y > y x u Y :.-.:.4.5.t.G m M k t 9 q 9 9 , J X.` B L / _ &.*.%.u.g.a.q.J ` ` k f s J _ S #.s.s.s.",
"d.u.u.} Y Y G F { Y = + - B ] _ >.h.p.q.Y Y J 9 & > > & & , 5 , e S ..} :.b.f.p.F I Y , + - - & 5 9 9 - % m _ F ] ` _ ` p.p.p.g.g.u.5.I ` ` / ` ( ] } J :.v.s.d.",
"k.g.f.] G G ` ` Y J 3 3 3 Z _ m %.y.h.p.L Y ..u 9 e r e > 5 7 : & b T Y :.g.p.t.R Y O.u q e > > > 3 & , - F  ._ _ / F Y g.k.d.g.v.f.5.S Y _ / _ / / J F -.g.s.v.",
"0.q.q. ./ ` / L T J w 2 3 B  .] 9.y.e.0.` ` R > > > 7 5 5 7 u 8 9 J } T :.s.n.u.R Y R t > > 9 u , 9 9 q < M / L F  .} X.u.u.s.g.u.n.5.G ` / / / F ] } ` 1.g.s.d.",
"( ] ] ~ B / k 3 3 g C Z ` ] Y B Q / _ _ Y ` O.t 5 5 e 5 r u E U W q.f.t.t.n.f.f.{ Y R e > 5 k U W ` Y ` M _ ( G %.j.y.p.g.s.s.d.u.b.2.Y } _ _ ( ` 2.t.6.s.N.d.x.",
"~ ~ ~ / _ X.g @ 2 w W K ` P / _ ~ / / ~ ` Y R e > 5 r 5 > r E R K 6.g.f.f.p.s.7.R I O.u > , x ..P K P ..L ` _ L $.k.t.g.g.g.s.f.f.m.>.G ` ~ / / L 5.k.g.f.b.s.d.",
"D ^ F _ Y ..v & 2 w T L ( ] ~ ~ ' Q ~ _  .J T t & & 9 9 @ t P Y ` 6.g.u.d.N.Z.B.W W R j % % d ` } I I J G R R A ;.7.u.d.g.m.b.m.e.l.9.Z ] L ..} R 6.d.s.k.m.u.V.",
"^ ' ' } P ` x : 3 y [ K ( _ / ( ^ ~ / / _ K T w 5 9 y M l M ` _ C i.d.N.<.c H H u u p A v m F _ Y T 5.7.t.q.t.:.u.b.d.a.&.#.X. .$.$.] ! ` ( d i 0 1.V.v.6.o...@.",
"S D L _ ` } x , 2 w ` Y ` / / ) ~ ~ ' / _ ` ` q 9 & x X.X._  .Y K a.u.N.W   7 : 7 : 9 A  . .{ } { ..f.y.y.p.f.j.s.f.p.6.Y Y G / ( B B L Y [ & e : -.f.u.1.` ` Z ",
"} } ` } ..T l % 2 y ` P _ ) / ! ~ ) / L ` ..P t & & d } ` J ` F J u.Z.A.O.O q : , # > b R S S Y S { y.n.n.j.y.j.g.k.g.a.` Y _ _ ) Z ] ] ] T # # O :.V.Z.2.J ` ` ",
"S A b b A A j d g z _ / ] ( ) / / / / L m M x x h k M T Y _ :.%.-.+.#.#.I k k h v h k ..-.@.-.:.@.%.9.9.9.w.=.>.0.2.3.2.Y / _ L L _ / n b v I J A <.5.t.#.M / / ",
"O @ 9 , , , m { / L _ / ' ) ( ) ! / ( M , = < S ` T } } G $.f.p.V.k O @ v } P } ` ` R t.Z.v.v.v.m.q.` ~ F / L ` Z Z P [ B _ _ / / ` f O , w g.N.b.:.S K ` / ` / ",
"2 2 r & > % j  .` ^ _ ~ ) Z / ) L P ` B - + - J } Y ` Y S X.y.y.g.k @ , k ` L ` _ Y Y 6.m.v.v.8.y.e.L _ _ / _ L [ [ K [ Y ` _ _ L o.M @ 9 - u.f.f.#.P ` ` L / ( ",
"9 2 r 9 < , v ^ ^ ^ ' / ' / ` / ( ` ] Z s q < F ` _ _ } ^ $.y.t.s.v q - f ] ] F ` { Y 6.v.s.B.v.g.f.G _ _ G ` Y T T J U Y Y Y _ F ` b , q w u.u.g.@.P _ _ Y L / ",
"5 0 & J T Y ` ^ _ ~ ' ' ] ~ ] L &.r.r.q./ / ( / Y _ ` { } F < < 9 S P K L ( ( ] y.y.p.f.v.v.v.s.g.t.Y I  .y q q 3 0 1 r 3 r w w q - g ` ` K } ` ` ` P ( B = ; ; ",
"2 9 , K } Y _ D ~ ~ ^ ~ / L ` J ,.k.l.e./ L ( / _ _ ' F Y S , , - J } _ / Y / ] y.e.f.g.s.v.v.v.f.t.R Y } t & 5 6 r 6 r 2 0 > 9 = + d ` ` Y ` P J P ] ( B * = - ",
"O > , J ` Y { ~ ' ' ' _ B _ _ F ,.p.h.0._ / _ / / /  .G { Y , , - M } ` Y / _ ` h.p.p.b.f.s.v.s.d.g.} } R u & 9 0 0 2 6 : 7 5 9 q - f Y ( / ` / ` ` ] L n * = - ",
"A M v ` ` / _ Y L _ / / _ >.5.2.=.$.o.X._ ] _ L _ F ` ^ } Y , , 9 M ` Y ` ` ` ` f.p.p.f.s.f.7.#.#.@.u k j A x K p 6 1 6 8 r r k M l M ` / P ` P ` M s d z n M M ",
"} _ _ _ ` _ _ / Y / L L Y p.b.n.:.Y F / _ _ ~ / ' F _ _ } J , w - B ` _ ` ` _ ` f.f.s.u.f.b.5.M K L @ @ - L T O.V 2 2 6 7 > 7 A ` ( / ( / / / ( ( d + = l ` } ` ",
"D F D ~ _ ~ _ / ] / ] J G q.y.n.:.F / L _ ^ Q ' ' / _ ` ..S , - * n ` ` Y Y U R g.g.n.f.n.n.5.M ..` ; * * Z K [ V 2 0 0 , # > S ` / / ( ( ( / / ` k = = h ` Y U ",
"^ ^ | ^ ' / / L J L :.@.-.t.f.b.4.G  .G _ ^ ~ ^ B ' F m S x k h a B _ / ..#.-.-.6.6.6.5.>.5.%./ / B s d s / Z [ V 1 0 2 k u u S / ) ! / ( ( / Z / f - - h ..R W ",
"^ D ' F / / ( ` ` ..k.p.v.n.s.f.:.F ` N ^ ' ~ ~ F | f + = t U } ( ] / L 1.k.g.u.R J I R G G / ~ ( ( / ' ( [ Z ( V @ 3 w T @.Y _ ( ( ) ! ( ' ( L ] d - @ u { R Y ",
"G / L / Z ` L ( Y X.g.f.g.f.s.p.%._ / ( / / / / / / n = - a / L _ Y G Y >.j.j.0.Y / _ _ ( / / _ ~ ] _ G J o.M ` J + - ; L / / / ~ ~ ~ ( ( / ] P ( g + O k R { Y ",
"/ / L ] ( ` L P P @.u.p.b.s.f.b.$./ ) / _ / _ / ( / l * = a _ / G _ L ` &.y.p.y._ _ / / / ! / / _ _ Y Y } ` J [ k - q a Z / ~ / ) ^ ) Q / / ( L J z < - j G Y { ",
"M L Z 0.e.p.p.f.u.j.k.f.p.O.R Y ] / / ( / / / ( F ] ` F / L ` L ` _ Y G _ ` ` _ / _ _ / / _ _ / _ { w.p.f.M - 3 z L C L ] ( / ( Q ^ / ~ ( F d 3 q v J L Y _ Y ^ ",
"] [ / a.k.y.h.y.t.f.t.f.m.} Y ` ( ~ / ( / / / / / ` ( / / / ` _ ^ ^ ^ ^ ~ ~ D ^ F / / _ _ ' / G ' { j.p.f.d - 3 g [ ( ( / L ~ ^ ~ ] ( ` ] L ; + + v ] ` { ' _ ` ",
"M Y S q.b.p.m.f.j.k.p.p.j.} L / / / / ' / / ` _ ` / L / Y Y Y / ^ ~ ^ ^ ' ^ ' ' ~ ^ _ ^ ^ G L ' A { p.j.M.m , + t [ Z Y L / / _ G / B B / Z = - ; z ( ( / / / ~ ",
"2.6.;.s.n.p.6.@.%.%.$.$.>._ _ ] ( / _ ] ( ( ` _ / / $.q.0.2.( Y ` ^ ^ ^ ^ ~ ~ F ` ' Y { _ _ X.>.>.>.;. .:.S n k M X./ ` _ ] _ ] ' ] X.>.3.9.C M g L ` _ _ ' ^ ~ ",
"f.n.s.n.f.n.;.G Y F _ B ) Z L F _ / ( ( / _ _ / ` _ =.k.p.q.[ [ ~ ^ ^ ^ ' ' ' _ ` L Y { _ G :.m.n.w.^ S _ _ ` X.` P / ` Y _ G / / L &.l.k.h.( P ] [ ` F ~ / / | ",
"t.v.n.f.f.n.;.S _ F ] Z / ' ) / / L / L G ~ _ G J L &.k.k.r.( ` / ' _ / / _ _ _ ` G Y } L S @.j.h.y.{ { _ Y K ` ] M Y Y L _ F Y _ J %.c.a.h.P ( L ( ( ' _ ^ B ~ ",
"t.n.n.7.5.t.;.Y F ` / L / ( ) ' _ L / ` o.%.%.| X.%.2.6.r.6.z b l L ( ( / B z L ] P Y %.@.:.3.p.y.h._ L ` _ } _ ` =.] X.o.o.X.%.o.,.=.2.q.2.` ( _ ] / / | *.$.| ",
"v.b.7.{ A Y Y Y ` ` _ / ' / Q L ( / ` ] y.h.h.y.j.y.:.P K K 2 w 3 Z P P l * = 3 T P K q.g.u.p.k.y.y.` G ` Y _ J &.g.p.k.k.k.p.k.h.h.=.Y Y ( L ] _ L / F $.h.h.l.",
"t.f.f.-.Y { Y _ L F S _ ` _ / / Y ( _ L j.h.f.p.j.m.2.Y U U & 3 + K ` ..C @ 3 w T W J i.V.a.d.p.y.y._ F ` _ ` L %.k.a.p.p.p.r.e.y.h.2./ L ` / / ` L ` F %.j.0.w.",
"y.y.t.} Y { _ / ` ^ ` Y Y ` ` ` Y ` ` } y.y.y.h.q.f.2.K ..T 0 0 3 C K L x 3 3 q [ T P 2.u.u.a.p.y.w.] F _ / _ L o.p.e.p.p.k.k.a.e.p.=.L B ( ` _ / L / B $.p.f.j.",
"{ `  ._ ` ` k - , h Y J ` q.f.p.a.q.q.q.{ } { _ { X.A % w r 2 2 @ 9 e q z P J ` a.r.q.o.` ` ` `  . ./ / _ _ _ / :.j.f.q.} ` T Y ` ] ] ] ] ] L F / 0.y.y.0.X. .S ",
"Y J Y M / ` l - % y } Y T t.f.u.f.p.p.f.Y Y { Y Y } A # 3 0 0 w y & > @ x X.K X.p.y.k.X.K Y F ` B F L / / / Y G X.p.k.t.` K P ` / B B B F / / _ B q.p.f.;.S { ` ",
"Z / ] ] ` _ h = > < R Y T s.b.f.k.f.p.t._ Y _ { Y Y m , 9 1 1 & 2 & @ @ x ` P } j.p.j.@._ _ / / ] _ ] _ / / G F >.h.f.y.} Y T ` / / ) ] _ / F B ^ >.y.m.q.R ` } ",
"g g g t s v v j m v O.Y R 7.g.d.:.:.%.@.{ Y G R { S A , 9 3 V V x J M k J Y ` ` >.%.%.~ ( / ' / _ F L / _ %.>.5.%.>.@.&.T P ` Y / / ) F B ] =.5.>.>.%.%.@.` J ` ",
"@ 2 9 > , % A { _ G } Y R 8.c.a.&.B L / ` ` S ` Y ..C O 9 t [ ` ] ) ( ( ( ( ( ( B ! ( / Y Y ` _ ^ D ^ ~ ~ w.h.j.>.G Y G T J _ Y Y ` / _ ~ ' y.j.n.$.G S G ` J ( ",
"8 8 7 7 > % j ^ ` G _ F I 5.z.g.=.! ( / ` ` _ } R R b = 2 3 ` ( Z ) ) ! / ) ( ( ` [ ( ` _ F _ ^ _ _ ' / ~ w.h.l.0._ _ _ } } R _ ~ _ F / _  .y.n.n.@._ { ` T Y Y ",
"1 5 $ u h h S { F L @.o.:.u.d.g.,.L ` / M S S K J M k y 3 d ( ( ! ) ( ! Z ) P P C C M ( } _ _ _ G ~ / / / =.9.q.%.Y L Y S F m L / ) / / ~ { >.>.y.@.G Y Y M J _ ",
"9 9 e Y Y Y Y { ` %.f.p.g.d.g.a.,.L ] M , - & @ @ 9 x $.[ ` ( B ( ( ' / / ( ( L = * 3 n _ L _ / / / _ ( / _ / / ` ` } L < > , v _ ( _ _ / _ { { Y Y S ..S % % + ",
"% & ; J } ` Y Y L [ p.p.g.t.s.g.&.Z ` C 9 9 2 w 3 - d ( Z ] ` ] / Z F L P ` ( L 3 + ; B ] ( ( ] L J L / ` _ _ L S ` ` J , = ; F / Q / / _ / _ G { } Y W v - q y ",
"- < < B Y _ ` _ / X.h.a.M.t.p.b.3.T W J 0 & & q q 3 k ] ! ] Z !  .` L / ` ( Y Y 3 3 3 M ( B / ` ] ] L Y  .J L Y ` ` ` M d 9 , z ) Q ) ) G _ _ _ } R Y Y v , & @ ",
"G F F / ] ( ` / Z X.f.y.g.@.Y O.x 2 0 w 3 9 w C P Z ( ` ( ] ) ] J d ; q t ; , < ! Z Z ]  .` &.r.p.0.X.Y ` s t q q ; q s S Y L ] ' ~ / ~ G ` Y _ Y h q e j I } ..",
"~ ^ ( L ( Z ( L Y X.f.t.g...Y } b 2 2 3 2 2 3 M ` ( ] Z ! ] B / Y h % - q - , < [ [ ` ` / B =.h.a.3.[ K ` t 9 - q @ ; q P ` Y / ) Q / ) ~ _ Y Y { y & @ h ..R I ",
"/ ~ / F ( B ] ( Z X.h.p.Z.} { T c 2 5 & 0 O & C P / / ( ( / ' / } y & , , & % t P P ` ` Y M ,.Z.g.d.O.T T d 5 9 - ; O q Y / L ( ) ) Q B ' _ _ ` X.y q & k } K _ ",
"F / _ / / L o.,.,.9.,.o.2._ } } x 9 r 9 V z M Y ` ` ( ` ' ( _ / P u , , y S A v ` ` ` ,.6.r.@.b K P g k x q @ - d M k M ` / L / ~ ~ / ] ] ` l h k q 9 @ d P L Y ",
"F ` ] _ / / 9.h.h.e.( Z J ` P [ x @ 3 q [ ` ` Y L Y / Y Y / / Y Y u - & v O.O.} R } } u.u.c.T # $ 2 $ 2 9 5 q , g ` ` / _ / ( / _ ~ ~ / J L 9 & - - e - h  .` _ ",
"K ` P / L ! 2.h.k.r.( / ` X.} ..x @ % 9 [ ( ` / ( / ( / ( ] / ` T h % % k Y F J T A U u.V.S.O.$ e 5 5 0 5 & > # y _ ` / L / ' / / _ ' ] Y ` ; # & % & + s ` ` F ",
"J J J P ` ` %.0.>.*._ / X.J C b v u h h ` F / / / / _ L ` / M M v k d y S X.O.-.-.O.-.+.+.<.U 5 0 5 e e : y k y S ` Y _ _ F _ ~ / _ L m v S u g k d y d l / / ~ ",
": & 9 S Y / G ~ ' ' _ B ` t 3 2 v Y { D _ _ ] / L ~ ] L ` J q 9 9 S T K ;.b.n.n.s.g.b.b $ : r 5 5 4 e 5 e A T R P ` F _ _ / _ ~ ' _ j = - y J T T P P ( ( / ( ( ",
"2 2 5 U } } _ _ / ~ _ / ` q @ @ j } } _ / / ( ~ ( / ] Y  .J - > , S } Y -.b.f.t.s.v.b.A 7 r r : 8 7 r : 7 A T R ` Y F _ / ~ ' ~ Y { v , q q T T T ` ` ] / ! / ) ",
"$ 1 $ S Y G D G ~ ~ N F ` q @ @ h G S ' N B ~ ~ F B L M Y I & & % b Y F @.u.t.f.s.s.s.p : . . 8 4 4 5   > A I Y Y Y L / F B ^ B F Y j o , O Y I U Y J M L ! ! Q "
};
