/* XPM */
static char *_c2fd951b08a4c74db21455e8a92d671adWj3uW7XI5Lt3ps[] = {
/* columns rows colors chars-per-pixel */
"80 80 254 2 ",
"   c #464749",
".  c #48494B",
"X  c #494A4C",
"o  c #4A4B4D",
"O  c #4B4C4E",
"+  c #4C4D4F",
"@  c #4D4D4F",
"#  c #4D4E50",
"$  c #4E4F51",
"%  c #4F4F51",
"&  c #4C5051",
"*  c #4F5052",
"=  c #4E5253",
"-  c #505052",
";  c #505153",
":  c #515153",
">  c #535154",
",  c #515254",
"<  c #525254",
"1  c #525355",
"2  c #535355",
"3  c #555356",
"4  c #505455",
"5  c #515556",
"6  c #535456",
"7  c #525657",
"8  c #545456",
"9  c #545557",
"0  c #555557",
"q  c #565457",
"w  c #575558",
"e  c #555658",
"r  c #565658",
"t  c #565759",
"y  c #575759",
"u  c #585659",
"i  c #59575A",
"p  c #545859",
"a  c #57585A",
"s  c #58585A",
"d  c #58595B",
"f  c #59595B",
"g  c #5A585B",
"h  c #5B595C",
"j  c #595A5C",
"k  c #5A5A5C",
"l  c #5A5B5D",
"z  c #5B5B5D",
"x  c #5C5A5D",
"c  c #5D5B5E",
"v  c #595D5E",
"b  c #5B5C5E",
"n  c #5C5C5E",
"m  c #5C5D5F",
"M  c #5D5D5F",
"N  c #5D5E60",
"B  c #5E5E60",
"V  c #5E5F61",
"C  c #5F5F61",
"Z  c #615F62",
"A  c #5F6062",
"S  c #5F6364",
"D  c #606062",
"F  c #606163",
"G  c #616163",
"H  c #616264",
"J  c #626264",
"K  c #626365",
"L  c #636365",
"P  c #636466",
"I  c #646567",
"U  c #656567",
"Y  c #666467",
"T  c #656668",
"R  c #666668",
"E  c #666769",
"W  c #676769",
"Q  c #67686A",
"!  c #68696B",
"~  c #69696B",
"^  c #696A6C",
"/  c #6A6A6C",
"(  c #6A6B6D",
")  c #6B6B6D",
"_  c #6B6C6E",
"`  c #6C6C6E",
"'  c #6C6D6F",
"]  c #6D6D6F",
"[  c #6D6E70",
"{  c #6E6E70",
"}  c #6E6F71",
"|  c #6F6F71",
" . c #6D7172",
".. c #6F7072",
"X. c #707072",
"o. c #707173",
"O. c #717173",
"+. c #717274",
"@. c #727274",
"#. c #727375",
"$. c #737375",
"%. c #757376",
"&. c #737476",
"*. c #727677",
"=. c #747476",
"-. c #747577",
";. c #757577",
":. c #767477",
">. c #757678",
",. c #767678",
"<. c #767779",
"1. c #777779",
"2. c #747879",
"3. c #77787A",
"4. c #78787A",
"5. c #78797B",
"6. c #79797B",
"7. c #797A7C",
"8. c #7A7A7C",
"9. c #7A7B7D",
"0. c #7B7B7D",
"q. c #787C7D",
"w. c #797D7E",
"e. c #7B7C7E",
"r. c #7A7E7F",
"t. c #7C7C7E",
"y. c #7C7D7F",
"u. c #7D7D7F",
"i. c #7B7F80",
"p. c #7D7E80",
"a. c #7E7E80",
"s. c #7E7F81",
"d. c #7F7F81",
"f. c #7C8081",
"g. c #7D8182",
"h. c #7F8082",
"j. c #7E8283",
"k. c #7F8384",
"l. c #808082",
"z. c #808183",
"x. c #818183",
"c. c #818284",
"v. c #828284",
"b. c #828385",
"n. c #838385",
"m. c #808485",
"M. c #818586",
"N. c #838486",
"B. c #828687",
"V. c #848486",
"C. c #848587",
"Z. c #858587",
"A. c #838788",
"S. c #858688",
"D. c #868688",
"F. c #868789",
"G. c #878789",
"H. c #85898A",
"J. c #87888A",
"K. c #868A8B",
"L. c #88888A",
"P. c #88898B",
"I. c #89898B",
"U. c #898A8C",
"Y. c #8A8A8C",
"T. c #8A8B8D",
"R. c #8B8B8D",
"E. c #8B8C8E",
"W. c #8C8D8F",
"Q. c #8B8F90",
"!. c #8D8E90",
"~. c #8E8E90",
"^. c #8E8F91",
"/. c #8C9091",
"(. c #8F9092",
"). c #909193",
"_. c #919294",
"`. c #929395",
"'. c #939395",
"]. c #949295",
"[. c #939496",
"{. c #949496",
"}. c #949597",
"|. c #959698",
" X c #969698",
".X c #969799",
"XX c #979799",
"oX c #95999A",
"OX c #97989A",
"+X c #98999B",
"@X c #999A9C",
"#X c #9A9B9D",
"$X c #989C9D",
"%X c #999D9E",
"&X c #9B9C9E",
"*X c #9A9E9F",
"=X c #9C9C9E",
"-X c #9C9D9F",
";X c #9B9FA0",
":X c #9D9EA0",
">X c #9E9FA1",
",X c #9F9FA1",
"<X c #9CA0A1",
"1X c #9FA0A2",
"2X c #9FA3A4",
"3X c #A0A1A3",
"4X c #A1A1A3",
"5X c #A1A2A4",
"6X c #A2A3A5",
"7X c #A3A3A5",
"8X c #A0A4A5",
"9X c #A1A5A6",
"0X c #A3A4A6",
"qX c #A2A6A7",
"wX c #A4A5A7",
"eX c #A5A6A8",
"rX c #A6A7A9",
"tX c #A7A7A9",
"yX c #A7A8AA",
"uX c #A8A9AB",
"iX c #A9A9AB",
"pX c #A9AAAC",
"aX c #AAAAAC",
"sX c #AAABAD",
"dX c #ABABAD",
"fX c #ABACAE",
"gX c #ACADAF",
"hX c #ADAEB0",
"jX c #AEAEB0",
"kX c #AEAFB1",
"lX c #AFAFB1",
"zX c #ACB0B1",
"xX c #AFB0B2",
"cX c #AFB3B4",
"vX c #B0B0B2",
"bX c #B0B1B3",
"nX c #B1B1B3",
"mX c #B1B2B4",
"MX c #B2B2B4",
"NX c #B2B3B5",
"BX c #B3B4B6",
"VX c #B4B4B6",
"CX c #B4B5B7",
"ZX c #B3B7B8",
"AX c #B5B6B8",
"SX c #B6B6B8",
"DX c #B6B7B9",
"FX c #B7B8BA",
"GX c #B8B9BB",
"HX c #B9BABC",
"JX c #BABBBD",
"KX c #BBBCBE",
"LX c #BCBDBF",
"PX c #BEBFC1",
/* pixels */
"p.h.p.H e H l e l a d b e -XpXhXh., F 6 a e V l l ; ' P.9.C.b.P.b.J.p.z.&.a a l l l , H e 9 a l a m z.h.z.p.S.h.S.b.C.9.d b a b b ; d m 9 d d d 9 }.gXuX3XC.5.C.",
"p.z.b.F , d e e l b a l , 1XpXxXC.; b e V a l , e e } P.N.S.>.h.9.b.N.S...6 a l , 6 m A d d l l e F C.S.N.z.S.p.N.p.b.p.b d l d d a m d m F 9 d ; [.bXfX+XC.y.P.",
"b.z.b.V a e m b 6 e e e , OXpXAXb.* l d V d a 9 e V } b.N.S.p.P.N.z.N.S.' a b l A d a 6 , l d e a A h.z.p.z.S.z.S.b.z.b.b e m e d b m + 9 m 9 m 9 W.gXbX-XC.z.y.",
"T T ( a b a m a 6 I T.!.P.}.(.).>., m e a e l m a e H T P } p.S.J.( H ' F e b a d l a p.T.!.3.e d a ( ( ! 9.S.N.S.N.z.h.a e H 9 d d d 9 d F J.W.P.).[.).J.y.C.C.",
"+ , l e b e b e 6 ( mXBXmXT.p.p.' 6 V e e d e d l ; l l + m p.z.S.l $ l l e l l 9 V $ 6XFXAX!., l , d e a &.z.b.h.b.b.y.a d V , d b 9 F d m gXbXbX).5.y.y.y.C.z.",
"e l e l e 6 l m 6 T pXrXgXb.p.T.' 9 d a b V 6 9 a 6 m b 9 I T.C.P.H e l d l e e e V o |.fXxXJ.$ A e d e e 3.b.z.S.N.S.y.V l , a 9 9 ; m a d gXuXbX).5.P.W.C.C.y.",
"l V , ..#.#.H a a ( 3X:X3XS.e.b.} 6 d b l d d #.#.>.T , m F >.#.#.A l 6 H >.o..._ #.5._.1X0Xb.6 V l m m l 9.N.N.b.o.>.#.V b $ #.&.-.( 9 m P }.).(.P.z.C.y.o.-.5.",
", l b 3XAXBXz.e 9 I h.p.z.J.p.E.} , l A 9 , H @XxXCXb.9 H , e a l e e e h.bXmXhXAXpXBXJ.z.N.o.e e a l b , 5.b.S...* d l e b 6 OXCXbX}.; d 9 9 ; ; o.C.C.o.9 9 d ",
", a e &XhXCX9., 6 T h.S.b.S.b.C.o.$ e e m a , :XrXbXN.$ l l l l d l a O y.mXpXuXpXrXpXP.b.N.&.d e l a d d #.S.b.#.d ; l e e O @XuXgXW.+ m a m m 6 -.C.P.-.9 d 9 ",
"e m l @XuXhX9.a d T z.N.b.p.p.N.( m T d l e b OXhXhXC.9 b V a V a d m d p.rX3XuXpXyXfXE.S.C.o.6 l l a m m >.S.b._ V l d ! I b N.gXgX).d F d d d m 5.z.z.o.d m F ",
"6 l e b.C.T.! e l H b.p.y.H l b V $ , H rXCX:X!.3.N.N.e.S.h.e 9 l e d , V ! l ( z.z.T.y.h.N.&.d b l 9 d , V l e b a l A @XrX6X@Xz.P.-.+ d d A m 6 m F F F d ; 6 ",
"e m e y.p.b.! d , b C.S.P.I d , 9 l F ( rXuX6XJ.b.b.h.p.p.b.e H l a b e d e + d z.z.C.z.b.b.#.9 F d a b a V l m A l e l fXhXgXz.z.b.-.9 m d d d m d 9 9 m F m m ",
"a l 6 e.P.!...e d m b.b.S.Q m d m a , H hXmXhX!.z.b.S.T.S.b.$ 9 , a l a l V m H P.S.b.J.S.S..., 9 $ e d l e , m e 6 6 V pXhXGX).C.C.3.m m a 9 ; d m 9 ; 9 ; 9 d ",
"; d 9 ( ! ( A e V l ' T ( e e e 9 l d m p.#.&.9.b.y.-.Q ! _ e A e d d 6 6 a d , T T H 9.z.N.#.e V F P.T.!.! , a b l d l 9.} 5.( I I A 9 d b d d a y.W.).5.9 d b ",
"6 A l V ; * e b 6 , l e l b b A l l e $ 6 + b p.S.b...9 6 e e e V b l l l b A l a d e 3.b.C.#.6 , P fXfXAX>.a l l b a l e * , 6 d m d d d b m m ; }.bXLX).a d a ",
"6 l , b d l l , 9 9 l e 9 l , ; 9 a d e V l e 9.S.P.>.e l a H d 9 , $ e , ; 9 , a l a p.S.P.#., 9 H bXrXBX( , b e e $ l , e ; d d 9 9 d d d 9 a ; +XwXCXP.. m 9 ",
", F $ d d a P #.} o.a l 6 _ &.&.( 6 V e l 6 l ..>.9.' l e ; V e m ' -.-.' o.-.! V 9 d ' 5.5.! 9 6 H &X1X:X' e 9 A 9.o.} >.&.#.T I F F 9 m d m 9 9 P.wX-XC.! m _ ",
"; l e m l , S.GXmX:Xe d e @XhXLXe.e d b F e 9 b e ; l 6 b m V V ; }.CXbXgXgXbXbX9 d m d ; 9 m F 9 a p.h.S.H 9 e e.hXuXfXbXrXhX[.C.z.-.a d 9 d d a -.C.z.z.z.z.W.",
"l l 9 d b o e.yXhX-X$ V a 0XwXpXT.d , e b 9 a e F $ V e l a ; , 9 -XbX3XuXfXwX-Xd d d d d m 9 . b V p.h.S.P , , #.mXpXgXhXwXhXJ.z.J.-.9 m d d m 9 -.z.h.b.C.z.N.",
"$ b a V a e T.xXgX1Xe b * -XuXCXp.d l d a e F a d ; F m b b I P ; ).bXgXuXwXuX6Xd d d d d d A T e A 5.z.S.T a l 9.hXwX6XpXrXfXE.5.P.-.; m m d a d -.C.C.C.N.y.y.",
"d b a ).6XuX}.h.b.b.l A d b.C.b.S.3.b.b.h.p.C.T m A l 6 9 I 1XwXuX).z.z.N.P.W.5.d d d m b d -.3X6X&X_.P.S.T 9 a _ J.T.b.J.!.T.N.z.P.o.; m m m m d F A 9 d F F m ",
"e d l rXfXhX_.z.S.y.e 9 d 3.b.p.b.h.N.h.N.C.N.l * F l V b T gXpXwXC.e.W.z.y.S.y.d d d b e 9 5.FXhX1Xp.>.z.Q e l ( p.P.p.y.p.3.N.z.J.-.9 m b d 9 d b m d 9 d d d ",
"$ + , -XgXmX+Xe.N.>., 6 V 9.J.J.b.S.z.9.b.b.b.A b e ; ; ; P pXhXbX(.5.z.C.z.P.N.9 d l d 6 & -.SXhXrXb.b.P.( 9 9 o.C.S.N.J.S.z.b.N.z.-.b m 9 d d 9 ; d m m d d m ",
"P.(.T.@X!.(._.y.S.e.b V l T ! T >.b.b.b.P.h.z.T e e 3.!.!.P.@XE.W.W.C.z.5.! ! ! d b m -.[.(.J.OX(.|.p.N.C.I 6 b V #.I ' z.b.N.#.' ! I 9 d I y.T.W.o.d d d m m d ",
"bXfXmXp.p.p.S.p.S.9.e d l , l + ! S.p.N.e.S.C.A e , p.AXmXfX9.z.y.C.y.P.o.; d 9 a k a [.mXfX+Xh.x.d.a.x.D.B s z d u 9 h C.v.n.m ; d m ; d F gXgXFX..6 k k v r b ",
"wXrXbXT.N.h.b.h.S.y.l l m 9 V 9 } P.S.T.b.h.b.I l e y.bXyXwXy.b.h.z.y.C.o.; d e 7 6 6 |.KXFX;Xe.x.n.Z.I.~.W s s d d h C C.C.R./ d d m 9 9 F 0XgXxX..* r a a d a ",
"@X|.|.N.p.z.e.9.>.} a l b e A e ( >.#.>.e.9.9.H 9 ; 5.yX-X:XC.S.C.C.z.P.&.a m A k b k N.[.~.W.C.Z.x.;.O.4.Z z s m d x d -.$.4.F m 9 F ' ! o.[.3X8Xh.I ^ P 6 b 6 ",
"  O a -.b.J.! , m V 6 d m e l 9 , F m l d * a 9 V 9 _ J.5.z.y.b.p.z.z.C.' ; 9 d 6 a 6 v 6 & ^ x.x.u.Z r z r k z m d h 9 Z h C > 9 ; y.CXCXgXP.z.5.-XFXPX).= B k ",
"H A d 3.b.P.( , 6 a e l m l l 9 a d $ ; b l a e e a } S.z.S.b.b.z.z.C.C.o.9 9 d B b k v k r o.K.d.t.B 0 z z z k z s z s z d z s A + -.uXuXuXC.y.J.1X0XyXR.2 B * ",
". 6 l 9.b.z.( a d l d l d l l a d H a m l V 9 H e V ..z.N.N.p.5.C.y.y.z.' b d m r 2 a a k r ^ x.x.d.B r z z s s z s z d z z s Z 9 ; y.gXuX3XC.d.,.&XgXgX~.- m r ",
"a V e V m m V d l l b e a l e 9 >.wXyX|.l ; a !.rXwX(.z.N.N.S.P.z.! F F m 9 9 d b r S k d = ^ D.Z.a.s 2 2 k r z z 9 z z d z 2 k d 9 ' P.C.P.C.C.z.K.W.D.d.& z d ",
"6 l , l l e V 6 e d V l b V e 6 N.bXpX+Xe a m @XgXhX[.h.S.b.p.h.C.P ; 9 d b d m b 2 k r v r ^ x.x.t.f f k B s z Z q m z z B 2 z m 9 ! z.z.C.P.z.z.z.z.q.t.; z z ",
"d 9 d 9 d d d d d m 9 + 9 9 * + z.bXCX-X9 9 d 3XCXgX+XC.z.z.P.z.z.F F d d m $ d 9 ; * m d 9 ' P.P.y.e 9 9 d d d a + 9 ; d m b d 6 & S k.J.i.x.x.J.z.D.P.$.h q z ",
"9 d A d d d 9 d ; I P.P.).5.o.o.3.9.y.-.m d 9 -.5.5.y.z.C.h.o.' -.d 6 ; e P m F C.E.C.' d 9 P ' ! ' m F F m 9 ; o.W.P.y.m m ; -./.B.k.k.h.e.B.x.x.o.` o.Y i s h ",
"+ 9 d d 9 d m m d o.bXwXbXC.z.P.' + ; 9 F 9 ; 9 * + ' N.C.-.9 ; d e F F m 9 9 P gXCXBX' ; 9 d ; ; 9 ; ; a 9 m d y.LXbXuXF F * -XcXxX8XB.J.B.J.a.C.W 9 q z s h h ",
"a m 9 m 9 9 9 9 . H xXgXFXP.h.C.' ; d d m 9 F d d 9 5.C.P.y.9 d a 9 + ; 9 9 l I uXuXbXF 6 d F d 9 m m m m 9 d O -.bXuX6X9 9 + +XZXgX;X*.a.h.C.x.P.! 9 9 h z z s ",
"; d ; ' o.o.' ' o.e.+X-X1XP.y.C...F ! ! A m ! d A 9 o.o.-.-.l F d o.o.-.! 9 m F wX-XwX..Q I F F I I d ; 9 I -.I (.3X-X-XA m m z.|.).).a.K.D.5.q.8.I z z z z z s ",
"d F P -XgXbXxXgXbX3XP.N.z.z.y.P.J.C.z.C.z.P.C.I 9 ; m 9 d F 9 d 9 +XCXCXP.; 9 m z.-.P.y.C.z.b.W.P.y.m d m ).CXCX}.z.C.z.d 9 d d 9 9 } a.D.t.9 = Z h d m d s z s ",
"; 9 9 -XgXuXwXuXuXwXy.N.C.C.P.z.z.z.y.z.C.P.z.m b d d d d d d d 9 +XuXuXP.a m m S.N.P.C.P.z.y.z.C.y.d m 9 }.gXuX-Xy.C.9.m a m 9 d ; W C.z.C.B B 9 2 d z s s z h ",
"d m 9 3XgXuXwXgXuXuXy.y.C.z.T.y.z.C.J.z.P.y.C.Q d d 9 m m d l b ; -XgXgXP.; d m C.C.z.N.z.p.C.C.C.z.d m ; }.bXuX|.z.P.y.F 9 d b m 2 ! K.y.C.r 9 z d z z s h z d ",
"d d d F I A I F F F F F m m m m -.C.C.5.m F m d d d 9 m d F wX:X1XP.C.P.' 9 m b m F d y.P.y.J.y.z.h.F 9 b m I m ' W.y.C.y.e.z.I > m z d F G k s a A b 6 &.yXOX1X",
"; 9 m 9 b 9 d 9 9 9 d 9 m d d + ' z.C.5.d d d d a m m m 9 I gXgXuXW.h.C.o.d m d 6 9 9 -.C.y.J.z.J.y.d 9 d m d ; ! P.z.z.C.z.P.I s h z - q s B z a A a * ,.xXfXxX",
"m d m ; 9 9 e 9 d d m 9 A d m ; o.h.P.y.d d d d ; d m b ; I bXgXgXW.y.z.o.6 ; ; d m m 5.C.z.P.N.P.y.m m d m 9 9 ' z.z.z.P.y.C.I 9 - z q 9 - s > * a 2 * &.yXeXfX",
"; d d y.P.C.o.d e m m d d d d d I I ' ! 9 d m 9 m a e d 9 F +X}.}.C.h.P.y.' o.o.d d a T o.! ' ! ! ( d m a m 9 d ! C.z.e.o.! o.F s ; ` R.G.D.R.n.J.J.J.h.E.$X(.[.",
"+ F 9 wXCXbXz.; d d 9 b a m e d d 9 d d 9 d A d m a d b d m z.h.z.z.y.C.C.z.P.C.d a ; d d 9 d 9 6 d 9 d 9 F 9 9 I P.z.y.d 9 9 a m 3 @.MXdXMXlXbXxXfXxXfX<XK.w.k.",
"; F + -XbXbXz.; F 9 ; 9 d m d m d d d 6 d ; , 9 ; 6 9 9 m F y.C.z.P.z.y.z.C.C.5.m m d d d d d d d a 9 + 9 m 9 d ! P.z.C.9 d ; d h q :.SXlXbXtXuXyX0XfXfX$Xi.q.k.",
"m _ ' ).-XwXy.9 b d o.' -.9 a 9 d d d 9 o.' ! _ ! -.I ; d F -.y.o.C.C.z.y.5.y.-.d d d 9 d d d b m d o._ &.m ; d I 5.o.5.b F d m q q -.].XXXX3X-X0X-X0X1X$Xk.B.D.",
"bXuXuXP.z.P.! 9 9 ! bXuXbXF A 9 9 d d ' wXgXgXgXfXbXC.; d m m 9 d 5.C.z.' 9 9 d 9 d m d d b d d 9 I wXgXgX} 9 m a m 9 d ; d d 9 m > Z @ d h h.N.z.i.x.h.B.i.K.e.",
"uXgXuXC.C.z...a 9 ! gXgXfXI ; d 9 F ; I uXwXwXuXyXgXC.+ d m m 9 d 5.z.b.o.a e d m m d 9 m 9 A 9 a m gXpXgX' ; m m 9 m 9 A e d ; d d m m d d z.z.z.C.C.z.z.z.z.C.",
"3XuXfXP.C.z.' m 6 Q wXwXuX' d d d m 9 _ gXgXuXbXbXuXz.a 9 a 9 F d 5.C.C...9 b F d d 9 m m ; d 9 d I 1XuXgX#.6 9 m d m 9 m d d I d d d + m F C.C.y.C.C.z.C.C.z.z.",
"C.W.W.! I I m d d I ).W.).F d d d d 9 d ..I F e.z.C.}.3XwXW.m 9 d I I I m 9 d d d m m W.3X&XwXwX-X}.W.P.T.I ; m b m d d d d d y.wXwXP.m F 9 F 9 L 5.z.z.N.C.N.p.",
"y.z.y.d ; 9 d d 9 F z.5.h.m d e d b m d 9 9 9 y.J.9.).gXbX3XP d d ; ; 9 d d m d d d ; +XbXgXuX3XBXuXN.y.z.F 6 d d d 9 b d b d ).bXgXW.; m d F m + -.P.C.z.b.C.C.",
"z.C.J.I m d d b ; I z.N.C.P m 9 9 ; ; d ; F m y.P.y.+XbXuX+Xm + d ; b F d 9 d d 9 ; ; ).bXbXbXxXwXwXz.z.z.Q 9 d l d 9 m m d 9 ).CXbXW.+ d 6 9 9 9 5.P.z.z.C.J.C.",
"z.z.z.F d d F ' ! 3.C.C.C.F b 9 -.J.C.y.d A a I -.' J.}.(.).C.C.C.F d m d a 9 m P.C.z.).).(.W.).+X+Xz.y.z.o.' ..! d d m m d ; P.+X+XP.! -.' b m m ! ' ! #.C.C.z.",
"z.z.z.m 9 b o.P.z.C.z.z.y.m d ; C.bXxX3Xd d 9 m + + o.C.C.W.uXbXCX..9 9 d F m I bXgXgX).z.z.z.z.5.z.z.C.W.C.C.C.#.9 m 9 m d ; e.y.z.z.z.S.z.d m d d 9 , ! z.C.z.",
"y.C.C.I 9 9 ' P.C.C.h.J.C.I d ; y.bXuX1X9 d m 9 m 9 o.z.C.C.gXgXpXI ; d a d 9 F gXfXbXC.z.C.z.z.C.z.C.y.z.y.C.P.5.; m 9 m d 9 -.P.C.h.C.C.z.a m d m d d ' z.J.C.",
"4.t.,.L 2 s ` a.5.y.t.d.8.F q s p.wXwX).m 9 d A d 9 &.y.z.).+X0X0X5.I ! F 9 d I -X-XOXP.z.N.C.p.z.z.C.z.C.5.5.z.' d d ; b d m ' y.e.5.y.5.-.m d 7 d * k E q.o.a.",
"- 2 s k k k s 2 q d s ; z s d > I C.p.h.9 m d m a ; ' z.z.z.z.C.N.+XgXCXP.d ; d d ; d -.C.z.C.P.N.z.C.y.h.I d 9 9 9 a m d , ; F d d 6 ; d m 9 9 m G a a d G 6 6 ",
"2 f z z z B z s m m m q z m C s o.P.y.y.9 m 9 + d 9 ' P.P.C.y.z.y.-XgXbXC.d m 9 m o 9 5.W.N.5.z.z.y.C.b.C.I d 9 m d ; m d F d d 9 9 9 d m l d d 9 B r r r B 9 2 ",
"z z k r 2 0 k B 9 q m G q z - - I C.P.z.9 9 m F l d ' z.h.z.C.C.y.wXgXgXy.; F d A d F o.C.C.C.z.z.y.C.P.C.I d m a m d e 9 9 d 9 d d m d 9 ; m 9 6 a d A v d b A ",
"r s s k z Z k 2 z z > z 2 {.,XjX).z.y.p.+X3X+XF 9 d m I m ! z.z.5.W.P.}.5.; V d 9 d d d m F I F I ! 5.N.C.F , d F 6 ; I 3XwX3Xo.; 9 m 9 m Q |.1X0X1X&X$Xa.2 2 7 ",
"z z z s s k z z s Z s C s aXuX7X}.y.z.P.CXbXuXI ; d d 9 $ I C.C.C.z.o.y...9 m 9 m m m m d 9 9 a + m 5.P.P.I d d m 9 d ! uXfXuX' d d m ; 9 A 1XfXyX0XuXxX_.s k B ",
"2 r r 2 2 r s s s 2 2 @ - =XjXSXOXy.z.P.gXbXgX( 9 m d m d I C.z.C.P.W.).o.6 d m + $ 9 9 d d d d d ! z.C.C.I 9 9 9 6 + F 0XbXbX5.& 9 b 9 m Q fXxXxXfXgXbX).2 s r ",
"r s G ,.D.D.| 2 B z n.G.v.{.{. XP.z.C.z.z.y.C.m a d 9 m 9 d o.' o.! _ ' F d l m C.C.z.o.' o.I d 9 m ' ! ' m d d ' z.z.N.}.}.+X&..._ ! d a d }.[.}.).[.+Xz.& Z z ",
"0 G + aXVXCXa.9 6 ^ xXBXfXJ.e.e.y.J.h.h.+ 6 b ; A 6 A b 9 6 b O * 6 a 6 6 b b F xXxXBXW.J.C.&.6 a a 9 6 a b d ; 3.KXfXfXh.N.y.N.k.N.2.= v A h.h.d.t.8.n.$.s h q ",
"2 k 2 ;XgXVXa.2 a _ fXfXyXE.h.h.N.N.y.y.a b a 9 6 * d 9 b a b a F b b a d a 6 A fXyXgXP.z.N.&.a b a a b 9 b a * 3.fXyXyXz.N.h.C.k.N.2.7 b d 3.q.D.C.n.R.:.i h z ",
"v ^ } |.;XfXq.9 a Q 1X1X0X(.N.h.C.h.h.e.b m 6 ..! ..P ; A a d m a 6 6 6 m b 6 P 0X1X0XJ.N.N.o.6 d 9 6 b ; ! ' P J.1X0X-XC.N.h.e.f.w. .= d A N.E.G.y.4.t.{ s i h ",
"gXfXeXK.z.D.^ r a b N.h.x.h.k.J.N.h.C.e.a d 6 [.yXfXC.6 m b a d d b b a A m 6 A z.N.J.h.z.N.&.a b b 9 P b }.gXyX(.h.J.h.N.J.z._ = p v 7 b b e.h.n./ s Z Z d h i ",
"0XyXfXB.y.z.' k 6 A N.N.N.N.h.h.N.h.J.e.9 a a 0XgXBXC.  6 b b a ; a A a d d 6 b z.N.h.N.N.N.&.6 b A 6 a * [.xXfX1Xh.N.e.J.C.z.A d a b a a A h.J.D.G ; 2 k m z k ",
"yXfXgXE.P.C.^ * a A N.J.N.E.N.h.N.h.C.e.b A a }.fXfXP.6 9 b m 9 b 6 a 6 9 b d A J.C.e.N.N.C.&.a 6 a 9 b b [.xXfX&Xh.N.e.J.z.J.P A 9 6 d a m y.N.C.I z z z k s m ",
"K.J.h.A B P I m A b P a b e.h.N.N.h.N.5.d A 6 h.P.J.N.&.5.C.&X+XOX_ A A b b b b F P b 3.z.J.-.d A A m b 6 P ! Q Q m F Q h.h.E._ 6 6 Q z.y.e.N.y.G.E m d d z 9 b ",
"q.x.a.E r 2 k d a * b 6 b e.h.N.h.N.N.e.6 d a 5.N.e.J.J.C.E.yXxXxX_ * d a a b b 6 d a e.N.C...* a 6 9 d b 6 6 a b a * A h.y.J.b d a Q N.h.e.J.h.R.G 9 > d F a b ",
"h.z.z.A 9 6 d d d d a m * e.J.N.N.h.J.h.d 9 a h.J.N.N.h.h.(.wXxXxXQ O 6 a a 9 a a a A -.E.P...a d a a a a a 6 6 a 9 b P h.C.J.Q a d ! z.R.C.n.P.P.^ r m 6 k & 2 ",
"y.z.C.o.' } P a m b b F 6 h.N.N.e._ o._ a a 6 Q .._ 3.C.N.P.OX&X[.N.-.h...d P a a a a P ' ' P 9 a b d m 6 3.y.N.o.6 6 b _ ' ..m d d G o.$.{ ` ' ,.G r r B k.a.x.",
"y.z.C.x.C.E.' a a a a k 6 e.N.N._ + a a b A b A a ; _ J.z.5.e.3.e.yXBXKXh.  F m a d a d d d a a 6 d 6 m 6 1XBXGXE.6 a d m b b d q 9 q z d s 2 2 7 * r k e.FXmXxX",
"q.h.z.N.h.E._ 6 b k d d a e.D.E.&.6 b 6 b b 9 6 6 + _ P.J.N.E.N.h.-XwXFXE.+ b ; a b b d a a a b b a a d ; +XyXyX(.* d A d a 6 a z z z d s z z h G d a X } xXfXuX",
"C.P.C.z.-.y.! m b a a a b o.3.e._ a A 6 b 9 a Q _ Q -.y.5.h.N.y.J.+XyX0Xz.A P ! a a a a b b d a b O I P I (.uXxXN.O b b a d a a d h z h h B Z z 6 B ..E i.qX2X2X",
"5.y.5.I 9 m 6 2 9 6 a a a A b b a ; b 9 b d P (.fXwX&XJ.h.N.C.h.h.h.h.y.OXCXgX1Xb a 9 a d b d a 9 A fXfXyX(.N.y.3.* b a a b m b q h h q s d d s B K.xXeX;XQ.f.k.",
"C.C.C.I d m m x b a b a b b 6 9 b b b 9 b 6 a &XgXgXOXh.y.N.N.N.z.C.J.5.E.gXyX1Xd d a a a a a a b A fXyXwXJ.h.E.&.a a a b 6 b a C h h C z z d z 9 _.BXyX$Xw.i.B.",
"5.y.z.m 9 ; 9 9 a 6 a * a a 6 b 6 a * ; a 6 * &XyXfX[.y.h.N.e.z.y.h.e.h.[.fXwX1X; 9 d b 9 ; 6 a 6 d 0XyXxX(.3.h._ 9 * a b * a ; q > > q s 2 9 d O ~.fX0X;Xe.k.i."
};
