/* XPM */
static char *_5198685b91041c6d29872fb9ebcbeaa5c6D8oJeeG8HPOzj[] = {
/* columns rows colors chars-per-pixel */
"80 80 252 2 ",
"   c #050501",
".  c #0B0C06",
"X  c #0D0E08",
"o  c #160E04",
"O  c #0E1108",
"+  c #141204",
"@  c #1B1404",
"#  c #131309",
"$  c #19160A",
"%  c #191A0A",
"&  c #1C1A0B",
"*  c #1A1C11",
"=  c #2F0E03",
"-  c #271905",
";  c #231D0B",
":  c #341400",
">  c #351A03",
",  c #3B1D00",
"<  c #1F240D",
"1  c #1D2615",
"2  c #2B2506",
"3  c #25210C",
"4  c #2B240C",
"5  c #3D2203",
"6  c #332C0D",
"7  c #382A09",
"8  c #383107",
"9  c #3C330C",
"0  c #242313",
"q  c #2A2916",
"w  c #362C13",
"e  c #2C381A",
"r  c #3B3212",
"t  c #36361A",
"y  c #323427",
"u  c #363A23",
"i  c #450A01",
"p  c #5A0701",
"a  c #491A01",
"s  c #551A01",
"d  c #6A0500",
"f  c #780100",
"g  c #6D1000",
"h  c #432302",
"j  c #492907",
"k  c #552B06",
"l  c #47340E",
"z  c #583309",
"x  c #422D13",
"c  c #433A14",
"v  c #493816",
"b  c #443D1A",
"n  c #583A15",
"m  c #642C01",
"M  c #742F01",
"N  c #64390B",
"B  c #7A3201",
"V  c #653E12",
"C  c #402E21",
"Z  c #453E22",
"A  c #2E4811",
"S  c #354516",
"D  c #344C15",
"F  c #3C441C",
"G  c #364C19",
"H  c #3B4C1C",
"J  c #375219",
"K  c #3B521D",
"L  c #3A4626",
"P  c #3E4D21",
"I  c #3E5421",
"U  c #3F5726",
"Y  c #3D4430",
"T  c #4B431B",
"R  c #43491D",
"E  c #59441B",
"W  c #40511D",
"Q  c #70450B",
"!  c #694518",
"~  c #774B19",
"^  c #7B551A",
"/  c #4B4423",
"(  c #434D23",
")  c #474A27",
"_  c #544B22",
"`  c #584B28",
"'  c #435324",
"]  c #435A25",
"[  c #475729",
"{  c #4B532A",
"}  c #4A5D2C",
"|  c #57552A",
" . c #5B542A",
".. c #4B5B35",
"X. c #565933",
"o. c #6D5024",
"O. c #65572C",
"+. c #765727",
"@. c #655D32",
"#. c #6A5C34",
"$. c #49642B",
"%. c #4B632D",
"&. c #55642F",
"*. c #4D6432",
"=. c #4E6735",
"-. c #536534",
";. c #536B35",
":. c #586438",
">. c #556C39",
",. c #5A6C3B",
"<. c #57723A",
"1. c #5B733D",
"2. c #537839",
"3. c #5C7A3E",
"4. c #6C6435",
"5. c #69643C",
"6. c #746537",
"7. c #746B3A",
"8. c #776F39",
"9. c #5D5C50",
"0. c #5B6B42",
"q. c #5D7441",
"w. c #5E7C42",
"e. c #5C7E45",
"r. c #666A42",
"t. c #627543",
"y. c #627C45",
"u. c #697649",
"i. c #657D49",
"p. c #6A7D4B",
"a. c #787345",
"s. c #71724B",
"d. c #8F1200",
"f. c #912F01",
"g. c #A83D00",
"h. c #B23A00",
"j. c #8E5711",
"k. c #83541D",
"l. c #895719",
"z. c #AC4200",
"x. c #B94300",
"c. c #8F6319",
"v. c #AE711A",
"b. c #875A24",
"n. c #945F22",
"m. c #96662A",
"M. c #8E6A34",
"N. c #976C33",
"B. c #AA7737",
"V. c #A57638",
"C. c #AB7B3B",
"Z. c #C47016",
"A. c #837B48",
"S. c #967843",
"D. c #A37B40",
"F. c #5D813E",
"G. c #5D8143",
"H. c #5F864A",
"J. c #638245",
"K. c #65834A",
"L. c #66874A",
"P. c #6A834C",
"I. c #6A894D",
"U. c #71814F",
"Y. c #658650",
"T. c #6C8551",
"R. c #6D8951",
"E. c #718553",
"W. c #728A55",
"Q. c #758C59",
"!. c #7A8D5C",
"~. c #76925A",
"^. c #7B935D",
"/. c #79975C",
"(. c #7C8E61",
"). c #7D9562",
"_. c #7D9A63",
"`. c #AE8838",
"'. c #D78E1E",
"]. c #D18C24",
"[. c #E29B29",
"{. c #DBB135",
"}. c #E9A42D",
"|. c #EFB132",
" X c #F2CE3A",
".X c #F4CC3C",
"XX c #8B8550",
"oX c #948B53",
"OX c #9B935A",
"+X c #AB8547",
"@X c #B88846",
"#X c #BE914D",
"$X c #AE9858",
"%X c #908D6E",
"&X c #829C65",
"*X c #869A69",
"=X c #A59B63",
"-X c #85A269",
";X c #8BA46E",
":X c #8DA472",
">X c #8EA973",
",X c #92A575",
"<X c #92AB75",
"1X c #96A778",
"2X c #9BA47B",
"3X c #95AC7A",
"4X c #9AAC7C",
"5X c #94B277",
"6X c #96B27B",
"7X c #9AB27C",
"8X c #ABA266",
"9X c #B3AE72",
"0X c #C4934D",
"qX c #C59952",
"wX c #CD9A53",
"eX c #CC9C55",
"rX c #CAA75D",
"tX c #D3A35A",
"yX c #D8A85E",
"uX c #DAAC61",
"iX c #D7B96B",
"pX c #C8B973",
"aX c #E0AF63",
"sX c #E5B769",
"dX c #EFD242",
"fX c #F9D842",
"gX c #FBE64A",
"hX c #FCEF58",
"jX c #D9C879",
"kX c #E7C977",
"lX c #F1D17A",
"zX c #F9EB76",
"xX c #9DAC81",
"cX c #96B381",
"vX c #9BB281",
"bX c #A6A78C",
"nX c #A1B484",
"mX c #B5C396",
"MX c #CFC786",
"NX c #E9D784",
"BX c #F5DA84",
"VX c #E8CF97",
"CX c #EFE18B",
"ZX c #FBE68C",
"AX c #FAEB94",
"SX c #FEF89C",
"DX c #CEC9AF",
"FX c #ECDEB8",
"GX c #FBF6A8",
"HX c #E0DAC3",
"JX c #F5F4D2",
"KX c #FDFEFA",
/* pixels */
"2.G.G.G.F.J.G.3.3.3.3.J.3.3.3.J.F.F.F.3.3.3.u.{ t F ( F G } t.:.> , 2 > : : 7 Q.p.t.p.) ( ) F R G D J.F.3.3.y.3.3.K.3.3.y.3.K.I G H } i.y.q.3.3.J.3.3.U.,.S ) ( ",
"G.G.G.G.J.J.K.K.L.P.I.U.J.J.P.J.J.J.L.F.U.U.p.t e L e S L } :. .Q ~ ^ ^ ^ c.^ a.:.X.r...( ) ) ( H J K.K.J.P.P.J.J.P.K.J.R.y.R.$.H H *.Y.K.K.K.K.J.J.a.Q.0.( { ) ",
"G.H.H.H.J.y.K.P.P.P.p.3.J.U.P.J.J.F.K.i.P.p.X.# X # O * S ' 9 N Z.|.dXdXdXgX{.! = , / { ( ) ) [ ] K K.J.y.L.J.q.K.y.K.w.K.1.K.$.K ' %.p.P.R.y.K.I.I.P.p.;.' P F ",
"H.H.G.H.K.J.y.y.y.3.$.%.$.3.P.3.F.J.K.U e e r k m k a = v O.Q `.|.gXgXgX XhXgX`.c.j.Q r u ' -.r.1.<.P.K.K.P.K.K.~.&X;X-XR.L.R.e.<.<.1.L.i.y.%.] ] W } $.=.t.u.i.",
"y.y.y.K.P.P.P.y.P.y.G J D J.p.U.K.G.q.1 O X j g.x.h.d.f i z Z.|.fXgXfX|.[. XgXgXfX}.v.j w ( :.p.P.y.P.i.y.P.i.i.~.<X6X<Xq.i.i.y.L.K.P.P.i.t.U P ] K I D *.K.K.i.",
"i.K.p.p.p.P.U.p.U.t.K K D 3.J.P.K...t m B M f.x.h.d.d.f = z ].|.gXzXGXaX'.}. XgXgXfX}.v.Q 9 t Z v / t.i.t.i.y.t.&X6X7X3Xe.I.i.L.J.3.J.p.K.Y.U ' K K I G *.Y.K.L.",
"i.E.p.,.;.,.1.,.;.,.-.;.;.t.p.K.e.1 ; f.x.z.z.g.d.d f f s N ].|.dXSXKXNX[.'.[. XgXgX.X}.c.a h k z n u.).W.(.).^.&X).).).i.K.K.K.K.J.K.y.y.i.U P ' =.>.*.<.L.e.G.",
"u.P.t.} H H W H H %.P.U.W.K.P.p.q.e # s m s s s s i : s j.]. XdXgXAXKXZX X[.'. XgXgXfX}.j.> +.#XiX$X` C v s.4X7X).y.y.i.Y.y.i.y.F.J.L.i.i.T.' U P q.p.p.K.L.G.G.",
"u.U.u.] K H ' ' G } p.i.i.i.i.i.i.t @ , l E _ E E n 5 j Z.|.fXfXgXzXJXGXzX|.|. XgXgXdX[.j.M m.eXAXCXM.! V O.XX1X).y.P.Y.y.K.P.q.J.F.J.J.P.8.' I P 0.p.K.L.G.G.G.",
"u.U.u.} ' H I [ K %.i.i.T.Q.E.p.E.v h N N.iXNXNXiX@X! h v.|.}.|.fXgXhXGXJXzXfXgXgXgX X[.'.'.Q ! pXGXCXiXeXb.c s.*Xy.i.R.y.P.R.J.F.J.I.J.L.3.} ' [ e.i.i.L.L.L.L.",
"D R ' H ' ' >.P.P.p.p.y.Y.!.s.s.| 2 j b.qXZXGXSXBXyX+.a j.v.'.}..X X XlXFXlX XfXfXdX|.[.}.}.Q 5 $XZXZXlXeXm.z ` u.q.K.R.e.K.L.J.I.L.2.D J K y.I.y.T.T.p.K.w.K.w.",
"' W ' J ' J ;.R.p.K.P.i.T.s.j 5 , : k B.iXZXSXAXlXeX~ > = N ].}.[.[.[.}.}.[.}.dXdX}.].[.}.}.Q h C.aXuX0Xb.b.k.N 5 X.e.Y.y.K.J.G.3.J.2.J $.W K.P.i.R.y.K.K.K.P.P.",
"J H H D U K =.Y.P.K.Y.,.X.O.b.m.b.V ~ #XsXkXkXkXsXtX^ 5 +.S.n.v.[.].j.j.j.Z.|.fXgX|.|.}.].j.z h b.`.C.B.V.C.C.V.b.E { P.L.L.G.K.J.J.;.A J W 3.J.K.K.y.P.p.p.p.u.",
"1.3.3.1.q.>.3.L.q.Y.>Xs., b.tXuXtXN.b.#XtXtXeXeXyXeX! j pXNXn z '.n.5 = h v.}.fXgXhX X[.j.> : h ~ k.k.N.eXyXtXyXeX+.5 ;.J.J.G.L.P.E.P.<.F.3.L.J.I.K.y.P.1.&.%.} ",
"y.p.U.p.R.K.K.K.L.R.6XE.: M.NXZXNXD.k.n.C.wXuXtX0XV.z z uXiXv : N z > j ! Q l.].fXhX{.j.j > - h ~ n.k.V.eXuXtXyXtX@Xb.E { w.G.J.3.P.U.3.L.L.F.J.J.3.y.U.;.' ' ( ",
"y.K.L.3.Y.K.K.q.y.K.,Xs.l S.AXSXBX@Xk.b.m.0XeXeXB.~ j h D.C.V j k h a ! l.j h v.[.dX`.8 : a a h V k.~ m.0XtXtXtXtXsXeX! 7 3.F.J.L.J.U.J.J.L.F.J.P.J.I.I.;.H ( ( ",
"J.J.e.K.K.J.W.~.XX&Xv o.V.iXAXBXiXqX0X0XC.V.V.N.~ j @ @ x ~ D.@XC.+.> z k.k.! N Q Q z 5 p d d p s k j ! m.@XyXtXtXlXjX! w w.L.L.F.J.K.K.K.G.K.y.K.1.<.;.;.;.%.;.",
"y.J.w.K.G.y.&X1X1X1X, ~ eXkXNXsXeXtXuXeXC.k.B V N j > ; = k 0XsXsXD.V ~ m.n.k.k 5 h 5 5 p f d.d.s 5 x l V m.0XwXyXlXkXM.n X.q.2.L.L.J.w.w.K.R.P.I.%.D D %.P.P.p.",
"K.P.K.K.y.1./.7X4X4X> ! 0XuXyXyXtXuXeXB.^ k , a z k.b.~ h z #XaXyXwX0XqXwXm.k.~ ~ k.! h i f f.h.m 9 ;.| h V m.@XyXyXtXeXV.z ) G.J.F.P.J.J.P.K.y.y.%.] J =.P.P.P.",
"1.y.P.R.I.I.&X:X*X:X> ~ uXiXeX@XC.`.B.k.N z n o.k.b.n.k.5 7 +.@XwXuXuXaXyXeX+Xn.^ ~ N h s d.h.z.m l 3.J._ l N m.@XuXiXsX@Xz r e.P.3.3.J.K.I.y.P.E.;.J A %.P.p.t.",
"2XxXcX,X>X>X_.Y.T.T.: +.NXBXtXD.b.b.k.j j ~ V.eXC.b.l.k.4 . = ~ 0XuXtXeXtXBXNXD.N a , , M h.x.g.m l ,.U.J.T h N n.iXAXsXD.k b i.K.P.&X7X5X;XP.3.P.$.G G ;.I.E.T.",
",X1X2X:X3XcX_.e.Y.K.: 6.AXZXtXqX$XrX+Xq = ~ V.@X@XC.m.b.V w : V eXeXB.b.M.VXJXFX=Xn = , B x.x.z.m 9 ,.U.y.R , N b.kXSXsX#XN.o._ &.u.E.<X<X;Xp.J.p.$.K W -.y.i.p.",
"xX2XxX:X3XcX(.e.i.i.> #.NXkXeXsXAXSXNXZ @ ~ l.k.C.tXB.k.b.k.j V 0X#Xb.k w bXKXKXDXn = , M z.x.g.m x 1.E.p.R h z b.jXZXiXtXaXV.j b p.&X4X5X7XP.p.P.;.G D %.T.p.i.",
"2X2XxXcX3X3X).Y.K.K.:.4.+.+XuXsXkXAXCX$Xo.w j k.@XuXV.k.n.k.; > V N.0XV X y 9.9.9.j > 5 B x.x.g.m 7 ( [ *.&.| n N m.qXlXBXsXC.j ` &X&X&XP.XX$.$.$.;.1.1.R.*X:X*X",
"2X2X2X2X3XcX~.e.Y.q.Y.=.w ! @XwXtXlXBXkX+Xq ; ~ V.eXC.m.b.n * . = +.0X6.0 .     - > 5 5 M z.x.z.m 7 S I K 1.Y.| 7 k b.pXBXrXN.h 9.2X*Xt.p.u.] J D q.E.i.Q.1XxX,X",
"2X2XxX2X3XcX_.H.Y.Y.Y.i.q._ V V.yXsXsXaX#X7.u ; n N.0X0Xn . X o , h n N.+Xt   k N h , , M h.x.z.m 5 F I I 1.p.y.,.r w 7.OXXXO.& ..1X;Xu.U.3.K D G >.T.u.!.xXcXxX",
"2X2X2X%X*X-X~.y.Y.i.0.>.<.-.r +.C.+X@X#X+X8.L # - V N.D./ * % @ : : i k.@XO.Z N.m.h : 5 M x.h.g.m 7 R ] I t.W.I.3.q X L  . .t O ..xX*Xu.P.P.;.&.$.q.i.e.Q.xX,X1X",
"1X,X,XR.i.e.i.y.T.y.J D K 1.p._ z l T 6.6.b r 6 3 # # 0  .O.9 2 # = f g k S.tXaX+Xj = > B x.d.f s 7 H K G <.K.q.R.e X 3 9 r 3 X ..1X*Xt.P.E.y.L.K.I.p.e.(.xX2X2X",
"4X4X<XR.e.e.P.P.y.t.W W ] 3.K.} / 7 7 E T 9 6 6 w w o . b O._ c & = i i , +.N.N.b.+. .n N f.f f d s c H K q.R.,.` ` O.+.+.+. .x / s.&Xt.P.y.J.J.K.K.y.t.&X2X2XxX",
"-X;X:XR.i.I.K.3.p.t.] K ] 3.R.I./.` h h h w 6 w ! b.x . - c #.O.l ; o - a h a , E 8X8X7.T h p f f d s 8 I <.K.( h V.uXwXrXtX@Xn.V h r.t.P.K.J.J.w.P.P.P.*X4X,X2X",
"J.L.L.G.w.K.=.' ' } u.t.p.P.y.3.w.:.| | T 7 ! N.V.n.x . ; l @.O.8 2 3 @ = ` A.%XbXFXDX=XO.5 p f d.f k l ,.q.E o.V.C.0XwXyXyXeX`.~ , x _ i.K.K.K.L.&X,X*X1XxX2XnX",
"G.J.G.K.K.R.*.G H } a.p.P.p.J.J.G.J.J.w.0.7 +.qX@Xk.7 . 2 c @.O.c 8 8 @ # a.MXJXKXKXFXpX8.5 p f f d a T y.X.5 N.eXN.k.0XyXtXuXaXN.h h j &.y.K.K.y.*X7X4X4X4X2X2X",
"G.L.w.i.i.E.,.H W } U.3.L.U.F.F.L.F.e.L.0.; x o.! l ; X 4 v O.A.oX4.8 + . h A.HXKXKXJXMX8., d f g a  .,.e.0.:.! +.z V #XsXNXZXZX#X! Q ~ n v E.p.p.*X2X1X4X7X2X7X",
"G.Y.L.Y.p.p.-.P W | U.p.J.P.L.L.G.G.J.K.:.$ @ : a a = + - x ` %XpXoXv 3 & o x DXKXKXFX=XO.a p d j T ).*X:X;X:X9.j x n S.uXNXBXNX$Xm.n.^ z h *...{ *XnXxX*X!.E.W.",
"2.e.y.P.P.p.-.I R } U.3.J.J.F.I.G.H.H.e.0.X = f f f s : @ 3 ` S.jX8X@.#.X.= y DXKXKXDX! h 5 a a  .p.3X<X>X<X<X:X(.*XXXn b.tX+X` M.qXb.h h h F ' L (.2X1X&Xp.P.3.",
"R.Y.p.T.E.T.;.H G } U.J.P.J.F.J.G.J.H.e.0.L > p d p s , + * ` a.a.s.`  .Z # # bXDXDXA.l v v l T >.Y.>XcX6X7X>X6X4X4X,Xw V wXV.: b.uXb.- 9 v H H e *XnXvX*X3.P.P.",
"q.1.,.,.0.<.=.*.*.;.L.K.I.J.J.J.J.J.K.y.<.<.L # o # > , o 0 #.` 0 X $ $ * X $ x z v x r 6 r b p.~.~._.-X_.-X_.&X*X*XQ.c V eXC.h b.yXb.5 { ,.u.t.1.*X*X,X!.1.P.J.",
"S F ' I I U <.K.K.y.J.J.I.J.L.J.F.J.L.<.K H K L 1 O o @   * #.` .   . . X X o o @ : > w r r / s.*X;XI.w.G.L.y.P.p.y.r.| ` b.+.` o.N.o.6 H [ 3X7X2X&X1.3.U.K.U.3.",
"R R [ H I D >.Y.L.L.J.G.L.F.L.J.J.P.P.1.J D J i.Y X # # X 0 #. .*   X # X X o X $ w r 6 r 9 r r X.-Xy.K.L.K.K.y.P.U.u.P.:.j b P.| , T J W W ,X1X1X!.p.P.P.J.3.L.",
"' ( { ' U I >.K.H.G.L.J.I.3.L.J.J.P.U.3.$.] R _ 0 # 5.OX+.V #.6.` q     . . . o & 6 r r 6 3 3 r r r.,.I.K.e.p.i.p.u.t.p.t.| X.P.>.| -.I ] [ :X1X1XQ.K.p.J.p.3.P.",
"R [ F t.P.i.K.K.H.G.L.L.I.G.L.J.&X;X<X-XJ.J. .h o o =XZX@X~ O.#.6.` * $ $ * $ X $ w w r 6 % # 4 9 w ( q.R.$.[ ' ' ' R { ' [ [ ] ] J &.U.L.3.E.P.U.U.P.J.3.J ] K ",
"F [ ' i.T.i.K.e.G.G.G.H.J.J.P.J.&X5X7X;XK.y.&.h - # oXsXo.@ 2 l v 5.oXs.` ` ` * # $ ; b / 4 ; /  .O.) { 0.] P P ' _ ( { R [ P I W D $.P.U.p.I.a.3.3.U.U.2.J J K ",
"S R I t.P.i.L.G.K.L.L.K.3.K.K.q.XX<X5X-XK.J.4.l - O b.0X` q  .T 2  .=XoX6.6. .3 .   # ` 7.T c @.7.7.O.r ) ..P I ' { ( ) L ( ( ' ] W &.J.J.J.P.3.U.P.J.3.<.J K K ",
"1.1.>.K.Y.K.K.G.J.J.K.K.i._.*X&X/.~.Q.W.K.L.L.t * # n N.C.rXNX8X0 & n #.6._ 9 @ O $ ; a.8X8.O.4.7.7.A.XX4.F w R | ( ( ) { { { =.3.&.3.J.J.p.J.P.P.,.$.%.<.<.<.<.",
"Y.K.K.K.K.y.K.L.K.J.y.K.Y.:XxXcX_.y.e.i.L.L.G.X O # j ~ N.0XsXOX* . 2 E 6.T 2 - & 4 r XX8XA.@.4.6.4.XX9XXXT c R | ( ( _ { P { 0.U.J.J.U.J.J.U.J.P.$.D J ;.p.T.p.",
"w.w.e.G.K.J.K.J.P.p.P.t.i.;X:XcX_.q.i.J.K.G.w.X # O - h a k b.o.$ + 8 E 6.T 8 8 2 $ q @. .t t #.8.8.8.XXoXOXOXoX| r R W ( S P q.U.J.J.J.P.J.J.J.U.&.J J =.p.p.p.",
"H.H.R.H.P.J.J.y.y.3.).E.(.:X1XcX&Xy.R.e.H.L.G.# $ ; ; : j ! B.b.$ + 8  .6.T 7 8 6 $ 0 b ; . & ) 4.@.@.@.XX8XjXpX7.2 R R -.} %.q.J.J.J.J.J.P.J.3.J.&.J K *.T.p.T.",
"G.w.L.F.J.y.L.K.P.E.vX3X3XxX1XcX).q.R.2.J.I.G.4 6 4 < $ V N.wXS.; + 7 _ #.T 8 8 2 $ & 4 + 4 6 ; < r E 4.7.s.=X9X4.2 F [ p.Q.i.K.J.J.J.F.J.L.J.J.P.*.J J ..E.p.p.",
"G.J.3.J.3.I.y.p.3.W.4X3X3X4X1X3X/.L.F.J.J.J.K.9 r b q # h ! V.+.@ + 8 c n _ _ l 2 # @ @ X 3 4 $ % r _ 7.8.A.OX=Xa.| H G y.K.J.y.J.F.G.L.J.J.U.J.U.&.A D -.Y.p.i.",
"K.K.3.I.P.P.p.p.p.Q.,X<X4X1X1XcXW.L.J.P.J.J.K.8 b O.t # > z b.~ & + 8 8 r @.6.b 2 @ % & . X $ 4 c 4.7.5.oX9XoX8.=X=X| 6 y.y.J.G.G.H.J.G.L.J.J.3.3.,.] W =.e.i.Y.",
"3.3.y.-X>X;X<X<X>X5X4X1X3XE.p.p.U.F.J.J.J.J.J.9 b 5.q & n m.0XS.# O 8 8 8 A.OXE 2 2 ; $ $ & & ; w  . .| a.=XA.4.oXOX .8 P.K.J.L.3.L.J.G.L.3.&.] ] ;.3.y.i.Y.K.i.",
"U.E.P.<X6X>X4X3X:X5X,X4XvXT.p.K.P.3.J.L.J.J.J.7 b @.` t n b.C.M.6 - 2 2 r 8XMX#.l T r # ; r 6 # % 6 9 6 _ 7.7.7.8.4.T 6 K.J.G.G.G.I.J.K.I.3.W D J ;.E.P.Y.K.K.Y.",
"1.y.q.:XcX1XvX<X7X7X>X<X6XR.y.i.J.3.P.L.K.y.L.6 b 4.oXOXZ ; j n ~ n # o l DXJX%XO.4./ $ + 3 3 ; 3 4 2 6 b _ _ _ @.4.b 6 y.K.J.J.q.K.3.3.J.3.J W W <.P.J.J.J.H.G.",
"*X;X).:XcX:X*XQ.~.~.Q.~._.K.K.I.K.J.P.I.K.K.I.6 c @.XX9Xu + a ~ C.o.O ; ` %XbX9.T _ t # . X # 6 r 9 r 6 6 6 6 r  .4.T 6 J.I.L.I.I.I.R.-XOX-X1.1.&.3.P.P.P.L.G.G.",
"3XcX1XcX3X3X(.e.K.3.L.3.J.3.w.y.L.y.K.K.J.K.K.& 4 b a.8Xu ; ~ B.eXM.+ t #.u O o # # # # O . # 4 T  ._ r 4 6 T O.7.7.T r i.I.e.K.y.y./.7X5X7XJ.p.I.E.I.3.F.J.J.L.",
":X3XxX3X3XvX_.e.K.y.R.F.J.L.J.J.J.y.y.K.w.y.K.X + 4 4.OXq ; z b.C.o.. * u #   @ & . * 0 # # & 4 b @.O.b 9 r _ 5.7. .T r y.K.q.i.K.y.~.7X5X5XJ.P.3.U.L.J.P.J.F.G.",
":XxXcX:X*X:X(.i.y.P.K.3.J.J.I.L.K.y.p.I.~.~.~.X $ 4  .a.q + : z b.n * # # X # 6 6 @ # 3 6 4 4 & & 0 t 4.4.@./ q q q ..u.~.~.I.~.W.&XXX&X;X&XP.P.y.I.K.G.I.~.~.I.",
"cXxX:Xp.q.e.i.i.L.K.J.K.P.J.F.F.K.y.K.P.<X<X<XX & 6 T  .| / * h k.V.S.b.V ; X $ ; - 3 & 6 r 6 % X + q  .6.@.u * # y !.6X6X4X1X7X5X5X/.J.K.K.3.P.P.J.K.w.~.5X5X7X",
":XcXcXQ.Y.Y.i.K.i.e.y.K.P.K.K.J.K.P.i.y.6X5X5XX & w c r ` 5.* 3 ! V.#XV.~ 4 .   ; x w # & r 6 4 4 6 q 0 0 0 L >.K.*X:X4X<X<X:X;X>X5X&XJ.y.K.p.p.K.y.I.G./.5X-X;X",
":X:X:XE.i.p.K.y.K.i.P.i.p.P.P.P.i.p.P.Y.;X>X>XL t 2 4 6 T _ & # ; w t w ; $ . . 0 #.Z # & c T T b r 4 1 1 1 *.q.~.>X>X>X<X4X6X7X,X<X&X3.3.K.L.K.K.y.G.F.I.5X<X6X",
"i.p.T.i.p.P.;.K I *.i.i.K.;X1X<X<X>X;X;XT.T.Y.e...1 & r r r 3 % # .   . # # $ . q 6.` # @ ` 4.7. .* 0 <.y.q.K.K._.7X<X;XE.P.p.p.P.I.I.P.I.I.J.q.J.-X>X>X*XW.Y.y.",
"i.e.i.q.y.I.;.K G ..p.p.p.,X4X,X3X<X<X3Xe.i.p.Y.0.# # 3 3 ; ; ; 3 % . & > 7 2 + 0 6.` # 0 A.XX@./ e U K.K.J.i.e.W.<X6X>XP.t.p.P.K.3.3.3.w.J.K.L.3.;X<X6X).e.Y.T.",
"3.J.W.L.P.K.*.J J ] p.u.p.,X4X3X3X<X3X>XT.p.i.i.*.* # O X O # O + O X / 8.#.b & * C Z t t a.XXu 1 q.Y.K.J.K.e.w._.<X<X<XE.i.p.P.K.J.L.I.K.J.G.3.K._.>X7X;Xp.p.T.",
"&.$.&.$.$.<.>.=.>.>.E.p.p.,X3X3X)._.(.Q.Y.i.i.e.0.# # ; 3 ; ; 3 # . o 5.pXoXO.3   . t #.Z o r.q 1 w.e.i.K.~._.&X/._.Q.!.i.P.P.t.K.F.J.w.3.I._._._.).^.~.Q.p.i.P.",
"F R ( P I D 0.Y.K.i.Y.i.p.,X4X4X&XF.G.J.I.P.q.P...* ; r 9 r r 6 ; * L ..#.` t u     ) =X7.# X.u 1 >.H.e.i.>X5X5X_.y.i.y.i.y.i.Y.i.P.J.K.J.Y.>X6XcXW.H.q.e.T.y.p.",
") { { ( I P =.G.L.y.Y.t.u.*X2X4XXXF.J.K.P.P.i.u u ) / r 6 r 4 3 e %.2.L . . 1 ;.) X { 8Xr.# Z A.r.u U G.G.-X5X6X;Xi.K.Y.T.T.K.K.y.J.w.J.G.R.>X6XcXQ.i.Y.T.P.y.y.",
"( ( F } =.=.e.Y.1.K.~.Q.(.,X4X4X&X3.P.K.<.t.1.. q #.O.r r r ; # ..J.J.;.U [ *.y.1.y q Z t ; c 8X=Xq 1 e.G./._.>X~.y.y.K.q.q.0.i.J.L.J.J.e.L._.-X>XQ.e.i.y.q.t.P.",
"' ' [ i.p.i.y.Y.P.Q.5X5X4X4X4X1X&Xy.P.1.' K H X 3 b  .@._ 6 & # } L.L.K.K.L.i.i.K G 1   o 2 b XXs.$ 0 K.K.L.L.J.R.P.P.y.' I J <.K.J.J.L.i.K.Y.Y.i.i.t.T.q.G G A ",
"G K ' t.p.P.y.i.3.E.<X,X3X:X1X4X!.3.P.1.' ' K X $ 6 _ 4. .r 3 # ..q.e.y.p.K.K.y.K G K F < & r  . .q e >.i.K.K.y.3.P.E.t.' J ' 3.L.F.J.J.G.K.i.e.T.p.i.T.,.K [ [ ",
"K K ] 1.i.P.P.P.p.W.5X1XnX:X1XcX&Xa.U.t.] R H . 4 | | r _ @.t X =.K.i.y.P.K.p.K.] K ] <.=.0 & w _ #.) 0 Y w.i.y.P.P.p.<.$.] K <.L.F.J.G.G.Y.P.K.T.i.p.p.>.K K H ",
"G.J.F.K.U.J.P.y.3.W.4X,X3XQ.p.T.;.R [ [ W ' [ . t A.8.b _ 7.{ q L U K ] ] W K I y.3.3.P.I.L q ; r  ./ # e %.} ] ] K ] } t.i.y.I.L.F.L.J.e.L.i.K.i.-.[ ' *.i.P.E.",
"G.G.J.F.P.3.P.y.K.W.<X>X4XE.p.T.,.R R ' W R K   Z 8X=X4.@.4.7.#.6 < e K ] K I ] P.E.P.U.y.y.e.q # * & # u ] ' J ] J K ] y.P.t.K.H.F.J.K.e.L.i.i.Y.%.G H } E.p.i.",
"J.J.J.G.P.3.P.3.3.R.5X<XnXR.R.p.:.R W R ' S H . y a.OXoXoXoX8. .q O S I I G G [ p.p.p.y.i.,.).0.u Y y y ..%.K ' K K A } y.y.y.K.L.L.F.F.K.K.K.P.Q.%.I H &.E.t.P.",
"q.J.L.J.P.3./.&X&XOX&X^.&Xi.p.T.,.' [ ' 1.,.,.X $ 6 4.9XpX9X7.6 % # S P } q.0.>.p.U.p.&X*X:XQ.,.u.u...*.:.' H H *.1.;.<.P.K.J.J.F.F.J.L.P.I.;.=.-.' ' G } p.y.y.",
"q.P.I.K.K.J.&X5X5X;X3.3.y.P.K.U.-.F W ' U.E.P.P e + / OX8XOX@.6 & # e F >.Q.E.T.p.T.P.,X,XnXu.F H H S ( [ W ' I &.P.P.p.K.K.K.J.L.G.G.J.y.y.K H K H ] H %.E.U.P.",
"y.p.K.y.y.3.&X6X5X,XJ.p.P.W.U.E.-.H G W E.K.K.K.=.* q 4.7.4.E 6 % # S G =.u.e.t.i.q.u.1XnXmXE.F ( ( ( { P F I F %.p.L.y.J.J.K.J.G.L.I.I.i.P.I H H H J G $.I.P.3.",
"t.t.q.P.P.P.~.-X&X/.K.K.R.y.1.,.>...$.=.K.q.K.K.=.O 4 T _ T w < e L } } 0.Q.E.(.(.E.(.(.E.%Xr.( { ( ' ( ( } -.} 1.K.J.K.J.G.J.G.J.J.e.1.>.q.%.%.-.%.} $.;.J.J.F.",
"H R ( q.i.y.e.G.L.L.K.w.P.[ ' R >.K.P.e.K.J.I.J.*.1 & q 6 6 & O S 1.P.i.).cXcXxX1X4XbX:.F ( { ( ( L { ( ' r.p.p.p.P.y.K.K.J.L.G.L.L.;.J J } t.p.p.p.p.P.J.J.J.I.",
"R R ( i.R.Y.K.K.J.G.L.J.P.] H D =.R.I.K.G.L.K.e.e.;.L & & & # # e q.E.i.(.xX,X:XcXxXxX:.) { { L { ) { ( ' t.u.p.p.i.q.J.J.G.L.G.i.Y.>.I ' [ i.p.p.p.U.U.J.3.J.J.",
"F ( F q.i.y.e.e.F.F.2.i.P.' H S *.e.q.L.w.3.G.G.w.q.[ # X O O # e >.i.q.!.:X;XxX,X,X2X:.( R t { ( F ( e L 0.p.p.y.P.J.J.w.3.H.3.q.K.=.A I S i.u.y.y.1.3.3.J.J.F."
};
