/* XPM */
static char *result[] = {
/* columns rows colors chars-per-pixel */
"70 70 178 2 ",
"   c #000001",
".  c #080607",
"X  c #020C03",
"o  c #050608",
"O  c #090B0D",
"+  c #170D07",
"@  c #120B09",
"#  c #051808",
"$  c #171209",
"%  c #1D140B",
"&  c #17191C",
"*  c #22170C",
"=  c #2E1A14",
"-  c #251D1A",
";  c #301B15",
":  c #08230A",
">  c #11290B",
",  c #0B370B",
"<  c #062F10",
"1  c #083E15",
"2  c #2A231C",
"3  c #3B2112",
"4  c #1A1C25",
"5  c #182021",
"6  c #352C23",
"7  c #312D28",
"8  c #232631",
"9  c #272936",
"0  c #2E2F38",
"q  c #253233",
"w  c #293638",
"e  c #48281A",
"r  c #5E351A",
"t  c #64381C",
"y  c #6C3D1E",
"u  c #703F1F",
"i  c #4A2920",
"p  c #542F20",
"a  c #533B21",
"s  c #493E30",
"d  c #683B20",
"f  c #0D420D",
"g  c #11490F",
"h  c #0D4710",
"j  c #0E4B12",
"k  c #114213",
"l  c #134C11",
"z  c #0E5516",
"x  c #0E5718",
"c  c #0D5A1C",
"v  c #175612",
"b  c #205215",
"n  c #0F661F",
"m  c #1F6417",
"M  c #2B6C1B",
"N  c #27731B",
"B  c #2D761E",
"V  c #2D7E1E",
"C  c #1F4A2B",
"Z  c #274C33",
"A  c #0D6221",
"S  c #0F6C22",
"D  c #0F7125",
"F  c #107526",
"G  c #147629",
"H  c #107B29",
"J  c #217127",
"K  c #327E20",
"L  c #7E4F1E",
"P  c #425E24",
"I  c #6A4327",
"U  c #734120",
"Y  c #7E4E2A",
"T  c #6F562A",
"R  c #767730",
"E  c #333646",
"W  c #354647",
"Q  c #38574A",
"!  c #3B5552",
"~  c #396552",
"^  c #065B79",
"/  c #315273",
"(  c #424D5B",
")  c #455B5C",
"_  c #6A5A48",
"`  c #68654E",
"'  c #776748",
"]  c #4C5469",
"[  c #555C75",
"{  c #4E6868",
"}  c #516C6D",
"|  c #57706F",
" . c #567273",
".. c #5C7674",
"X. c #5D7C7D",
"o. c #8B611B",
"O. c #835128",
"+. c #AF7F3D",
"@. c #927342",
"#. c #9A7642",
"$. c #846F56",
"%. c #89745A",
"&. c #A47B41",
"*. c #A47A56",
"=. c #2F821F",
"-. c #258A28",
";. c #368823",
":. c #348C22",
">. c #2B9229",
",. c #399424",
"<. c #3C9B26",
"1. c #359A29",
"2. c #3A9E29",
"3. c #3FA229",
"4. c #41A429",
"5. c #54AD25",
"6. c #5DB123",
"7. c #61B322",
"8. c #779954",
"9. c #808000",
"0. c #B9A010",
"q. c #B5833E",
"w. c #CBB80C",
"e. c #E5BF3F",
"r. c #CECE00",
"t. c #DDCE18",
"y. c #E7DB11",
"u. c #E8E305",
"i. c #F7EF0C",
"p. c #FFFF00",
"a. c #F9F408",
"s. c #F7EB14",
"d. c #EDD428",
"f. c #EACA34",
"g. c #E7C33B",
"h. c #B88741",
"j. c #B98D43",
"k. c #B28B4F",
"l. c #B7AA48",
"z. c #B9946E",
"x. c #AE9972",
"c. c #B79B78",
"v. c #B9A479",
"b. c #C99748",
"n. c #C79849",
"m. c #CA9B4B",
"M. c #D4A44B",
"N. c #D9A750",
"B. c #DEAC52",
"V. c #E5BD41",
"C. c #E0B24C",
"Z. c #C5A77F",
"A. c #005D80",
"S. c #32539D",
"D. c #5E7280",
"F. c #666D8C",
"G. c #668788",
"H. c #67898A",
"J. c #6A8D8E",
"K. c #6FB3A8",
"L. c #76B0A3",
"P. c #3BB9DE",
"I. c #17B2E5",
"U. c #00BAFF",
"Y. c #29C1F4",
"T. c #AC9B8F",
"R. c #A99A90",
"E. c #B5A18E",
"W. c #B9A78A",
"Q. c #CCAA84",
"!. c #C5AA8D",
"~. c #D5B48B",
"^. c #C8B494",
"/. c #DBBB92",
"(. c #EACDA4",
"). c #FFE6BD",
"_. c #FFEAC7",
"`. c white",
/* pixels */
"F.J.J.J.F.J.J.J.J.F.J.J.J.J.J.J.F.J.J.J.F.J.J.J.J.F.J.J.J.J.J.J.F.J.J.J.F.J.J.J.J.F.J.J.J.J.J.J.F.J.J.J.F.J.J.J.J.F.J.J.J.J.J.J.F.J.J.J.F.J.",
"F.J.J.J.F.J.J.J.J.F.J.J.J.J.J.J.F.J.J.J.F.J.J.J.J.F.J.J.J.J.J.J.F.J.J.~ H H H f f f 4.4.4.u U U &.&.&.&.&.&...J.J.F.J.J.J.J.J.J.F.J.J.J.F.J.",
"F.F.F.F.F.F.J.F.F.F.J.F.F.F.F.F.F.F.F.F.F.F.J.F.F.F.J.F.F.F.F.F.F.F.F.! H H D f f f 4.4.4.U U U &.&.&.&.&.&.| F.F.F.J.F.F.F.F.F.F.F.F.F.F.F.",
"F.J.J.J.J.J.J.F.J.J.J.F.J.J.J.F.J.J.J.J.J.J.J.F.J.J.J.F.J.J.J.F.F.J.J.~ H H D f f f 4.4.4.U U U &.&.&.&.&.&...F.J.J.J.F.J.J.J.F.F.J.J.J.J.J.",
"F.J.J.J.J.J.J.F.J.J.J.F.J.J.J.F.J.J.J.J.J.J.J.F.J.J.H H H 4.4.4.4.4.4.4.3.4.,.f f f 4.4.4.B.B.B.B.B.B.p.p.p.g.B.B.n.&.&.@.J.J.F.F.J.J.J.J.J.",
"F.J.J.J.J.J.J.F.J.J.J.F.J.J.J.F.J.J.J.J.J.J.J.F.J.J.H H H 4.4.4.4.4.4.4.4.4.<.f f f 4.4.4.B.B.B.B.B.B.p.p.p.V.B.B.m.&.&.#.J.J.F.F.J.J.J.J.J.",
"F.J.J.J.J.J.J.F.J.J.J.F.F.F.F.F.J.J.J.J.J.J.J.F.J.J.H H H 4.4.4.4.4.4.4.4.4.<.f f f 4.4.4.B.B.B.B.B.B.p.p.p.V.B.B.m.+.#.#.F.F.F.F.J.J.J.J.J.",
"F.F.F.F.F.F.F.F.J.J.J.F.J.J.J.J.] k f k F H F H G H 4.3.4.4.4.4.4.4.4.3.4.3.,.f f f 4.4.4.p.p.p.p.p.p.B.B.B.s.p.p.p.a.p.i.#.&.#.F.F.F.F.F.F.",
"F.J.J.J.F.J.J.F.F.F.F.F.J.J.J.J.[ f f f H H H H H H 4.4.4.4.3.4.4.4.4.4.4.4.<.f f f 4.4.4.p.p.p.p.p.p.B.B.B.i.p.p.p.p.p.p.&.&.&.F.J.J.J.F.J.",
"F.J.J.J.F.J.J.F.J.J.J.F.J.J.J.J.] f f f H H H H H H 4.4.4.4.4.4.4.4.4.4.4.3.,.f f f 4.4.3.p.p.p.p.p.p.B.B.B.s.p.p.p.p.p.a.&.&.&.F.J.J.J.F.J.",
"F.J.J.J.F.J.J.F.J.J.J.F.J.Q Z C C n D n H H H 1.1.1.4.4.4.4.4.4.4.4.4.=.m v m ;.:.;.l.l.l.g.g.V.p.p.p.B.B.B.V.e.g.V.g.V.g.y.y.y.' ' ' J.F.J.",
"F.J.J.J.F.J.J.F.J.J.J.F.J.Z f f z H H H H H H 3.4.3.4.4.4.4.4.4.4.4.3.N f f l 4.4.4.B.B.B.B.B.B.p.p.p.B.B.B.B.B.B.B.B.B.C.p.p.p.&.&.&.J.F.J.",
"F.J.F.F.F.J.J.F.J.J.J.J.J.Z k f z H H H H H H 4.4.4.4.4.4.4.3.4.4.4.4.N f f v 3.4.4.B.B.B.B.B.B.p.p.p.B.B.B.B.B.B.B.B.B.C.p.p.p.&.&.&.F.F.J.",
"F.J.J.J.F.J.F.F.F.F.( ( ( C x x c H H H H H H 4.4.4.V =.=.V =.=.3.4.4.N f f g 4.4.4.f.f.f.f.f.f.t.t.t.q.h.q.N.B.B.M.q.q.q.w.w.w._ ` ` J.F.J.",
"F.J.J.J.F.J.J.J.J.F.k f f n H H H H H H H H H 4.4.4.f f f f f f ,.4.4.N f f v 4.4.4.p.p.p.p.p.p.&.&.+.U u u b.B.B.h.U U U U U U F.J.J.J.F.J.",
"F.J.J.J.F.J.J.J.J.F.k f f n H H H H H H H H H 4.4.4.f f f f f f <.4.4.N f f g 4.4.4.p.p.p.p.p.p.&.&.#.U u u b.B.B.h.U U U U U U F.J.J.J.F.J.",
"F.J.J.J.F.J.J.8.G.D.k f j A H H H H H H H H H 4.3.3.g l f l g l :.2.<.N l g v 5.4.5.p.a.p.a.i.p.k.&.&.Y U O.j.m.m.h.I I I I I I F.J.J.J.F.J.",
"F.J.J.J.F.J.J.o     D F H H H H H H H H H H H H H H 3.4.4.4.4.4.v f f N 4.3.6.p.p.p.B.B.B.#.+.&.~.~.~.~.~.~.6     8 J.J.J.J.J.H.F.J.J.J.F.J.",
"F.F.F.F.F.F.J.o     F H H H H H H H H H H H H H H H 4.4.4.4.4.4.g f f N 4.4.5.p.p.p.B.B.B.&.&.&.~.~.~.~.~.~.2     8 J.F.F.F.F.F.F.F.F.F.F.F.",
"F.J.J.J.J.J.J.o     D H H H H H H H H H H H H H H H 4.4.4.4.4.4.v f f N 4.4.6.p.p.p.B.B.B.&.&.&.~.~.~.~.~.~.6     w J.F.J.J.J.F.F.J.J.J.J.J.",
"F.J.J.J.J.J.J.o     H H H H H H H H H H H H H H H H H H H f f f D H H H H H -.p.p.p.B.B.B.~.~.~._.).).~.~.~.2     q J.F.J.J.J.F.F.J.J.J.J.J.",
"F.J.J.J.J.J.J.      D H H H H H H H H H H H H H H H H H H f f f D H H H H H :.p.p.p.B.B.B.~.~.~.).).).~.~.~.6     q J.F.J.J.J.F.F.J.J.J.J.J.",
"F.J.J.J.J.J.J.      D H H H H H H H H H H H H H H H H H H f f f F H H H H H :.p.p.p.B.B.B.~.~.~.).).).~.~.~.6     q J.F.F.F.F.F.F.J.J.J.J.J.",
"F.F.F.F.      k f f H H H H H H D f f f f f f H H H f f f H H H f f f R B.B.B.&.&.&.p.p.p.).).).      U U U +     q J.F.J.J.J.J.F.F.F.F.F.F.",
"F.J.J.J.      f f f F H H H H H S f f f f f f H H H f f f H H H j f f R B.B.M.&.&.&.p.p.p.).).).      u U U *     9 F.F.J.J.J.J.F.J.J.J.F.J.",
"F.J.J.J.      f f f H H H H H H D f f f f f f H H H f f f H H H g f f R B.B.B.&.&.&.p.p.p.).).).      U U u +     q J.F.J.J.J.J.F.J.J.J.F.J.",
"F.J.J.J.      f f f F H H x f f ,       f f f f f f ).).).).).)./.~.~.*.U U O.B.B.B.&.&.&.).).).`.`.`.S.S.S.T.~.~.$.    O J.J.J.F.J.J.J.F.J.",
"F.J.J.J.      f f f H H H x f f ,       f f f f f f ).).).).).)./.~.~.*.U U Y B.B.B.&.&.&.).).).`.`.`.S.S.S.T.~.~.%.    o J.J.J.F.J.J.J.F.J.",
"F.J.F.F.      f f f H H H x f f <       f f f f f f ).).).).).)./.~.~.*.U U Y B.B.B.&.&.&.).).).`.`.`.S.S.S.T.~.~.%.    o J.J.J.F.J.F.F.F.J.",
"F.J.J.J.      f f f F H H <     4 H.J.G.            &.&.&.).).).).).).z.U U o.p.p.p.U U U ).).).`.`.`.S.S.S.R.~.~.$.    O F.F.F.F.J.J.J.F.J.",
"F.J.J.J.      f f f H H H <     & J.J.J.            &.&.&.).).).).).).z.U U L p.p.p.U U U ).).).`.`.`.S.S.S.E.~.~.%.      J.J.J.F.J.J.J.F.J.",
"F.J.J.J.      f f f F H H <     4 J.J.H.            &.&.&.).).).).).).z.U U o.p.p.p.U U U ).).).`.`.`.S.S.S.T.~.~.%.    O J.J.J.F.J.J.J.F.J.",
"F.J.J.J.[  .G.X X X h h l #     4 J.J.J.[ ....      % % $ k.k.k.P.I.Y.L.M.M.M.p.p.p.U U U ).).)._._._.E.!.E.s - 2 0  .8.D.J.J.J.F.J.J.J.F.J.",
"F.J.J.J.F.J.H.      f f f #     & J.J.J.F.J.J..           #.#.q.I.U.U.K.B.B.C.p.p.p.U U U ).).).).).).~.~.~.2     8 J.J.H.J.J.J.F.J.J.J.F.J.",
"F.F.F.F.F.F.J.      , f f #     4 F.F.F.F.F.F.@           k.#.#.I.U.U.K.B.B.V.p.p.p.U U U ).).).).).).~.~.~.6     9 J.F.F.F.F.F.F.F.F.F.F.F.",
"F.J.J.J.J.J.J.E W W : : : q W E ( J.J.J.J.J.X.7.9.9.T T T a I a ^ A.A.8.d.d.d.0.0.0.*.*.*.(.(.(.(.(.(._ _ _ W E W ) J.F.J.J.J.F.F.J.J.J.J.J.",
"F.J.J.J.J.J.J.F.J.J.O     ) H.F.J.J.J.J.J.J.J.p.p.p.B.B.B.            o.p.p.u.u U U ~.~.~.~.~.~.~.~.~..     { F.J.J.J.F.J.J.J.F.F.J.J.J.J.J.",
"F.J.J.J.J.J.J.F.J.J.o     ) J.F.J.J.J.J.J.J.J.p.p.p.B.B.B.            7.p.p.u.U U U ~.~.~.~.~.~.~.~.~.       .F.J.J.J.F.J.J.J.F.F.J.J.J.J.J.",
"F.J.J.J.J.J.J.F.J.J.5 O & ( F.F.J.J.J.J.J.J.J.u.r.u.j.j.n.X X X       o.i.a.y.t y r v.v.v.v.x.Z.x.c.c.& O & | F.J.J.J.F.F.F.F.F.F.J.J.J.J.J.",
"F.F.F.F.F.F.F.F.J.J.J.F.J.J.J.J.F.F.F.F.F.F.F.            f f f X   . T B.B.j.      f f f f f f       F.F.F.F.F.J.J.J.F.J.J.J.J.F.F.F.F.F.F.",
"F.J.J.J.F.J.J.F.F.F.F.F.J.J.J.J.F.J.J.J.F.J.J.            f f f .     T B.B.m.      f f f f f f       J.F.J.J.F.F.F.F.F.J.J.J.J.F.J.J.J.F.J.",
"F.J.J.J.F.J.J.F.J.J.J.F.J.J.J.J.F.J.J.J.F.J.J.            f f f X     T B.B.j.    o f f f f f f       H.F.H.J.F.J.J.J.F.J.J.J.J.F.J.J.J.F.J.",
"F.J.J.J.F.J.J.F.J.J.J.F.J.J.J.J.F.J.J.J.F.J.J.      U U U H H H H H H 1     $ B.B.B.      H H H              .F.J.J.J.F.J.J.J.J.F.J.J.J.F.J.",
"F.J.J.J.F.J.J.F.J.J.J.F.J.J.J.J.F.J.J.J.F.J.J.      U U U H H H H H H 1     % B.B.B.      H H H             } F.J.J.J.F.J.J.J.J.F.J.J.J.F.J.",
"F.J.F.F.F.J.J.F.J.J.J.J.J.J.J.J.F.J.F.F.F.J.J.      U U U H H H H H G 1     * B.B.B.      H H H             } F.J.J.J.J.J.J.J.J.F.J.F.F.F.J.",
"F.J.J.J.F.J.F.F.F.F.F.F.F.F.F.F.F.J.J.J.      / / /       U U U G H G P U U d             H H H p.p.p.4.4.4.# . o 8 F.F.F.F.F.F.F.J.J.J.F.J.",
"F.J.J.J.F.J.J.J.J.F.J.J.J.J.J.J.F.J.J.H.      / / /       U U U J G -.P U U t             H H H p.p.p.4.4.4.>   o E J.J.J.J.J.J.F.J.J.J.F.J.",
"F.J.J.J.F.J.J.J.J.F.J.J.J.J.J.J.F.J.J.J.      / / /       U U U G G H M U U t             H H H p.p.p.4.4.4.:     4 J.J.J.J.J.J.F.J.J.J.F.J.",
"F.J.J.J.F.J.J.J.J.F.J.J.J.J.J.J.]       ~.~.~.      f f f U U U U U U ;     X H H H `.`.`.      H H H 4.4.4.>     9 J.J.J.J.J.J.F.J.J.J.F.J.",
"F.J.J.J.F.J.J.J.J.F.J.J.J.J.J.J.]     . ~.~.~.      f f f U U U U U U 3     # H H H `.`.`.      H H H 4.4.4.>     9 J.J.J.J.J.J.F.J.J.J.F.J.",
"F.F.F.F.F.F.J.F.F.F.J.F.F.F.F.F.[       ~.~.~.      f f g U U U U U U 3     X H H H `.`.`.      H H H 4.4.4.:     8 J.F.F.F.F.F.F.F.F.F.F.F.",
"F.J.J.J.J.J.J.F.J.J.J.F.J.J.J.F.{             f f f 4.4.4.4.4.4.4.4.4.b     7 `.`.`./ / / / / /       F H H #     w J.F.J.J.J.F.F.J.J.J.J.J.",
"F.J.J.J.J.J.J.F.J.J.J.F.J.J.J.F. .            f f f 3.3.4.4.3.4.4.4.4.b     & `.`.`./ / / / / /       H H H #     q J.F.J.J.J.F.F.J.J.J.J.J.",
"F.J.J.J.J.J.J.F.J.J.J.F.J.J.J.F.}             f f f 3.3.4.4.3.3.4.4.4.b     2 `.`.`./ / / / / /       H H H :     q J.F.J.J.J.F.F.J.J.J.J.J.",
"F.J.J.J.J.J.J.F.J.J.J.F.F.F.F.F.J.X.H.X.            -.H -.3.3.3.4.4.4.>.S F A & . 4 U I I U I U       X   X       q J.F.F.F.F.F.F.J.J.J.J.J.",
"F.F.F.F.F.F.F.F.J.J.J.F.J.J.J.J.F.F.F.F.            H H H 3.3.3.4.4.4.>.H H F       U U U U U U                   q J.F.J.J.J.J.F.F.F.F.F.F.",
"F.J.J.J.F.J.J.F.F.F.F.F.J.J.J.J.F.J.J.H.            H H H 3.4.4.4.4.4.>.H H n       U U U U u u                   9 F.F.J.J.J.J.F.J.J.J.F.J.",
"F.J.J.J.F.J.J.F.J.J.J.F.J.J.J.J.F.J.J.J.      e e e < < < -.-.-.3.4.4.1.>.>.-.      Q.Q.Q.Q.Q.Q.      = ; = ; = ; - w 8 w w q w F.J.J.J.F.J.",
"F.J.J.J.F.J.J.F.J.J.J.F.J.J.J.J.F.J.J.H.      U U U       H H H 2.4.4.4.4.4.;.      ).).).).).).      i i i i i i =             F.J.J.J.F.J.",
"F.J.J.J.F.J.J.F.J.J.J.F.J.J.J.J.F.J.J.H.      U U U       H H H 2.4.4.4.4.4.,.      ).).).).).).      i i i i i i ;             F.J.J.J.F.J.",
"F.J.F.F.F.J.J.F.J.J.J.J.J.J.J.J.F.J.F.F.      U U U @ + @ c A c B K B ;.B K M       ^.W.W.^.W.^.      e i i p p p 3 * + %       F.J.F.F.F.J.",
"F.J.J.J.F.J.F.F.F.F.F.F.F.F.F.F.F.J.J.H.      U U U i e i                                             i i i d U U U U U y       F.J.J.J.F.J.",
"F.J.J.J.F.J.J.J.J.F.J.J.J.J.J.J.F.J.J.J.      U U U i i i                                             i i i d U U U U U U       F.J.J.J.F.J.",
"F.J.J.J.F.J.J.J.J.F.J.J.J.J.J.J.F.J.J.H.  o o U y u i i i               .   o .   o   o o   o         e i i d U d U U U t     o F.J.J.J.F.J.",
"F.J.J.J.F.J.J.J.J.F.J.J.J.J.J.J.F.J.J.J.F.J.J.      i i i i i i .     W F.J.J.J.J.F.J.J.J.J.J.J.                        o J.J.J.F.J.J.J.F.J.",
"F.J.J.J.F.J.J.J.J.F.J.J.J.J.J.J.F.J.J.J.F.J.J.      i i i i i i .     W F.J.J.J.J.F.J.J.J.J.J.J.                        o J.J.J.F.J.J.J.F.J.",
"F.F.F.F.F.F.J.F.F.F.J.F.F.F.F.F.F.F.F.F.F.F.J.      i i i i i i .     E F.F.J.F.F.F.J.F.F.F.F.F.                        O F.F.F.F.F.F.F.F.F.",
"F.J.J.J.J.J.J.F.J.J.J.F.J.J.J.F.J.J.J.J.J.J.J.F.J.J.                  W J.J.J.F.J.J.J.F.J.J.J.F.J.J.J.J.J.J.J.F.J.J.J.F.J.J.J.F.F.J.J.J.J.J.",
"F.J.J.J.J.J.J.F.J.J.J.F.J.J.J.F.J.J.J.J.J.J.J.F.J.J.                  W J.J.J.F.J.J.J.F.J.J.J.F.J.J.J.J.J.J.J.F.J.J.J.F.J.J.J.F.F.J.J.J.J.J.",
"F.J.J.J.J.J.J.F.J.J.J.F.J.J.J.F.J.J.J.J.J.J.J.F.J.J.                  W J.J.J.F.J.J.J.F.J.J.J.F.J.J.J.J.J.J.J.F.J.J.J.F.J.J.J.F.F.J.J.J.J.J."
};
