/* XPM */
static char *result[] = {
/* columns rows colors chars-per-pixel */
"70 70 176 2 ",
"   c #000001",
".  c #070A04",
"X  c #050608",
"o  c #06090A",
"O  c #090C0E",
"+  c #120B09",
"@  c #180E08",
"#  c #061807",
"$  c #1D1009",
"%  c #0C0D11",
"&  c #0E131A",
"*  c #181719",
"=  c #22130A",
"-  c #28180D",
";  c #321C0E",
":  c #361E16",
">  c #082309",
",  c #0A350B",
"<  c #0C3C0C",
"1  c #063011",
"2  c #28221B",
"3  c #101924",
"4  c #1C2327",
"5  c #2B2E3D",
"6  c #273435",
"7  c #2D3C3E",
"8  c #422613",
"9  c #492A15",
"0  c #45271B",
"q  c #5D351B",
"w  c #663A1C",
"e  c #6C3D1E",
"r  c #4A2920",
"t  c #522E20",
"y  c #453B2E",
"u  c #553821",
"i  c #683B20",
"p  c #0D420D",
"a  c #11490F",
"s  c #0E4A11",
"d  c #0B4A16",
"f  c #114213",
"g  c #134A12",
"h  c #0B541C",
"j  c #0C5A1D",
"k  c #1A5B14",
"l  c #0F631D",
"z  c #1E6116",
"x  c #2F761E",
"c  c #317B1F",
"v  c #274B31",
"b  c #0D6121",
"n  c #0F6D23",
"m  c #0F7125",
"M  c #0F7728",
"N  c #107426",
"B  c #12762A",
"V  c #107B29",
"C  c #2B6B27",
"Z  c #4F4435",
"A  c #6B4328",
"S  c #734120",
"D  c #6F562A",
"F  c #664430",
"G  c #333746",
"H  c #354646",
"J  c #325241",
"K  c #3E4356",
"L  c #3D5151",
"P  c #34516F",
"I  c #315273",
"U  c #414659",
"Y  c #6A5A46",
"T  c #78674B",
"R  c #7C6951",
"E  c #51576F",
"W  c #565C75",
"Q  c #50626C",
"!  c #567273",
"~  c #5D7B7B",
"^  c #607F7F",
"/  c #9C7817",
"(  c #8F5E32",
")  c #926237",
"_  c #9B763A",
"`  c #946744",
"'  c #8E7144",
"]  c #987642",
"[  c #9F7552",
"{  c #A47B41",
"}  c #A47A56",
"|  c #2F811F",
" . c #1C8429",
".. c #238928",
"X. c #328320",
"o. c #338A22",
"O. c #2F9529",
"+. c #369928",
"@. c #3FA229",
"#. c #4C9C1F",
"$. c #57A21D",
"%. c #76BD1E",
"&. c #469B28",
"*. c #41A429",
"=. c #48A42B",
"-. c #59AE25",
";. c #7DC11C",
":. c #4B9C5E",
">. c #4D9D60",
",. c #5CA56D",
"<. c #808000",
"1. c #AFAF00",
"2. c #B9B605",
"3. c #B9A010",
"4. c #A7813E",
"5. c #B4823F",
"6. c #B4B83E",
"7. c #DBB736",
"8. c #D6C60C",
"9. c #D4D400",
"0. c #E6DB12",
"q. c #E9E406",
"w. c #F2EE03",
"e. c #F8F407",
"r. c #FFFF00",
"t. c #F7EA15",
"y. c #F8ED12",
"u. c #F4E31C",
"i. c #E7CC29",
"p. c #EED42B",
"a. c #F1DD22",
"s. c #E7C23C",
"d. c #E8C539",
"f. c #9D9D45",
"g. c #AA824A",
"h. c #B48844",
"j. c #AC934C",
"k. c #B28C55",
"l. c #ABA048",
"z. c #AE9E73",
"x. c #B49B76",
"c. c #98A57B",
"v. c #BBA57A",
"b. c #C9994A",
"n. c #D19F4C",
"m. c #DFB04E",
"M. c #D7A750",
"N. c #DEAC52",
"B. c #E2B648",
"V. c #C6A87F",
"C. c #005D80",
"Z. c #31529C",
"A. c #5F7F80",
"S. c #626987",
"D. c #666D8C",
"F. c #638384",
"G. c #6A8D8E",
"H. c #07B7F7",
"J. c #00BAFE",
"K. c #1ABEF8",
"L. c #32C2F1",
"P. c #98B088",
"I. c #B5A18E",
"U. c #BDA68E",
"Y. c #A3B080",
"T. c #B7B7B8",
"R. c #C3AA8D",
"E. c #D0AF86",
"W. c #D5B48B",
"Q. c #EACDA4",
"!. c #FFE6BD",
"~. c #C2CCD6",
"^. c #CBD4DC",
"/. c #FFEAC7",
"(. c #F4F4F4",
"). c #FFFFFF",
/* pixels */
"D.G.G.G.D.G.G.G.G.D.G.G.G.G.G.G.D.G.G.G.D.G.G.G.G.D.G.G.G.G.G.G.D.G.G.G.D.G.G.G.G.D.G.G.G.G.G.G.D.G.G.G.D.G.G.G.G.D.G.G.G.G.G.G.D.G.G.G.D.G.",
"D.G.G.G.D.G.G.G.G.D.G.G.G.G.G.G.D.G.G.G.D.G.G.G.G.D.V V V *.*.*.*.*.*.*.@.*.*.p p p V V V S S S { { { ~ D.G.G.G.G.D.G.G.G.G.G.G.D.G.G.G.D.G.",
"D.D.D.D.D.D.G.D.D.D.G.D.D.D.D.D.D.D.D.D.D.D.G.D.D.D.V V V @.*.*.*.*.*.*.*.*.@.p p p V V V S S S { { { W D.D.G.D.D.D.G.D.D.D.D.D.D.D.D.D.D.D.",
"D.G.G.G.G.G.G.D.G.G.G.D.G.G.G.D.G.G.G.G.G.G.G.D.G.G.V V V *.@.*.*.*.*.*.*.*.*.p p p V V V S S S { { { ^ G.G.G.D.G.G.G.D.G.G.G.D.D.G.G.G.G.G.",
"D.G.G.G.G.G.G.D.G.G.G.D.G.G.G.D.G.G.G.G.V V V V V V *.*.*.*.*.*.*.*.*.X.p p p *.*.*.r.r.r.r.r.r.N.N.N.N.N.N.b.{ { ' G.D.G.G.G.D.D.G.G.G.G.G.",
"D.G.G.G.G.G.G.D.G.G.G.D.G.G.G.D.G.G.G.G.V V V V V V *.*.*.*.*.*.*.*.*.o.p p p *.*.*.r.r.r.r.r.r.N.N.N.N.N.N.b.{ { ] G.D.G.G.G.D.D.G.G.G.G.G.",
"D.G.G.G.G.G.G.D.G.G.G.D.D.D.D.D.G.G.G.G.V V  .V V V *.*.*.*.*.*.*.*.*.o.p p a *.@.@.r.r.r.r.r.r.N.N.N.N.N.N.b.{ { ] G.D.D.D.D.D.D.G.G.G.G.G.",
"D.D.D.D.D.D.D.D.G.G.G.D.G.J f f d M V V @.@.@.@.@.*.*.*.*.*.*.*.z a a z +.@.*.N.N.M.N.B.N.m.m.N.r.r.r.r.r.e.a.N.N.M.] ] ] G.G.G.D.D.D.D.D.D.",
"D.G.G.G.D.G.G.D.D.D.D.D.G.J p p s V V V *.*.*.*.*.*.*.*.*.*.*.*.k p p k *.*.*.N.N.N.N.N.N.N.N.N.r.r.r.r.r.r.a.N.N.N.{ { { G.G.G.D.G.G.G.D.G.",
"D.G.G.G.D.G.G.D.G.G.G.S.G.J < p s V V V *.*.*.*.*.*.*.@.*.*.*.*.z p p z *.*.=.m.N.N.N.N.N.N.N.N.r.r.r.r.r.r.a.N.N.M.{ { { G.G.G.D.G.G.G.D.G.",
"D.G.G.G.D.G.G.D.G.G.v v v j n n n V V V *.*.*.*.*.*.*.*.*.*.*.*.k p p k *.*.*.t.t.t.y.t.t.h.h.h.d.B.s.s.s.s.p.u.t.u.0.q.0.T T T D.G.G.G.D.G.",
"D.G.G.G.D.G.G.D.G.G.f p p l V V V V V V *.*.*.*.*.*.*.*.*.*.*.*.k p p k *.*.=.r.r.r.r.r.r.{ { { N.m.N.N.N.N.p.r.r.r.r.r.r.{ { { D.G.G.G.D.G.",
"D.G.D.D.D.G.G.D.G.G.f p p l V V V V V V *.*.*.@.*.*.*.@.@.*.*.*.z p p k *.*.=.r.r.r.r.r.r.{ { { N.N.N.N.N.N.p.r.r.r.r.r.r.{ { { D.G.D.D.D.G.",
"D.G.G.G.D.G.D.U U U f p p l V V V V V V O.O.O.| | | | | | *.*.*.k p p k *.*.*.u.u.a.r.r.r.{ { { 5.h.5.N.N.N.s.a.u.u.r.r.r.{ { { D.G.G.G.D.G.",
"D.G.G.G.D.G.G.      < p p l V V V V V V V V V p p p p p p &.*.*.z p p z *.*.=.N.N.N.r.r.r.{ { { S S S b.N.N.N.N.N.B.r.r.r.{ { { D.G.G.G.D.G.",
"D.G.G.G.D.G.G.      < p p l V V V V V V V V V p p p p p p *.*.*.k p p k *.*.*.N.N.N.r.r.r.{ { { S S e n.N.N.N.N.N.N.r.r.r.{ { { D.G.G.G.D.G.",
"D.G.G.G.D.G.G.      p p s l V V V V V V V V V p s p g a a +.*.+.z g g z -.=.-.N.N.N.r.e.e.g.g.{ ( S ( b.M.M.N.M.M.m.e.e.w.{ ' ] D.G.G.G.D.G.",
"D.G.G.G.D.G.G.      m V V V V V V V V V V V V V V V *.*.*.a p p o.*.*.%.r.r.r.N.N.N.{ { { W.W.W.E.E.W.{ { { { { { _ S S e G.G.G.D.G.G.G.D.G.",
"D.D.D.D.D.D.G.      N V V V V V V V V V V V V V V V *.*.*.p p p o.*.*.%.r.r.r.N.N.N.{ { { W.W.W.W.W.W.} { { { { { { e S e D.D.D.D.D.D.D.D.D.",
"D.G.G.G.G.G.G.      n V V V V V V V V V V V V V V V *.*.*.p p p X.*.*.;.r.r.r.N.N.N.{ { { W.W.W.W.W.W.g.{ { { { { _ S S e G.G.D.D.G.G.G.G.G.",
"D.G.G.G.G.G.G.      M V V V V V V V V V V V V V V V V V V p p p m V V #.r.r.r.N.N.N.W.W.W.!.!.!.W.W.W.$     7 D.G.G.G.D.G.G.G.D.D.G.G.G.G.G.",
"D.G.G.G.G.G.G.      m V V V V V V V V V V V V V V V V V V p p p l V  .$.r.r.r.N.N.N.W.W.W.!.!.!.W.W.W.2     7 D.G.G.G.D.G.G.G.D.D.G.G.G.G.G.",
"D.G.G.G.G.G.G.      N V V V V V V V V V V V V V V V V V V p p p n V V #.r.r.r.N.N.N.W.W.W.!.!.!.W.W.W.2     7 D.G.G.G.D.D.D.D.D.D.G.G.G.G.G.",
"D.D.D.D.      p p p N V V V V V V V V V V V V p p p p p p V V V l.N.N.n.{ { { r.r.r.!.!.!.      S S S +     5 D.G.G.G.D.G.G.G.G.D.D.D.D.D.D.",
"D.G.G.G.      p p p N V V V V V V V V V V V V p p p p p p V V V f.N.N.b.g.{ 4.r.r.r.!.!.!.      S S e @     G D.D.D.D.D.G.G.G.G.D.G.G.G.D.G.",
"D.G.G.G.      p p p M V V V V V V V V V V V V p p p p p p V V V l.N.N.n.{ { { r.r.r.!.!.!.      S S S .     7 D.G.G.G.D.G.G.G.G.D.G.G.G.D.G.",
"D.G.G.G.      p p p N V V V V V m p p p p p p !.!.!.!.!.!.W.W.W.` S S ( N.N.M.{ { { !.!.!.).).).Z.Z.Z.I.W.W.T     % G.D.G.G.G.G.D.G.G.G.D.G.",
"D.G.G.G.      p p p N V V V V V m p p p p p p !.!.!.!.!.!.W.W.W.) S S ( N.N.N.{ { { !.!.!.).).).Z.Z.Z.U.W.W.R     + G.D.G.G.G.G.D.G.G.G.D.G.",
"D.G.D.D.      p p p V V V V V V m p p p p p p !.!.!.!.!.!.W.W.W.) S S ( N.N.N.{ { { !.!.!.).).).Z.Z.Z.R.W.W.R X   o G.G.G.G.G.G.D.G.D.D.D.G.",
"D.G.G.G.D.G.D.      n V V j p p ,             { { { !.!.!.!.!.!.[ S S / r.r.e.S S S !.!.!.).).).Z.Z.Z.I.W.W.T X   % D.D.D.D.D.D.D.G.G.G.D.G.",
"D.G.G.G.D.G.G.      M V V j p p <             { { { !.!.!.!.!.!.` S S / r.r.r.S S S !.!.!.).).).Z.Z.Z.R.W.W.'       G.G.G.G.G.G.D.G.G.G.D.G.",
"D.G.G.G.D.G.G.      n V V j p p ,             { { { !.!.!.!.!.!.[ S S / r.r.e.S S e !.!.!.).).).Z.Z.Z.I.W.W.R     % G.G.G.G.G.G.D.G.G.G.D.G.",
"D.G.G.G.D.G.G.      s p s > . . * ! ~ !       @ = + k.j.k.L.K.L.c.b.b.7.r.r.r.e S S !.!.!./././.I.R.I.y * 2 v ! ^ W G.G.G.G.G.G.D.G.G.G.D.G.",
"D.G.G.G.D.G.G.      p p p #     & G.G.G.            { { { J.J.J.Y.N.m.d.r.r.r.S S S !.!.!.!.!.!.W.W.W.*     G G.G.D.G.G.G.G.G.G.D.G.G.G.D.G.",
"D.D.D.D.D.D.G.      < p p >     & D.A.D.    +       _ g.{ H.J.J.P.N.N.d.r.r.e.S e S !.!.!.!.!.!.W.W.W.2     7 D.D.D.G.D.D.D.D.D.D.D.D.D.D.D.",
"D.G.G.G.G.G.G.G H H > # > 6 H G L G.G.F./ <.$.D D D u u v I C.C.6.p.p.i.3.3.3.} } } Q.Q.Q.Q.Q.Q.Y Y Y v H H Q D.G.G.G.D.G.G.G.D.D.G.G.G.G.G.",
"D.G.G.G.G.G.G.D.G.G.%     L G.D.G.G.G.G.r.r.r.N.N.N.            1.r.r.8.S S S W.W.W.W.W.W.W.W.W.X     ! G.G.G.D.G.G.G.D.G.G.G.D.D.G.G.G.G.G.",
"D.G.G.G.G.G.G.D.G.G.o     L G.D.G.G.G.G.r.r.r.N.N.N.            2.r.r.8.S S S W.W.W.W.W.W.W.W.W.      ~ G.G.G.D.G.G.G.D.G.G.G.D.D.G.G.G.G.G.",
"D.G.G.G.G.G.G.D.G.G.4 O * K D.D.G.G.G.G.q.9.9.b.h.b.# # #       2.y.y.8.q w w v.v.z.V.z.V.x.x.x.      Q ~ ! F.D.G.G.G.D.D.D.D.D.D.G.G.G.G.G.",
"D.D.D.D.D.D.D.D.G.G.G.D.G.G.G.G.D.D.D.D.            V V V       _ N.N._       p p p p p p                   5 D.G.G.G.D.G.G.G.G.D.D.D.D.D.D.",
"D.G.G.G.D.G.G.D.D.D.D.D.G.G.G.G.D.G.G.G.            V V V       4.N.N.4.      p p p p p p                   7 D.D.D.D.D.G.G.G.G.D.G.G.G.D.G.",
"D.G.G.G.D.G.G.D.G.G.G.D.G.G.G.G.D.G.G.G.            V V V       _ m.m._       p p p p p p                   7 D.G.G.G.D.G.G.G.G.D.G.G.G.D.G.",
"D.G.G.G.D.G.G.D.G.G.G.D.G.G.G.G.D.G.G.G.D.G.G.D.G.G.            j V V j       V V V p p p       I I I A S S 8     . G.D.G.G.G.G.D.G.G.G.D.G.",
"D.G.G.G.D.G.G.D.G.G.G.D.G.G.G.G.D.G.G.G.D.G.G.D.G.G.            h V V j       V V V p p p       I I I F S S 8     O G.D.G.G.G.G.D.G.G.G.D.G.",
"D.G.D.D.D.G.G.D.G.G.G.G.G.G.G.G.D.G.D.D.D.G.G.D.G.G.            h V V h        .V V p p p       I I I F S S 8     + G.G.G.G.G.G.D.G.D.D.D.G.",
"D.G.G.G.D.G.D.D.D.D.D.D.D.D.D.D.D.G.G.G.D.G.D.            ).).).:.V V C S S S V V V V V V V V V       w S S 8     X D.D.D.D.D.D.D.G.G.G.D.G.",
"D.G.G.G.D.G.G.G.G.D.G.G.G.G.G.G.D.G.G.G.D.G.G.            (.).).,.V V C S S A V V V V V V V V V       q S S 8     % G.G.G.G.G.G.D.G.G.G.D.G.",
"D.G.G.G.D.G.G.G.G.D.G.G.G.G.G.G.D.G.G.G.D.G.G.            ).).).>.V V C S S S V V V V V V V V V       w S S 8     X G.G.G.G.G.G.D.G.G.G.D.G.",
"D.G.G.G.D.G.G.G.G.D.G.G.G.G.G.G.D.G.G.G.            I I I I I I ~.).).T.      V V V V V V r.r.r.*.*.*.#     7 G.G.D.G.G.G.G.G.G.D.G.G.G.D.G.",
"D.G.G.G.D.G.G.G.G.D.G.G.G.G.G.G.D.G.G.G.            I I I I I I ~.).).T.      V V V V V V r.r.r.*.*.=.>     7 G.G.D.G.G.G.G.G.G.D.G.G.G.D.G.",
"D.D.D.D.D.D.G.D.D.D.G.D.D.D.D.D.D.D.D.D.            I I I I I I ^.).).T.      V V V V V V r.r.r.*.*.*.#     7 D.D.D.G.D.D.D.D.D.D.D.D.D.D.D.",
"D.G.G.G.G.G.G.D.G.G.G.D.G.G.G.D.!             S S S S S e P I I 3     - S S S S S S S S S *.*.*.*.*.=.>     7 D.G.G.G.D.G.G.G.D.D.G.G.G.G.G.",
"D.G.G.G.G.G.G.D.G.G.G.D.G.G.G.D.^             S S S S S S I I I &     $ S S S S S S S S S *.*.*.*.*.*.#     7 D.G.G.G.D.G.G.G.D.D.G.G.G.G.G.",
"D.G.G.G.G.G.G.D.G.G.G.D.G.G.G.D.!             S S S S S S I I I 3     = S S S S S S S S S *.*.*.*.*.*.>     7 D.G.G.G.D.G.G.G.D.D.G.G.G.G.G.",
"D.G.G.G.G.G.G.D.G.G.G.D.D.D.D.D.~       e e i E.V.E.S S S O   O h N m  .&.&.&.&.&.&.*.&.*.*.*.*.V V  .#       % X O O X % D.D.D.D.G.G.G.G.G.",
"D.D.D.D.D.D.D.D.G.G.G.D.G.G.G.G.W       S S S W.W.W.S S S       j V V  .*.*.*.*.*.*.*.*.*.*.*.*.V V M .                   G.G.G.D.D.D.D.D.D.",
"D.G.G.G.D.G.G.D.D.D.D.D.G.G.G.G.W       S S S W.W.W.S S S       h V V  .*.*.*.*.*.*.*.*.*.*.*.*.V V V #                   G.G.G.D.G.G.G.D.G.",
"D.G.G.G.D.G.G.D.G.G.G.D.G.G.G.G.W       t u u y Z y ; - - d h d ..O.O.+.*.*.*.*.*.*.*.*.*.......1 1 1       = 9 9 9 9 9 9 6 6 6 D.G.G.G.D.G.",
"D.G.G.G.D.G.G.D.G.G.G.D.G.G.G.G.E       t r r             V V V O.*.*.*.*.*.*.*.*.*.*.*.*.V V V             ; S S S S S S       D.G.G.G.D.G.",
"D.G.G.G.D.G.G.D.G.G.G.D.G.G.G.G.W       r r r             B V V O.=.*.*.*.*.*.*.*.*.*.*.*.V V V             ; S S S S S S       D.G.G.G.D.G.",
"D.G.D.D.D.G.G.D.G.G.G.G.G.G.G.G.W 4 4 4 : : : O @ +       h b j x c x X.x X.x c c x X.x X.j j b = @ = + + + : i i e S S S       D.G.D.D.D.G.",
"D.G.G.G.D.G.D.D.D.D.D.D.D.D.D.D.D.G.G.G.      r r r                                             S S S t r r 0 r r t S S S       D.G.G.G.D.G.",
"D.G.G.G.D.G.G.G.G.D.G.G.G.G.G.G.D.G.G.G.      r r r                                             S S S r r r r r r r S S S       D.G.G.G.D.G.",
"D.G.G.G.D.G.G.G.G.D.G.G.G.G.G.G.D.G.G.G.  o   r r r       X   X   X X   X   X X   X   o         S S S t r r r r r r e S e   o   D.G.G.G.D.G.",
"D.G.G.G.D.G.G.G.G.D.G.G.G.G.G.G.D.G.G.G.D.G.G.            G.G.G.D.G.G.G.D.G.G.G.G.D.G.G.G.      0 r r r r r r r r r       G.G.G.D.G.G.G.D.G.",
"D.G.G.G.D.G.G.G.G.D.G.G.G.G.G.G.D.G.G.G.D.G.G.            G.G.G.D.G.G.G.D.G.G.G.G.D.G.G.G.      r r r r r r r r r r       G.G.G.D.G.G.G.D.G.",
"D.D.D.D.D.D.G.D.D.D.G.D.D.D.D.D.D.D.D.D.D.D.G.            S.S.D.D.D.D.D.D.D.G.D.D.D.G.D.D.      r r r r r r r r r 0       D.D.D.D.D.D.D.D.D.",
"D.G.G.G.G.G.G.D.G.G.G.D.G.G.G.D.G.G.G.G.G.G.G.D.G.G.G.D.G.G.G.D.D.G.G.G.G.G.G.D.G.G.G.D.G.G.G.D.                    G.D.G.G.G.D.D.G.G.G.G.G.",
"D.G.G.G.G.G.G.D.G.G.G.D.G.G.G.D.G.G.G.G.G.G.G.D.G.G.G.D.G.G.G.D.D.G.G.G.G.G.G.D.G.G.G.D.G.G.G.D.                  % G.D.G.G.G.D.D.G.G.G.G.G.",
"D.G.G.G.G.G.G.D.G.G.G.D.G.G.G.D.G.G.G.G.G.G.G.D.G.G.G.D.G.G.G.D.D.G.G.G.G.G.G.D.G.G.G.D.G.G.G.D.                  o G.D.G.G.G.D.D.G.G.G.G.G."
};
