/* XPM */
static char *result[] = {
/* columns rows colors chars-per-pixel */
"70 70 250 2 ",
"   c #000001",
".  c #000101",
"X  c #010101",
"o  c #000201",
"O  c #010201",
"+  c #000102",
"@  c #010103",
"#  c #010502",
"$  c #010602",
"%  c #020602",
"&  c #030305",
"*  c #030405",
"=  c #040406",
"-  c #040506",
";  c #080604",
":  c #0B0606",
">  c #040A03",
",  c #010A04",
"<  c #020D05",
"1  c #0E0807",
"2  c #050508",
"3  c #050708",
"4  c #060809",
"5  c #080A0B",
"6  c #0A0B0F",
"7  c #090C0D",
"8  c #0A0D0E",
"9  c #0A0E0F",
"0  c #100C07",
"q  c #110D08",
"w  c #071306",
"e  c #081206",
"r  c #0C1E08",
"t  c #0C1F09",
"y  c #1D1D01",
"u  c #0B0C10",
"i  c #0B0F10",
"p  c #0C0F11",
"a  c #0D0E13",
"s  c #0C1011",
"d  c #101116",
"f  c #101617",
"g  c #14151C",
"h  c #141A1B",
"j  c #141B1C",
"k  c #151C1D",
"l  c #251410",
"z  c #062107",
"x  c #072107",
"c  c #072308",
"v  c #072209",
"b  c #0B350B",
"n  c #0B360B",
"m  c #0C3A0C",
"M  c #0C3B0C",
"N  c #0C3C0C",
"B  c #0C3D0C",
"V  c #0C3E0C",
"C  c #2F2F01",
"Z  c #313101",
"A  c #362215",
"S  c #392010",
"D  c #392110",
"F  c #392011",
"G  c #3A2010",
"H  c #181A22",
"J  c #43251D",
"K  c #46271E",
"L  c #47281F",
"P  c #5D341A",
"I  c #62371B",
"U  c #4A2920",
"Y  c #0D400D",
"T  c #0D410D",
"R  c #0D420D",
"E  c #0D430D",
"W  c #0E430D",
"Q  c #0F430E",
"!  c #0D470F",
"~  c #0D4615",
"^  c #0D4810",
"/  c #0D4B11",
"(  c #0E4D12",
")  c #0C491B",
"_  c #214C15",
"`  c #205215",
"'  c #27731B",
"]  c #0C4F27",
"[  c #0D6321",
"{  c #0D6522",
"}  c #0E6D24",
"|  c #0F7124",
" . c #0F7427",
".. c #0F7728",
"X. c #107425",
"o. c #107526",
"O. c #107827",
"+. c #1B7528",
"@. c #187628",
"#. c #107828",
"$. c #107928",
"%. c #107A29",
"&. c #107B29",
"*. c #137A29",
"=. c #147B2A",
"-. c #127C29",
";. c #137D29",
":. c #157F29",
">. c #1A7B2B",
",. c #1C7B2B",
"<. c #1D7B2B",
"1. c #207B2C",
"2. c #77461F",
"3. c #727307",
"4. c #727407",
"5. c #585E27",
"6. c #585F27",
"7. c #724020",
"8. c #724120",
"9. c #734120",
"0. c #724220",
"q. c #744220",
"w. c #754422",
"e. c #784723",
"r. c #794824",
"t. c #7E4C25",
"y. c #7C4C26",
"u. c #6C552B",
"i. c #6F562A",
"p. c #7D743E",
"a. c #333646",
"s. c #333746",
"d. c #324141",
"f. c #344546",
"g. c #354647",
"h. c #354747",
"j. c #364849",
"k. c #2C4967",
"l. c #2C4A68",
"z. c #2F4E6E",
"x. c #315273",
"c. c #50464E",
"v. c #564E52",
"b. c #5C5556",
"n. c #717B4C",
"m. c #4C5269",
"M. c #565C77",
"N. c #595F7A",
"B. c #4F6A6A",
"V. c #5B617D",
"C. c #5C627D",
"Z. c #5D637F",
"A. c #557172",
"S. c #597473",
"D. c #587576",
"F. c #5D7979",
"G. c #5E7E7E",
"H. c #80521D",
"J. c #814F27",
"K. c #8C5E30",
"L. c #8F6026",
"P. c #95703B",
"I. c #99723D",
"U. c #9A723D",
"Y. c #9D743E",
"T. c #917B3E",
"R. c #957B3F",
"E. c #A0783F",
"W. c #917043",
"Q. c #9F7941",
"!. c #A27940",
"~. c #A47B41",
"^. c #A57C40",
"/. c #A67D44",
"(. c #A77E45",
"). c #A77F4A",
"_. c #348421",
"`. c #368822",
"'. c #378B23",
"]. c #398F24",
"[. c #379124",
"{. c #379224",
"}. c #389324",
"|. c #3A9325",
" X c #399525",
".X c #3A9725",
"XX c #3B9926",
"oX c #3C9A26",
"OX c #40A229",
"+X c #40A329",
"@X c #41A329",
"#X c #40A429",
"$X c #41A429",
"%X c #808000",
"&X c #CDCD00",
"*X c #D8D800",
"=X c #DCEE07",
"-X c #DBEE08",
";X c #E9F505",
":X c #FDFE00",
">X c #FEFF00",
",X c yellow",
"<X c #869465",
"1X c #C69949",
"2X c #CC9E4B",
"3X c #DFAF4F",
"4X c #DCAC52",
"5X c #DDAC52",
"6X c #DEAC52",
"7X c #E1B549",
"8X c #E0B14D",
"9X c #397E90",
"0X c #3A7E90",
"qX c #5F6582",
"wX c #5F7F80",
"eX c #606784",
"rX c #616785",
"tX c #626987",
"yX c #636A88",
"uX c #666D8C",
"iX c #608081",
"pX c #618182",
"aX c #638384",
"sX c #648586",
"dX c #668889",
"fX c #67898A",
"gX c #698B8C",
"hX c #698C8D",
"jX c #6A8C8D",
"kX c #6A8D8E",
"lX c #03BBFC",
"zX c #01BAFE",
"xX c #00BAFF",
"cX c #D1B189",
"vX c #D1B289",
"bX c #D3B38B",
"nX c #D5B48B",
"mX c #CAB392",
"MX c #DEC8A4",
"NX c #E5CEAA",
"BX c #F0D4AC",
"VX c #F2D7AF",
"CX c #F7DCB4",
"ZX c #FAE0B8",
"AX c #FBE2B9",
"SX c #FFE6BD",
"DX c #E4E4E5",
"FX c #E6E6E6",
"GX c #F3F3F3",
"HX c white",
/* pixels */
"uXkXkXkXuXkXkXkXkXuXkXkXkXkXkXkXuXkXkXkXuXkXkXkXkXuXkXkXkXkXkXkXuXkXkXkXuXkXkXkXkXuXkXkXkXkXkXkXuXkXkXkXuXkXkXkXkXuXkXkXkXkXkXkXuXkXkXkXuXkX",
"uXkXkXkXuXkXkXkXkXuXkXkXkXkXkXkXuXkXkXkXuXkXkXkXkXuXkXkXkXkX    ; ~.~.~.~.~.~.~.~.9.9.9.kXkXkXkXuXkXkXkXuXkXkXkXkXuXkXkXkXkXkXkXuXkXkXkXuXkX",
"uXuXuXuXuXuXkXuXuXuXkXuXuXuXuXuXuXuXuXuXuXuXkXuXuXuXkXuXuXuX    q ~.~.~.~.~.~.~.~.9.9.9.uXuXuXuXuXuXuXuXuXuXkXuXuXuXkXuXuXuXuXuXuXuXuXuXuXuX",
"uXkXkXkXkXkXkXuXkXkXkXuXkXkXkXuXkXkXkXkXkXkXkXuXkXkXkXuXkXkX    0 ~.~.~.~.~.~.~.~.9.9.9.kXkXkXuXkXkXkXkXkXkXkXuXkXkXkXuXkXkXkXuXuXkXkXkXkXkX",
"uXkXkXkXkXkXkXuXkXkXkXuXkXkXkXuXkXkXkXkXkXkXkXuXkXkXkX      6X6X3X,X,X,X,X,X,X,X,X6X6X6X~.~.~.uXkXkXkXkXkXkXkXuXkXkXkXuXkXkXkXuXuXkXkXkXkXkX",
"uXkXkXkXkXkXkXuXkXkXkXuXkXkXkXuXkXkXkXkXkXkXkXuXkXkXkX      6X6X8X,X,X,X,X,X,X,X,X6X6X6X~.~.~.uXkXkXkXkXkXkXkXuXkXkXkXuXkXkXkXuXuXkXkXkXkXkX",
"uXkXkXkXkXkXkXuXkXkXkXuXuXuXuXuXkXkXkXkXkXkXkXuXgXhXkX  X O 6X6X7X:X,X,X,X:X>X,X,X4X5X6X~.^.^.uXkXjXkXkXkXkXkXuXkXkXkXuXuXuXuXuXuXkXkXkXkXkX",
"uXuXuXuXuXuXuXuXkXkXkXuXkXkXkXkXuXuXuXuXuXuXuXuX      $X$X$X$X$X$X$X$X$X$X$X$X$X$X$X$X$X,X,X,X~.~.W.uXuXuXuXuXuXkXkXkXuXkXkXkXkXuXuXuXuXuXuX",
"uXkXkXkXuXkXkXuXuXuXuXuXkXkXkXkXuXkXkXkXuXkXkXuX      $X$X$X$X$X$X$X$X$X$X$X$X$X$X$X$X$X,X,X,X~.~.Q.kXkXuXkXkXuXuXuXuXuXkXkXkXkXuXkXkXkXuXkX",
"uXkXkXkXuXkXkXuXkXkXkXuXkXkXkXkXuXkXkXkXuXD.wXN.t r w XX{.[..XoX}.[. XoX X[.}.oX.X[.{.XX;X=X-XT.R.p.S.F.rXkXkXuXkXkXkXuXkXkXkXkXuXkXkXkXuXkX",
"uXkXkXkXuXkXkXuXkXkXkXuXkXkXkXkXuXkXkXkXuXp     $X$X$XR R R R R R R R R R R R R R R R R $X$X$X&.&.+.9.9.c.kXkXuXkXkXkXuXkXkXkXkXuXkXkXkXuXkX",
"uXkXkXkXuXkXkXuXkXkXkXuXkXkXkXkXuXkXkXkXuX7     $X$X$XR R R R R R R R R R R R R R R R R $X$X$X&.&.@.9.9.c.kXkXuXkXkXkXuXkXkXkXkXuXkXkXkXuXkX",
"uXkXuXuXuXkXkXuXkXkXkXkXkXkXkXkXuXkXm.a.a.v z x ' ' ' ' ' ' ' ' ' ' ' ' ' ' ' ' ' ' ' ' ' ' ' &.&.*.K.K.v.kXkXuXkXkXkXkXkXkXkXkXuXkXuXuXuXkX",
"uXkXkXkXuXkXuXuXuXuXuXuXuXuXuXuXuXkXg.    B R R R R R $X$X$X$X$X$X$X$X$X$X$X$X$X$X$X$X$XR R R &.&.,.~.~.b.kXuXuXuXuXuXuXuXuXuXuXuXkXkXkXuXkX",
"uXkXkXkXuXkXkXkXkXuXkXkXkXkXkXkXuXkXg.    M R R R R R $X$X$X$X$X$X$X$X$X$X$X$X$X$X$X$X$XR R R &.&.1.~.~.b.kXkXkXkXuXkXkXkXkXkXkXuXkXkXkXuXkX",
"uXkXkXkXuXkXkXkXkXuXkXkXkXkXkXkXuXkXg.    B R R [.{.XX$X$X$X$X$X$X$X$X$X$X$X$X$X$X$X$X$XR R R &.&.>.~.~.b.kXkXkXkXuXkXkXkXkXkXkXuXkXkXkXuXkX",
"uXkXkXkXuXkXkXkXkXuXkXkXkXkXkXkXuXkXg.    Y R R $X$X$X$X$X$X$X$X$X$X$X$X$X$X$X$X$X$X$X$XR R R &.&.=.~.~.b.kXkXkXkXuXkXkXkXkXkXkXuXkXkXkXuXkX",
"uXkXkXkXuXkXkXkXkXuXkXkXkXkXkXkXuXkXg.    N R R $X$X$X$X$X$X$X$X$X$X$X$X$X$X$X$X$X$X$X$XR R R &.&.<.~.~.b.kXkXkXkXuXkXkXkXkXkXkXuXkXkXkXuXkX",
"uXuXuXuXuXuXkXuXuXuXkXuXuX~.~.).cXbXn.R T o.&.&.W E R $X$X$X$X$X$X$X$X$X$X$X$X$X$XW E R &.&.%.R R R Q R n.bXvX).~.~.kXuXuXuXuXuXuXuXuXuXuXuX",
"uXkXkXkXkXkXkXuXkXkXkXuXkX~.~.(.nXnXn.R R O.&.&.R R R $X$X$X$X$X$X$X$X$X$X$X$X$X$XR R R &.&.&.R R R R R n.nXnX(.~.~.kXuXkXkXkXuXuXkXkXkXkXkX",
"uXkXkXkXkXkXkXuXkXkXkXuXkX~.~./.nXnXn.R R $.&.&.R R R $X$X$X$X$X$X$X$X$X$X$X$X$X$XR R R &.&.&.R R R R R n.nXnX/.~.~.kXuXkXkXkXuXuXkXkXkXkXkX",
"uXkXkXkXkXkXkXuXkXkX9.9.9.SXSXSXSXSX<XR R o.&.&.&.&.&.&.&.&.$X$X$X$X$X$X$X$X$X$X$X&.&.&.&.&.&.&.&.o.R R <XSXSXSXSXSX9.9.9.kXkXuXuXkXkXkXkXkX",
"uXkXkXkXkXkXkXuXkXkX9.9.9.SXSXSXSXSX<XR R o.&.&.&.&.&.&.&.&.$X$X$X$X$X$X$X$X$X$X$X&.&.&.&.&.&.&.&.o.R R <XSXSXSXSXSX9.9.9.uXuXuXuXkXkXkXkXkX",
"uXuXuXuXuXuXuXuXkXkX9.9.9.SXSXSXSXSX<XR R #.&.&.&.&.&.&.&.&.$X$X$X$X$X$X$X$X$X$X$X&.&.&.&.&.&.&.&.#.R R <XSXSXSXSXSX9.9.9.kXkXkXuXuXuXuXuXuX",
"uXkXkXkXuXkXkXuXuXuXuXuXkX9.9.w.~.~.5.R R R R R       &.&.&.$X$X$X$X$X$X$X$X$X$X$X&.&.&.      R R R R R 5.~.~.w.9.9.uXuXkXkXkXkXuXkXkXkXuXkX",
"uXkXkXkXuXkXkXuXkXkXkXuXkX9.9.e.~.~.5.R R R R R       &.&.&.$X$X$X$X$X$X$X$X$X$X$X&.&.&.      R R R R R 5.~.~.e.9.9.kXuXkXkXkXkXuXkXkXkXuXkX",
"uXkXkXkXuXkXkXuXkXkXkXuXkX9.9.e.~.~.6.R R R R R       &.&.&.$X$X$X$X$X$X$X$X$X$X$X&.&.&.      R R R R R 5.~.~.e.9.9.kXuXkXkXkXkXuXkXkXkXuXkX",
"uXkXkXkXuXkXkXuXkXkXkXuXkXkXkXdX9.9.0XxXxX~ R R       &.&.&.&.&.-.$X$X$X$X$X-.&.&.&.&.&.      R R ~ xXxX0X9.9.tXkXkXkXuXkXkXkXkXuXkXkXkXuXkX",
"uXkXuXuXuXkXkXuXkXkXkXkXkXkXkXsX9.9.9XxXxX) R R       &.&.&.&.&.;.$X$X$X$X$X;.&.&.&.&.&.      R R ) xXxX9X9.9.eXkXkXkXkXkXkXkXkXuXkXuXuXuXkX",
"uXkXkXkXuXkXuXuXuXuXuXuXuXuXuXC.7.9.0XzXlX] R R       &.&.%.&.&.:.#X$X$X$X#X:.&.&.%.&.&.      R R ] lXzX0X9.7.C.uXuXuXuXuXuXuXuXuXkXkXkXuXkX",
"uXkXkXkXuXkXkXkXkXuXkXkXkXkXkXiX    %X,X,XH.9.9.      R R R &.&.&.&.&.&.&.&.&.&.&.R R R       9.9.H.,X,X%X    iXkXuXkXkXkXkXkXkXuXkXkXkXuXkX",
"uXkXkXkXuXkXkXkXkXuXkXkXkXkXkXfX    %X,X,X2.9.9.      R R R &.&.&.&.&.&.&.&.&.&.&.R R R       9.9.2.,X,X%X    fXkXuXkXkXkXkXkXkXuXkXkXkXuXkX",
"uXkXkXkXuXkXkXkXkXuXkXkXkXkXkXaXg f 4.*X&XL.t.J.Z C y m n b X.o.| &.&.&.&.&.| o.X.b n m y C Z J.t.L.&X*X3.f k aXkXuXkXkXkXkXkXkXuXkXkXkXuXkX",
"uXkXkXkXuXkXkXkXkXuXkXkXkXkXkXkXuXkXg.    1X6X6X,X,X,X      R R ^ &.&.&.&.&.^ R R       ,X,X,X6X6X1X    a.kXkXkXkXuXkXkXkXkXkXkXuXkXkXkXuXkX",
"uXuXuXuXuXuXkXuXuXuXkXuXuXuXuXuXuXuXa.    2X6X6X,X,X,X      R R ! &.&.&.&.&.! R R       ,X,X,X6X6X2X    a.uXkXuXuXuXkXuXuXuXuXuXuXuXuXuXuXuX",
"uXkXkXkXkXkXkXuXkXkXkXuXkXkXkXuXkXkXB.g.g.u.i.i.%X%X%Xz x z z x c &.&.&.&.&.c x z z x z %X%X%Xi.i.u.g.g.B.kXkXuXkXkXkXuXkXkXkXuXuXkXkXkXkXkX",
"uXkXkXkXkXkXkXuXkXkXkXuXkXkXkXuXkXkXkXkXkX7           R R R     , &.&.&.&.&.,     R R R           7 kXkXkXkXkXuXkXkXkXuXkXkXkXuXuXkXkXkXkXkX",
"uXkXkXkXkXkXkXuXkXkXkXuXkXkXkXuXkXkXkXkXkXp           R R R     < &.&.&.&.&.<     R R R           p kXkXkXkXkXuXkXkXkXuXkXkXkXuXuXkXkXkXkXkX",
"uXkXkXkXkXkXkXuXkXkXkXuXuXuXuXuXkXkXkXkXkX5     [ { } R R R     # ( / ^ / ( #     R R R       N.wXD.kXkXkXkXkXuXkXkXkXuXuXuXuXuXuXkXkXkXkXkX",
"uXuXuXuXuXuXuXuXkXkXkXuXkXkXkXkXuXuXuXuXuX&     &.&.&.R R R     o R R R R R o     R R R       kXuXuXuXuXuXuXuXuXkXkXkXuXkXkXkXkXuXuXuXuXuXuX",
"uXkXkXkXuXkXkXuXuXuXuXuXkXkXkXkXuXkXkXkXuX8     &.&.&.R R R     $ R R R R R $     R R R       kXuXkXkXkXuXkXkXuXuXuXuXuXkXkXkXkXuXkXkXkXuXkX",
"uXkXkXkXuXkXkXuXkXkXkXuXkXkXkXkXuXkXg.+ @ } &.&.0.8.9.&.&.%.R R M .       . M R R R R R &.%.%.    s kXkXuXkXkXuXkXkXkXuXkXkXkXkXuXkXkXkXuXkX",
"uXkXkXkXuXkXkXuXkXkXkXuXkXkXkXkXuXkXg.     .&.&.9.9.9.&.&.&.R R V           V R R R R R &.&.&.    4 kXkXuXkXkXuXkXkXkXuXkXkXkXkXuXkXkXkXuXkX",
"uXkXkXkXuXkXkXuXkXkXkXuXkXkXkXkXuXkXg.    ..&.&.9.9.9.&.&.&.R R Y           Y R R R R R &.&.&.    - kXkXuXkXkXuXkXkXkXuXkXkXkXkXuXkXkXkXuXkX",
"uXkXuXuXuXkXkXuXkXkXkXkXkXkXkXkXuXkXa.    FXHXHX9.9.9.&.&.&.&.&.&.&.&.&.&.&.&.&.&.9.9.9.HXHXHX    9 uXuXuXkXkXuXkXkXkXkXkXkXkXkXuXkXuXuXuXkX",
"uXkXkXkXuXkXuXuXuXuXuXuXuXuXuXuXuXkXg.    DXHXHX9.9.9.&.&.&.&.&.&.&.&.&.&.&.&.&.&.9.9.9.HXHXHX    i kXkXuXkXuXuXuXuXuXuXuXuXuXuXuXkXkXkXuXkX",
"uXkXkXkXuXkXkXkXkXuXkXkXkXkXkXkXuXkXh.    GXHXHX9.9.9.&.&.&.&.&.&.&.&.&.&.&.&.&.&.9.9.9.HXHXHX    3 kXkXuXkXkXkXkXuXkXkXkXkXkXkXuXkXkXkXuXkX",
"uXkXkXkXuXkXkXkXkXuXkXkXkXkXkXkXuXkXkXkXuX3     &.&.&.9.9.9.9.9.9.9.9.9.9.9.9.9.9.      x.x.x.x.x.z.    a.kXkXkXkXuXkXkXkXkXkXkXuXkXkXkXuXkX",
"uXkXkXkXuXkXkXkXkXuXkXkXkXkXkXkXuXkXkXkXuXi     &.&.&.9.9.9.9.9.9.9.9.9.9.9.9.9.9.      x.x.x.x.x.k.    a.kXkXkXkXuXkXkXkXkXkXkXuXkXkXkXuXkX",
"uXkXkXkXuXkXkXkXkXuXkXkXkXkXkXkXuXkXkXkXuX9     &.&.&.9.9.9.9.9.9.9.9.9.9.9.9.9.9.      x.x.x.x.x.l.    a.kXkXkXkXuXkXkXkXkXkXkXuXkXkXkXuXkX",
"uXuXuXuXuXuXkXuXuXuXkXuXuXuXuXuXuXuXuXuXuX=     $X$X$X          % $X$X$X$X$X$X$X$XR R R       SXSXZX9.9.G     tXuXuXkXuXuXuXuXuXuXuXuXuXuXuX",
"uXkXkXkXkXkXkXuXkXkXkXuXkXkXkXuXkXkXkXkXkX4     $X$X$X          > $X$X$X$X$X$X$X$XR R R       SXSXCX9.9.D     eXkXkXkXuXkXkXkXuXuXkXkXkXkXkX",
"uXkXkXkXkXkXkXuXkXkXkXuXkXkXkXuXkXkXkXkXkXp     +X@X$X  X X     e OX$X$X$X$X$X$X$XE R R       SXSXBX9.9.G     V.kXkXkXuXkXkXkXuXuXkXkXkXkXkX",
"uXkXkXkXkXkXkXuXkXkXkXuXkXkXkXuXkXkXkXkXkX8     R R R 9.9.9.~.~.P.    ` $X$X$X$X$X&.&.&.      SXSXVX9.9.G     Z.kXkXkXuXkXkXkXuXuXkXkXkXkXkX",
"uXkXkXkXkXkXkXuXkXkXkXuXuXuXuXuXkXkXkXkXkX*     R R R 9.9.9.~.~.E.    ` $X$X$X$X$X&.&.&.      SXSXAX9.9.F     yXkXkXkXuXuXuXuXuXuXkXkXkXkXkX",
"uXuXuXuXuXuXuXuXkXkXkXuXkXkXkXkXuXuXuXuXuXH 6 a b n m r.y.y.~.~.I.1 : _ '._.`.|.].[ { } s h j MXNXmXP I A d g qXkXkXkXuXkXkXkXkXuXuXuXuXuXuX",
"uXkXkXkXuXkXkXuXuXuXuXuXkXkXkXkXuXkXkXkXuXkXkXuX      ~.~.~.~.~.U.U U l                 kXkXkX          a.kXkXuXuXuXuXuXkXkXkXkXuXkXkXkXuXkX",
"uXkXkXkXuXkXkXuXkXkXkXuXkXkXkXkXuXkXkXkXuXkXkXuX      ~.~.~.~.~.Y.U U l                 kXkXkX          a.kXkXuXkXkXkXuXkXkXkXkXuXkXkXkXuXkX",
"uXkXkXkXuXkXkXuXkXkXkXuXkXkXkXkXuXkXkXkXuXj.h.a.G S G ~.~.~.~.~.!.U U l     f.s.h.g.g.a.kXkXkXg.a.g.g.g.m.kXkXuXkXkXkXuXkXkXkXkXuXkXkXkXuXkX",
"uXkXkXkXuXkXkXuXkXkXkXuXkXkXkXkXuXkXkXkXuX7     9.9.9.~.~.~.~.~.Y.U U l     pXuXkXkXkXuXkXkXkXkXuXkXkXkXuXkXkXuXkXkXkXuXkXkXkXkXuXkXkXkXuXkX",
"uXkXuXuXuXkXkXuXkXkXkXkXkXkXkXkXuXkXuXuXuXp     9.9.9.~.~.~.~.~.U.U U l     G.uXkXkXkXkXkXkXkXkXuXkXuXuXuXkXkXuXkXkXkXkXkXkXkXkXuXkXuXuXuXkX",
"uXkXkXkXuXkXuXuXuXuXuXuXuXuXuXuXuXkXkXkXuX5     9.9.9.~.~.~.~.~.I.1 : d.M.A.uXuXuXuXuXuXuXuXuXuXuXkXkXkXuXkXuXuXuXuXuXuXuXuXuXuXuXkXkXkXuXkX",
"uXkXkXkXuXkXkXkXkXuXkXkXkXkXkXkXuXkXkXkXuX*     9.9.9.~.~.~.~.~.E.    g.uXkXkXkXkXuXkXkXkXkXkXkXuXkXkXkXuXkXkXkXkXuXkXkXkXkXkXkXuXkXkXkXuXkX",
"uXkXkXkXuXkXkXkXkXuXkXkXkXkXkXkXuXkXkXkXuX8     9.9.9.~.~.~.~.~.P.    g.uXkXkXkXkXuXkXkXkXkXkXkXuXkXkXkXuXkXkXkXkXuXkXkXkXkXkXkXuXkXkXkXuXkX",
"uXkXkXkXuXkXkXkXkXuXkXkXkXkXkXkXuXkXkXkXuXp     U U U 9.9.q.U U J     g.uXkXkXkXkXuXkXkXkXkXkXkXuXkXkXkXuXkXkXkXkXuXkXkXkXkXkXkXuXkXkXkXuXkX",
"uXkXkXkXuXkXkXkXkXuXkXkXkXkXkXkXuXkXkXkXuX4     U U U 9.9.9.U U K     g.uXkXkXkXkXuXkXkXkXkXkXkXuXkXkXkXuXkXkXkXkXuXkXkXkXkXkXkXuXkXkXkXuXkX",
"uXuXuXuXuXuXkXuXuXuXkXuXuXuXuXuXuXuXuXuXuX=     U U U 9.9.9.U U L     a.uXuXkXuXuXuXkXuXuXuXuXuXuXuXuXuXuXuXkXuXuXuXkXuXuXuXuXuXuXuXuXuXuXuX",
"uXkXkXkXkXkXkXuXkXkXkXuXkXkXkXuXkXkXkXkXkXkXkXuX                6 kXkXkXkXkXkXuXkXkXkXuXkXkXkXuXkXkXkXkXkXkXkXuXkXkXkXuXkXkXkXuXuXkXkXkXkXkX",
"uXkXkXkXkXkXkXuXkXkXkXuXkXkXkXuXkXkXkXkXkXkXkXuX                u kXkXkXkXkXkXuXkXkXkXuXkXkXkXuXkXkXkXkXkXkXkXuXkXkXkXuXkXkXkXuXuXkXkXkXkXkX",
"uXkXkXkXkXkXkXuXkXkXkXuXkXkXkXuXkXkXkXkXkXkXkXuX                2 kXkXkXkXkXkXuXkXkXkXuXkXkXkXuXkXkXkXkXkXkXkXuXkXkXkXuXkXkXkXuXuXkXkXkXkXkX"
};
