/* XPM */
static char *result[] = {
/* columns rows colors chars-per-pixel */
"70 70 11 1 ",
"  c #100A1D",
". c #3F4256",
"X c #535771",
"o c #556772",
"O c #841F3C",
"+ c #CE390F",
"@ c #ED911F",
"# c #FED960",
"$ c #666D8C",
"% c #6A8D8E",
"& c #FFFDFD",
/* pixels */
"$%%%$%%%%$%%%%%%$%%%$%%%%$%%%%%%$%%%$%%%%$%%%%%%$%%%$%%%%$%%%%%%$%%%$%",
"$%%%$%%%%$%%%%%%$%%%$%%%%$%%%%%%$%%%$%%%%$%%%%%%$%%%$%%%%$%%%%%%$%%%$%",
"$$$$$$%$$$%$$$$$$$$$$$%$$$%$$$$$$$$$$$%$$$%$$$$$$$$$$$%$$$%$$$$$$$$$$$",
"$%%%%%%$%%%$%%%$%%%%%%%$%%%$%%%$$%%%%%%$%%%$%%%$%%%%%%%$%%%$%%%$$%%%%%",
"$%%%%%%$%%%$%%%$%%%%%%%$%%%$%%%$$%%%%%%$%%%$%%%$%%%%%%%$%%%$%%%$$%%%%%",
"$%%%%%%$%%%$%%%$%%%%%%%$%%%$%%%$$%%%%%%$%%%$%%%$%%%%%%%$%%%$%%%$$%%%%%",
"$%%%%%%$%%%$$$$$%%%%%%%$%%%$$$$$$%%%%%%$%%%$$$$$%%%%%%%$%%%$$$$$$%%%%%",
"$$$$$$$$%%%$%%%%$$$$$$$$%%%$%%%%$$$$$$$$%%%$%%%%$$$$$$$$%%%$%%%%$$$$$$",
"$%%%$%%$$$$$%%%%$%%%$%%$$$$$%%%%$%%%$%%$$$$$%%%%$%%%$%%$$$$$%%%%$%%%$%",
"$%%%$%%$%%%$%%%%$%%%$%%$%%%$%%%%$%%%$%%$%%%$%%%%$%%%$%%$%%%$%%%%$%%%$%",
"$%%%$%%$%%%$%%%%$%%%$%%$%%%$%%%%$%%%$%%$%%%$%%%%$%%%$%%$%%%$%%%%$%%%$%",
"$%%%$%%$%%%$%%%%$%%%$%%$%%%$%%%%$%%%$%%$%%%$%%%%$%%%$%%$%%%$%%%%$%%%$%",
"$%$$$%%$%%%%%%%%$%$$$%%$%%%%%%%%$%$$$%%$%%%%%%%%$%$$$%%$%%%%%%%%$%$$$%",
"$%%%$%$$$$$$$$$$$%%%$%$$$$$$$$$$$%%%$%$$$$$$$$$$$%%%$%$$$$$$$$$$$%%%$%",
"$%%%$%%%%$%%%%%%$%%%$%%%%$%%%%%%$%%%$%%%%$%%%%%%$%%%$%%%%$%%%%%%$%%%$%",
"$%%%$%%%%$%%%%%%$%%%$%%%%$%%%%%%$%%%$%%%%$%%%%%%$%%%$%%%%$%%%%%%$%%%$%",
"$%%%$%%%%$%%%%%%$%%%$%%%%$%%%%%%$%%%$%%%%$%%%%%%$%%%$%%%%$%%%%%%$%%%$%",
"$%%%$%%%%$%%%%%%$%%%$%%%%$%%%%%%$%%%$%%%%$%%%%%%$%%%$%%%%$%%%%%%$%%%$%",
"$$$$$$%$$$%$$$$$$$$$$$%$$$%$$$$$$$$$$$%$$$%$$$$$$$$$$$%$$$%$$$$$$$$$$$",
"$%%%%%%$%%%$%%%$%%%%%%%$%%%$%%%$$%%%%%%$%%%$%%%$%%%%%%%$%%%$%%%$$%%%%%",
"$%%%%%%$%%%$%%%$%%%%%%%$%%%$%%%$$%%%%%OOOOOO++++++%%%%%$%%%$%%%$$%%%%%",
"$%%%%%%$%%%$%%%$%%%%%%%$%%%$%%%$$%%%%%OOOOOO++++++%%%%%$%%%$%%%$$%%%%%",
"$%%%%%%$%%%$$$$$%%%%%%%$%%%$$$$$$%%%%%OOOOOO++++++%%%%%$%%%$$$$$$%%%%%",
"$$$$$$$$%%%$%%%%$$$$$$$++++++OOO$$$OOO@@@&&&######+++$$$%%%$%%%%$$$$$$",
"$%%%$%%$$$$$%%%%$%%%$%%++++++OOO$%%OOO@@@&&&######+++%%$$$$$%%%%$%%%$%",
"$%%%$%%$%%%$%%%%$%%%$%%++++++OOO$%%OOO@@@&&&######+++%%$%%%$%%%%$%%%$%",
"$%%%$%%$%%%$%%%%$%%%$%%OOO###+++OOOOOO###+++&&&@@@+++%%$%%%$%%%%$%%%$%",
"$%%%$%%$%%%$%%%%$%%%$%%OOO###+++OOOOOO###+++&&&@@@+++%%$%%%$%%%%$%%%$%",
"$%$$$%%$%%%%%%%%$%$$$%%OOO###+++OOOOOO###+++&&&@@@+++%%$%%%%%%%%$%$$$%",
"$%%%$%$$$$$$$$$$$%%%OOO@@@###+++OOO@@@###   &&&@@@OOO%$$$$$$$$$$$%%%$%",
"$%%%$%%%%$%%%%%%$%%%OOO@@@###+++OOO@@@###   &&&@@@OOO%%%%$%%%%%%$%%%$%",
"$%%%$%%%%$%%%%%%$%%%OOO@@@###+++OOO@@@###   &&&@@@OOO%%%%$%%%%%%$%%%$%",
"$%%%$%%%%$%%%%%%$%%%   @@@@@@@@@+++@@@###OOO&&&@@@OOO%%%%$%%%%%%$%%%$%",
"$%%%$%%%%$%%%%%%$%%%   @@@@@@@@@+++@@@###OOO&&&@@@OOO%%%%$%%%%%%$%%%$%",
"$$$$$$%$$$%$$$$$$$$$   @@@@@@@@@+++@@@###OOO&&&@@@OOO$%$$$%$$$$$$$$$$$",
"$%%%%%%$%%%$%%%$%%%%   ++++++++++++@@@###OOO&&&@@@OOO%%$%%%$%%%$$%%%%%",
"$%%%%%%$%%%$%%%$%%%%   ++++++++++++@@@###OOO&&&@@@OOO%%$%%%$%%%$$%%%%%",
"$%%%%%%$%%%$%%%$%%%%   ++++++++++++@@@###OOO&&&@@@OOO%%$%%%$%%%$$%%%%%",
"$%%%%%%$%%%$$$$$%%%%               OOO@@@&&&&&&@@@   %%$%%%$$$$$$%%%%%",
"$$$$$$$$%%%$%%%%$$$$               OOO@@@&&&&&&@@@   $$$%%%$%%%%$$$$$$",
"$%%%$%%$$$$$%%%%$%%%               OOO@@@&&&&&&@@@   %%$$$$$%%%%$%%%$%",
"$%%%$%%$%%%$%%%%$%%%$%%$%%%$%%%%$%%   +++@@@@@@+++   %%$%%%$%%%%$%%%$%",
"$%%%$%%$%%%$%%%%$%%%$%%$%%%$%%%%$%%   +++@@@@@@+++   %%$%%%$%%%%$%%%$%",
"$%%%$%%$%%%$%%%%$%%%$%%$%%%$%%%%$%%   +++@@@@@@+++   %%$%%%$%%%%$%%%$%",
"$%$$$%%$%%%%%%%%$%$$$%%$%%%%%%%%$%$$$%            $$$%%$%%%%%%%%$%$$$%",
"$%%%$%$$$$$$$$$$$%%%$%$$$$$$$$$$$%%%$%            %%$%$$$$$$$$$$$%%%$%",
"$%%%$%%%%$%%%%%%$%%%$%%%%$%%%%%%$%%%$%            %%$%%%%$%%%%%%$%%%$%",
"$%%%$%%%%$%%%%%%$%%%$%%%%$%%%%%%$%%%$%%%%$%%%%%%$%%%$%%%%$%%%%%%$%%%$%",
"$%%%$%%%%$%%%%%%$%%%$%%%%$%%%%%%$%%%$%%%%$%%%%%%$%%%$%%%%$%%%%%%$%%%$%",
"$%%%$%%%%$%%%%%%$%%%$%%%%$%%%%%%$%%%$%%%%$%%%%%%$%%%$%%%%$%%%%%%$%%%$%",
"$$$$$$%$$$%$$$$$$$$$$$%$$$%$$$$$$$$$$$%$$$%$$$$$$$$$$$%$$$%$$$$$$$$$$$",
"$%%%%%%$%%%$%%%$%%%%%%%$%%%$%%%$$%%%%%%$%%%$%%%$%%%%%%%$%%%$%%%$$%%%%%",
"$%%%%%%$%%%$%%%$%%%%%%%$%%%$%%%$$%%%%%%$%%%$%%%$%%%%%%%$%%%$%%%$$%%%%%",
"$%%%%%%$%%%$%%%$%%%%%%%$%%%$%%%$$%%%%%%$%%%$%%%$%%%%%%%$%%%$%%%$$%%%%%",
"$%%%%%%$%%%$$$$$%%%%%%%$%%%$$$$$$%%%%%%$%%%$$$$$%%%%%%%$%%%$$$$$$%%%%%",
"$$$$$$$$%%%$%%%%$$$$$$$$%%%$%%%%$$$$$$$$%%%$%%%%$$$$$$$$%%%$%%%%$$$$$$",
"$%%%$%%$$$$$%%%%$%%%$%%$$$$$%%%%$%%%$%%$$$$$%%%%$%%%$%%$$$$$%%%%$%%%$%",
"$%%%$%%$%%%$%%%%$%%%$%%$%%%$%%%%$%%%$%%$%%%$%%%%$%%%$%%$%%%$%%%%$%%%$%",
"$%%%$%%$%%%$%%%%$%%%$%%$%%%$%%%%$%%%$%%$%%%$%%%%$%%%$%%$%%%$%%%%$%%%$%",
"$%%%$%%$%%%$%%%%$%%%$%%$%%%$%%%%XoooXooXoooX%%%%$%%%$%%$%%%$%%%%$%%%$%",
"$%$$$%%$%%%%%%%%$%$$$%%$%%%%%%%%X..........o%%%%$%$$$%%$%%%%%%%%$%$$$%",
"$%%%$%$$$$$$$$$$$%%%$%$$$$$$$$$$X..........X$$$$$%%%$%$$$$$$$$$$$%%%$%",
"$%%%$%%%%$%%%%%%$%%%$%%%%$oooooo............ooooXo%%$%%%%$%%%%%%$%%%$%",
"$%%%$%%%%$%%%%%%$%%%$%%%%$o......................o%%$%%%%$%%%%%%$%%%$%",
"$%%%$%%%%$%%%%%%$%%%$%%%%$ooooooXoooXooooXooooooXo%%$%%%%$%%%%%%$%%%$%",
"$%%%$%%%%$%%%%%%$%%%$%%%%$%%%%%%$%%%$%%%%$%%%%%%$%%%$%%%%$%%%%%%$%%%$%",
"$$$$$$%$$$%$$$$$$$$$$$%$$$%$$$$$$$$$$$%$$$%$$$$$$$$$$$%$$$%$$$$$$$$$$$",
"$%%%%%%$%%%$%%%$%%%%%%%$%%%$%%%$$%%%%%%$%%%$%%%$%%%%%%%$%%%$%%%$$%%%%%",
"$%%%%%%$%%%$%%%$%%%%%%%$%%%$%%%$$%%%%%%$%%%$%%%$%%%%%%%$%%%$%%%$$%%%%%",
"$%%%%%%$%%%$%%%$%%%%%%%$%%%$%%%$$%%%%%%$%%%$%%%$%%%%%%%$%%%$%%%$$%%%%%"
};
