/* XPM */
static char *result[] = {
/* columns rows colors chars-per-pixel */
"70 70 12 1 ",
"  c #100A1D",
". c #3F4256",
"X c #545A6D",
"o c #535771",
"O c #556772",
"+ c #841F3C",
"@ c #CE390F",
"# c #ED911F",
"$ c #FED960",
"% c #666D8C",
"& c #6A8D8E",
"* c #FFFDFD",
/* pixels */
"%&&&%&&&&%&&&&&&%&&&%&&&&%&&&&&&%&&&%&&&&%&&&&&&%&&&%&&&&%&&&&&&%&&&%&",
"%&&&%&&&&%&&&&&&%&&&%&&&&%&&&&&&%&&&%&&&&%&&&&&&%&&&%&&&&%&&&&&&%&&&%&",
"%%%%%%&%%%&%%%%%%%%%%%&%%%&%%%%%%%%%%%&%%%&%%%%%%%%%%%&%%%&%%%%%%%%%%%",
"%&&&&&&%&&&%&&&%&&&&&&&%&&&%&&&%%&&&&&&%&&&%&&&%&&&&&&&%&&&%&&&%%&&&&&",
"%&&&&&&%&&&%&&&%&&&&&&&%&&&%&&&%%&&&&&&%&&&%&&&%&&&&&&&%&&&%&&&%%&&&&&",
"%&&&&&&%&&&%&&&%&&&&&&&%&&&%&&&%%&&&&&&%&&&%&&&%&&&&&&&%&&&%&&&%%&&&&&",
"%&&&&&&%&&&%%%%%&&&&&&&%&&&%%%%%%&&&&&&%&&&%%%%%&&&&&&&%&&&%%%%%%&&&&&",
"%%%%%%%%&&&%&&&&%%%%%%%%&&&%&&&&%%%%%%%%&&&%&&&&%%%%%%%%&&&%&&&&%%%%%%",
"%&&&%&&%%%%%&&&&%&&&%&&%%%%%&&&&%&&&%&&%%%%%&&&&%&&&%&&%%%%%&&&&%&&&%&",
"%&&&%&&%&&&%&&&&%&&&%&&%&&&%&&&&%&&&%&&%&&&%&&&&%&&&%&&%&&&%&&&&%&&&%&",
"%&&&%&&%&&&%&&&&%&&&%&&%&&&%&&&&%&&&%&&%&&&%&&&&%&&&%&&%&&&%&&&&%&&&%&",
"%&&&%&&%&&&%&&&&%&&&%&&%&&&%&&&&%&&&%&&%&&&%&&&&%&&&%&&%&&&%&&&&%&&&%&",
"%&%%%&&%&&&&&&&&%&%%%&&%&&&&&&&&%&%%%&&%&&&&&&&&%&%%%&&%&&&&&&&&%&%%%&",
"%&&&%&%%%%%%%%%%%&&&%&%%%%%%%%%%%&&&%&%%%%%%%%%%%&&&%&%%%%%%%%%%%&&&%&",
"%&&&%&&&&%&&&&&&%&&&%&&&&%&&&&&&%&&&%&&&&%&&&&&&%&&&%&&&&%&&&&&&%&&&%&",
"%&&&%&&&&%&&&&&&%&&&%&&&&%&&&&&&%&&&%&&&&%&&&&&&%&&&%&&&&%&&&&&&%&&&%&",
"%&&&%&&&&%&&&&&&%&&&%&&&&%&&&&&&%&&&%&&&&%&&&&&&%&&&%&&&&%&&&&&&%&&&%&",
"%&&&%&&&&%&&&&&&%&&&%&&&&%&&&&&&%&&&%&&&&%&&&&&&%&&&%&&&&%&&&&&&%&&&%&",
"%%%%%%&%%%&%%%%%%%%%%%&%%%&%%%%%%%%%%%&%%%&%%%%%%%%%%%&%%%&%%%%%%%%%%%",
"%&&&&&&%&&&%&&&%&&&&&&&%&&&%&&&%%&&&&&&%&&&%&&&%&&&&&&&%&&&%&&&%%&&&&&",
"%&&&&&&%&&&%&&&%&&&&&&&%&&&%&&&%%&&&&&&%&+++@@@@@@@@@@@@&&&%&&&%%&&&&&",
"%&&&&&&%&&&%&&&%&&&&&&&%&&&%&&&%%&&&&&&%&+++@@@@@@@@@@@@&&&%&&&%%&&&&&",
"%&&&&&&%&&&%%%%%&&&&&&&%&&&%%%%%%&&&&&&%&+++@@@@@@@@@@@@&&&%%%%%%&&&&&",
"%%%%%%%%&&&%&&&&%%%%%%%@@@@@@@@@%%%%%%+++###$$$******###@@@%&&&&%%%%%%",
"%&&&%&&%%%%%&&&&%&&&%&&@@@@@@@@@%&&&%&+++###$$$******###@@@%&&&&%&&&%&",
"%&&&%&&%&&&%&&&&%&&&%&&@@@@@@@@@%&&&%&+++###$$$******###@@@%&&&&%&&&%&",
"%&&&%&&%&&&%&&&&%+++%&&+++$$$+++%&&&%&+++$$$@@@@@@@@@***@@@%&&&&%&&&%&",
"%&&&%&&%&&&%&&&&%+++%&&+++$$$+++%&&&%&+++$$$@@@@@@@@@***@@@%&&&&%&&&%&",
"%&%%%&&%&&&&&&&&%+++%&&+++$$$+++%&%%%&+++$$$@@@@@@@@@***@@@&&&&&%&%%%&",
"%&&&%&%%%%%%%%+++$$$+++$$$###+++@@@@@@@@@$$$         ***+++%%%%%%&&&%&",
"%&&&%&&&&%&&&&+++$$$+++$$$###+++@@@@@@@@@$$$         ***+++&&&&&%&&&%&",
"%&&&%&&&&%&&&&+++$$$+++$$$###+++@@@@@@@@@$$$         ***+++&&&&&%&&&%&",
"%&&&%&&&&%&+++$$$###$$$######$$$$$$$$$$$$$$$   XXX+++$$$+++&&&&&%&&&%&",
"%&&&%&&&&%&+++$$$###$$$######$$$$$$$$$$$$$$$   XXX+++$$$+++&&&&&%&&&%&",
"%%%%%%&%%%&+++$$$###$$$######$$$$$$$$$$$$$$$   XXX+++$$$+++%%%%%%%%%%%",
"%&&&&&&%&&&+++@@@@@@@@@@@@@@@@@@@@@@@@###***+++++++++$$$+++%&&&%%&&&&&",
"%&&&&&&%&&&+++@@@@@@@@@@@@@@@@@@@@@@@@###***+++++++++$$$+++%&&&%%&&&&&",
"%&&&&&&%&&&+++@@@@@@@@@@@@@@@@@@@@@@@@###***+++++++++$$$+++%&&&%%&&&&&",
"%&&&&&&%&&&                           +++###***$$$$$$###+++%%%%%%&&&&&",
"%%%%%%%%&&&                           +++###***$$$$$$###+++%&&&&%%%%%%",
"%&&&%&&%%%%                           +++###***$$$$$$###+++%&&&&%&&&%&",
"%&&&%&&%&&&%&&&&%&&&%&&%&&&%&&&&%&&&%&   +++@@@@@@@@@+++   %&&&&%&&&%&",
"%&&&%&&%&&&%&&&&%&&&%&&%&&&%&&&&%&&&%&   +++@@@@@@@@@+++   %&&&&%&&&%&",
"%&&&%&&%&&&%&&&&%&&&%&&%&&&%&&&&%&&&%&   +++@@@@@@@@@+++   %&&&&%&&&%&",
"%&%%%&&%&&&&&&&&%&%%%&&%&&&&&&&&%&%%%&&%&               &&&&&&&&%&%%%&",
"%&&&%&%%%%%%%%%%%&&&%&%%%%%%%%%%%&&&%&%%%               %%%%%%%%%&&&%&",
"%&&&%&&&&%&&&&&&%&&&%&&&&%&&&&&&%&&&%&&&&               &%&&&&&&%&&&%&",
"%&&&%&&&&%&&&&&&%&&&%&&&&%&&&&&&%&&&%&&&&%&&&&&&%&&&%&&&&%&&&&&&%&&&%&",
"%&&&%&&&&%&&&&&&%&&&%&&&&%&&&&&&%&&&%&&&&%&&&&&&%&&&%&&&&%&&&&&&%&&&%&",
"%&&&%&&&&%&&&&&&%&&&%&&&&%&&&&&&%&&&%&&&&%&&&&&&%&&&%&&&&%&&&&&&%&&&%&",
"%%%%%%&%%%&%%%%%%%%%%%&%%%&%%%%%%%%%%%&%%%&%%%%%%%%%%%&%%%&%%%%%%%%%%%",
"%&&&&&&%&&&%&&&%&&&&&&&%&&&%&&&%%&&&&&&%&&&%&&&%&&&&&&&%&&&%&&&%%&&&&&",
"%&&&&&&%&&&%&&&%&&&&&&&%&&&%&&&%%&&&&&&%&&&%&&&%&&&&&&&%&&&%&&&%%&&&&&",
"%&&&&&&%&&&%&&&%&&&&&&&%&&&%&&&%%&&&&&&%&&&%&&&%&&&&&&&%&&&%&&&%%&&&&&",
"%&&&&&&%&&&%%%%%&&&&&&&%&&&%%%%%%&&&&&&%&&&%%%%%&&&&&&&%&&&%%%%%%&&&&&",
"%%%%%%%%&&&%&&&&%%%%%%%%&&&%&&&&%%%%%%%%&&&%&&&&%%%%%%%%&&&%&&&&%%%%%%",
"%&&&%&&%%%%%&&&&%&&&%&&%%%%%&&&&%&&&%&&%%%%%&&&&%&&&%&&%%%%%&&&&%&&&%&",
"%&&&%&&%&&&%&&&&%&&&%&&%&&&%&&&&%&&&%&&%&&&%&&&&%&&&%&&%&&&%&&&&%&&&%&",
"%&&&%&&%&&&%&&&&%&&&%&&%&&&%&&&&%&&&%&&%&&&%&&&&%&&&%&&%&&&%&&&&%&&&%&",
"%&&&%&&%&&&%&&&&%&&&%&&%&&&%&&&&oOOOoOOoOOOo&&&&%&&&%&&%&&&%&&&&%&&&%&",
"%&%%%&&%&&&&&&&&%&%%%&&%&&&&&&&&o..........O&&&&%&%%%&&%&&&&&&&&%&%%%&",
"%&&&%&%%%%%%%%%%%&&&%&%%%%%%%%%%o..........o%%%%%&&&%&%%%%%%%%%%%&&&%&",
"%&&&%&&&&%&&&&&&%&&&%&&&&%OOOOOO............OOOOoO&&%&&&&%&&&&&&%&&&%&",
"%&&&%&&&&%&&&&&&%&&&%&&&&%O......................O&&%&&&&%&&&&&&%&&&%&",
"%&&&%&&&&%&&&&&&%&&&%&&&&%OOOOOOoOOOoOOOOoOOOOOOoO&&%&&&&%&&&&&&%&&&%&",
"%&&&%&&&&%&&&&&&%&&&%&&&&%&&&&&&%&&&%&&&&%&&&&&&%&&&%&&&&%&&&&&&%&&&%&",
"%%%%%%&%%%&%%%%%%%%%%%&%%%&%%%%%%%%%%%&%%%&%%%%%%%%%%%&%%%&%%%%%%%%%%%",
"%&&&&&&%&&&%&&&%&&&&&&&%&&&%&&&%%&&&&&&%&&&%&&&%&&&&&&&%&&&%&&&%%&&&&&",
"%&&&&&&%&&&%&&&%&&&&&&&%&&&%&&&%%&&&&&&%&&&%&&&%&&&&&&&%&&&%&&&%%&&&&&",
"%&&&&&&%&&&%&&&%&&&&&&&%&&&%&&&%%&&&&&&%&&&%&&&%&&&&&&&%&&&%&&&%%&&&&&"
};
