/* XPM */
static char *result[] = {
/* columns rows colors chars-per-pixel */
"70 70 175 2 ",
"   c #060A05",
".  c #0D0A07",
"X  c #0D0C09",
"o  c #110E0C",
"O  c #0D120C",
"+  c #13110F",
"@  c #100F10",
"#  c #0F1213",
"$  c #131312",
"%  c #1A1513",
"&  c #161A15",
"*  c #1C1A16",
"=  c #12171A",
"-  c #13191C",
";  c #1C1C1A",
":  c #201B17",
">  c #221D1A",
",  c #1D221C",
"<  c #24221E",
"1  c #29221E",
"2  c #151D24",
"3  c #191D22",
"4  c #171F29",
"5  c #1C2227",
"6  c #1A242D",
"7  c #1B2732",
"8  c #1B2935",
"9  c #1D2D3B",
"0  c #232322",
"q  c #2C2521",
"w  c #242A23",
"e  c #2A2C26",
"r  c #2A2A2A",
"t  c #312925",
"y  c #342D29",
"u  c #382F2B",
"i  c #293027",
"p  c #2D342B",
"a  c #2F382D",
"s  c #34322C",
"d  c #3A322E",
"f  c #30382E",
"g  c #343534",
"h  c #3D3430",
"j  c #363936",
"k  c #3B3934",
"l  c #3D3C3B",
"z  c #413734",
"x  c #354234",
"c  c #3D413C",
"v  c #3C493A",
"b  c #42413F",
"n  c #1D2F40",
"m  c #1E3142",
"M  c #203445",
"N  c #213649",
"B  c #223A4D",
"V  c #253E54",
"C  c #254056",
"Z  c #27425B",
"A  c #28445D",
"S  c #294661",
"D  c #274963",
"F  c #2B4A65",
"G  c #2C4E6A",
"H  c #314D66",
"J  c #334F6B",
"K  c #2D516E",
"L  c #365367",
"P  c #33536C",
"I  c #3C526D",
"U  c #3B5B6D",
"Y  c #2E5574",
"T  c #2F5778",
"R  c #2F597A",
"E  c #315574",
"W  c #3A5776",
"Q  c #325975",
"!  c #3E5E71",
"~  c #315778",
"^  c #315B7C",
"/  c #3A5C79",
"(  c #3E6175",
")  c #3B617B",
"_  c #434443",
"`  c #4A4A4A",
"'  c #4F504F",
"]  c #535353",
"[  c #585958",
"{  c #445673",
"}  c #405D71",
"|  c #4B5A75",
" . c #475B79",
".. c #4D5D7A",
"X. c #525B75",
"o. c #545E7A",
"O. c #47636B",
"+. c #426172",
"@. c #496775",
"#. c #4B6A76",
"$. c #59617D",
"%. c #506F7A",
"&. c #4E707B",
"*. c #567377",
"=. c #55747A",
"-. c #58777C",
";. c #59797E",
":. c #325E81",
">. c #346185",
",. c #396584",
"<. c #35658B",
"1. c #396689",
"2. c #36688F",
"3. c #3A698D",
"4. c #366A92",
"5. c #3A6D94",
"6. c #376E98",
"7. c #386F98",
"8. c #3C7097",
"9. c #37709A",
"0. c #3A729B",
"q. c #3A76A2",
"w. c #3C79A6",
"e. c #3D7CAA",
"r. c #446B82",
"t. c #486C81",
"y. c #566583",
"u. c #5B6583",
"i. c #5E6886",
"p. c #5D6C8C",
"a. c #49738B",
"s. c #577780",
"d. c #5A7B82",
"f. c #4E6D91",
"g. c #417294",
"h. c #42759B",
"j. c #45799E",
"k. c #606785",
"l. c #616886",
"z. c #666D8C",
"x. c #637B9E",
"c. c #437BA4",
"v. c #427EA9",
"b. c #5F8185",
"n. c #4E809C",
"m. c #56859B",
"M. c #648587",
"N. c #648589",
"B. c #67898B",
"V. c #6A8D8E",
"C. c #6A8D90",
"Z. c #4980A6",
"A. c #4481AD",
"S. c #4984AE",
"D. c #568CAD",
"F. c #4585B2",
"G. c #4886B2",
"H. c #4788B6",
"J. c #4A89B5",
"K. c #4A8CBA",
"L. c #538EB1",
"P. c #4F91BE",
"I. c #5192BE",
"U. c #5D98BB",
"Y. c #6181A4",
"T. c #6195AF",
"R. c #5295C2",
"E. c #5599C6",
"W. c #599BC7",
"Q. c #569BC9",
"!. c #599DCB",
"~. c #5EA1CD",
"^. c #61A4CD",
"/. c #63A6D0",
"(. c #66A8D2",
/* pixels */
"z.V.V.V.z.V.V.C.C.z.V.V.V.V.V.V.z.V.V.V.z.V.V.V.V.z.V.V.B.V.B.s.I U U U I ! ;.V.B.z.V.B.V.V.V.V.z.V.V.V.z.V.V.V.V.z.V.V.V.V.V.V.z.V.V.V.z.V.",
"z.V.V.V.z.V.V.C.C.z.V.C.V.V.V.V.z.V.V.V.z.V.V.V.V.l.M.O.! ! } ) <.T G 4.<.<.( ( } I %.M.B.V.V.V.z.V.V.V.z.V.V.V.V.z.V.V.V.V.V.V.z.V.V.V.z.V.",
"z.z.z.z.z.z.V.z.z.z.V.z.z.z.z.z.z.z.z.z.z.z.M.$.| W W F G :.6.0.e.>.T e.e.w.6.2.~ G E W | o.u.z.z.z.z.z.z.z.V.z.z.z.V.z.z.z.z.z.z.z.z.z.z.z.",
"z.V.V.V.V.V.V.z.V.V.V.z.V.V.V.z.V.V.V.V.V.M.%.J ,.6.0.0.0.q.e.G.F.<.^ R.H.F.F.e.0.7.7.7.5./ } X.V.V.V.V.V.V.V.z.V.V.V.z.V.V.V.z.z.C.V.V.V.V.",
"z.V.V.V.V.V.V.z.V.V.C.z.V.V.V.z.V.V.B.#.O.! J :.q.v.J.K.K.K.G.S.P.g.E G.G.S.S.H.K.K.K.H.e.6.~ J @.O.d.V.B.V.V.z.V.V.V.z.V.V.V.z.z.C.C.V.V.V.",
"z.V.V.V.V.V.V.z.V.C.C.z.V.V.C.z.M.&.+.H ^ Y Y v.K.K.S.v.v.v.0.4.0.1.F T 2.2.4.c.v.v.v.G.R.K.4.K g.G U O.d.V.V.z.V.V.V.z.V.V.V.z.z.C.V.V.V.V.",
"z.V.V.V.V.C.V.z.V.V.C.z.z.z.z.l.@.F :.<.0.<.~ J.A.c.4.4.<.<.>.:.:.^ Y F ^ :.:.>.4.2.2.7.c.v.c.W I.0.<.Y L s.B.z.V.V.V.z.z.z.z.z.z.C.V.V.V.V.",
"z.z.z.z.z.z.z.z.V.V.V.z.V.b.+.O.>.4.q.e.H.J.j.2.3.<.<.<.>.:.^ E E ^ Y S Y T T ^ :.:.2.4.<.2.g.v.W.A.e.6.>./ W ..V.V.V.z.V.V.V.C.z.z.z.z.z.z.",
"z.V.V.V.z.V.V.z.z.z.z.l.-.L F <.w.e.e.K.v.v.h.^ Y ^ ^ :.~ ~ T Y E Y K S Y E E E T ~ :.:.~ E :.c.c.J.G.v.e.0.R F { l.z.z.V.V.V.V.z.V.V.V.z.C.",
"z.V.V.V.z.V.V.z.V.C.M.| P Y 6.w.v.G.K.v.5.<.>.^ G G Y T Y K Y J S C V V V S K Y Y Y Y G G Y :.<.<.0.G.K.G.e.q.>.G U -.l.V.V.V.V.z.V.V.V.z.V.",
"z.V.V.V.z.V.V.z.V.V.=.P >.q.e.F.G.c.7.<.:.~ ~ G G G F G V M M M 7 3 ; 3 3 9 N N N S G S G K Y ~ ^ >.5.0.v.G.e.w.4.R U o.V.V.V.V.z.V.V.V.z.V.",
"z.V.V.V.z.V.V.z.V.;.) 4.w.e.H.A.7.1.:.~ ~ K S 9 9 9 9 9 3 % * * * : > > : % : % = 7 9 9 9 8 N J Y ^ ^ >.<.w.H.F.e.q.>.{ N.V.V.V.z.V.V.V.z.V.",
"z.V.z.z.z.V.V.z.=.U :.w.F.K.v.5.<.:.~ ~ G V 4 % : * : % > q q > > t t t q > > 1 q : : > % : = 9 F Y Y Y 1.2.0.G.K.e.0.P +.M.B.V.z.V.z.z.z.V.",
"z.V.V.V.z.V.z.{ F ^ c.F.H.w.<.) ^ ~ F m 7 3 : q q t u q > 1 u z d z u z z z z y > 1 t y q q 1 % 6 7 C Y R ^ >.8.A.K.A.0.K I u.z.z.V.V.V.z.V.",
"z.V.V.V.z.V.B.U S Y j.G.8.>.<.R Y F n % : > q t t y z h > t t % : : : : : : : y > y z z t t q q > % 3 B K Y >.>.>.c.w.1.F S s.B.z.V.V.V.z.V.",
"z.V.V.V.z.b.( <.4.^ E <.<.>.^ T S 9 0 y q q t h h y > : % % o . . . . . . . . % % % : > z d d q 1 u q 5 B K R >.<.>.T K >.4./ s.l.V.V.V.z.V.",
"z.V.V.V.$.U 4.q.v.F.1.Y >.>.E Z 7 * q u q > : % * % . . . . . . . . . . . . . . . . . o * % * * < y y < 3 m G ^ 1.:.Y h.v.e.6.:. .V.V.V.z.V.",
"z.V.V.M.| ^ 9.w.H.G.2.~ Y G V 4 > q y t * o . . . . . . . . . . . . . . . . . . . . . . . . . o + 1 y t 1 ; 9 S E K :.h.R.e.e.4.W ;.B.V.z.V.",
"z.z.z...E 0.4.A.G.c.:.E G V = > t u 1 $ . . . . . . . . . . . . . . . . . . . . . . . . . . . . X o : t y q % 7 S Y ~ 4.v.H.v.w.<.I l.z.z.z.",
"z.C.V.b.E 4.4.K.G.4.>.Y V 4 @ q u > X . . . . . . . . . . . . . . . . . . . . . . . . . . . . . . . . % t y * = 9 F T :.2.R.F.e.2.U M.V.V.V.",
"x.D.+.L H >.>.J.S.:.^ G M @ * q t % + X . . . . . X . . . . . . . . . . . . . . . . . . . . . . . . . X > y > % = A ~ ^ 2.I.F.e.<.F I a.T.C.",
"Y.E.Z.<.K R Q S.G.:.~ G m @ : > 1 % & + . . . . . . . . . . . . . . . . . . . . . . . . . . . . . . X X : 1 : % = V Y ^ 5.I.F.5.T K 0.J.U.V.",
"y.,.v.G.5.G E J.G.<.:.G m % y u > y , $ o . . . . . . . . . . . . . . . . . . . . . . . . . . . . . X e e q h 0 = A E :.5.R.v.:.T c.G.h.r.B.",
"..F 2.j.v.Y P S.G.>.~ G n % y h * & & * + o . . . . . . . . . . . . . . . . . . . . . . . . . X o $ & 0 q s d 1 = A ~ ^ 5.R.4.G ,.G.0.^ J z.",
"o.G >.:.:.Y G 5.5.E K F n $ t u % o & ; & $ . . . . . . . . . . . . . . . . . . . . . . . . . X & , c f i s t < = V G K :.j.E G :.>.>.R P B.",
"u.+.G R :.>.:.<.<.<.>.Y n % t h * X O & ; $ . . . . . . . . . . . . . . . . . . . . . . . . X o , & b l 1 h u < = A G Y ^ ^ :.>.<.>.<.,...V.",
"l.d.P >.4.6.>.>.>.>.>.Y m $ t y $ X   $ & $ . . . . . . . . . . . . . . . . . . . . . . . . . X O   z l i f y < = A Y E ^ ^ >.4.4.9.>.r.k.V.",
"z.d.H G G G G F F F F F m $ : q % ; g ,   . . . . . . . . . . . . . . . . . . . . . . . . . . .   j ' f i s 1 % = Z S F F F S G K K F ! k.V.",
"z.V.%...F J Y G K G F F m $ * q + * _ s O   . . . . . . . . . . . . . . . . . . . . . . . . X o < ' [ g < a 1 % - Z F F G K K K K L $.y.z.V.",
"z.C.C.*.J Y ~ T T F F G m $ : q % , ` k 0 * o . . . . . . . . . . . . . . . . . . . . . . X o * r ] [ p < s 1 % = Z Y F Y R ^ >.Q U M.V.z.V.",
"z.C.C.*.J :.<.:.R Y F G m $ q q % N [ k r 0 ; X . . . . . . . . . . . . . . . . . . . . . . o 0 r ` [ g < i q : = Z Y F R >.>.5.,.U M.V.z.V.",
"z.C.C.*.P 6.4.<.0.1.K K n $ q q * z [ z 0 0 ; o . . . . . . . X . . . . . . . . . . . . . . $ , r r ` g 5 y q > = Z Y K >.4.5.G.Z.U M.V.z.V.",
"z.V.C.*.K q.q.4.v.j.~ ~ m % u h > b [ h 0 3 ; o . . . . . . . . . . . . . . . . . . . . . . @ 0 r r _ g i k d 1 & Z R Y >.4.q.K.Z.U M.V.z.V.",
"z.V.V.*.~ q.w.6.S.c.G K m $ > u > b ] h 0 0 % X . . . . . . . . . . . . . . . . . . . . . . @ > r r ` l < k y * - A Y Y 4.4.q.R.c.( M.V.z.V.",
"z.z.z.X.J q.w.w.J.j.G G m $ q h > z V u 0 > % X . . . . . . . . . . . . . . . . . . . . . $ : 0 r ` ] g < f u : - Z K K 0.w.w.e.3.I i.z.z.z.",
"z.C.B.*.E 4.w.e.v.2.G K n % t h 0 b g r 0 > * X . . . . . . . . . . . . . . . . . . . . . @ > > r ' [ ' k s u < - Z K K 9.e.e.e.<.( M.V.V.V.",
"z.V.V.*.P <.q.0.6.<.G G m $ > t * z g r 0 ; * X . . . . . . . . . . . . . . . . . . . . . @ > 0 r g ` ] N z 1 : - V K K 6.6.w.e.>.! N.V.V.V.",
"z.V.V.*.P <.w.6.0.<.G G n % t t : l g r 0 0 ; o . . . . . . . . . . . . . . . . . . . . . . @ > 0 r g _ b t 1 < - D K K 9.4.q.e.<.U N.V.V.V.",
"z.V.V.*.P 4.w.q.6.:.G G n $ t h : l g 3 , > * X . . . . . . . . . . . . . . . . . . . . . . . @ ; ; 5 b b k y < - V K K 6.9.w.e.4.U B.V.C.V.",
"z.z.z.o.G 2.w.H.v.:.K Y m $ > q * l g o O + o . . . . . . . . . . . . . . . . . . . . . . . . .     * g k t 1 : = D R K <.w.e.e.<.I l.z.z.z.",
"z.V.V.*.I <.w.R.S.^ Y ~ m $ u u : l g @     . . . . . . . . . . . . . . . . . . . . . . . . . % j O , e a d d 0 = D :.Y :.w.e.e.<.! M.V.z.V.",
"z.V.V.*.P <.w.R.A.^ Y Y M & y h * % 0 0 o   . . . . . . . . . . . . . . . . . . . . . . . . $ 1 j _ g r p z d 1 = S :.K <.w.w.e.<.! M.V.z.V.",
"z.V.V.*.E <.w.R.S.R Y Y m $ y h > g g 0 ; $ . . . . . . . . . . . . . . . . . . . . . . . . @ > r ] ' x a k d > = D :.K <.q.e.e.<.! M.V.z.V.",
"z.V.V.*.J <.q.e.0.R G Y m $ t t : b ' g 5 % . . . . . . . . . . . . . . . . . . . . . . . o @ 1 r ' ] l p s t < = V Y G <.q.e.e.<.U M.V.z.V.",
"z.V.z.X.J 4.q.<.^ Y F F m % t d > l ] g * o . . . . . . . . . . . . . . . . . . . . . . . . . % r C t < p k d > = Z K G T :.9.e.<.U i.z.z.V.",
"z.V.V.;.E 6.q.:.^ Y K K 9 $ t d : 0 ` g % X . . . . . . . . . . . . . . . . . . . . . . . . . $ 0 $ , < p k d > = Z T K R R 4.q.1.U M.V.z.V.",
"z.V.b.U G >.:.T Y K F G m $ t u % < ` g > @ . . . . . . . . . . . . . . . . . . . . . . . . . $ < O & w r s t > = Z G D Y T :.<.:.F #.M.z.V.",
"z.V.d.J F Y F G F D G Y V % t q % , g r 0 % . . . . . . . . . . . . . . . . . . . . . . . . . $ e c a i g r t > 2 G Y F D F F G F S F @.k.V.",
"z.V.d.Q 4.0.0.0.0.2.<.w.K & e 1 % , < & & & . . . . . . . . . . . . . . . . . . . . . . . . X o e ` j < i y 1 < , 4.q.0.0.0.0.0.0.0.>.! u.V.",
"z.V.;./ K.R.R.R.R.P.I.R.,.+ > q % & < O & & . . . . . . . . . . . . . . . . . . . . . . . . . $ w & & , i y 1 * 6 K.R.R.R.R.R.R.R.R.j.( l.V.",
"l.i.p.W 3.8.w.e.0.8.8.8.F + : 1 + , w O & * . . . . . . . . . . . . . . . X . . X . . . . . . o i O , < i y > % - ^ 1.3.8.8.8.4.5.3.Q { l.z.",
"u.t.L.^ Y Y Q R ^ R Y R B + > 1 + , < O , < . . . . . . . . . . . . . . . . . . . . . . . . . o , < 5 , e e 1 * 2 K Y Y Y R R R R Y E t.B.V.",
"f.n.I.K.S.S.c.A.F.G.F.F.Q $ t d * & , O & & . . . . . . . . . . . . . . . . . . . . . . . . . X O , , & i j y > 5 c.G.F.F.F.F.F.F.G.J.L.m.m.",
"e.w.3.w.c.c.H.H.H.F.F.F.Q % t z * & * & & O . . . . . . . . . . . . . . . . . . . . . . . . . . O & & & i k d > 2 0.e.G.F.F.H.G.F.c.q.5.e.e.",
"K.0.Y >.4.0.e.e.0.8.5.4.F $ t d * + , , & $ . . . . . . . . . . . . . . . . . . . . . . . . . . X , x a w k d > 2 >.4.4.q.9.8.4.4.4.:.R A.R.",
"R.0.K >.4.4.4.4.4.<.>.^ C $ y d ; , < & & & . . . . . . . . . . . . . . . . . . . . . . . . . . O & a w w k s < - Y ^ >.4.2.2.2.4.4.R ^ A.!.",
"R.0.K :.<.>.<.<.>.Y Y Y V $ > e * w < & & $ . . . X . . . X . . . . . . . . . . . . . . . . . . O & i v v s > % - K Y E ^ >.<.<.>.<.R R A.!.",
"R.q.Y G Y Y Y Y K K G K m $ : 1 & < , , , $ . . . . . . . . . . . . . . . . . . . . . . . . . X O $ , i s u > % - G G G G Y Y Y Y K G >.F.!.",
"Q.R.v.v.c.v.v.v.A.c.e.A.K + * q % < , # O + . . . . . . . . . . . . . . . . . . . . . . . . . X O O O , i e > % 5 0.A.e.v.A.v.v.A.e.c.H.Q.!.",
"c.K.K.K.K.K.K.K.H.K.G.S.E + * 1 + & # X . . . . . . . . . . . . . . . . . . . . . . . . . . . X . . . & < 1 : % 2 c.S.H.J.H.K.K.H.S.S.H.F.h.",
"Y 6.w.e.e.e.e.e.q.9.4.4.A + * * o @ o . . X . . . . . . X . . . . X . . . . . . . . . . . . . . . X . . O % * % 3 >.4.4.9.w.e.e.w.q.0.4.<.S ",
"K 4.6.q.w.w.w.6.4.<.>.>.D $ = $ # = $ $ $ @ @ X @ @ @ X @ $ X $ @ @ o @ @ @ @ o @ @ @ @ X @ @ $ # # # # # = = $ 2 >.>.<.4.4.q.0.0.w.0.4.>.A ",
"G 4.4.4.4.4.4.2.<.>.Y R S 8 V V Z V V V V V V V V V V V V V V V V V V V V V V V V V V V C V V V V V V V V V V m 9 Y T ^ >.<.4.<.2.4.2.2.>.A ",
"G <.>.~ T T Y ~ Y Y Y Y G A E E >.>.:.Y T Y Y F Y Y Y T >.:.Y ~ Y Y T E T T E ~ T Y T Y Y K F Y ~ Y T T T T Y F Z Y Y Y T T T T Y R ^ <.^ A ",
"F G G F F G G G F F F F F K ^ <.q.q.5.4.6.4.>.G Y R 4.4.q.9.4.2.4.4.4.4.4.4.2.2.4.4.4.<.>.E G ^ <.4.4.4.<.^ ^ Y F G F G G F F K G F F K F A ",
"F Y ~ :.4.4.4.4.5.4.6.4.6.5.0.w.e.e.e.w.w.e.9.R >.6.w.F.F.F.A.F.F.e.w.w.A.F.F.F.F.F.e.q.5.:.^ 4.4.q.w.w.q.6.5.4.<.^ ^ >.>.<.<.<.<.>.<.>.:.S ",
"G :.5.v.K.K.H.K.K.F.v.F.K.K.K.K.K.K.K.K.F.e.q.^ 9.e.F.E.!.Q.Q.Q.!.R.K.K.Q.Q.Q.!.!.!.E.K.F.4.:.4.q.G.K.K.H.K.K.G.S.Z.0.0.0.0.0.0.q.0.6.4.:.A ",
"G 4.w.E.!.!.!.!.^.^.E.E.!./.!.!.~.!.!.!.R.K.0.>.q.e.P.E.Q.Q.Q.!.~.!.!.!.!.!.!.(.(.(.(./.!.G.5.w.K.!.Q.Q.Q././.!.!.(.^.!.~.I.R.R.R.K.e.w.4.S ",
"E q.S.R.E.W.E.E.W.W.E.E.W.W.E.E.E.E.R.E.E.K.0.5.q.e.e.A.A.e.e.K.E.E.E.E.E.E.E.W.!.!.W.W.E.J.0.c.A.v.A.v.K.W.!.^.E.W.W.W.W.E.E.E.E.R.I.P.c.G ",
"<.4.4.5.7.7.5.0.8.8.5.0.8.5.0.0.9.9.8.8.0.7.4.4.4.4.4.4.4.4.4.0.8.8.0.8.8.8.8.8.5.7.0.7.5.5.4.4.6.4.4.4.7.7.0.g.8.0.8.8.5.5.0.5.8.8.0.8.4.2."
};
