/* XPM */
static char *result[] = {
/* columns rows colors chars-per-pixel */
"70 70 216 2 ",
"   c #010101",
".  c #0B0401",
"X  c #040409",
"o  c #070B08",
"O  c #140703",
"+  c #190401",
"@  c #001804",
"#  c #1C1404",
"$  c #0A0A14",
"%  c #12061F",
"&  c #160B1C",
"*  c #081415",
"=  c #121418",
"-  c #151B1D",
";  c #2C0A0A",
":  c #281405",
">  c #2E1805",
",  c #01330B",
"<  c #37290C",
"1  c #31310A",
"2  c #190829",
"3  c #0A142C",
"4  c #1A1B24",
"5  c #20092E",
"6  c #1B2424",
"7  c #1E252A",
"8  c #00233C",
"9  c #28282B",
"0  c #362C2A",
"q  c #262934",
"w  c #283636",
"e  c #383839",
"r  c #4A0C05",
"t  c #5E0F06",
"y  c #56120C",
"u  c #671107",
"i  c #6C1107",
"p  c #77160D",
"a  c #502F0E",
"s  c #6C370F",
"d  c #433632",
"f  c #743731",
"g  c #01560B",
"h  c #004A17",
"j  c #00571B",
"k  c #01650C",
"l  c #06680D",
"z  c #1C751B",
"x  c #0B5224",
"c  c #704C1B",
"v  c #755D27",
"b  c #2C0E4B",
"n  c #2D174A",
"m  c #002B42",
"M  c #053745",
"N  c #353947",
"B  c #353250",
"V  c #3A1263",
"C  c #003E6B",
"Z  c #4D3E47",
"A  c #441573",
"S  c #423A64",
"D  c #384748",
"F  c #394B53",
"G  c #00517B",
"H  c #464F58",
"J  c #69535E",
"K  c #474867",
"L  c #4A5668",
"P  c #514F76",
"I  c #545A74",
"U  c #496162",
"Y  c #4E6869",
"T  c #526D6E",
"R  c #5B617C",
"E  c #567273",
"W  c #5D7C7C",
"Q  c #7A7A76",
"!  c #89160A",
"~  c #9C1B0C",
"^  c #A61A0A",
"/  c #AD1C0B",
"(  c #B31C0B",
")  c #B91D0B",
"_  c #9E2418",
"`  c #AD2517",
"'  c #C41F0C",
"]  c #C62514",
"[  c #CB3427",
"{  c #924C10",
"}  c #954E12",
"|  c #A95712",
" . c #B65D13",
".. c #BF6214",
"X. c #975E2E",
"o. c #C56515",
"O. c #D16B16",
"+. c #E3771A",
"@. c #EF7D1B",
"#. c #D1443A",
"$. c #A65F63",
"%. c #D44F49",
"&. c #DF625D",
"*. c #E2635E",
"=. c #FF706A",
"-. c #F07777",
";. c #049D30",
":. c #00AF34",
">. c #01B438",
",. c #509218",
"<. c #619C1A",
"1. c #2B8446",
"2. c #18BA4A",
"3. c #BF952E",
"4. c #95A920",
"5. c #F0871D",
"6. c #CB9F31",
"7. c #F09721",
"8. c #F3BE3C",
"9. c #BDD028",
"0. c #C8D329",
"q. c #F2C629",
"w. c #FDC63E",
"e. c #FFC73E",
"r. c #F8DA37",
"t. c #F4E52E",
"y. c #F3EA2F",
"u. c #F3EF30",
"i. c #FEEC36",
"p. c #FFFD33",
"a. c #FBF73B",
"s. c #F3A94C",
"d. c #E5CD5E",
"f. c #F3F15C",
"g. c #FFFD7B",
"h. c #531A8D",
"j. c #6C22B6",
"k. c #00598F",
"l. c #0060A5",
"z. c #0173BD",
"x. c #595386",
"c. c #5B7684",
"v. c #626986",
"b. c #666D8C",
"n. c #617E8A",
"m. c #6B65A0",
"M. c #7970B6",
"N. c #7425C6",
"B. c #7D28D4",
"V. c #B579A5",
"C. c #963DDE",
"Z. c #862BE4",
"A. c #8C2CEE",
"S. c #8E33EE",
"D. c #9339E2",
"F. c #9842DB",
"G. c #966CC6",
"H. c #9763F3",
"J. c #008D8F",
"K. c #00ACBE",
"L. c #00B3B5",
"P. c #00B6B8",
"I. c #648586",
"U. c #67898A",
"Y. c #6A8D8E",
"T. c #759099",
"R. c #7490A8",
"E. c #73D691",
"W. c #0087CF",
"Q. c #0094CD",
"!. c #008AD3",
"~. c #018BEF",
"^. c #21C0C1",
"/. c #828585",
"(. c #9C9C9C",
"). c #BB82A1",
"_. c #85A8BC",
"`. c gray65",
"'. c gray68",
"]. c gray",
"[. c #E098A2",
"{. c #D4A8BD",
"}. c #A2E4B6",
"|. c #EFEB99",
" X c #8B82D0",
".X c #9289DC",
"XX c #8EB7CC",
"oX c #9B91E9",
"OX c #A78EF4",
"+X c #A499F7",
"@X c #A89DFD",
"#X c #9FACEB",
"$X c #A8A8FC",
"%X c #A7B7F7",
"&X c #F1B7CC",
"*X c #97C3DA",
"=X c #81DBDC",
"-X c #89D0FB",
";X c #ACC2FE",
":X c #A8D6F2",
">X c #ACDAFB",
",X c #ACE4F3",
"<X c #B0E3FE",
"1X c #BCE7FE",
"2X c #D4D6D5",
"3X c #FAC4DB",
"4X c #FFFFD1",
"5X c #FFFFDD",
"6X c #FFCAE3",
"7X c #FED6E9",
"8X c #DAEFEF",
"9X c #C0E9FE",
"0X c #E9E9E9",
"qX c #ECF6F1",
"wX c gray95",
"eX c #FEFEFE",
/* pixels */
"b.Y.Y.Y.b.Y.Y.Y.Y.b.Y.Y.Y.Y.Y.Y.b.Y.Y.Y.b.Y.Y.Y.Y.b.Y.Y.Y.Y.Y.Y.b.Y.Y.Y.b.Y.Y.Y.Y.b.Y.Y.Y.Y.Y.Y.b.Y.Y.Y.b.Y.Y.Y.Y.b.Y.Y.Y.Y.Y.Y.b.Y.Y.Y.b.Y.",
"b.Y.Y.Y.b.Y.Y.Y.Y.b.Y.Y.Y.Y.Y.Y.b.Y.Y.T   Y.Y.Y.Y.b.Y.Y.Y.Y.Y.Y.b.Y.Y.Y.b.Y.Y.Y.Y.b.Y.Y.Y.Y.Y.Y.b.  T Y.b.Y.Y.Y.Y.b.Y.Y.Y.Y.Y.Y.b.Y.Y.Y.b.Y.",
"b.b.b.b.b.b.Y.b.b.b.Y.b.b.b.b.b.b.b.q e 0Xo U.b.b.b.Y.b.b.b.b.b.b.b.b.b.b.b.Y.b.b.b.Y.b.b.b.b.b.o 0Xe w b.b.Y.b.b.b.Y.b.b.b.b.b.b.b.b.b.b.b.",
"b.Y.Y.Y.Y.Y.Y.b.Y.Y.Y.b.Y.Y.Y.b.Y.Y.w e eX  Y.b.Y.Y.Y.b.Y.Y.Y.b.b.Y.Y.Y.Y.Y.Y.b.Y.Y.Y.b.Y.Y.Y.b.  eXe q Y.Y.Y.b.Y.Y.Y.b.Y.Y.Y.b.b.Y.Y.Y.Y.Y.",
"b.Y.Y.Y.Y.Y.Y.b.Y.Y.Y.b.Y.Y.Y.b.Y.Y.w e eX  U.b.Y.Y.Y.b.Y.Y.Y.b.b.Y.Y.Y.Y.Y.Y.b.Y.Y.Y.b.Y.Y.Y.b.  eXe w Y.Y.Y.b.Y.Y.Y.b.Y.Y.Y.b.b.Y.Y.Y.Y.Y.",
"b.Y.Y.Y.Y.Y.Y.b.Y.Y.Y.b.Y.Y.Y.b.Y.Y.w e eX  Y.b.Y.Y.Y.b.Y.Y.Y.b.b.Y.Y.Y.Y.Y.Y.b.Y.Y.Y.b.Y.Y.Y.b.  eXe q Y.Y.Y.b.Y.Y.Y.b.Y.Y.Y.b.b.Y.Y.Y.Y.Y.",
"b.Y.Y.Y.Y.Y.Y.b.Y.Y.Y.b.b.b.b.b.Y.X `.4Xp.p.  I Y.Y.Y.b.b.b.b.b.b.Y.Y.Y.Y.Y.Y.b.Y.Y.Y.b.b.b.I   p.p.4X`.. Y.Y.b.Y.Y.Y.b.b.b.b.b.b.Y.Y.Y.Y.Y.",
"b.b.b.b.b.b.b.b.Y.Y.Y.b.Y.Y.Y.Y.b.  `.4Xp.p.  I Y.Y.Y.b.Y.Y.Y.Y.b.b.b.b.b.b.b.b.Y.Y.Y.b.Y.Y.E   p.p.4X`.o b.b.b.Y.Y.Y.b.Y.Y.Y.Y.b.b.b.b.b.b.",
"b.Y.Y.Y.b.Y.Y.b.b.b.b.b.Y.Y.Y.Y.b.o `.4Xp.p.X I b.b.b.b.Y.Y.Y.Y.b.Y.Y.Y.b.Y.Y.b.b.b.b.b.Y.Y.T X p.p.4X`.X Y.Y.b.b.b.b.b.Y.Y.Y.Y.b.Y.Y.Y.b.Y.",
"b.Y.Y.Y.b.Y.Y.b.Y.Y.Y.b.Y.Y.Y.Y.b.X `.4Xp.p.< F W Y.Y.b.Y.Y.Y.Y.b.Y.Y.Y.b.Y.Y.b.Y.Y.Y.b.Y.W H 1 p.p.4X`.o Y.Y.b.Y.Y.Y.b.Y.Y.Y.Y.b.Y.Y.Y.b.Y.",
"b.Y.Y.Y.b.Y.Y.b.Y.Y.Y.b.Y.Y.Y.Y.b.o `.4Xp.p.e.< w Y.Y.b.Y.Y.Y.Y.b.Y.Y.Y.b.Y.Y.b.Y.Y.Y.b.Y.w < e.p.p.4X`.X Y.Y.b.Y.Y.Y.b.Y.Y.Y.Y.b.Y.Y.Y.b.Y.",
"b.Y.Y.Y.b.Y.Y.b.Y.Y.Y.b.Y.Y.Y.Y.b.X `.4Xp.p.e.< w Y.Y.b.Y.Y.Y.Y.b.Y.Y.Y.b.Y.Y.b.Y.Y.Y.b.Y.w 1 e.p.p.4X`.X Y.Y.b.Y.Y.Y.b.Y.Y.Y.Y.b.Y.Y.Y.b.Y.",
"b.Y.b.b.b.Y.Y.b.Y.Y.Y.Y.Y.Y.Y.Y.  0Xg.p.p.e.w.< w Y.Y.Y.Y.Y.Y.Y.b.Y.b.b.b.Y.Y.b.Y.Y.Y.Y.Y.w < w.e.p.p.g.qX  Y.b.Y.Y.Y.Y.Y.Y.Y.Y.b.Y.b.b.b.Y.",
"b.Y.Y.Y.b.Y.b.b.b.b.b.b.b.b.b.b.  wXg.p.p.e.e.6.v 6 b.b.b.b.b.b.b.Y.Y.Y.b.Y.b.b.b.b.b.b.7 v 6.e.e.p.p.g.wX  b.b.b.b.b.b.b.b.b.b.b.Y.Y.Y.b.Y.",
"b.Y.Y.Y.b.Y.Y.Y.Y.b.Y.Y.Y.Y.Y.U   `.f.a.i.e.e.3.c o U L U.Y.Y.Y.b.Y.Y.Y.b.Y.Y.Y.Y.b.U U X c 3.e.w.i.p.f.`.  U U.Y.b.Y.Y.Y.Y.Y.Y.b.Y.Y.Y.b.Y.",
"b.Y.Y.Y.b.Y.Y.Y.Y.b.Y.Y.Y.Y.W .   . 4.u.e.e.w.1     .   W U.U.Y.b.Y.Y.Y.b.Y.Y.Y.Y.I   .     < w.w.w.r.4..     W Y.b.Y.Y.Y.Y.Y.Y.b.Y.Y.Y.b.Y.",
"b.Y.Y.Y.b.Y.Y.Y.Y.b.Y.Y.Y.D # O.  o.a < w.e.  | {   O.      = Y.b.Y.Y.Y.b.Y.Y.=       O.  { |   w.e.< a o.  O.O D b.Y.Y.Y.Y.Y.Y.b.Y.Y.Y.b.Y.",
"b.Y.Y.Y.b.Y.Y.Y.Y.b.Y.Y.* s  .  O..         O.> a o.  O.O         U.Y.Y.v.        O O.  o.a : O.        . O.  ..s = Y.Y.Y.Y.Y.Y.b.Y.Y.Y.b.Y.",
"b.b.b.b.b.b.Y.b.b.b.U.= } .. .  : j.N.N.N.N.:   O > | : } | {   XX4 & = - XX  } | | : | : . X : N.N.N.N.j.:   .. .} = b.b.b.b.b.b.b.b.b.b.b.",
"b.Y.Y.Y.Y.Y.Y.b.Y.U.H a o.| s V V V.).).V.A.V S q + s   o.| c L ;XK K K K ;XL c |  .  c . n S V A.).).).V.V V s | ..a D U.Y.Y.b.b.Y.Y.Y.Y.Y.",
"b.Y.Y.Y.Y.Y.Y.b.U.W $ o.o.s 2 D.A.i.i.i.p.A.C.OXv.$ $ $  .a q <X@XoX@X+XOX@X<Xq a  .$ $ $ m.OXD.A.p.i.f.i.A.D.2 s o.o.X W Y.Y.b.b.Y.Y.Y.Y.Y.",
"b.Y.Y.Y.Y.Y.Y.b.U X A.    A F.p.A.f.V.G.a.A.p.p.|.@X+X@X= x.$X<X@XX M.M.X @X<X$Xx.& @X$X$Xd.p.p.A.a.G.V.i.A.p.F.A     A.o L Y.b.b.Y.Y.Y.Y.Y.",
"b.Y.Y.Y.Y.Y.Y.b.U X A.A.A.).p.p.A.a.p.d.A.A.p.p.p.p.p.@X@X@X$X<X@X@X@X@X@X@X<X$X@X@X@Xp.p.p.p.p.A.A.d.p.a.A.p.p.).S.A.A.X H b.b.b.Y.Y.Y.Y.Y.",
"b.b.b.b.b.b.b.q n B.A.A.A.C.F.F.A.F.F.C.A.A.F.F.F.F.F.@X>X%X$X$X>X@X@X@X@X>X$X@X%X>X@XF.F.F.F.F.A.A.C.F.F.A.F.F.D.A.A.Z.Z.n w Y.b.b.b.b.b.b.",
"b.Y.Y.Y.b.Y.Y.4 b A.A.A.h.A A A A A A A A A A A A A A P %X;X;X;X<X$X@X@X@X<X;X;X;X#XP A A A A A A A A A A A A A A A A.A.A.b 6 Y.b.Y.Y.Y.b.Y.",
"b.Y.Y.Y.b.Y.Y.4 b A.A.B.& + + + + + + + + + + + + + + + G.%X,X>X>X.X+X+X.X>X>X<X%XG.O O O O + + + + + + + + + + + 5 B.A.A.b 6 Y.b.Y.Y.Y.b.Y.",
"b.Y.Y.Y.b.Y.Y.6 b A.A.  / ' ' ' ' ' ' ' ' ' ' ' ' ' ) ' . n.>X@X@XX M.M.X @X@X>Xn.. ' ' ' ' ' ' ' ' ' ' ' ' ' ' ' /   A.A.b 6 Y.b.Y.Y.Y.b.Y.",
"b.Y.Y.Y.b.Y.Y.4         / ' /                   r ' ' ' ' t 7 >X@X@X@X@X@X@X>X9 t ' ' ' ' r                   / ' (         6 Y.b.Y.Y.Y.b.Y.",
"b.Y.b.b.b.Y.Y.4   X Z.Z.2 u /   y.o               . . ' ' t 4 $X<X* M.M.= <X@X4 t ' ' . .               O y.  / u & Z.Z.X   7 Y.b.Y.b.b.b.Y.",
"b.Y.Y.Y.b.Y.b.4 5 h.A.A.% t /   p.O s { } (.(.X.} {   r ( ~ p S <Xm.oX.Xm.<XS p ~ ) r   { } X.(.(.} { s . p.  / t % A.A.h.5 4 b.b.Y.Y.Y.b.Y.",
"b.Y.Y.Y.b.Y.Y.6 b A.A.A.% t /   0.< | 5.7.eXeXs.5.+.>   / ' ^   <XG.oX+X X<X  ^ ' /   > +.5.s.eXeX7.5.| < 0.  / t 2 A.A.A.b 6 Y.b.Y.Y.Y.b.Y.",
"b.Y.Y.Y.b.Y.Y.6 b A.A.A.% t /     +.@.7.u.eXeXf.q.@.@.  / ' ^   <Xo M.M.X <X  ^ ' /   @.@.q.f.eXeXu.7.@.+.    / t % A.A.A.b 6 Y.b.Y.Y.Y.b.Y.",
"b.Y.Y.Y.b.Y.Y.6 b A.A.A.% t /     +.q.u.y.k k 0.u.y.@.    i ^   <XS.A.A.S.<X  ^ i     @.t.u.0.l k u.u.q.+.    / t % A.A.A.b 6 Y.b.Y.Y.Y.b.Y.",
"b.Y.Y.Y.b.Y.Y.6 b A.A.A.% t /     +.q.9.l     g <.t.@.    i /   <XS.A.A.S.<X  ^ i     @.y.<.g     l 9.q.+.    / t % A.A.A.b 6 Y.b.Y.Y.Y.b.Y.",
"b.b.b.b.b.b.Y.4 $ b A.A.% t /     +.q.9.k   . g <.t.@.    i ^   <XA.A.S.S.<X  ^ i     @.t.<.g .   k 9.q.+.    / t % A.A.b $ - b.b.b.b.b.b.b.",
"b.Y.Y.Y.Y.Y.Y 0 a a j.A.% t (     +.q.0.,.@ @ z 4.y.@.    i ^   %XH.S.S.H.%X  ^ i     @.t.4.z @ @ ,.0.q.+.    / t % A.j.a a d L b.Y.Y.Y.Y.Y.",
"b.Y.Y.Y.Y.Y.. 3.w.w.  A.% t /     +.q.u.y.l l 0.u.y.@.    i ^   A.>XH.H.>XA.  ^ i     @.y.y.0.l l u.y.q.+.    / t % A.  w.w.3.X b.Y.Y.Y.Y.Y.",
"b.Y.Y.Y.Y.  p.r.w.w.  A.% t ' '   +.@.7.u.u.u.u.q.@.@.    i ' '   Z.%X$XA.  ' ' i     @.@.q.u.y.u.u.7.@.+.  ' ' t 2 A.  q.w.r.a.  Y.Y.Y.Y.Y.",
"b.Y.Y.E   eXp.p.i.e.w.  .Xx.+ '     } 5.@.@.@.@.@.+.  p.# i ' '   Z.A.A.Z.  ' ' i # p.  +.@.5.@.5.@.@.}     ' . x. X  e.e.i.p.p.eX  E Y.Y.Y.",
"b.b.N e 2Xf.p.p.i.e.e.  .XoXM.+ ^   : > > > > > > :   1   + r ' ^ 5 2 5 5 ^ ' ; +   1   : > > > > > > # . ^ + G.oX.X  e.e.i.p.p.f.2Xe N b.b.",
"b.U H Q |.p.p.p.i.w.w.  .X$X#XH p   ; r r r r r r r r r     + ' ' r r r r ' ' +   . r r r r r r r r r ;   p L #X$X.X  e.e.i.p.p.p.|.Q H H Y.",
"R = (.5Xf.p.u.u.t.8.8.$ .X%X:X:X$ o p ) ) ) ) ) ) ) ) ' + . ; ' ' ) ' ' ) ' ' ; . + ' ) ) ) ) ) ) ) ) p o o :X:X%X.XX 8.8.r.u.u.f.a.5X(.= I.",
"  0XeXeXeXeX.         A.OXx.    <X<XH                 ' ' ' ' ' '   ! ! . ' ' ' ' ' '                 F <X<X    x.OXA.        X eXeXeXeX0X  ",
"            Y.b.Y.Y.Y.    , g       R.<X<X<X<X<X<X<X<X      + ' ' ' ' ' ' ' ' +       <X<X<X<X<X<X<X<XR.      g ,     b.Y.Y.Y.Y.            ",
"R W R I R W Y.b.Y.U.* *.&.f @ g ;.;.x - - - 4 - - 9 <X*X*X*X_.+ ' ' [.[.' ' + _.*X*X*X<X9 4 4 - - - 4 x ;.;.g @ f &.&.$ U.Y.Y.Y.R W R I R W ",
"b.Y.Y.Y.b.Y.b.b.R N f =.-.%.f , E.E.1.j j j j j j x c.c.n.XXXX  ) -.-.-.&.' X *XXXn.c.c.j j j j j j j 1.}.E., s %.=.=.X.N I b.b.b.Y.Y.Y.b.Y.",
"b.Y.Y.Y.b.Y.Y.I.H > -.=.=.=.*.  qXqXE.2.2.2.2.2.2.2.@ o X n.*XX ' 3X%.%.&X'   *Xn.  o @ 2.2.2.2.2.2.2.E.qX8X  &.-.=.=.-.4 H I.Y.b.Y.Y.Y.b.Y.",
"b.Y.Y.Y.b.Y.Y.6 H 6X3X=.=.=.*.  >.>.}.eXeXeXeXeXeXqX:.k o n.XX  ' 3X%.%.6X'   XXn.  k >.wXeXeXeXeXeXeX}.>.>.  &.=.=.=.6X3XZ 6 Y.b.Y.Y.Y.b.Y.",
"b.Y.Y.Y.b.Y.  ].wX6X6X6X-.-.=.=.    l >.>.eXeXeX}.:.k     n.XX  6X] ' ' ] 6X  *Xn.    k :.}.eXeXeX>.>.l     =.=.=.s.6X6X6XwX].. b.Y.Y.Y.b.Y.",
"b.Y.Y.Y.b.X 0X7X6X6X6X6X6X$.O o   z.M * @ 2.2.2.;.k   oX:X>X*XX 6X' ' ' ] 6X  XX:X:XoXX k ;.2.>.2.@ * M z.  O O V.6X6X6X6X6X7X0Xo U.Y.Y.b.Y.",
"b.b.b.R w (.7X6X6X6X6XJ J D B   G W.l.G G h h h , , h.@X%XR.H   6Xy ~ ^ y 6X  H R.%X@Xh., , h h h G k.k.W.G   N n J J 6X6X6X7X7X(.q R b.b.b.",
"b.Y.I.U 0 eX7X7X6X{.{.$ = D Y 3 Q.Q.Q.!.W.3   % 2 5 A. X.XB X 0 &X0 ~ ~ 0 &X0 . K G. XA.5 2 2   3 !.!.!.Q.Q.3 L N * = {.{.3X7X7XeXw U I.Y.Y.",
"b.Y.w w eXeXeXeX'.X   b.Y.D * P.P.P.Q.!.!.!.X j.A.A.A.      4 3X' &X%.%.3X' 6X4 X     A.A.A.j.X W.W.!.Q.P.P.P.* D Y.Y.    '.eXeXeXeX9 e Y.Y.",
"b.Y.w           9 Y.Y.b.Y.D * P.P.P.P.K.!.!.!.3         &X6X&X' '   ! ~ . ' ' &X6X&X        3 !.!.Q.K.P.P.P.P.* D Y.Y.b.Y.q           w Y.Y.",
"b.Y.U.U.U.U.U.v.U.Y.Y.b.* Q 8XP.P.P.P.P.P.!.          3X[ ] ] ' ' &X%.%.&X] ' ] ] [ 3X        X !.P.P.P.P.P.P.8XQ = Y.b.b.v.v.v.v.U.U.Y.Y.Y.",
"b.b.b.b.b.b.b.b.Y.Y.Y.b.* Q qXP.P.P.P.P.P.m   k.l.l.l.Z ` ' ' ' ' H _ _ Z ' ' ' ] ) Z l.l.l.k.  m P.P.P.P.P.P.qXQ * Y.b.Y.Y.Y.Y.b.b.b.b.b.b.",
"b.Y.Y.Y.b.Y.Y.b.b.b.b.L e (.,XP.L.P.J.J.J.6   z.~.~.~.m ! / ' ' ' d _ _ Z ' ' ' / ! m ~.~.~.z.  4 J.J.J.P.L.L.,XT.H L b.Y.Y.Y.Y.b.Y.Y.Y.b.Y.",
"b.Y.Y.Y.b.Y.Y.b.Y.Y.Y.X 2X=XP.P.L.L.M o   Y.  z.~.~.~.~.* i ' ' ] &X%.%.&X' ' ' u * ~.~.~.~.z.  b.. @ 8 L.L.P.P.=X2XX v.Y.Y.Y.Y.b.Y.Y.Y.b.Y.",
"b.Y.Y.Y.b.Y.Y.b.Y.U.  eX^.P.P.P.    U Y.b.Y.  XX<X>X~.~.~.C + ' ] O ! ! . ' ' ; C ~.~.~.>X<XXX  b.Y.Y.U     P.P.L.^.eX  U.Y.Y.Y.b.Y.Y.Y.b.Y.",
"b.Y.Y.Y.b.Y.Y.b.Y.U.  eXeX/.    b.U.Y.Y.b.  eX1X<X>X>X~.~.C + ' ' &X%.%.&X' ' + C ~.~.<X>X<X9XeX  Y.Y.Y.b.Y.    /.eXeX  U.Y.Y.Y.b.Y.Y.Y.b.Y.",
"b.Y.b.b.b.Y.Y.b.Y.I.  e e D E T b.Y.b.b.v.  eX9X<X<X<X-XM D U ; ' #.] ] %.' ; S D M -X<X<X<X1XeX  Y.b.b.b.Y.T P D e e   U.Y.Y.Y.b.Y.b.b.b.Y.",
"b.Y.Y.Y.b.Y.b.b.b.v.q q 9 F b.b.b.Y.Y.Y.b.  eX9X<X<X<XR.q K R 9 ! ' ] ' ' ! 9 R K w R.<X<X<X1XeX  U.Y.Y.b.Y.b.b.H 9 q 9 v.b.b.b.b.Y.Y.Y.b.Y.",
"b.Y.Y.Y.b.Y.Y.Y.Y.b.Y.Y.Y.Y.Y.Y.b.Y.Y.Y.v.  eX1X<X<X:Xo I.Y.Y.Y.X ( ' ' ) X U.Y.Y.R   :X<X<X9XeX  Y.Y.Y.b.Y.Y.Y.U.b.Y.Y.Y.Y.Y.Y.b.Y.Y.Y.b.Y.",
"b.Y.Y.Y.b.Y.Y.Y.Y.b.Y.Y.Y.Y.Y.Y.b.Y.Y.Y.v.  eX1X<X:X  Y.Y.Y.Y.Y.b.  ! !   Y.Y.Y.Y.b.Y.  :X<X1XeX  U.Y.Y.b.Y.Y.Y.Y.b.Y.Y.Y.Y.Y.Y.b.Y.Y.Y.b.Y.",
"b.Y.Y.Y.b.Y.Y.Y.Y.b.Y.Y.Y.Y.Y.Y.b.Y.Y.E X eXeX9XT.X Y.Y.Y.Y.Y.Y.b.Y.9 7 b.Y.Y.Y.Y.b.Y.Y.o R.1XeXeXX T Y.b.Y.Y.Y.Y.b.Y.Y.Y.Y.Y.Y.b.Y.Y.Y.b.Y.",
"b.Y.Y.Y.b.Y.Y.Y.Y.b.Y.Y.Y.Y.Y.Y.b.Y.Y.T X eX1XF N I Y.Y.Y.Y.Y.Y.b.Y.I.W b.Y.Y.Y.Y.b.Y.Y.W w D <XeX  T Y.b.Y.Y.Y.Y.b.Y.Y.Y.Y.Y.Y.b.Y.Y.Y.b.Y.",
"b.b.b.b.b.b.Y.b.b.b.Y.b.b.b.b.b.b.b.b.I X eXn.N F b.Y.b.b.b.b.b.b.b.b.b.b.b.Y.b.b.b.Y.b.b.K N U.eX  I b.b.b.Y.b.b.b.Y.b.b.b.b.b.b.b.b.b.b.b.",
"b.Y.Y.Y.Y.Y.Y.b.Y.Y.Y.b.Y.Y.Y.b.Y.Y.Y.Y   0Xo I Y.Y.Y.b.Y.Y.Y.b.b.Y.Y.Y.Y.Y.Y.b.Y.Y.Y.b.Y.Y.E o 0XX T Y.Y.Y.Y.b.Y.Y.Y.b.Y.Y.Y.b.b.Y.Y.Y.Y.Y.",
"b.Y.Y.Y.Y.Y.Y.b.Y.Y.Y.b.Y.Y.Y.b.Y.Y.Y.T     Y.b.Y.Y.Y.b.Y.Y.Y.b.b.Y.Y.Y.Y.Y.Y.b.Y.Y.Y.b.Y.Y.Y.b.    T Y.Y.Y.Y.b.Y.Y.Y.b.Y.Y.Y.b.b.Y.Y.Y.Y.Y.",
"b.Y.Y.Y.Y.Y.Y.b.Y.Y.Y.b.Y.Y.Y.b.Y.Y.Y.Y.Y.Y.Y.b.Y.Y.Y.b.Y.Y.Y.b.b.Y.Y.Y.Y.Y.Y.b.Y.Y.Y.b.Y.Y.Y.b.Y.Y.Y.Y.Y.Y.Y.b.Y.Y.Y.b.Y.Y.Y.b.b.Y.Y.Y.Y.Y."
};
