/* XPM */
static char *_7ba31d3acd246dcd754dc224987c71aXxd7ePZroUH05HFZ[] = {
/* columns rows colors chars-per-pixel */
"80 80 209 2 ",
"   c #040703",
".  c #070B05",
"X  c #0D0A07",
"o  c #0D0C0A",
"O  c #110D0B",
"+  c #0A1007",
"@  c #0C110C",
"#  c #13110D",
"$  c #0E1213",
"%  c #131312",
"&  c #1A1513",
"*  c #161A14",
"=  c #1B1A16",
"-  c #12171A",
";  c #14191C",
":  c #1B1C19",
">  c #201A17",
",  c #221D1A",
"<  c #1D221C",
"1  c #25211D",
"2  c #29221E",
"3  c #363E16",
"4  c #151C23",
"5  c #181E23",
"6  c #192128",
"7  c #18222C",
"8  c #1A2730",
"9  c #1A2936",
"0  c #1C2E3E",
"q  c #232422",
"w  c #2B2522",
"e  c #242B23",
"r  c #2B2B25",
"t  c #2A2A2A",
"y  c #312925",
"u  c #352D29",
"i  c #283027",
"p  c #2C322A",
"a  c #33332C",
"s  c #39312D",
"d  c #31382E",
"f  c #343434",
"g  c #3D3531",
"h  c #333931",
"j  c #3D3A35",
"k  c #3C3C3C",
"l  c #403733",
"z  c #413935",
"x  c #2F481F",
"c  c #334C15",
"v  c #3A451A",
"b  c #354C1A",
"n  c #3B4C1C",
"m  c #38531A",
"M  c #3A521C",
"N  c #374C25",
"B  c #3E4D21",
"V  c #3D5322",
"C  c #3D5824",
"Z  c #2F4C33",
"A  c #374739",
"S  c #414C1E",
"D  c #434D22",
"F  c #404925",
"G  c #435424",
"H  c #455727",
"J  c #4B552A",
"K  c #4A5D2C",
"L  c #525F31",
"P  c #446027",
"I  c #4B632D",
"U  c #4D6331",
"Y  c #4B6736",
"T  c #546937",
"R  c #546A36",
"E  c #5B6D3C",
"W  c #56723A",
"Q  c #5C733D",
"!  c #547E3E",
"~  c #5C7A3E",
"^  c #1F3343",
"/  c #203445",
"(  c #22394D",
")  c #253E54",
"_  c #344B46",
"`  c #324B4A",
"'  c #354E49",
"]  c #264256",
"[  c #2B4656",
"{  c #27425A",
"}  c #29455E",
"|  c #2E4B5B",
" . c #334F51",
".. c #314D5C",
"X. c #3B5757",
"o. c #3B565B",
"O. c #294762",
"+. c #2A4A65",
"@. c #2B4E6A",
"#. c #314D61",
"$. c #2D506E",
"%. c #375665",
"&. c #2E5574",
"*. c #2F5779",
"=. c #2F597B",
"-. c #345A76",
";. c #325B7C",
":. c #37617D",
">. c #434442",
",. c #464946",
"<. c #4C4C4C",
"1. c #425D55",
"2. c #535353",
"3. c #5A5A5A",
"4. c #46634E",
"5. c #526D49",
"6. c #5E7443",
"7. c #5D7C42",
"8. c #5B754A",
"9. c #5B7A4A",
"0. c #486555",
"q. c #4A6554",
"w. c #506D51",
"e. c #577355",
"r. c #627643",
"t. c #627D44",
"y. c #677948",
"u. c #657D49",
"i. c #697D4A",
"p. c #627C51",
"a. c #455E64",
"s. c #456264",
"d. c #4A6668",
"f. c #526D67",
"g. c #5C776A",
"h. c #486871",
"j. c #617B6B",
"k. c #5D813D",
"l. c #5D8244",
"z. c #5F864A",
"x. c #638245",
"c. c #65824A",
"v. c #6A834C",
"b. c #698A4D",
"n. c #6C8450",
"m. c #6D8A51",
"M. c #718452",
"N. c #748B56",
"B. c #759158",
"V. c #6D846E",
"C. c #7C9568",
"Z. c #738A74",
"A. c #778B75",
"S. c #859D6A",
"D. c #839C76",
"F. c #87A46A",
"G. c #8DA374",
"H. c #8DA67B",
"J. c #9BA57D",
"K. c #95A879",
"L. c #94AB7D",
"P. c #97B37B",
"I. c #325E81",
"U. c #336185",
"Y. c #3A6687",
"T. c #34658B",
"R. c #35668C",
"E. c #36688F",
"W. c #3A698C",
"Q. c #366A92",
"!. c #396D94",
"~. c #376E98",
"^. c #3C7097",
"/. c #37709B",
"(. c #3A739C",
"). c #3A76A1",
"_. c #3B79A6",
"`. c #3D7CAA",
"'. c #537782",
"]. c #417498",
"[. c #437B9D",
"{. c #437CA5",
"}. c #417FAA",
"|. c #3F80AE",
" X c #628D9D",
".X c #4781A4",
"XX c #4281AE",
"oX c #4B84AB",
"OX c #4384B2",
"+X c #4987B2",
"@X c #4789B7",
"#X c #4C89B4",
"$X c #4C8DBB",
"%X c #508EB9",
"&X c #4E91BE",
"*X c #5593BA",
"=X c #6FA2AD",
"-X c #4F92C0",
";X c #5295C3",
":X c #5598C5",
">X c #589AC6",
",X c #569AC8",
"<X c #599ECC",
"1X c #5DA1CE",
"2X c #62A3CC",
"3X c #66A9D2",
"4X c #98AB81",
"5X c #89A195",
"6X c #A1B582",
/* pixels */
"! l.l.k.k.x.x.7.~ ~ ~ x.~ k.~ k.k.k.k.~ ~ Q E S 3 S v v n K y.y.6.G.G.S.d.s.s.s...o.o.F F F v F v c x.7.~ ~ t.t.~ x.t.~ x.6.c.C b n K p.t.6.~ ~ x.t.Q M.E 3 D F ",
"7.l.l.l.x.x.c.x.v.v.v.v.v.x.x.x.x.k.b.x.M.M.S.J J J J D B K p.1.X.d.f.h.T.T.&.@.T.T.I.-.`  ._ ) N n c.v.x.b.c.x.c.c.x.t.m.t.m.I n V U v.c.c.c.x.x.x.i.M.E F J J ",
"l.z.z.z.x.t.x.v.c.v.x.t.t.x.v.x.x.x.v.x.x.i.y.L D v S J Z ` o.} { =.T.E.`.`.;.&._.`.`.^.I.I.+.O.[ _ 0.7.t.c.u.~ x.t.v.~ c.W x.I n V I v.v.b.v.x.m.v.v.v.R J B n ",
"c.l.z.z.v.x.t.t.t.t.I I I i.x.t.k.k.x.Q L I L S J F ,.<.-.T.T.E.T.(.`.`.`.`.U.;.-X}._.}.}.`.Q.E.W.T.T.%.o.5.v.u.B.S.F.F.m.b.m.7.W W Q v.u.t.I H P G P K U y.r.y.",
"7.u.t.v.v.v.v.t.v.r.c n c t.v.v.x.x.c.Q V n D B A ` O.I./.`.`.`.`.`.}.;X$X;XE.;.<X;X-X-X@X_.}.}._.`._.E.$.| 0.t.B.P.P.G.7.u.c.7.v.x.v.v.u.8.V b G S V c I v.c.c.",
"u.c.v.y.i.v.v.v.M.t.M M c t.t.v.v.t.v.~ H V A ` [ O.T.).`.OX&X$X&X&X$X{.}.:X].&.{.}.{.{.}.-X-X-X&X$X`.`.~.*.| o.s.C.P.P.7.n.c.c.t.k.x.v.u.n.K C S m M b I m.c.c.",
"u.n.i.Q R E Q E R E R R R t.v.v.c.t.v.5.` ` { =.-.@._.$X&X#X.X}.{.}.[.T.E.{.:.O.*.I.E.E.^.}.}.{..XXX&X&XOXT.$.].$.o.s.f.u.c.u.c.x.x.x.u.t.i.V V G U R U W c.l.l.",
"y.n.y.J v M S n n I i.v.N.i.n.t.y.t.w...+.T.R.).R.$.$XXX}.(.Q.E.T.E.T.I.;.;.;.&.O.*.I.I.I.E.E.E.E.Q.{.XX$X^.*.:X/.T.=.} o.8.c.t.x.k.b.x.i.v.H V M r.n.c.b.c.l.l.",
"y.M.i.G M n H V c K u.u.i.u.u.8.1.o.:.R.Q.`.`.@X#X[.Y.E.E.E.E.E.I.I.;.&.&.&.I.&.O.&.&.&.-.I.I.I.E.E.E.E.Y.].oX,XOX`.).E.R.%.X.4.l.k.x.x.v.t.H B N 6.i.c.b.l.l.k.",
"y.i.y.K G c G H S I u.u.n.N.e.o.O.I.).`.`.`.$X+X{.{.;.&.*.;.I.I.*.&.-.*.&.*.&.$.O.&.&.*.*.&.&.I.;.I.I.$.&.Q..X{.$XOX`.`._.Q.&.| 4.l.b.x.i.6.K H H y.u.u.c.x.b.b.",
"S S G M G G T n.v.i.v.y.i.g.%.@.E._.`.OX-X-X}.(.E.E.I.$.@.@.&.&.&.*.&.&.+.+.+.@.O.@.+.$.&.*.*.*.&.&.@.@.*.T.E.E.{.#X-X$X|._./.=.} X.Y c M C t.v.7.M.v.c.c.7.x.t.",
"S S G n G M R n.c.v.c.u.0...&.Q._.`.@X#X{.{.Q.I.I.;.*.&.$.@.@.&.@.+.@.O.} 0 7 5 7 5 ) O.+.+.O.&.$.@.$.&.&.*.;.;.T.(.{..X&X|.|.).U.@. .Z P C u.v.c.n.u.c.c.c.v.v.",
"m S m c V M Y c.c.c.v.8...=./.`.}.$X+X].E.R.I.-.&.&.+.+.+.O.O.+.0 6 5 5 8 : & & & & 5 5 7 7 5 ) O.O.+.+.+.@.*.*.;.T.R.Q._.&XOX_.`.T.@.Z m m ~ x.c.x.t.v.v.t.i.y.",
"Q Q r.Q 7.W 7.b.7.m.C.d.W.).`.|.-X{.~.T.I.I.*.*.$.} 8 5 7 5 7 6 = & & > & & , 2 2 > & & & & & 5 7 7 7 5 7 / @.*.*.;.;.U.E.[.#X@X`.`.Q.-.4.~ c.x.v.c.x.v.r.I L K ",
"t.x.v.t.n.c.c.c.c.e.s.+.).`.OX$X{.!.E.I.&.&.&.@.) 5 & , > & , & , w 2 , w w w y y , w , w w 2 > > , = , = = 9 +.&.*.*.-.E.E.(.+X$X`.`.I...0.7.x.x.k.x.v.E S G D ",
"t.v.v.~ b.c.c.6.0.| $.{.`.@X#X).E.I.I.;.&.O.^ 7 5 & w y y y s 2 , y u l l g l s l l l l s y 2 2 y u y y w , = 7 9 ( $.*.;.;.U.^.XX$X`..XW.[ o.t.x.x.v.N.R n D S ",
"x.c.l.b.c.u.N.B.1.O.+.E.#X+X].I.I.;.*.$.) 8 = > 2 2 y y y s l l , y y > , > > > > > > > w s , u l l y y y w 2 , > 5 ^ @.&.&.I.R.I.{.}.].I.{ O.w.i.E W T R R I R ",
"x.x.7.x.7.t.C.f.Y.Q.I.O.I.E.R.I.I.*.@.( 7 2 u w 2 y l s l y > > & & & X X X X X X X X X O > # = > 2 s l l u w , u y q 9 O.&.;.I.I.R.I.+.$.R.E.$.e.L c c L n.v.v.",
"v.v.v.c.l.5.%.Y.).`.}.{.+.I.E.R.*.@.^ 5 > y u y 2 , > , > & X X X X X X X X X X X X X X X X X X X X > > > > , w u u , > 8 ) $.I.R.R.+.R.}.}.}.~.:.' G m U v.v.v.",
"Q t.v.v.b.e.@.(.`.OX$X{.I.&.*.;.$.9 & > 2 y s 2 & O X X X X X X X X X X X X X X X X X X X X X X X X X X X O # & u u y , > 5 ) ;.I.@.I.].}.-X}.`.:.` b c I v.v.t.",
"J.J.P.K.V.h.E.Q.).$X-XR.I.&.@.} 8 = , y u s , & X X X X X X X X X X X X X X X X X X X X X X X X X X X X X X X X & y s y 2 > 5 ^ O.$.I.I.}.,X}.}.^.:.` x T m.M.v.",
"K.K.4XG.j.&._.Q.+X#X].Q.*.*.$.( % , y u u = X X X X X X X X X X X X X X X X X X X X X X X X X X X X X X X X X O X & w l y w & 5 O.&.&.I.~.}.-X}.|.E.[ N Y l.t.i.",
"J.J.4XK.g.@.Q.Q.%X+XR.Q.=.@.^ 4 % w s y & X X X X X X X X X X X X X X X X X X X X X X X X X X X X X X X X X X X X X O , s u : - 9 O.$.I.I.E.:X}._.E.] x U t.i.t.",
"5X=Xh.s.%.@.E.I.#X+XR.=.*.@.^ # & w s , X % O X X X X X X X X X X X X X X X X X X X X X X X X X X X X X X X X X X X X # u y , % - { $.I.I.].,X@X`.Q.} X.o. X=XS.",
"5X*X{.].*.+.;.*.#X#XU.-.&.@.0 # > , w , @ * @ X X X X X X X X X X X X X X X X X X X X X X X X X X X X X X X X X X X o # w , , & - { $.&.I.].;X}.~.*.+.R.{.-X=XJ.",
"A.].{.%XXXR.+.*.oX#XR.U.*.@.0 & u s , 2 j # % # X X X X X X X X X X X X X X X X X X X X X X X X X X X X X X X X X X 1 k : u s w - { &.I.U.].;X}.I.&.~.-X}.T.'.4X",
"j.O.I.].+X.X+.&.#X+XR.;.*.+.^ & u l , % 1 * * # X X X X X X X X X X X X X X X X X X X X X X X X X X X X X X X X # o ; t q g s w ; { $.I.I.].;X].@.I.-X{.Q.&.a.D.",
"A.@.~.Q.^.(.;.@.oX#XU.*.&.+.0 % y u & O * * < * # X X X X X X X X X X X X X X X X X X X X X X X X X X X X X o * = f f < p s y , & ) &.&.I.~.;XI.$.R.].E.~.I.a.J.",
"A.#.&.@.$.$.$.O.-.-.@.@.+.O.0 % y l > X % * * * % X X X X X X X X X X X X X X X X X X X X X X X X X X X X X o < 1 ,.>.6 h g u 1 ; ) O.O.+.$.I.@.+.&.@.$.*.@.a.4X",
"S.j.+.&.I.U.Q.Q.Q.Q.Q.Q.Q.&.^ % y l , X o o * * * X X X X X X X X X X X X X X X X X X X X X X X X X X X X X # < @ k >.q h z s 1 ; { $.&.&.I.I.R.Q.Q.~.Q.~.'.D.4X",
"t.9...:.Q.R.Q.U.I.U.U.U.U.@.0 % y y > X o X & < # X X X X X X X X X X X X X X X X X X X X X X X X X X X X X o @ . k >.5 d a y , ; ) &.&.I.I.I.I.R.~.~.~.I.j.J.6X",
"r.8...@.$.$.$.+.+.+.+.O.+.O.^ # > y & O e ( = . . X X X X X X X X X X X X X X X X X X X X X X X X X X X X X X . j 2.F 1 d y 2 = ; ) O.O.O.O.+.O.@.$.@.+.} g.J.J.",
"l.c.5.w.X.O.@.@.$.$.@.} $.O.^ % > w & X q 2.t O . X X X X X X X X X X X O X X X X X X X X X X X X X X X X X O q 2.3.z ; d y 1 & - { $.+.+.$.$.$.$.@.| V.D.D.K.6X",
"l.b.b.v.0.+.*.*.*.*.&.} &.O.^ O > w & % t 2.f q - X X X X X X X X X X X X X X X X X X X X X X X X X X X O O > t 2.3.k % d u , & - { $.@.@.*.*.*.U.*.#.H.G.N.i.N.",
"W l.t.v.0.@.U.T.I.&.$.O.&.+.0 # 2 y & q 2.2.f t t , X X X X X X X X X X X X X X X X X X X X X X X X X X X % q t 2.3./ & d u w , - { $.@.+.*.U.T.E.;.%.D.B.n.y.t.",
"n.v.v.M.q.@.E.Q.R.I.I.O.&.@.^ % , , # t 3.3.f q q , O X X X X X X X X X X X X X X X X X X X X X X X X X X & 5 t f <.z > d 2 , = - { $.@.@.T.E.E.{.{.%.H.S.t.v.v.",
"6.Q E E X.@.(.Q.E.{.}.+.I.&.^ & s l & w 3.3.f q 5 : O X X X X X X X X X X X X X X X X X X X X X X X X X X & , t t ,.A $ d s s w - { I.$.@.Q.Q./.$XoX#.S.N.r.v.x.",
"b b G M _ $.`.).!.}.%X+.I.$.0 & u l > w 3.3.f q , : X X X X X X X X X X X X X X X X X X X X X X X X X X X % q t t ,.>.: d z g 1 - { U.&.@.Q.Q.).;XoX..8.v.u.v.x.",
"S S J n A &._._.].}.#XO.*.@.0 % , g > w 3.2.f q , : O X X X X X X X X X X X X X X X X X X X X X X X X X X % q t t ,.>.< t g y = - { *.@.*.).Q.).$XoX..p.v.x.u.x.",
"D D J G _ &._.{.).#X%XO.&.+.0 % w l > w 2.f t 2 5 : X X X X X X X X X X X X X X X X X X X X X X X X X X & : , t >.3.>.< r l u > - { $.@.*._.)._.}.~...8.u.x.t.x.",
"S J n r.0.@.~._.`.}.).O.&.@.0 % y l > t 2.t t q , > O X X X X X X X X X X X X X X X X X X X X X X X X X = q 5 t 2.3.2.>.u l s , - { $.@.*._.`.`.`.Q...9.~ m P M ",
"S G G y.q.@.Q._./.).~.O.$.@.^ # , u & w 2.t t q 5 , X X X X X X X X X X X X X X X X X X X X X X X X X X & , 1 t f <.3.2.r u 2 = - { &.@.*._./._.`.E...9.~ c m M ",
"v S V r.0.@.R._.~././.O.&.@.0 & w y % w 2.t w q 5 , O X X X X X X X X X X X X X X X X X X X X X X X X X o & q t w f >.2.i r y > - { $.+.*.).Q.).`.Q.| 6.T m M M ",
"E W T c.q.@.Q._.~./.~.O.$.@.0 % y g > w 2.t t q q , O X X X X X X X X X X X X X X X X X X X X X X X X X X o & q t q / 2.p s s , ; { $.@.*.).Q.).`.Q.[ I W W Q Q ",
"n.b.9.b.q.@.Q.).`.).I.O.&.@.0 % y l : t <.t $ 5 5 # X X X X X X X X X X X X X X X X X X X X X X X X X o X X X o o : k 2.h j s , - { &.@.$./.)._.`.E.{ N T v.n.v.",
"7.7.l.7.q.@.Q.).-X}.I.+.I.$.0 % , , # w 2.t X X X X X X X X X X X X X X X X X X X O X X X X X X X X X X X X X .   : p h d y 2 & - { :.$.$.Q._.|.`.E.[ N U i.i.y.",
"z.l.b.c.0.@.Q.).;X#XI.O.T.$.0 & s l > w <.t o     X X X X X X X X X X X X X X X X X X X X X X X X X X X X X > _ $ < r t d g s w - { U.&.$.Q._._.|.Q.[ N U M.i.n.",
"l.9.b.~ 0.@.Q.`.;X#XI.+.I.&.0 & u l > # : t q $ X X X X X X X X X X X X X X X X X X X X X X X X X X X X X & w f >.h t i h z s 2 - { U.*.$.Q._._.|.Q.[ N U M.p.u.",
"l.x.x.x.4.@.Q.).&X@XI.+.U.$.^ % y l > 1 F f q : % X X X X X X X X X X X X X X X X X X X X X X X X X X X X & q t 2.2.F p f k s , - { U.&.@.Q._.`.`.Q.] x T c.v.u.",
"x.x.t.b.q.@.Q.).XX).I.O.*.@.0 & y s & w 3.<.f q & X X X X X X X X X X X X X X X X O X X X X X X X X X X X & q t 2.3.>.i f f y 1 - { =.@.$.Q.).|.`.Q.[ C Y 9.p.n.",
"Q t.t.S.g.@.Q.).Q.;.&.O.$.@.0 % y s = 2 3.2.f : O X X X X X X X X X X X X X X X X X X X X X X X X X X X X O & t <.t 5 i d j u 1 - { &.+.@.=.U.(.`.Q.| 8.u.v.u.9.",
"v.m.v.G.j.&.)._.;.U.I.O.&.+.^ % y l , & k 2.f - X X X X X X X X X X X X X X X X X X X X X X X X X X X X X X % w : : q t h z s , - ] &.@.$.I.*./.`.Q.#.9.c.b.c.b.",
"Q t.6.S.g.$.Q.Q.I.*.&.O.I.$.^ % y l > O t 2.f = X X X X X X X X X X X X X X X X X X X X X X X X X X X X X X % q   < e < d l s , - { =.$.@.=.=.E.Q.U...9.c.z.c.z.",
"S.F.C.f.+.$.T.;.*.&.$.O.@.O.^ % y u & & p <.f q & X X X X X X X X X X X X X X X X X X X X X X X X X X X X X % q + < e e h a y 1 - ] @.+.+.&.&.=.U.I.} ..w.c.l.l.",
"K.P.H.d.} +.@.@.+.@.O.O.$.&.( & y y & * i f t q & X X X X X X X X X X X X X X X X X X X X X X X X X X X X X % t ,.h e i d y y , - @.&.$.+.+.+.+.@.@.+.O.| 0.x.b.",
"K.K.H.d.;.(.(.(.(.(.!.;.(.).@.% 2 r & * e e @ * - O X X X X X X X X X X X X X X X X X X X X X X X X X X X X % t <.h e 1 d u y , 6 !._.(./.~.(././.(././.&.4.! l.",
"G.4X4Xa.W.:X;X;X;X;X;X$X*X:X;.% > 2 = # < 1 + % > X X X X X X X X X X X X X X X X X X X X X X X X X X X X X % t : * < < d u 2 & 7 #X;X;X;X;X;X;X;X;X-X-X:.0.B.b.",
"4X4XD.o.-.^./.`.}._.^.^.^.^.+.# > y & & i 1 @ * 5 X X X X X X X X X X X X X X X X X X X X X X X X X X X X X % e + * e i d i 1 # ; ;.Y.E.^.^.^.(.^.^.^.U.@.g.P.P.",
"V.:.=XI.+.@.$.$.&.$.@.@.@.@.^ % > , # # < i + * , X X X X X X X X X X X X X X X X X X X X X X X X X X X X X # q 6 i < < d 2 , & - } +.$.$.@.$.$.$.$.@.+.+.V.F.F.",
"C.Z.:XXX(.).(.W.!.(.).).).).+.& w s > # < < + < , X X X X X X X X X X X X X X X X X X X X X X X X X X X X X o $ 1 < < < h s u > 6 ~.(.(.(.(.(.(.(.(./..X@X XH.K.",
".X.X*X;X;X;X;X&X;X;X;X;X;X,XU.% y l > O * < * % % X X X X X X X X X X X X X X X X X X X X X X X X X X X X X X o * * * < d z s 1 7 @X;X;X;X:X&X:X;X&X;X:X;X%X[.[.",
"|.|.-.E.(.(.(.XX|.OX|.XX}.OX$.% y j , # * < * : % X X X X X X X X X X X X X X X X X X X X X X X X X X X X X X o * * * 1 h z s 1 < Q.(._.|.|.OX|.|.|.(.|.I.Q.}.`.",
"&X).+.;.Q.Q.).`._.(.Q.Q.Q.Q.} % y l , @ * < : * % X X X X X X X X X X X X X X X X X X X X X X X X X X X X X . o < A Z : d z s > 4 U.T.Q.(.|.!.Q.Q.Q.E.E.$.I.OX;X",
";X).@.I.Q.Q.Q.Q.Q.Q.R.W.;.;.) % y g > * i < : = % X X X X X X X X X X X X X X X X X X X X X X X X X X X X X X @ : d p < d l u 1 * &.=.U.T.T.E.E.E.E.E.E.@.I.@X<X",
"&X).+.;.E.T.T.R.E.I.*.&.&.&.( # > y = = d < * * * X X X X X X X X X X X X X X X X X X X X X X X X X X X X X X o * e A J h t , > ; @.&.&.*.-.I.E.R.R.R.R.@.I.OX<X",
"&X|.$.@.$.@.$.$.@.@.@.+.@.@./ % = w & : p < * * % X X X X X X X X X X X X X X X X X X X X X X X X X X X X X X $ * : i A p t , & ; O.+.@.@.@.$.$.@.@.@.@.+.R.+X<X",
"1X;X|.(.(._.(.).).).).).).).@.# > y & = p e $ % # X X X X X X X X X X X X X X X X X X X X X X X X X X X X X o - $ o : f i y , & 5 ~._.).{.).).).).).{.).).@X,X<X",
";X,X&X;X:X;X;X;X;X:X:X;X:X:X:.O > 2 & O % @ o o @ X X X X X X X X X X X X X X X X X X X X X X X X X X X X X X X o . * e e r , = 5 %X;X;X-X;X;X;X;X;X-X-X;X:X,X;X",
"U.`.|.|.|.|.|.|.`.|.}.`.(./.O.% = > # = e X o X X X X X X X X X X X X X X X X X X X X X X X X X X X X X X X X X X X X % q , > & 5 E.(.).}.}.}.}.}.`.).(.^.{.(.$.",
"$.Q.).`.|._._.|.`./.Q.Q.E.Q.} O & > O o # X X o X X X X X X X X X X X X X X X X X X X X X X X X X X X X X X X X X X X o O & > & 4 I.R.E.Q.~._.`._._.`.).Q.!.I.) ",
"$.E.Q.)._._._._./.Q.Q.R.-.T.O.$ & - % $ % $ % - % $ o % $ # # $ $ % $ % O # # $ O % $ O % $ O O O $ $ O $ % % $ $ - - $ % & - % 4 I.I.I.E.Q.Q._./.~._._.~.E.I.O.",
"$.E.E.E.Q.Q.E.Q.R.R.T.-.*.-.{ 9 ) ) ) { { ) ) ) ) ) ) ) ) ) ) ) ) ) ) ) ) ) ) ) ) ) ) ) ) ) ) ) ) ) ) ) ) ) ) ) ) ) ) ) ) ) ) / 0 *.*.*.I.Q.I.Q.E.E.E.Q.E.Q.I.O.",
"$.T.T.=.&.;.&.&.*.&.&.&.&.&.+.} &.*.I.R.U.*.*.*.*.&.O.&.&.&.*.*.U.I.&.*.&.&.&.*.&.&.&.*.&.&.&.*.*.*.*.&.O.@.*.*.*.&.&.&.*.&.&.+.) &.&.&.&.&.*.*.*.*.*.*.I.R.;.{ ",
"O.+.+.+.O.+.+.+.+.+.+.+.+.+.+.+.*.R.(.`.).E.E.E.Q.I.O.$.*.;.E.E.)./.E.E.E.E.E.Q.E.E.E.E.W.E.E.E.R.E.I.*.@.@.;.I.E.E.E.Q.R.=.&.&.+.O.O.+.@.@.O.+.O.+.+.O.@.@.+.O.",
"+.&.=.&.;.E.T.E.T.T.E.T.T.T.T.E.E.).`.`.`._.`._._./.*.*.I.Q._._.`.`.`.`.`.`.`.)._.}.`.`.`.`.`.`._.).~.E.*.*.R.Q.).`.{.).~.E.Q.I.I.&.*.I.T.I.I.T.I.T.T.T.T.T.=.O.",
"+.-.T.E.(.}.`.`.`.`.}._._._.`.}.`.`.`.|.`.`.}.}.`.).-.R.).`.}.:X,X,X,X,X,X,X$X}.OX;X,X,X,X,X,X<X-X}.}.!.I.I.Q.Q.`.}.`.}.`.`.}.{.^.!.E.E.Q.Q.!.Q.!.!.E.E.E.E.I.{ ",
"@.E.Q.#X,X,X:X,X,X,X:XXX}.&X<X,X,X,X,X,X,X,X,X@X`.).;./.`.`.OX,X<X<X<X1X<X<X,X,X,X<X,X<X1X1X1X1X,X,X;X}.R.I.~.}.-X,X,X,X,X,X,X,X,X:X+X{.}.}.}.}.}.`.`._.~.E.I.O.",
"$.Q.).;X<X<X1X<X<X2X3X3X,X<X2X3X<X1X<X<X<X<X<X,X-X).;.(.`.OX;X,X,X,X,X,X<X<X<X<X<X<X<X<X2X3X3X3X3X3X1X,X{.~.}.;X,X,X,X<X1X3X2X<X1X3X3X3X3X2X,X,X,X,X,X}.`.}.!.O.",
"&.).).$X:X:X:X:X:X:X>X>X:X:X:X:X:X:X;X:X:X:X:X:X@X).Q.(.).`.`.`.}.`.`.}.:X:X:X:X:X:X:X:X:X>X>X:X,X,X,X;X{.~._.}.`.`.}.}.;X,X1X2X:X,X:X:X,X,X:X:X:X:X;X;X;X;X{.O.",
"Q.Q.Q.!.(.!.(.!.(.!.(.!.^.^.^.^.^.^.^./.^.^.^.~.~.Q.Q.!.Q.Q.Q.Q.Q.Q.Q.!.^.!.^.^.!.^.^.^.^.^.^.^.^.^.!.].E.E.E.~.Q.Q.Q.Q.~.(.].!.^.^.^.^.^.^.!.^.^.^.^.^.!.(.!.R."
};
