/* XPM */
static char *ab0eb109123e47d8cc12c72c7c9c4c61pl1vRuHtAPUAdAof[] = {
/* columns rows colors chars-per-pixel */
"80 80 252 2 ",
"   c #010101",
".  c #0B0501",
"X  c #060902",
"o  c #0C0B04",
"O  c #0B0C0B",
"+  c #120100",
"@  c #1A0502",
"#  c #130C03",
"$  c #0D1103",
"%  c #1A1205",
"&  c #161806",
"*  c #181814",
"=  c #230100",
"-  c #2A0302",
";  c #380403",
":  c #241A05",
">  c #2A1D05",
",  c #241909",
"<  c #281D14",
"1  c #351C10",
"2  c #1E2303",
"3  c #1D2218",
"4  c #262806",
"5  c #37270B",
"6  c #2A3204",
"7  c #333D01",
"8  c #393B05",
"9  c #282618",
"0  c #352918",
"q  c #27311C",
"w  c #393516",
"e  c #292925",
"r  c #342D24",
"t  c #373829",
"y  c #393A35",
"u  c #430604",
"i  c #590505",
"p  c #423007",
"a  c #473513",
"s  c #4E3914",
"d  c #513D16",
"f  c #632C04",
"g  c #483A2B",
"h  c #3A4600",
"j  c #394502",
"k  c #2E4811",
"l  c #344C15",
"z  c #384518",
"x  c #364C19",
"c  c #3B4D1C",
"v  c #385219",
"b  c #3B521D",
"n  c #3C4827",
"m  c #3E5421",
"M  c #3E5921",
"N  c #3E4733",
"B  c #434E04",
"V  c #495309",
"C  c #494817",
"Z  c #5A4519",
"A  c #455215",
"S  c #4D5613",
"D  c #4E5915",
"F  c #555C18",
"G  c #694C01",
"H  c #755701",
"J  c #586210",
"K  c #6E6D01",
"L  c #434D23",
"P  c #464829",
"I  c #594727",
"U  c #425424",
"Y  c #435A25",
"T  c #47562A",
"R  c #4A5D2B",
"E  c #454834",
"W  c #495738",
"Q  c #565132",
"!  c #624D22",
"~  c #705A2F",
"^  c #48632C",
"/  c #4C632D",
"(  c #50672F",
")  c #4D6431",
"_  c #4E6536",
"`  c #526533",
"'  c #536B35",
"]  c #566B3A",
"[  c #5A6E3B",
"{  c #56733A",
"}  c #5B733D",
"|  c #5C7B3E",
" . c #686929",
".. c #756B38",
"X. c #787539",
"o. c #4D4D44",
"O. c #555B46",
"+. c #595959",
"@. c #665B46",
"#. c #6B5E52",
"$. c #546444",
"%. c #586946",
"&. c #5C6B4A",
"*. c #5D7442",
"=. c #5E7C42",
"-. c #5C7648",
";. c #5E6852",
":. c #77684A",
">. c #706D4E",
",. c #627543",
"<. c #627C45",
"1. c #64754B",
"2. c #657D49",
"3. c #697D4B",
"4. c #776A58",
"5. c #687956",
"6. c #6B6D68",
"7. c #880101",
"8. c #970000",
"9. c #A90000",
"0. c #B20101",
"q. c #BA0000",
"w. c #BB1B1A",
"e. c #BF2120",
"r. c #C70303",
"t. c #C91D1C",
"y. c #D41D1D",
"u. c #EB1C1B",
"i. c #F11F1F",
"p. c #DD2020",
"a. c #E42222",
"s. c #F62524",
"d. c #FE2625",
"f. c #916B03",
"g. c #A27C01",
"h. c #836B38",
"j. c #8B743A",
"k. c #92773C",
"l. c #816D40",
"z. c #837B44",
"x. c #977E45",
"c. c #8B7B55",
"v. c #877768",
"b. c #5D813E",
"n. c #5D8143",
"m. c #5F864A",
"M. c #638245",
"N. c #65834A",
"B. c #66874B",
"V. c #6A834C",
"C. c #6A894D",
"Z. c #71864F",
"A. c #6C8551",
"S. c #6B8357",
"D. c #6D8951",
"F. c #718553",
"G. c #728A55",
"H. c #778C5B",
"J. c #76925B",
"K. c #77955A",
"L. c #7B935D",
"P. c #798A66",
"I. c #7C9562",
"U. c #7D9963",
"Y. c #9A9A01",
"T. c #AE8401",
"R. c #A8A400",
"E. c #D29D00",
"W. c #E8AE00",
"Q. c #FABB00",
"!. c #C9CA00",
"~. c #FCC700",
"^. c #F3D100",
"/. c #EDE400",
"(. c #F6F400",
"). c #FFFE00",
"_. c #9C8245",
"`. c #908851",
"'. c #A58747",
"]. c #A78C53",
"[. c #B58957",
"{. c #AB9256",
"}. c #B59559",
"|. c #839C65",
" X c #869869",
".X c #859D6B",
"XX c #938870",
"oX c #A89666",
"OX c #A7906D",
"+X c #B29D69",
"@X c #AC9972",
"#X c #85A269",
"$X c #8BA36E",
"%X c #91A56F",
"&X c #8EA473",
"*X c #8EA972",
"=X c #92A575",
"-X c #93AA75",
";X c #99A976",
":X c #95A679",
">X c #9BA47B",
",X c #95AB7A",
"<X c #99AC7C",
"1X c #95B377",
"2X c #96B27B",
"3X c #9AB27D",
"4X c #B5A16D",
"5X c #A0AD7D",
"6X c #BAA472",
"7X c #BBA572",
"8X c #CA9766",
"9X c #D29B69",
"0X c #DBA36D",
"qX c #C6A877",
"wX c #DDA672",
"eX c #E5AA74",
"rX c #EBAE76",
"tX c #EBB275",
"yX c #EDB179",
"uX c #F3B77C",
"iX c #FABA7F",
"pX c #9A958A",
"aX c #AB9B88",
"sX c #9DAC80",
"dX c #96B381",
"fX c #9CB381",
"gX c #A9AF88",
"hX c #B1B0AF",
"jX c #CDB094",
"kX c #EBB583",
"lX c #F4BC86",
"zX c #FDBD82",
"xX c #C6BBA5",
"cX c #FEC087",
"vX c #FEC28B",
"bX c #FAC798",
"nX c #D6C8B0",
"mX c #F9CDA5",
"MX c #F9D2AB",
"NX c #FDD3AC",
"BX c #E5CEB2",
"VX c #FCD7B2",
"CX c #FCD9B7",
"ZX c #FFDAB6",
"AX c #D1CFCD",
"SX c #ECDBC9",
"DX c #F7E5D3",
"FX c #EAE9E7",
"GX c #F1EFE8",
"HX c #FDF2E8",
"JX c #F6F4F3",
"KX c #FFFFFF",
/* pixels */
"| n.n.b.=.n.M.| | | | M.| | | M.b.b.b.| | } 3.P w C L z c R 1.2.*.&X&X$X=X-X-X.X3.,.3.T C P z C x l N.n.| <.<.=.=.<.=.| <.=.N.m z n R V.=.*.| | M.| } Z.[ w L L ",
"n.n.n.n.M.N.B.M.V.V.V.Z.V.M.| M.b.M.B.M.Z.Z.F.R T T P T n R 2.3.-..X,X3X,X-X<X:X5.3.3.Q P T P U x m O.W E W 2.M.N.N.N.N.D.<.D.^ x m ^ A.N.N.N.M.M.V.3.Z.*.L T P ",
"n.m.m.m.M.<.M.V.N.V.M.| | V.Z.M.M.b.B.X.X.3.3.Q P z L T m T 3.2.H..X:X<X:X:X<X=X3.3.3.T L L L P M ^ *     X ] ,.M.<.N.=.N.{ N.^ c m ) 3.V.A.N.N.Z.C.Z.3.` U C c ",
"m.m.n.m.N.M.<.<.<.| ( / ( M.V.| M.b.M.| ( / R L L L ` 2.[ <.#X#X.XH.G.P.G.H.$.W n t E t t t P E N W K K K K ` W G..X#X#XD.N.D.=.{ [ | V.<.<.^ Y Y A R R _ <.1.1.",
"=.=.<.M.V.V.3.2.V.,.v c l <.3.V.M.M.V.| U b C m C n ] 3.2.F.-X1X<XS.-.2.1.5.O                     X !.(.).(.8   5.,X2X,X=.N.N.=.V.B.M.Z.2.=.m n Y b b x ^ V.N.N.",
"2.V.3.3.3.Z.A.3.Z.,.b b l <.<.V.V.<.M.| Y b n L c m ] 3.3.G.-X1XfXG.O.O.W W H G G G K K K K K K K K ^./.(.(.8   S.2X2X,X-.A.N.N.M.b.<.M.2.A.M M m b m x ) C.N.N.",
"2.3.3.} ` [ } [ ' [ ` ] ' <.M.V.M.<.3.<.b U m ) ` ` [ <.<.V.|.|. X%.      : W.Q.~.~.(.).).).).).).).~.~.(.(.j   5. XU.I.2.V.N.N.M.M.N.M.2.3.m n m _ ] ) { m.=.n.",
"1.Z.1.R c c A c c / 3.V.G.3.V.3.3.<.V.<.c b T ,.F.F.V.V.<.M.N.<.&.P G G G H ^.^.^.^.R.Y.Y.Y.Y.Y.Y.Y.T.g.^.^.8   S.1.=.2.V.<.2.<.n.M.N.=.2.A.T m m *.5.N.V.N.n.m.",
">.3.3.Y c c Y m c R 3.2.V.2.2.3.3.<.G.} A c m ,.V.3.<.V.| M.V.5.O : W.Q.Q.~.).).)./.&                   E.~.5   5.3.N.D.=.V.N.=.M.b.M.M.V.<.T m n *.3.V.B.n.n.n.",
"X.3.3.R U x U U b / 2.N.A.F.A.V.F.} 3.} R U Y } <.V.M.C.V.M.C.5.O : W.Q.^.^.R.R.R.Y.5.+.+.+.+.6.+.+.O   H g.G G &.;.5.D.2.N.A.M.b.M.C.M.V.} R U Y -.3.2.N.B.B.B.",
"l c U c U Y [ A.3.3.V.-.V..X=X<X<.l c D 2.V.C.V.M.M.V.N.V.M.3.5.X : W.~.)./.&     * AXKXKXKXKXJXKXJXy       E.Q.p X &.D.N.N.N.n.C.B.{ l v M ,.V.=.G.A.2.N.n.<.=.",
"U U U c U b _ A.N.V.3.2.G.*X3X3X3.b Y R N.*.<.<.V.M.M.<.M.V.W ] G H W.Q.R.Y.Q o.+.6.FXKXKXKXKXKXKXJX6.+.O   H T.! q 1.N.n.N.n.M.b.b.{ v ^ A N.C.2.C.<.M.V.N.A.3.",
"b c b v m m _ B.V.N.N.,.V.|.=X3X<.l v Y D.N.A.n.<.M.V.<.V.5.O 4 W.Q.Q.W.# * hXBXJXKXKXKXKXKXKXKXKXKXKXGXy       5.M.b.B.N.M.n.B.M.V.' k v v | M.<.M.<.V.3.<.3.2.",
"} } } } =.{ | N.=.C.*X$X$XL.H.G.3.} | | M.{ N.N.M.M.C.M.A.-.  : W.W.g.g.I +.nXBXGXFXGXFXhXhXAXAXhXhXAXSXy   e y S.M.M.M.M.M.M.B.V.G.N.{ | | C.M.C.N.3.V.} ` ` R ",
"<.3.V.3.A.N.N.N.N.D.1X*X-XV.3.| Z.M.M.M.N.N.B.=.N.M.C.<.3.&.X > Q.E.# , xXBXAXBXBXBXAXnX<   4.v.*   pXjX<   %.M.C.<.B.m.b.m.n.M.<.2.C.X.C.C.b.M.b.M.M.V.] A L L ",
"<.M.V.| B.N.2.=.=.V.3X-X<XZ.V.M.| V.%.$.$.%.%.-.n.<.N.=.V.1.  % g.g.E O.xXnXaXpXpX>XpXXXo.Q XXaX*   pXjX#.E $.%.V.B.C.B.M.B.b.M.N.N.N.b.b.C.| B.M.M.V.Z.] n m A ",
"M.N.=.N.N.N.G.J.H.|.;X%X5XZ.-.M.n.%.O         9 A.=.D. XH.5.O     e nXBXSXxX*         $ xXVXVXmX< . aXmXMXBXt   ;._ =.' N.N.B.N.b.B.M.N.N.n.N.<.M.{ { ' ] ` / ' ",
"n.M.=.N.n.<.U.;X;X;X5X%X1XZ.N.A.-.&.o.y e e 9 y ;.&.5.P.P.6.      O XXpXaXXXg 0     0 I bXCXZXMX@.g jXlXmXmX4.o.;.E T m =.n.n.=.M.B.M.=.=.M.D.V.G./ l l ` V.V.3.",
"N.V.N.N.n.=.L.3X;X;X5X-X;XZ.M.$.  o.JXSX@XOX@Xc.X       X                 , wXwX% o 0XiXMXCXZXVXlXzXzXzXzXcXHXJXo.  W M N.C.C.m.M.M.N.M.N.C.2.*.<.( U v ) C.V.V.",
",.<.N.A.C.D.L.=X$X%X-X$X-XK.V._   o.FXnX+XoX@Xc.5 , > > 9 %         - =   % eXrXa w wXvXmXMXVXVXzXzXbXbX9X8XhXhXo.3 W Y =.=.n.n.N.<.| M.M.C.2.C.V.( v l / V.3.,.",
":XsXsX&X*X*XU.B.D.S.N.<.A.=.-._   r @X+X{.{.{.].k.'.k._.'.h.      + 9.8.. % eXlX].'.iXzXzXcXNXVXlXlXHXJXg     O $.<.M.<.C.N.B.N.V.M.|.3X1X$XN.<.C.^ l x ] F.F.A.",
">X:XsX&X,XfXU.-.S.2.2.<.N.m.B.$.  0 @XoX{.{.{.'.'.'.'.'.h.~ ; ; ; i q.0.; u [.[.h.h.0XrXiXzXmXNXlXvXDXDXy   * e $.M.V.<.N.M.n.n.<.,.G.-X-X=X<.<.2./ b b ` <.2.2.",
">X>XsX&X*XdXU.-.=.m.V.N.N.V.N.$.  0 @X+X{.{.{.].'.'.'.h.X - a.s.s.s.d.s.q.8.@     # k.].tXzXiXiXzXzXzXkX0   n m ] V.| M.B.M.M.M.<.2.|.;X;X3XD.V.F.( v l ^ V.3.,.",
">X>XsXsXdXdXU.m.S.N.B.N.N.N.B.%.e E c.c.x.x._.x.k.k.h.~ ; i s.d.d.d.d.i.r.0.; =   . k.'.uXzXtXuXvXbXbXlXr   W 2.| Z.<.M.B.M.B.K.*X|.`.|.Z.L.^ ^ / ' } } A..X&X&X",
"@X>X>X:X:XdXP.-.m.-.B.=.N.N.N.A.2.&.X % s d d s Z a   ; a.s.d.d.d.d.d.d.d.i.q.8.. . j.'.uXiX[.'.nXBXJXFXy   &.V.V.3.=.<.N.C.<.$XfX;X$X} Z.3.A l l } G.2.H.,XsX=X",
">XsXsX:XdXdXU.m.S.B.D.m.C.N.n.=.-.$.  # ! I ! Z 5 5 - i s.s.t.t.t.t.y.t.t.t.r.0.+   ~ k.0XrX}.{.aXaXAXAXe   $.<.V.V.V.N.N.M.| |.5X;X%X1.Z.} Y l v { V.1.P.<XdXsX",
">X>XsX XU.#XJ.n.N.N.] { { n.N.=.G.5.  9 _.].].l.  ; a.s.d.y.@     . .     - a.a.@     # k.{.tXtXw X   .     *.C.| <.M.2.L.J.J.=X;X=X.X<.Z.V.' ( / | 2.<.H.-X:X:X",
">X=X=X5.N.1.m.-.S.2.x l m *.C.S.P.5.* a ].].x...- i u.a.y.w.1 < < 9 < < e r e.t.u =     ~ k.0XtXg < < <   X $.=.C.V.N.C.;X,X-X<X<X<X X,.3.Z.<.M.V.V.3.,. XsX,X>X",
"<X,X,XC.=.=.V.V.<.*.A b Y | N._ O t `.].{.h.X u a.u.r.8.+ 1 0XtXtXtXtXlXFXAX< = y.y.=     # j.[.eXtXtXeX0   %.N.N.N.-.V.-X3X<X:XsX,X X-.3.M.<.B.<.M.,.,.P.<X>X>X",
"#X$X$XD.N.B.V.=.V.,.R A U | D.$.  0 {.{.{.:.  u s.u.9.7.1 g lXcXvXvXbXmXHXSX* + y.y.=     X ~ k.0XuXuXeX0   $.M.=.D.C.G.*X:X>X<X=X,X.X1.C.M.M.<.<.V.V.V. X<X:X>X",
"B.C.C.n.-.N.' A A R ,.>.3.V.<.W   0 @XoX}.h.  ; s.t.+ 1 0XkXNXVXVXCXHXHXbXeXO . 9.0.+         % k.'.'.'.,   $.=.K.1X*X-X,X:X=X>X:XdXU.2.C.N.N.B.V.|.=X$X:XsX>XsX",
"b.n.=.N.N.D.) c c R 3.3.V.2.1.$.% g oXoXx.~ = i s.t.  9 yXvXZXZXZXSXJXHXvXeX0 - 7.8.+   O *   . ~ j.j.j.r 3 *.<.J.2X&X<X<XsX:X,X-XdX.X=.V.2.M.M.<..XfX-X<X<X>X5X",
"n.m.=.2.<.F.] c C T 3.<.N.$.O g XX].}.h.# u y.s.d.t.  0 kXvXVXZXZXZXZXZXcXiX0X[.- .   O pXhX*     O . O ;.5.S.&.I.&X=X<X;XgX,XfX1X1X|.b.C.| F.V.3. X>X>XsXsX;XfX",
"m.B.N.A.3.Z.` L U R Z.3.N._   r OX@X{...  ; d.d.d.t.  0 yXzXVXZXZXZXNXNXcXiXyX9X%     O hXAXe   O .   . P..X$XU.=X<X<X=XH.H.G.D.C.K.C.M.Z.V.` W T  XfXsX XG.F.G.",
"{ n.<.V.3.A.] c A T 3.<.N.W   r @X+X{.:.  u s.d.d.t.  1 eXkXVXZXZXNXvXcXzXiXyX9XO   O O AXFXe   7.8.@ . P.*X,X,X=X<X;X%X3.2.2.n.M.| | M.| Z.C U L P.>X=X|.3.3.| ",
"A.B.V.A.F.3.` b c R V.V.C.W   0 OX].'...  u s.d.i.w.  1 9XkXMXNXVXNXcXiXzXiXrX9X*   O e AXFXe O 8.q.=   I.2X*X1X<X<X<X;XV.N.N.N.M.M.V.Z.Z.3.x z z I.fXgX|.<.Z.V.",
"-.[ [ [ %.{ _ ^ ) ' N.N.C._   % I I Z w   u s.u.r.8.  < 0XrXyXuXzXzXzXiXrXrXrX9X% O pXhXJXFXe . t.i.- . 5.$XL.#X|. X X X2.2.N.n.<.V.<.{ } ] 1.,.*.P. X%XH.} M.M.",
"z c A n m m { S.2.<.N.M.B.W   # d d a 5 . i s.u.q.8.  9 0XrXrXrXzXiXzXiXrXrXrX9X@ O hXAXFXAXr @ w.p.; O &.S.2.V.3.3.3.F.=.N.N.M.M.V.( k b T <XfX<X X} <.Z.V.Z.<.",
"n A T m m x ' A.B.N.B.n.B._   0 OX:.  u y.a.d.u.q.7.  1 0XrXiXiXzXzXzXzXiXiXrX9X+ O hXhXy e 7.8.; = G G 9 3 -.2.y 9 1.V.2.A.N.N.<.G.} b A m =X=X=XH.3.V.V.<.M.V.",
"L L T U M m ' m.m.m.B.n.C.W   r @Xl.  u d.d.d.u.q.8.+ 1 8XeXiXiXzXzXzXiXiXiXrX9X< * hXhX*   7.9.= . G f.#   $.1.3   O.1.1.3.=.V.=.C.] m Y T =X;X<XH.M.3.<.M.| M.",
"C T c ,.3.2.V.n.m.n.B.N.C.W   0 @X:.  u d.d.d.u.q.0.8.7., g eXyXzXzXzXiXyXrXrXeX8X[.r *     + = f G k._.,   o O     O * E Y T Y Y b ' V.V.2.Z.3.Z.V.<.V.b.v M b ",
"c U U 1.F.2.N.=.n.n.n.m.m._ O t OX:.  u a.s.d.u.q.q.r.8.  , 9XrXzXzXzXzXrXrXrXrXrX9X1 .         H f._._.&               E T T b x l ^ V.3.2.M.3.| <.Z.V.| v v b ",
"z m m ,.V.N.N.n.N.C.N.B.=.S.2.O.* o     - i d.u.q.0.0.8.  < 9XrXiXvXNXNXMXmXlXzXzXyX8Xx.%     . G f.5 #     5 w @.4.4.4.t * N m A m ( M.V.M.V.3.Z.3.C.| ' v b b ",
"*.[ ] 2.V.N.N.N.n.N.M.V.2.U..X5.o X X     ; a.u.q.q.q.8.+ 1 9XeXzXvXNXVXZXVXzXzXzXkXkXkX<       G G #       5 s 4.XXXXc.e   E $.<.' } V.3.<.M.V.3.} / ( ' ' } } ",
"B.B.N.N.N.n.V.N.M.<.<.<.3.-XdX,XS.1.-.O.  . - i 0.q.q.0.8.7.1 I mXmXzXlXlXbXMXmXjXjXaXv.v.#.O   . +           . a I I I @.>.t * &.N.<.M.M.M.M.V.M./ l v ' V.3.3.",
"-.=.=.n.N.n.N.M.Z.3.V.<.2..X:XdX.X=.-.&.      = 9.9.0.0.q.8.. < xXmXzXzXzXzXVXMXjXaXv.v.v.v.* O   .   X   X     5 s s s 4.XXr   $.S.V.<.M.Z.| V.Z.( v v ` V.3.2.",
"m.m.C.m.B.M.M.<.| <.L.H.P.&X:XdXU.1.D.&.        = = = u 0.0.8.7.a Q kXzXzXzXvXkXg r v.v.r e x.8X8X8XjXxXx.~ d 5 % . 5 s I ! @.4.g 3 [ b.V.M.M.| <.( c v ) F.5.A.",
"n.n.C.| M.<.B.V.V.G.3X,X,X,X:XdXU.-.D.$.              = 9.0.0.8.  , wXkXzXzXlX0X@ . 4.v.@ @ eXzXzXzXZXSX4X'.! s .   5 s s s 4.v.r . ] M.V.C.M.M.V.( c v R F.<.3.",
"n.n.<.M.| V.<.V.<.G.<X-X<XsX:X,XK.-.q 9 6 6 7 C c.`.c.:.- - - =     0 g eX9Xg 0     * e @XjXmXNXCXNXqX+X'.'.Z s +   5 s s s I I @.4.y 9 &.2.V.<.V.` k z _ B.S.=.",
"N.M.<.C.N.V.<.3.3.G.=X:XsX=X:XdXK.$.  X j j h F 4X7XqX`.X           . % 8X8X#         @ xXCXZXCXDXSX}.'.'.'.! s %   5 s s s s s :.XXr   $.N.V.<.| [ A b _ -.N.S.",
"} <.| #X*X*X-X,X=X;X1X-X-XS.3.3.C.$.  o j h h F 4X6X7X+Xc.c.c.c.c.:.7 6 p 0       o OXjXMXZXZXZXZXZX}.'.'.k.! s OXaXg . 5 s s s g ! ~ #.E 3 W Y Y ' 2.<.N.N.m.2.",
"V.F.M.-X2X*X;X-X%X3X-X,X3XA.2.S.B.$.  o j j j F 4X6X7X7X7X7X7XqX7X}.V 7           % xXZXZXZXCXZXZXNX}._.'.x.! d jXMXg   5 s s s s s >.XXr   N b b ] A.C.N.S.N.B.",
"} 3.*.$X,X,XdX-X1X2X=X-X3XC.<.M.M.$.  X j j j F 4XoXF ..4X7X7X6X7X4X`.z.X   4 2     t o.BXZXZXCXZXNX}._.~ ! h.j.Q g O   X # 5 s s s I Q O.#.g 3 n { N.N.M.N.m.n.",
" X#XI.:X,X-X.XJ.J.K.J.K.U.V.V.C.B.$.X $ j j j F 6X`.B S +X7X7X7X7X7X7XoXo   j 7       # jXZXVXVXCXMX}.x.Z s j._.<           5 s s s s s :.XXt   E V.A.N.N.N.n.n.",
"-XdX:XdX,XdXI.=.N.,.N.| M.| =.| V.2.&.W $ 2 j B  .F j B F X.+X7X7X7X7XoX7 4 $ $ 4 6 j j E g E E E E 0 5 % # > 0 O.%.$.$.$.&.r # 5 s s s I ! Q #.E r %.n.n.M.B.C.",
"=XsXdX:X,XdXI.-.N.=.Z.b.M.B.B.M.M.M.<.&.  X j j 7 j j j j S +X7X7X7X7XoXV 7     j B J V .                       1.*.2.=.2.A.t   1 s s s s s :.XXt   N C.N.n.| n.",
"=X,XdX&X.X&XJ.2.=.C.N.<.M.M.B.B.V.,.M.;.X   $ & j j j j j D 4X7X7X7X6X4X`.:.o X 7 j j B j 8 k 8 X.4.:.:.L 6 X   ;.|.A.H.J.K.1.&.r # 5 s s s w e O   W M.C.K.K.C.",
"dX,X&X5.-.2.2.2.V.N.M.N.B.M.| b.M.N.V.1.X     X j j j j j D +X4X7X7X7X6X7XoXo   j j j j S D D F oXqX7X7X .S o   5.<X-X1X3X;X-XfXN   5 s s s %       N n.K.1X1X3X",
"&X:X-XI.2.S.V.2.2.=.=.M.V.V.M.M.M.3.N.1.5.O.    $ $ $ & j B  ...4X7X7X6X7XoXo   $ $ j j j V S F oX7X7X7X].`.,   5.1X-X1X-X-X*X&XP.5.t # # #     t W -.n.K.1X#X$X",
":X-X*XS.=.V.N.<.V.2.A.2.<.V.V.V.2.N.V.A.&XP.            j j j V +X7X6X6X7XoXo       7 j j j S F {.7X7X7X7X@X9   5.;X=X-X=X3X<X,X*X1Xt           W M.n.n.D.*X-X2X",
"2.V.A.N.V.V.` b m ) <.1.V.$X-X-X-X=X$X$XS.5.    2 4 2 j z.`.z.`.4X7X7X7X6XoX.   4 2 j j V V D F oX7X7X6X7X4X9   5.3X,X$XF.V.3.2.V.Z.3.$.%.%.$.O.1.U.*X*X.XG.C.=.",
"N.=.<.| <.V.' b x ^ A.3.V.=X<X=X-X-X-X,X=.1.  o h h h F 4XqXqX7X7X7X7X7X7XoXo   j j j j S D D J oX7X6X6X7X+X9   5.-X2X&XC.,.2.V.M.| | | -.n.N.V.=.$X1XdXI.-.V.A.",
"| M.Z.V.C.V.) x b Y 5.2.3.:XsX-X,X2X,XP.N t 6 6 j V `.X. . . .X.+X7X7X+XX.F X   7 j B A S D V.`.4X6X6X6X`. .*   S.,X-X=XF.2.3.V.M.M.N.C.C.M.n.=.n.U.*XfX#XA.3.A.",
"( / ( ^ ^ ' { ' ' ] S.3.3.&X>X<XI.U.I.1.  X j j j F 7X].B j j S +X7X7XoXB 7     j j S D D F oX7X6X7X7X4X .S o X 5.U.J.J.3.3.3.2.M.M.n.=.=.C.K.#XU.U.I.J.G.V.1.V.",
"C z T n b x *.D.N.-.D.3.A.&X5X5XL.| M.&.    & 2 j B  . .h V X.z.X. .Q P & $     $ 2 j B S D X.X.:.Z.Q P 4 4 O.5.I.-.2.-.V.1.3.N.=.N.M.N.n.C.*X2XdXJ.=.*.=.A.<.V.",
"P T P U m x _ =.N.N.B.-.1. X>X<XL.b.M.1.      X j j j j h J 7XoXj 7                 7 j S D D S J V X       P.dX#XV.N.V.A.C.3.V.M.N.=.M.M.D.*XdXdXG.V.V.A.V.<.2.",
"L L C R ) ) -.B.*.=.J.J.H.=X5X<XL.1.o.E > > : : & & & & & 4 P P 2 2 T E E n X       $ & 2 2 4 2 4 4 N W N O.I.#XJ.<.=.2.*.*.*.2.N.M.M.M.n.S.U.U.*XG.<.2.=.} <.3.",
"L T T 1.3.S.-.B.C.J.-X;X<X<X<X;X|.$.  X s s C 5                   O N.M.M.V.O                     X -.B.M.N.N.N.A.A.V.2.M b x { N.B.M.B.n.m.B.D.N.1.=.S.*.c x k ",
"x b A <.N.V.2.2.<.G.%X=X:X&X:X&XW t , 5 s s s a > : , &   o N N n W =.,.2.2.O   % > : : : : , %     -.M.C.N.2.<.*.V.A.<.m v b <.M.b.M.B.n.N.N.=.V.V.2.A.] b Y R ",
"x M Y } N.V.V.M.<.G.1X;XfX=X:X5.  # s s s s s s d d d 5   * M.n.G.N.<.2.V.3.O   a d s s s s s s X X &.,.D.<.<.2.V.C.2.} ^ Y U ' B.b.M.n.2.N.N.N.S.3.2.3.] m c z ",
"=.N.<.M.Z.<.V.M.<.F.-X*XdXG.3.$.    : 5 s s s s C a , 0 W $.N.C.=.) m T Y T O   % > a s s s s s 4 6 E W 2./ / Y Y m A / ,.<.<.Z.C.b.M.n.=.B.N.S.2._ U T ) <.Z.Z.",
"n.n.M.b.V.| V.<.<.G.<X&XsXG.3.$.      . s s a s D j   < A.C.| M.2.) x m M T o       a s s s s s S S o   &.R b c M v m Y 3.V.<.M.m.b.N.N.n.N.2.=.A.R c x ) F.V.1.",
"N.N.n.n.N.| Z.| | Z.;X;XfX3.o.E : : : 4 C C C ! z...4 w N $.C.n.V.R c T N t 9 % : > a s Z C C C S D Q Q o.E T b b b k R 3.<.<.N.m.m.b.b.N.N.2.A.G.) m c ` Z.3.3.",
"-.n.N.M.N.| K.|.|.|.|.|.U.O.X o s s s C D D D  .4XoXF z o * V.n.3.` m L O   a s s s s s S S F S S F OX6X9   n c ( } ' { V.M.M.M.b.B.b.C.D.V.' ) ` m U x ^ 3.,.<.",
"=.V.C.N.M.M.#X2X1X%X| } ,.1.q # s s s s S Z C F `.X.F A % 0 W &.2.R c n *   a s s s s s C C S F D F :.`.5 , n E ` V.V.<.N.M.N.M.B.m.M.M.=.<.A b b b Y c ^ Z.Z.Z.",
"<.V.3.M.<.M.U.1X1X%XZ.| A.G.W % s s s s s s s s A V D D d w   N 3.R c x N X a s s s s s s s S D D D D V C s . O ` <.V.3.M.n.B.M.M.M.B.C.V.V.m z c c b x ^ V.V.| ",
",.,.} V.V.V.I.U.|.K.N.M.A.<.W o > > > > > > > 4 6 6 6 4 4 :   N [ ` R R n   , 4 > > > > > > 6 6 6 6 6 6 4 ,   O *.2.N.N.N.=.M.n.M.M.n.*.' -.R ` ` R R R ' M.M.b.",
"n C L ,.V.<.=.=.B.B.N.=.3.R L                                 n m | V.2.t                                     * 2.3.=.N.N.M.N.n.C.N.' v v R ,.3.3.3.V.V.V.M.M.C.",
"z L L 2.A.A.N.m.M.n.m.M.V.U z & 3 q q q q q q 3 q q e q q q & n c ,.F.2.N y y t t t y 9 * * * & 3 * * * * 9 q t 3.2.=.N.M.n.B.n.<.S.{ x U U 3.3.3.3.Z.V.M.b.M.M.",
"C z z &.2.<.=.n.b.b.| n.V.Y c z _ =.*.N.| n.b.n.=.*.=.*.2.,.x c c [ <.-.J.*X-X:X:X:X:X` z P z T z L A w c [ 1.2.2.3.2.n.| n.n.=.=.N.) k m l 2.1.3.<.} } | b.M.| "
};
