/* XPM */
static char *_7db381b4d6c4600f7da177825a67cadjG0SDSABil5T4ifs[] = {
/* columns rows colors chars-per-pixel */
"80 80 253 2 ",
"   c #030401",
".  c #070904",
"X  c #0B0C05",
"o  c #0D0E09",
"O  c #130E04",
"+  c #1B0D01",
"@  c #0E1107",
"#  c #0E110A",
"$  c #141205",
"%  c #1B1405",
"&  c #13130A",
"*  c #19160A",
"=  c #191908",
"-  c #1C1A0D",
";  c #1B1D11",
":  c #231403",
">  c #2B1206",
",  c #291904",
"<  c #221D0C",
"1  c #351401",
"2  c #331A02",
"3  c #3C1D01",
"4  c #1D250E",
"5  c #1C2214",
"6  c #29230A",
"7  c #382607",
"8  c #342C0C",
"9  c #3B3209",
"0  c #38310B",
"q  c #242313",
"w  c #292413",
"e  c #272B19",
"r  c #342D12",
"t  c #362B15",
"y  c #2A351A",
"u  c #3A3211",
"i  c #37351B",
"p  c #2E3722",
"a  c #373B24",
"s  c #393A32",
"d  c #500A01",
"f  c #441B01",
"g  c #690300",
"h  c #750100",
"j  c #6B1403",
"k  c #432302",
"l  c #492906",
"z  c #562C05",
"x  c #4B330B",
"c  c #58330B",
"v  c #432F10",
"b  c #453918",
"n  c #5C3C14",
"m  c #5C3D18",
"M  c #6E2E04",
"N  c #643D12",
"B  c #453D22",
"V  c #2E4811",
"C  c #334614",
"Z  c #344C15",
"A  c #3A461A",
"S  c #364C19",
"D  c #3B4D1C",
"F  c #385219",
"G  c #3B521D",
"H  c #394527",
"J  c #3E4C20",
"K  c #3E5421",
"L  c #3F5921",
"P  c #3C4631",
"I  c #44471E",
"U  c #55441C",
"Y  c #43511E",
"T  c #714C0C",
"R  c #694417",
"E  c #764A18",
"W  c #7C511B",
"Q  c #434D22",
"!  c #494826",
"~  c #534C24",
"^  c #564B29",
"/  c #435424",
"(  c #435A25",
")  c #43542A",
"_  c #4A532A",
"`  c #465828",
"'  c #4A5D2B",
"]  c #5A542A",
"[  c #444934",
"{  c #574C37",
"}  c #4A5B33",
"|  c #595934",
" . c #644C28",
".. c #65562B",
"X. c #795825",
"o. c #73532A",
"O. c #665C32",
"+. c #6C5C33",
"@. c #48632A",
"#. c #4C632D",
"$. c #50672F",
"%. c #4D6432",
"&. c #4E6736",
"*. c #536533",
"=. c #536B35",
"-. c #56643A",
";. c #556C39",
":. c #5A6D3C",
">. c #56723A",
",. c #5B733D",
"<. c #537839",
"1. c #5C7B3E",
"2. c #6B6334",
"3. c #66673A",
"4. c #766837",
"5. c #746B3A",
"6. c #61763F",
"7. c #7A713E",
"8. c #5C6945",
"9. c #5E7541",
"0. c #5E7C42",
"q. c #5C7E45",
"w. c #6E6E4A",
"e. c #627543",
"r. c #627D45",
"t. c #657D49",
"y. c #697848",
"u. c #6A7D4B",
"i. c #7C7442",
"p. c #65645A",
"a. c #911400",
"s. c #913302",
"d. c #A82E00",
"f. c #A83C00",
"g. c #8A550A",
"h. c #83541D",
"j. c #8D5919",
"k. c #AD4000",
"l. c #B54200",
"z. c #966510",
"x. c #AE741B",
"c. c #895A24",
"v. c #89692F",
"b. c #976629",
"n. c #8A6938",
"m. c #966D35",
"M. c #9C7439",
"N. c #A57132",
"B. c #A97839",
"V. c #C34700",
"C. c #857B45",
"Z. c #90784A",
"A. c #9F7C4C",
"S. c #5D813E",
"D. c #5E8143",
"F. c #5F864A",
"G. c #638245",
"H. c #668546",
"J. c #65834A",
"K. c #6A834C",
"L. c #66894B",
"P. c #6A894D",
"I. c #70854F",
"U. c #658650",
"Y. c #6D8551",
"T. c #6D8951",
"R. c #728553",
"E. c #728A55",
"W. c #79865A",
"Q. c #758C59",
"!. c #7A8E5C",
"~. c #76925A",
"^. c #78965A",
"/. c #7B945D",
"(. c #7B8968",
"). c #769561",
"_. c #7D9661",
"`. c #7E9A62",
"'. c #A78C27",
"]. c #B79729",
"[. c #B4813F",
"{. c #CCB237",
"}. c #E8A12C",
"|. c #F6C83A",
" X c #8B834D",
".X c #898856",
"XX c #958C54",
"oX c #9A9257",
"OX c #9B945A",
"+X c #A78348",
"@X c #B78846",
"#X c #A4975C",
"$X c #BC9854",
"%X c #8F8D6C",
"&X c #819364",
"*X c #829B65",
"=X c #859D6B",
"-X c #899D6B",
";X c #A49D63",
":X c #86A36A",
">X c #8BA36E",
",X c #91A56F",
"<X c #8EA572",
"1X c #8EAA72",
"2X c #92A574",
"3X c #92AB75",
"4X c #99A976",
"5X c #95A679",
"6X c #9BA47B",
"7X c #95AC7A",
"8X c #9AAC7C",
"9X c #94B277",
"0X c #96B27B",
"qX c #9AB27C",
"wX c #ABA367",
"eX c #B4AC6C",
"rX c #ACAF77",
"tX c #BBB372",
"yX c #BFB77B",
"uX c #C08D47",
"iX c #C5944E",
"pX c #C59753",
"aX c #CD9C55",
"sX c #D19D54",
"dX c #CAA35A",
"fX c #D4A45B",
"gX c #D8A65C",
"hX c #E1AD5F",
"jX c #D3B46B",
"kX c #E2B466",
"lX c #E5B667",
"zX c #F2D343",
"xX c #E9C675",
"cX c #F0D07D",
"vX c #94988C",
"bX c #A79B81",
"nX c #9CAC80",
"mX c #96B381",
"MX c #9CB381",
"NX c #ACAB8F",
"BX c #A2B584",
"VX c #ADADA5",
"CX c #C4BE8D",
"ZX c #BCC2AB",
"AX c #D5CE98",
"SX c #F1DA85",
"DX c #F9E990",
"FX c #D4D0B5",
"GX c #ECE9B7",
"HX c #DEDBCC",
"JX c #EBEAD1",
"KX c #F8F8E6",
"LX c #FFFFF9",
/* pixels */
"<.D.D.D.S.G.G.1.1.0.,.H.6.H.1.6.S.S.S.1.1.6.y._ u I J A A ' r.t.9.<X<X>X<X3X5X-Xy.w.P @  XeXa   & .     o . o o H r.0.0.r.1.J.L S J } u.0.0.6.1.G.6.6.I.:.i / I ",
"D.D.D.D.G.G.J.G.H.K.P.P.G.H.G.H.S.H.L.H.I.I.R._ _ _ ) / D } u.u.8.=X7X7XmX5X8X2Xu.u.[ & w.XXt   X s p.[ w t w & H J.J.r.T.r.T.@.S J #.U.t.J.J.J.G.G.r.I.9.Q _ ! ",
"D.F.F.F.G.r.J.H.K.K.J.6.6.J.G.G.H.S.H.H.r.y.y.' Q A Q ) D ' t.t.).=XmX0X4X3X7X2Xu.u.) & ^ +.w   . Z.KXbX..4.^ * H r.G.q.J.>.G.%.F K @.K.K.P.K.J.I.H.I.u.-./ J A ",
"F.D.F.F.J.r.r.J.r.6.#.@.#.r.J.G.6.S.H.6.$.' *.~ ! Q -.y.:.r.>X:X=XW.R.(.E.W.~.Y.@.` a @ ! O.q   . p.ZXZ.U ] b & P *X:X:XT.J.T.0.,.:.,.K.t.r.@.( ( ( ' @.*.e.y.t.",
"r.q.r.J.K.K.K.y.K.e.S S F G.t.G.G.G.H.,.Y D / D D A -.I.r.R.3X9X8XR.e.y.r.t.u.9.K C e # ^ +.q   o s O.b 7 7 6 & P 7X0X3X0.r.t.q.K.G.K.K.t.q.K S ( F K S @.J.J.t.",
"t.K.u.u.K.K.K.u.Y.r.G K Z r.t.P.P.6.H.6.( / D Q Y / -.K.J.R.9XqXMXW.Y.R.u.u.K.u.` D y . ^ +.*     o - - = = * & [ 0XMX7Xq.Y.J.K.G.1.H.t.t.J.} K K G J Z %.U.J.J.",
"t.R.u.:.=.:.6.;.;.:.=.=.=.r.t.K.K.r.y.r./ / / %.*.*.:.t.r.H.*X/.=Xe.:.:.:.:.:.,.%.K a q B { ! a t w < & $ O # 5 -._._._.u.J.u.J.G.G.J.r.t.u.K K / -.=.&.>.J.D.D.",
"y.u.e.' A D Y D D ' u.u.Q.u.K.t.y.r.P.r.D F ` e.Y.R.u.K.J.r.G.r.u./ D D G G S K -.q a O.w q wXSXpXM.W c 2 $ p &X_.0.r.r.L.r.J.q.S.G.P.r.t.Y.) ) J 9.U.u.J.L.F.D.",
"y.R.y.( G D / / D ' u.t.u.t.t.t.y.r.E.,.Y Z K 9.u.u.t.H.r.H.H.r.u._ D / Y G G G &.o t ..U ..dXkX+Xc.E l , & H MX`.r.u.Y.q.J.Y.q.H.S.H.H.H.r.K J J 9.u.K.J.D.D.D.",
"y.u.y.' / D K ( G @.t.t.Y.R.Y.Y.I.,.u.6.' / ( ,.t.H.J.K.J.H.P.t.R.' / G G ( @.@.;.; = 9 A.aXm.R k 3 3 : o # s <X=Xr.J.Y.r.J.Y.G.S.H.H.G.u.,.%./ ) 9.u.t.J.L.L.L.",
"A Y / D / ( ;.u.K.u.J.q.K.=X2X8Xy.F F ( u.P.K.K.J.J.J.H.J.J.J.t.u.` K / =.| b ~ I X . % U N.dX$Xm.h.N k : $ H <X=Xr.r.P.r.J.J.D.P.H.<.Z G K 0.K.q.E.K.t.J.D.r.0.",
"Y Y / D / F =.Y.t.K.K.u.R.1X8XMXH.F Y @.t.,.r.r.J.J.J.r.t.H.t.K.R./ S C $.] c k 2 - ; & + x jXDXgXB.h.c 2 $ a >X=Xq.G.K.G.G.D.G.1.G.<.F @.L t.K.J.Y.t.J.J.J.P.K.",
"S Z G D K K &.U.J.J.J.r.J.*X3XqXy.F F ( T.K.P.q.r.D.J.r.K.T.0.K.u.' 8 < 8 '.{.9 w  XC.{ < , v.M.R c l 2 $ & s 7X/.G.G.L.J.G.F.G.G.K.=.V F F 6.H.r.J.r.J.u.r.u.t.",
"6.6.6.,.0.>.1.J.0.K.1X>X>X_.Q.E.H.>.6.6.G.>.G.G.G.G.P.r.K.r.@.%.` ~ T T T {.zXb e ;X#X+.q * W c.n z l , & O y K.E.0.G.G.J.F.H.L.K.R.J.>.S.1.H.S.P.J.t.K.6.#.| ' ",
"r.J.K.r.Y.J.J.t.J.T.9X,X3XK.y.r.I.H.t.H.J.J.P.q.J.G.P.r.J.e.F F 6 U {.zXzX|.}.9 ; w.o.9 $ q A.gXaXB.c.c 2 $ y ,.L.D.L.S.D.D.S.G.r.t.K.r.P.H.S.H.H.6.H.K.=.Y / Q ",
"t.J.J.0.U.J.J.0.r.J.qX3XqXK.K.H.6.H.G.G.1.J.P.D.D.G.J.0.J.r.C 9 E ].zX|.'.x.j., ; O.] 7 X * m.@XA.c.R l , & e r.H.J.P.L.H.L.D.G.J.J.J.G.G.P.S.H.G.H.K.I.;.D Q Y ",
"r.J.q.J.J.G.E.!.!.&X4X,XqXP.q.G.G.H.H.L.S.H.L.G.J.r.E._.E.Q.i x {.zX}.j.3 3 f + q O. .0 O < E E k f k : o & y u.9.&.0.>.J.G.L.J.D.G.J.J.J.D.J.r.K.,.=.=.;.*.#.;.",
"D.G.q.G.D.r.`.4X4X4XrX,X8XR.G.P.S.S.S.H.S.H.G.G.r.r._.MX=X| v.].'.g.s.n.bX{ % t ! U 0 < ^ n.c.h.R z 3 % & H -.y.:.S G G r.q.D.1.G.L.F.1.q.G.Y.P.P.#.F C *.K.K.u.",
"J.K.J.J.0.0./.qX4X4XqX2X4XP.r.G.L.H.D.D.G.G.J.r.Y.u._.2Xw.z ].zXX.7 t bXLXp.. ^ +.v $ O n.fXb.W h.N 3 % 5 :.P.R.e.S S G J.P.P.J.G.G.H.H.J.K.r.9.G.$.L F %.K.Y.u.",
"9.r.K.Y.K.T.`.,X>X>X4X<X9X~.K.G.S.S.S.S.P.P.K.K.J.K.R.{ E x.z.X.bXFXFXKXLX(.. { 2.9 % .  .b.N l z 7 $ $ ; ;.e.u.=./ ( @.0.q.D.D.G.G.6.H.J.P.J.P.T.$.F C @.Y.J.e.",
"6XnXnX5X1X1X`.U.T.Y.u.r.Y.r.q.D.L.G.P.T.1X3X3X3XqX4Xu.3 j.}.g.1 FXLXHXFXZX{ o { +.9 6 7 X.b.c k z 2 $ & 5 K D G ;.6.J.r.P.G.L.J.H.H.&XqXqX1Xt.H.K.@.F Z =.T.R.Y.",
"5X5X5X<X7XmX`.q.U.J.u.r.J.J.K.J.S.S.G.K.3X9X0X3X<X<Xu.7 j.}.s.t FXJX{ w e o # { +.9 x h.@XaXb.h.c.N 3 % ; ` F K #.J.J.r.J.G.H.0.r.r.E.4X,X>Xr.y.u.@.G G *.r.t.t.",
"6X6XnX2X5XmX).q.q.t.J.J.J.J.J.G.K.J.K.K.0X4X3X>XqXBXR.v c z.Z.A.VXA.N > . t  .B B U U U c.m.b.h.R c 3 % & y y C =.P.0.G.G.G.D.G.6.H./.qX9XqXK.H.Y.*.F C %.K.u.r.",
"6X6XnX5XmXmX).U.U.J.Y.P.J.J.J.D.J.G.J.J.0X4X2X:XI.~.w.l 1 f VXJX+.f h.N f N.pXi - +.! O : k W E k f k : o # y ,.,.P.r.G.P.G.L.^.,X-X&X&XK..X#.@.#.=.,.,.Y.=X<X-X",
"6X6X6X6XmXmX).q.U.9.U.q.U.J.G.K.r.K.r.Y.3X3X2XQ.y.t.3.v R C.%XZ.v d B.pXpXdXgXA.+.B w < X , M.@XE E E l : * e u.P.K.0.t.J.P.G.:XBX4X-Xe.u.y.( Z Z 9.T.t.!.5X5X5X",
"6X6XnX6XmXmX).t.U.U.Y.u.J.J.G.q.0.J.0.R.3X8X7XR.t.u.| 2 o.eX4.f > N @XSXDXxXsXgXM.* $ 0 = 6 +X@Xc.W W c 2 * p 0.K.K.K.J.J.r.0.*X8X4X,Xr.u.r.G F S ,.u.y.!.mXMXnX",
"6X6X6X-X=X`.Q.J.U.J.;.;.>.G.J.q.T./.E.`.&X>X=Xe.8.s o . , U m.B.c c iXlXkXlXaXO.q X = 0 8 6 u t < 6 w < % ` u.J.1.r.r.t.^.~.Q.2X8X2X-Xw.I.K.=.$.#.0.u.q.!.5X5X5X",
"6X2X2XR.t.q.J.0.U.r.F Z G 0.T.J.`.9X1X>Xt.t.e.H y [ { [ w 1 M.gX .z B.aXaX@XZ.<   $ 6 0 9 0 O   O o . # 5 =.J.0.P.K.J.P.4X7X6X8X7X5X=Xq.K.I.r.J.J.K.Y.e._.nX5X6X",
"8X4X3XT.q.q.J.K.y.e.Y Y ( ,.G.>.^.1X9X1Xr.K.Y.y 5 VXJXAX4.3 m.fXR f h.@XsX+.& . $ 0 0 0 9 8 & % 3 2 # y G 0.T.J.J.G.0.u.7X0X8X5X5XnX=X9.J.J.J.H.G.J.r.e.(.8X5XnX",
":X>X<XT.J.K.t.r.u.e.` Y ( ,.T.P.`.1X>X:XJ.u.u.4 4 VXJXOXR 7 R c.c l W B.gX^   w i 9 0 0 9 8 % O : + & C G ,.J.G.q.T.Y.E.<X4X5X5X5XnX=Xr.K.J.r.J.0.K.K.u.&X6X5X6X",
"G.L.P.D.0.G.&.Y Y ' y.6.H.K.J.1.D.H.F.J.t.K.W.e - .X#Xx 1 7 f f 3 l E B.sX .# { ..x 7 0 9 7 % o & & & } ,.J.J.D.^.0X1X3X8X5X5X5X<XmX=Xt.K.J.G.G.K.*X2X-X2XBX6XnX",
"D.F.q.G.G.E.*.Z D ' I.y.H.y.G.J.D.L.G.G.K.t.u.e & I E j g g M s.j j z c.B.b % { 2.9 0 9 9 8   q Z.] . 8.t.! ! r.Q.0X1X8XnX8X5X5X3XmX`.r.J.G.J.J.1.=XMX7X8X8X6X5X",
"D.L.q.G.t.R.:.D Y ` K.y.K.P.D.H.L.D.D.J.Y.r.e.e = , d g h h s.f.a.g 1 x E t % { ..9 7 8 9 6 < ^ iXv.O P -.n m -.u.&X2X6X5XMX7XmX9X9X:X1.I.G.R.Y.u.-X6X5XMXMX2XBX",
"D.U.J.Y.P.u.-.J Y ` R.r.J.J.D.P.D.D.J.G.r.%.q < 3 g g d 1 1 d f h g + : z : * ..O.- < 9 $ = n.M.n 3 > 7 R @XB.v k B %XnX!.(.E.E.T.^.P.S.H.u.*.} _ &XBXnX-XW.R.Q.",
"<.q.r.K.y.K.=.J I ' K.y.J.H.S.H.D.D.J.F.J.} o , f g j o.+.X...R j d 1 > , O * ^ ~ & O < 6  .jXfXR n R k l m.Z.E E  .i.w.u.r.q.G.G.1.6.H.r.I.A / D &X5X2X/.K.K.e.",
"Y.Y.u.K.R.K.&.G D ' u.J.H.r.S.H.D.H.J.r.J.-.o , k > U xXDXSXxX@Xn 1 h d O o & 8 8 &   o X.jXSXSXaXaXpXE > O B iXhXpXE 1 K.t.U.G.H.S.H.P.I.u.D A i (.BXBX&Xr.K.H.",
"9.:.:.:.9.;.&.%.#.=.K.G.P.H.L.G.D.G.G.r.a H i r , m +XSXGXDXSXfXZ.h.s.f       6 6 X 6 o.@XkXxXcXcXxXgX@XE % b gXhX@XR 3 t.t.J.D.r.H.6.>.,.:.y.y.9._.=X-X/.,.J.H.",
"S S / J K K ;.K.H.r.J.G.H.J.H.G.G.G.G.,.. i 5.i * m.xXSXDXDXxXfXfXiXm.n * # - 8 6 @ ..gXgXsXiXjXDXxXaXgX@Xc R pX[.W z 3 0.J.J.J.t.P.=.V F ` 5XnX8X&X6.r.P.y.K.J.",
"D Y ` J J S &.Y.P.G.L.D.H.S.G.G.r.H.K.1.X i 5.i % Z.lXkXlXjXhXaXB.N.@XB.m.#XwX4.! ! Z.lXkXfXfXhXxXaXN.B.B.W c.N.c.z ~ 3.t.Y.G.J.r.E.,.F / K 2X2X7X!.y.K.P.r.H.G.",
"Q / _ / L K >.F.F.F.G.F.P.S.H.H.u.K.H.r.X i 4.i % v.fXdXaXaXfXaXN.b.gXlXkXSXSXXX2.2.m.@XiXiXiXiXiXm.E R E W h.E c v | y.y.u.r.J.r.K.;./ ( ( 2X4X8XQ.u.t.y.J.6.G.",
"Q ! D e.u.t.J.J.F.D.F.J.P.D.K.r./.,X1X:XO i 5.b 1 E B.sXgXgXgXaXiXaXSXDXDXxXgXZ.] b b ~ c.m.b.N.m.R - * < l z z x / I ` / ' / / ` F *.K.u.u.K.K.K.K.H.y.S.F L G ",
"I ` / y.Y.t.G.D.D.D.F.G.D.G.K.r.&XqXqX,Xy A ^ ..o.R E B.iX@XiXfXfXkXSXSXSXlXsXA.5.v 6 6 v n n n N 7 + O : 7 0 9 b _ I _ Q / ) K F Z #.H.K.t.K.t.e.u.P.H.,.F F F ",
"C D K e.U.J.J.F.J.P.J.J.0.J.J.0.&X,X9X:XJ.P & w.eX .k h.c.c.[.gXgXgXfXfXhXgXfXgX+Xb 8 9 < & o O & , f k v ! I Q / _ I _ Q Q J ) ` F $.y.H.t.H.J.K.K.G.H.=.F G G ",
",.,.;.t.Y.r.J.G.D.J.G.J.G.*X=X*X^.~.Q.E.L.%.X | OXb : z c c c.@X@XB.B.B.B.B.B.@Xv.< O 6 : : : + . O , k l =.=.6.-.! Q ! ! _ ) *.,.=.1.H.y.J.K.y.K.:.#.#.>.=.,.,.",
"U.J.G.H.J.q.J.J.H.J.r.r.u.3X0XnX_.r.0.r.J.} @ Q 2.e O 3 f k N h.h.h.W h.h.E h.h.R w # # w f l 3 & o # 2 k :.u.W.3./ ! / ) J ) 9.P.y.J.H.H.r.H.H.H.#.Z F =.Y.u.u.",
"q.q.F.D.G.G.J.J.K.t.K.r.r.<X<XmX&Xq.t.F.J.} o ! 5.e O M f.s.M l l l x z c 2 + > R VXp.  + z E N 2 O & , 7 ,.y.I.3.I Y ~ Q A J e.H.H.H.r.H.H.r.G.P.*.F D &.u.t.u.",
"F.F.P.G.J.H.J.r.r.r._.Q.(.<X5XmX_.t.T.q.F.} # i ] t f f.l.f.M f f f f d 1 e s B Z.LXZXs < 3 E h.c , # 3 z ] 6.u.:.Z Y / *.' ' e.t.H.S.H.H.H.G.r.H.#.S G %.Y.u.u.",
"q.0.P.0.G.t.H.G.u.E.qX7X7X7X5XnX).q.J.9.F.&.& & ; s.f.f.d.a.h g g h h 1 $ %XHXHXJXLXLXHXp.+ N c.h.v O M f.z I y.6.D Y ` u.Q.t.t.H.H.H.e.G.P.H.y.H.*.F F } Q.u.u.",
"D.r.S.G.9.P.r.H.y.E.qX5X5XmX5X5X/.G.H.H.G.' o & % z s.l.d.h h a.a.a.a.d o vXLXLXKXGXJXJXp.O c.B.b.v o s.V.M 9 y.6.Z G ( r.G.G.G.D.D.H.G.L.H.P.6.I.$.C Z &.t.Y.t.",
"J.J.e.P.K.K.r.y.P.Q.<X3XnX5X5XMXE.J.G.G.G.} & 6 u = , k.d.h a.l.l.l.V.j # vXLXLXJXyXtXtX! : A.iXb.v & M f.z b u.*.Y ( ( 6.G.G.D.D.L.D.D.H.r.H.1.6.>.( G &.q.t.U.",
",.r.r.:X1X>X3X7X<X7X8X4X5XR.u.U.P.H.G.G.G.>.) y 6 4 6 l M d.f.V.V.l.M :   vXLXLXKXFXAXjXH - @XaXc.z > f c U A G =.r.6.r.P.J.G.L.S.G.D.G.H.e.#.( ( ;.r.r.u.U.t.F.",
"K.K.H.3XqX1X7X<X>X7X3X7XMXT.r.u.G.G.G.G.G.r.J.H @ w w o 3 f.l.f.f.s.$   - vXKXKXKXKXFXwXa < A.sXb.R k % 5 / D / $.I.H.u.J.r.D.D.D.P.J.J.H.r.( Z F ;.K.K.G.K.J.J.",
",.t.9.>X0X7XMX3X9XqX1X3X0XY.r.G.r.r.G.P.G.G.J.H o $ @ . O 1 2 > 1 +   a OXNXAXAXAXAX;Xa X < @XkXiXN.W < 5 -.K Z ' P.r.t.r.G.G.G.0.G.1.0.G.6.G F Y =.H.J.t.J.D.G.",
"*X>X(.2X7X3X<XQ.~.~.~.Q.`.J.J.Y.H.H.G.P.G.J.P.H & ; q w ; 5 5 p p e ; ^ OXOXXXoXOX#X| X   w n.$XgX@Xj.v 4 P *.$.,.R.t.K.J.P.J.P.P.P.T.`.:X-X6.6.=.6.K.H.K.G.F.F.",
"6XmX<XmX7XmX).D.t.r.P.1.H.1.0.G.J.r.J.J.G.J.J.H % ! 2.O.] ]  XwXwXOX2.B 5 * 6 i b I u 8 6 6 * ^ pX@Xh.z 2 * a Y.K.y.J.K.r.P.q.J.r.r.^.qX9X0Xy.H.P.T.H.G.G.G.L.P.",
"<XnXnXmX7XmX_.9.J.1.P.r.S.L.H.G.J.r.H.t.q.r.F.p * | C.4.C.XX#X;X;X#XoX3.q q w : < 8 8 u ~ b . t pXuXj.N 3 $ 5 t.K.,.r.t.r.J.0.t.P.6./.qX3X3Xu.H.6.G.H.K.G.G.<.D.",
"<XvXmX<X=X<X).u.q.K.G.r.G.G.H.P.J.r.H.P.Q.^.).H * ^ 4.4. XtXXX2.2.i.eXOX3.5.3.q $ 8 8 r ..2.* a aX@Xh.c 2 $ p r.K./.P.E.Q.Q.R.^.Q././.*X1X&XK.H.J.K.G.G.L.^.^.P.",
"mXnX<Xu.9.t.r.q.J.K.J.J.P.G.6.D.J.t.y.P.3X3X7X~.8.i ! 3. XXXOXOXXXOXtXeX#Xn.2.! i q 6 0 ] 2.* ! cXdXc 2 : & e ,./.qX3XqXqXqX3XqX9X4X/.J.H.J.r.K.K.r.G.D.^.9X0XqX",
"<X7XmXQ.t.U.u.J.r.0.0.r.K.J.G.G.t.K.J.r.0X9X9X1X0XP ; ] 2.O.XXeXyXtXtXyXCXXX5.7.| & $ 0 ..2.# ! xX#X2 $ & & y r.~.qX3X9X3X3X,X1X1X9X:XG.r.K.t.r.J.r.P.0.^.9X:X>X",
"<X3X<XE.t.u.u.r.Y.G.Y.t.J.K.K.K.t.J.K.Y.3X1X1X3X:X=X-.y r u ..C.wXtXeXAXJXAXOXC.^ * * r O.2.= # ! i $ H 8.&.8.r.Q.3X,X3X2XqXqX4X1X9X/.6.1.H.H.K.J.G.F.<.~.1X3X0X",
"J.K.T.u.J.K.=.G K %.t.t.K.>X7X3X3X<X>X:XY.Y.U.U.U.Q.} o $ 6 ]  XwXtXtXAXJXFXeX X^ * * u ..3.! q   . 5 ;.J.J.K.J._.0X7X>XY.K.u.t.H.P.P.P.P.K.G.0.r.:X1X1X=XQ.Y.0.",
"t.q.r.9.J.K.=.F J } u.t.u.<X7X<X7X4X3X7Xq.t.t.t.t.U.} & = 8 7.tXtXtXtXtXyXjXeXK.! * $ u ] i.wXC.- y 9.F.G.G.t.q.E.3XqX1XP.e.y.Y.H.1.,.6.0.G.J.J.1.>X7X9X`.9.U.Y.",
"6.H.P.P.K.J.%.F K L u.u.u.2XnX7X7X7X7X<XY.t.t.U.q.t.} & 6 I 7.#X;XOXXX#XtXtXeX#X5.- O 0 ~ 7.yXwXq p P.J.G.G.r.q.`.7X7X1XY.t.u.K.J.H.P.P.J.G.0.1.r.*X1X0X>Xt.y.Y.",
"$.#.$.@.@.>.;.&.;.&.R.u.u.<X6X8X_._.).Q.U.t.t.t.Y.t.} & i 3.7.5.2.3.2. XtXtXtXjX.X; $ u ~ i.eX.X; p D.D.J.^.`.`.^._.Q.~.u.u.u.t.J.S.G.0.1.P.).:X`._.).~.Q.u.r.K.",
"A I / Q K S 9.U.J.G.Y.u.u.2XrX8X_.1.D.r.K.K.9.u.t.K.} X i 7.7.5.2.5.OXOX XwXtXw.B < r ]  XOX3.! [ &.F.D.D.>X9X0X`.q.t.q.u.r.u.u.r.J.J.G.G.J.1X0XmXE.q.9.q.Y.r.t.",
"! _ ! / K S &.q.J.r.t.q.r.%X6X4X/.D.G.J.u.P.t.E.R.u.' % t O.2.O.+.C.eXXX2.OX;Xe . 0 ] 5.wX;Xy 5 J.F.L.G.D.:X9X0X>XJ.J.K.Y.Y.U.J.D.J.D.G.G.T.1XmXmXQ.U.t.Y.Y.t.t.",
"Q Q A } %.&.9.U.0.q.~.~.!.<X8X8X&Xr.P.J.,.9.e.r.e.:.#.` y w ; q ] C. Xi.5.C.7.q - ..4.7. Xi.q ; 1.D.G.G.G.^.:X:X^.r.r.t.9.9.9.G.J.L.G.G.G.U.`.`.<XQ.q.t.0.,.e.P.",
"/ / _ t.t.u.t.U.K.~.3X4XnXnX5X8X*Xr.K.,.K D D F D K :.Q.%.X X * H ] ~ ~ ^ | ! - ; ^ ] ] ^ ! y H q.G.J.J.F.J.G.L.K.K.K.t.K J K &.J.G.G.J.F.J.U.U.t.t.t.Y.9.D S V ",
"S G G r.Y.K.t.t.r.T.3X,X5X2X2XnX~.e.u.6./ / Y / / F #.u.) & 6 8 < & * & & & * & & = * = - - %.K.r.r.r.J.P.J.t.t.r.K.K.r.K D G r.G.S.G.G.r.G.t.q.U.u.t.R.;.G / ' ",
"G G ( ,.r.t.K.J.y.E.qX3XMX<X5XMX*Xu.I.e./ D D ` / / =.L.} # 6 u < % * w i - . X & 4 e y y H 1.K.P.H.r.J.Y.r.t.r.K.K.y.,.@.( / =.L.S.H.G.F.J.u.U.Y.t.u.u.;.K D D ",
"q.r.G.J.P.y.K.H.r.I.7X1XmXE.t.R.-.I Y ` Y / ` :.r.e.G.K.) & 6 r 9 u 8 ~ 5.a X O e ,.1.P.T.K.^.1X3X-XR.y.H.#.( ( ( G ( ' 9.t.r.P.L.S.L.S.q.J.G.J.r.%.` / %.t.Y.R.",
"D.G.G.S.K.6.H.r.r.Q.7X1XnXR.t.Y.3.Y Y Y Y D / 6.u.H.9.H e 6 r u 8 8 8 U 2.! 6 y 8.K.J.K.q.0./.8X4X-XR.y.u.@.Y G ( S G ( H.K.r.r.F.S.L.G.q.Y.q.u.Y.%.S D ' R.u.t.",
"G.D.G.0.P.e.P.G.6.I.9X3XBXT.T.u.-.Y Q D / C Y 6.K.y.=.& 4 u u u i b 9 ] 7.] u / t.u.Y.u.y.,.&XBX8X4XR.u.u.#.Y / G G C ( r.H.r.J.L.H.S.S.J.J.J.K.E.@./ D -.K.r.u.",
"q.G.J.G.G.,.^.&X*X*X&X^.&XK.u.Y.-.Q ` / 6.:.:.r.K.H.;.; < u 8 u ] 2.O. XwX4.8 ' u.K.u._.:X,XE.:.y.y.| *.;./ A G #.,.=.,.K.r.r.H.S.D.G.P.T.K.=.%.*./ / S @.u.r.y.",
"0.K.P.J.J.r.*X0X9X,X6.6.r.y.u.R.=.I Y / I.I.K.r.J.r.-.; < r u u ~ 2.4.XXwX7.I ' 9.u.u.2X,XBXy.A D I D Y ` Q / Q #.K.K.J.J.J.J.G.G.F.D.F.r.r.Q D G G ( D #.Y.P.J.",
"r.u.J.t.r.0.*X9X9X,XH.H.K.Q.K.K.-.S D Y I.r.J.J.H.J.;.- < u u 8 r b 2.7.5.5.2.b b 9.t.5XMXCXW.A ) Q Q / D D J D #.H.K.r.G.F.J.G.H.r.P.P.J.K.G D D S G S @.K.P.6.",
"e.e.9.u.K.K.^.:X*X^.J.J.T.r.,.:.;.@.%.&.K.0.J.J.G.G.;.& < 0 u u 8 u ~ ~ U 2.7.O.^ | y.!.W.&Xw.Q ! Q ) ! D ' -.' 6.u.G.J.G.r.J.D.G.G.q.,.;.9.' *.*.' ' #.=.H.G.G.",
"D I Q 9.t.r.q.F.L.L.G.q.P.` Y D ;.t.K.0.J.G.P.G.q.q.9.; - u u u 8 u u 8 8 ~ 4.w...i O.:.H Q _ Q Q J ) Q Q e.u.u.u.K.r.J.J.G.J.D.U.J.&.F F ' e.u.u.u.u.K.r.H.G.P.",
"I Q Q y.T.Y.J.G.L.D.G.r.K./ D D &.Y.K.J.D.G.L.0.J.J.J.-.H - - - - - * * = w t i e 5 { 8.! _ ! Q _ Q _ J ) 8.u.u.K.t.0.G.J.D.P.D.r.Y.;.K ( ` u.K.u.K.K.H.H.S.S.G.",
"A I A 9.r.r.q.q.S.S.1.D.K.` D Z %.F.9.J.q.1.1.D.0.1.r.,.} $ @ X X @ X @ @ X X X X # [ -.Q A i ) ! H Q i Q :.y.u.t.t.r.G.D.<.F.1.0.J.&.V G C t.e.y.r.e.,.6.G.G.1."
};
